<svg width="21" height="22" viewBox="0 0 21 22" fill="none" xmlns="http://www.w3.org/2000/svg">
<g clip-path="url(#clip0_1419_10075)">
<path d="M10.5 21.0469C16.299 21.0469 21 16.3459 21 10.5469C21 4.74788 16.299 0.046875 10.5 0.046875C4.70101 0.046875 0 4.74788 0 10.5469C0 16.3459 4.70101 21.0469 10.5 21.0469Z" fill="#0D1E30"/>
<g filter="url(#filter0_d_1419_10075)">
<path d="M10.3192 4.02348C10.6336 3.86138 11.0175 4.2361 10.8508 4.5452C10.753 4.7972 10.3849 4.86413 10.1972 4.67185C9.99833 4.4881 10.0633 4.12323 10.3192 4.02282V4.02348ZM6.93627 4.38179C7.12724 4.30435 7.3694 4.47629 7.34971 4.6817C7.3694 4.90351 7.09377 5.06757 6.89886 4.96191C6.64096 4.86348 6.67049 4.45135 6.93627 4.38179ZM13.865 4.96782C13.5664 4.93238 13.5191 4.47038 13.8059 4.3772C14.029 4.27088 14.2338 4.47104 14.2666 4.67907C14.2193 4.85626 14.0684 5.01901 13.865 4.96782ZM7.70605 5.79798C8.02565 5.59913 8.48108 5.8951 8.43186 6.26063C8.41546 6.62879 7.91802 6.84273 7.63715 6.59335C7.36546 6.39779 7.4068 5.94891 7.70605 5.79798ZM12.582 6.00929C12.7244 5.64835 13.3019 5.63654 13.464 5.98829C13.6248 6.26195 13.4272 6.60123 13.1418 6.69441C12.7631 6.76398 12.4041 6.36104 12.582 6.00929ZM9.91171 6.67407C9.90843 6.36301 10.1959 6.13201 10.4958 6.11035C10.6953 6.14973 10.9118 6.23307 10.9971 6.4306C11.1566 6.7036 11.0149 7.07832 10.7281 7.20366C10.5968 7.27585 10.4406 7.24895 10.2976 7.24041C10.0791 7.13541 9.89465 6.92738 9.91171 6.67407ZM4.8809 7.12688C5.17293 6.94969 5.56668 7.27126 5.45577 7.58363C5.3954 7.85335 5.02658 7.96294 4.81593 7.79101C4.59083 7.62957 4.62627 7.24173 4.88155 7.12623L4.8809 7.12688ZM15.6841 7.12557C15.9315 6.93657 16.3403 7.15379 16.3101 7.46091C16.3272 7.74113 15.9735 7.9531 15.7281 7.80873C15.4577 7.68863 15.4295 7.27913 15.6841 7.12623V7.12557ZM11.3266 7.68404C11.7348 7.53966 12.2204 7.71226 12.4527 8.07123C12.7598 8.50894 12.5971 9.17569 12.12 9.42704C11.6265 9.72432 10.9053 9.47298 10.7222 8.9296C10.5155 8.44398 10.8173 7.83629 11.3259 7.68404H11.3266ZM8.9293 7.73195C9.38211 7.52195 9.99177 7.69782 10.2103 8.15326C10.4676 8.59688 10.2687 9.21441 9.80868 9.44345C9.34799 9.70135 8.69765 9.50579 8.47518 9.03001C8.22515 8.56932 8.44696 7.94391 8.9293 7.73195ZM6.5294 8.53848C6.56418 8.2517 6.83915 8.06466 7.11674 8.04498C7.26151 8.06026 7.39681 8.12422 7.50052 8.22638C7.60423 8.32854 7.67021 8.46286 7.68768 8.60738C7.66799 8.9027 7.43633 9.19013 7.11871 9.18882C6.76893 9.21835 6.46246 8.87579 6.5294 8.53848ZM13.6182 8.10798C13.9772 7.90257 14.4753 8.20116 14.4595 8.60673C14.4838 9.03657 13.9326 9.3391 13.5756 9.0871C13.2041 8.8771 13.233 8.28648 13.6182 8.10798ZM7.95477 9.62194C8.37346 9.50841 8.85383 9.70266 9.05924 10.082C9.28433 10.4639 9.19246 10.9942 8.84268 11.275C8.39315 11.6859 7.56561 11.5205 7.32674 10.96C7.05177 10.4462 7.3858 9.75713 7.95411 9.62129L7.95477 9.62194ZM12.5006 9.61998C12.9081 9.50513 13.3872 9.65935 13.6064 10.0249C13.8965 10.4429 13.758 11.067 13.3268 11.3361C12.874 11.6491 12.1745 11.485 11.9251 10.9955C11.6232 10.4895 11.9271 9.7742 12.5006 9.61998ZM5.25561 10.0964C5.61786 9.96188 6.01949 10.355 5.87249 10.7087C5.78324 11.0303 5.3219 11.1497 5.08368 10.9121C4.80477 10.689 4.9078 10.1935 5.25561 10.0964ZM15.079 10.6096C15.0722 10.4651 15.1227 10.3238 15.2196 10.2164C15.3164 10.109 15.4518 10.0442 15.5961 10.036C15.8442 10.0754 16.0857 10.2723 16.066 10.5381C16.089 10.8892 15.6591 11.1274 15.3546 10.9627C15.2122 10.8911 15.1394 10.7474 15.079 10.6096ZM3.4739 10.271C3.69177 10.1771 3.96149 10.3629 3.91161 10.6011C3.8998 10.8708 3.4949 10.9751 3.34658 10.7494C3.21533 10.5925 3.29408 10.3517 3.4739 10.2703V10.271ZM17.2217 10.2651C17.3752 10.1581 17.622 10.2349 17.6824 10.4114C17.7854 10.6044 17.5964 10.8682 17.3759 10.836C17.0661 10.8636 16.9664 10.3996 17.2217 10.2651ZM9.13865 11.5599C9.71221 11.4135 10.3291 11.884 10.333 12.4655C10.3698 13.0528 9.76208 13.5732 9.1754 13.438C8.72127 13.3659 8.36493 12.9354 8.38002 12.4845C8.37871 12.0527 8.70946 11.6511 9.13865 11.5599ZM11.4106 11.5592C11.9927 11.3991 12.6279 11.8781 12.6187 12.4727C12.6496 13.0489 12.0609 13.5522 11.4861 13.4374C10.9446 13.3691 10.5456 12.7844 10.6966 12.2673C10.7727 11.9234 11.0654 11.6439 11.4106 11.5585V11.5592ZM7.02946 11.9169C7.4324 11.8493 7.8104 12.2909 7.64699 12.6676C7.52755 13.0692 6.9343 13.1775 6.6718 12.85C6.36468 12.535 6.59436 11.9602 7.02946 11.9169ZM13.693 11.9346C14.0526 11.7863 14.4936 12.0921 14.4661 12.476C14.4805 12.8979 13.9358 13.1893 13.5847 12.9426C13.1864 12.7214 13.2592 12.0698 13.693 11.9346ZM15.5555 13.7721C15.415 13.5142 15.6703 13.1723 15.9623 13.2202C16.1067 13.2175 16.2084 13.3298 16.301 13.4243C16.32 13.5772 16.3521 13.7596 16.2229 13.8771C16.0476 14.0956 15.6506 14.0333 15.5555 13.7721ZM4.87958 13.2917C5.15193 13.1139 5.54371 13.3796 5.48202 13.692C5.44921 13.9696 5.09483 14.1278 4.86186 13.9703C4.61118 13.8279 4.62036 13.4216 4.87958 13.2917ZM10.2562 13.8712C10.6126 13.7169 11.0667 14.0221 11.0326 14.408C11.0588 14.8345 10.4977 15.1299 10.1493 14.8739C9.76208 14.6541 9.82705 14.007 10.2562 13.8712ZM7.76643 14.4428C8.06961 14.2859 8.47649 14.5569 8.44893 14.8916C8.45811 15.1659 8.18643 15.3996 7.9108 15.3589C7.68308 15.3543 7.53477 15.1528 7.46127 14.9619C7.46521 14.7538 7.55249 14.5222 7.76643 14.4434V14.4428ZM12.8104 14.448C13.1227 14.2577 13.5664 14.5307 13.5368 14.8877C13.5447 15.2618 13.0433 15.5006 12.7526 15.2552C12.4717 15.0629 12.5059 14.6009 12.8104 14.448ZM13.6878 16.5808C13.5486 16.3748 13.7121 16.126 13.9371 16.0788C14.1189 16.1149 14.3112 16.2494 14.2725 16.4555C14.2462 16.7357 13.8302 16.821 13.6878 16.5815V16.5808ZM6.7243 16.4017C6.77943 16.2376 6.9133 16.0755 7.10952 16.1182C7.39499 16.1379 7.47965 16.5618 7.22961 16.6924C7.00518 16.8414 6.74399 16.6373 6.7243 16.4017ZM10.0843 16.59C10.1388 16.3472 10.4571 16.2297 10.6671 16.3584C10.8062 16.4174 10.8469 16.5697 10.8823 16.6996C10.8636 16.7671 10.8461 16.8349 10.8298 16.903C10.7438 17.0028 10.6329 17.1032 10.4899 17.0999C10.2241 17.1308 9.9839 16.8348 10.0836 16.59H10.0843Z" fill="#04141D"/>
</g>
<path d="M10.3192 4.02348C10.6336 3.86138 11.0175 4.2361 10.8508 4.5452C10.753 4.7972 10.3849 4.86413 10.1972 4.67185C9.99833 4.4881 10.0633 4.12323 10.3192 4.02282V4.02348ZM6.93627 4.38179C7.12724 4.30435 7.3694 4.47629 7.34971 4.6817C7.3694 4.90351 7.09377 5.06757 6.89886 4.96191C6.64096 4.86348 6.67049 4.45135 6.93627 4.38179ZM13.865 4.96782C13.5664 4.93238 13.5191 4.47038 13.8059 4.3772C14.029 4.27088 14.2338 4.47104 14.2666 4.67907C14.2193 4.85626 14.0684 5.01901 13.865 4.96782ZM7.70605 5.79798C8.02565 5.59913 8.48108 5.8951 8.43186 6.26063C8.41546 6.62879 7.91802 6.84273 7.63715 6.59335C7.36546 6.39779 7.4068 5.94891 7.70605 5.79798ZM12.582 6.00929C12.7244 5.64835 13.3019 5.63654 13.464 5.98829C13.6248 6.26195 13.4272 6.60123 13.1418 6.69441C12.7631 6.76398 12.4041 6.36104 12.582 6.00929ZM9.91171 6.67407C9.90843 6.36301 10.1959 6.13201 10.4958 6.11035C10.6953 6.14973 10.9118 6.23307 10.9971 6.4306C11.1566 6.7036 11.0149 7.07832 10.7281 7.20366C10.5968 7.27585 10.4406 7.24895 10.2976 7.24041C10.0791 7.13541 9.89465 6.92738 9.91171 6.67407ZM4.8809 7.12688C5.17293 6.94969 5.56668 7.27126 5.45577 7.58363C5.3954 7.85335 5.02658 7.96294 4.81593 7.79101C4.59083 7.62957 4.62627 7.24173 4.88155 7.12623L4.8809 7.12688ZM15.6841 7.12557C15.9315 6.93657 16.3403 7.15379 16.3101 7.46091C16.3272 7.74113 15.9735 7.9531 15.7281 7.80873C15.4577 7.68863 15.4295 7.27913 15.6841 7.12623V7.12557ZM11.3266 7.68404C11.7348 7.53966 12.2204 7.71226 12.4527 8.07123C12.7598 8.50894 12.5971 9.17569 12.12 9.42704C11.6265 9.72432 10.9053 9.47298 10.7222 8.9296C10.5155 8.44398 10.8173 7.83629 11.3259 7.68404H11.3266ZM8.9293 7.73195C9.38211 7.52195 9.99177 7.69782 10.2103 8.15326C10.4676 8.59688 10.2687 9.21441 9.80868 9.44345C9.34799 9.70135 8.69765 9.50579 8.47518 9.03001C8.22515 8.56932 8.44696 7.94391 8.9293 7.73195ZM6.5294 8.53848C6.56418 8.2517 6.83915 8.06466 7.11674 8.04498C7.26151 8.06026 7.39681 8.12422 7.50052 8.22638C7.60423 8.32854 7.67021 8.46286 7.68768 8.60738C7.66799 8.9027 7.43633 9.19013 7.11871 9.18882C6.76893 9.21835 6.46246 8.87579 6.5294 8.53848ZM13.6182 8.10798C13.9772 7.90257 14.4753 8.20116 14.4595 8.60673C14.4838 9.03657 13.9326 9.3391 13.5756 9.0871C13.2041 8.8771 13.233 8.28648 13.6182 8.10798ZM7.95477 9.62194C8.37346 9.50841 8.85383 9.70266 9.05924 10.082C9.28433 10.4639 9.19246 10.9942 8.84268 11.275C8.39315 11.6859 7.56561 11.5205 7.32674 10.96C7.05177 10.4462 7.3858 9.75713 7.95411 9.62129L7.95477 9.62194ZM12.5006 9.61998C12.9081 9.50513 13.3872 9.65935 13.6064 10.0249C13.8965 10.4429 13.758 11.067 13.3268 11.3361C12.874 11.6491 12.1745 11.485 11.9251 10.9955C11.6232 10.4895 11.9271 9.7742 12.5006 9.61998ZM5.25561 10.0964C5.61786 9.96188 6.01949 10.355 5.87249 10.7087C5.78324 11.0303 5.3219 11.1497 5.08368 10.9121C4.80477 10.689 4.9078 10.1935 5.25561 10.0964ZM15.079 10.6096C15.0722 10.4651 15.1227 10.3238 15.2196 10.2164C15.3164 10.109 15.4518 10.0442 15.5961 10.036C15.8442 10.0754 16.0857 10.2723 16.066 10.5381C16.089 10.8892 15.6591 11.1274 15.3546 10.9627C15.2122 10.8911 15.1394 10.7474 15.079 10.6096ZM3.4739 10.271C3.69177 10.1771 3.96149 10.3629 3.91161 10.6011C3.8998 10.8708 3.4949 10.9751 3.34658 10.7494C3.21533 10.5925 3.29408 10.3517 3.4739 10.2703V10.271ZM17.2217 10.2651C17.3752 10.1581 17.622 10.2349 17.6824 10.4114C17.7854 10.6044 17.5964 10.8682 17.3759 10.836C17.0661 10.8636 16.9664 10.3996 17.2217 10.2651ZM9.13865 11.5599C9.71221 11.4135 10.3291 11.884 10.333 12.4655C10.3698 13.0528 9.76208 13.5732 9.1754 13.438C8.72127 13.3659 8.36493 12.9354 8.38002 12.4845C8.37871 12.0527 8.70946 11.6511 9.13865 11.5599ZM11.4106 11.5592C11.9927 11.3991 12.6279 11.8781 12.6187 12.4727C12.6496 13.0489 12.0609 13.5522 11.4861 13.4374C10.9446 13.3691 10.5456 12.7844 10.6966 12.2673C10.7727 11.9234 11.0654 11.6439 11.4106 11.5585V11.5592ZM7.02946 11.9169C7.4324 11.8493 7.8104 12.2909 7.64699 12.6676C7.52755 13.0692 6.9343 13.1775 6.6718 12.85C6.36468 12.535 6.59436 11.9602 7.02946 11.9169ZM13.693 11.9346C14.0526 11.7863 14.4936 12.0921 14.4661 12.476C14.4805 12.8979 13.9358 13.1893 13.5847 12.9426C13.1864 12.7214 13.2592 12.0698 13.693 11.9346ZM15.5555 13.7721C15.415 13.5142 15.6703 13.1723 15.9623 13.2202C16.1067 13.2175 16.2084 13.3298 16.301 13.4243C16.32 13.5772 16.3521 13.7596 16.2229 13.8771C16.0476 14.0956 15.6506 14.0333 15.5555 13.7721ZM4.87958 13.2917C5.15193 13.1139 5.54371 13.3796 5.48202 13.692C5.44921 13.9696 5.09483 14.1278 4.86186 13.9703C4.61118 13.8279 4.62036 13.4216 4.87958 13.2917ZM10.2562 13.8712C10.6126 13.7169 11.0667 14.0221 11.0326 14.408C11.0588 14.8345 10.4977 15.1299 10.1493 14.8739C9.76208 14.6541 9.82705 14.007 10.2562 13.8712ZM7.76643 14.4428C8.06961 14.2859 8.47649 14.5569 8.44893 14.8916C8.45811 15.1659 8.18643 15.3996 7.9108 15.3589C7.68308 15.3543 7.53477 15.1528 7.46127 14.9619C7.46521 14.7538 7.55249 14.5222 7.76643 14.4434V14.4428ZM12.8104 14.448C13.1227 14.2577 13.5664 14.5307 13.5368 14.8877C13.5447 15.2618 13.0433 15.5006 12.7526 15.2552C12.4717 15.0629 12.5059 14.6009 12.8104 14.448ZM13.6878 16.5808C13.5486 16.3748 13.7121 16.126 13.9371 16.0788C14.1189 16.1149 14.3112 16.2494 14.2725 16.4555C14.2462 16.7357 13.8302 16.821 13.6878 16.5815V16.5808ZM6.7243 16.4017C6.77943 16.2376 6.9133 16.0755 7.10952 16.1182C7.39499 16.1379 7.47965 16.5618 7.22961 16.6924C7.00518 16.8414 6.74399 16.6373 6.7243 16.4017ZM10.0843 16.59C10.1388 16.3472 10.4571 16.2297 10.6671 16.3584C10.8062 16.4174 10.8469 16.5697 10.8823 16.6996C10.8636 16.7671 10.8461 16.8349 10.8298 16.903C10.7438 17.0028 10.6329 17.1032 10.4899 17.0999C10.2241 17.1308 9.9839 16.8348 10.0836 16.59H10.0843Z" fill="white"/>
<circle cx="16" cy="16.0469" r="5" fill="#344955"/>
<path fill-rule="evenodd" clip-rule="evenodd" d="M16.406 14.8578V15.3896L16.4066 15.3902C17.3162 15.4357 18 15.6319 18 15.8662C18 16.101 17.3162 16.2967 16.4066 16.3421V18.0469H15.5961V16.3421C14.6854 16.2961 14 16.1004 14 15.8656C14 15.6308 14.6849 15.4351 15.5961 15.3896V14.8578H14.475V14.0469H17.5272V14.8578H16.406ZM16.406 16.1959V16.1971C17.2091 16.158 17.8086 16.006 17.8086 15.8241C17.8086 15.6423 17.2096 15.4903 16.406 15.4512V16.0451C16.3827 16.0475 16.2576 16.059 16.0074 16.059C15.7991 16.059 15.648 16.0492 15.5955 16.0451V15.4506C14.7909 15.4892 14.1898 15.6417 14.1898 15.8236C14.1898 16.006 14.7904 16.158 15.5955 16.1965V16.1959C15.6475 16.1988 15.7943 16.2051 16.0037 16.2051C16.2656 16.2051 16.3832 16.1977 16.406 16.1959Z" fill="white"/>
</g>
<defs>
<filter id="filter0_d_1419_10075" x="2.28125" y="3.48438" width="16.4297" height="15.1172" filterUnits="userSpaceOnUse" color-interpolation-filters="sRGB">
<feFlood flood-opacity="0" result="BackgroundImageFix"/>
<feColorMatrix in="SourceAlpha" type="matrix" values="0 0 0 0 0 0 0 0 0 0 0 0 0 0 0 0 0 0 127 0" result="hardAlpha"/>
<feOffset dy="0.5"/>
<feGaussianBlur stdDeviation="0.5"/>
<feColorMatrix type="matrix" values="0 0 0 0 0 0 0 0 0 0 0 0 0 0 0 0 0 0 0.204257 0"/>
<feBlend mode="normal" in2="BackgroundImageFix" result="effect1_dropShadow_1419_10075"/>
<feBlend mode="normal" in="SourceGraphic" in2="effect1_dropShadow_1419_10075" result="shape"/>
</filter>
<clipPath id="clip0_1419_10075">
<rect width="21" height="21" fill="white" transform="translate(0 0.046875)"/>
</clipPath>
</defs>
</svg>
