<svg width="21" height="22" viewBox="0 0 21 22" fill="none" xmlns="http://www.w3.org/2000/svg">
<path d="M10.5 21.1562C16.299 21.1562 21 16.4552 21 10.6562C21 4.85726 16.299 0.15625 10.5 0.15625C4.70101 0.15625 0 4.85726 0 10.6562C0 16.4552 4.70101 21.1562 10.5 21.1562Z" fill="#8DC351"/>
<path d="M13.9166 7.06978C13.4073 5.77566 12.1302 5.65884 10.6432 5.94759L10.1136 4.10156L8.99009 4.42378L9.50591 6.22191C9.21059 6.30591 8.91003 6.39909 8.61144 6.49097L8.093 4.68103L6.97016 5.00259L7.49844 6.84862C7.25694 6.92344 7.01937 6.99694 6.78641 7.06387L6.78444 7.05731L5.23438 7.50159L5.57891 8.70253C5.57891 8.70253 6.40447 8.44791 6.39462 8.46759C6.85006 8.337 7.07384 8.55881 7.18212 8.77472L7.78587 10.8773C7.81672 10.8688 7.85806 10.8583 7.90662 10.8511L7.78784 10.8852L8.63244 13.8318C8.65344 13.9808 8.63506 14.2334 8.31744 14.3253C8.33516 14.3338 7.49975 14.5589 7.49975 14.5589L7.66184 15.9653L9.12397 15.5452C9.39631 15.4685 9.66537 15.3963 9.92853 15.3221L10.4647 17.1892L11.5869 16.8676L11.0573 15.0203C11.3583 14.9404 11.6584 14.8572 11.9577 14.7709L12.484 16.6103L13.6081 16.2881L13.0739 14.4244C14.9318 13.774 16.1176 12.9189 15.7731 11.0972C15.4962 9.63112 14.6417 9.18619 13.4952 9.23606C14.0518 8.71763 14.2913 8.01675 13.9166 7.07044V7.06978ZM13.49 11.5126C13.8903 12.9084 11.4556 13.4347 10.6944 13.6539L9.98497 11.1799C10.7462 10.9613 13.072 10.0577 13.4893 11.5133L13.49 11.5126ZM11.9662 8.17228C12.3298 9.44212 10.2947 9.86541 9.66012 10.0472L9.017 7.80347C9.65094 7.62169 11.5862 6.84863 11.9662 8.17294V8.17228Z" fill="white"/>
<circle cx="16" cy="16.1562" r="5" fill="#344955"/>
<path fill-rule="evenodd" clip-rule="evenodd" d="M16.406 14.9672V15.499L16.4066 15.4996C17.3162 15.545 18 15.7413 18 15.9755C18 16.2104 17.3162 16.406 16.4066 16.4515V18.1562H15.5961V16.4515C14.6854 16.4055 14 16.2098 14 15.975C14 15.7401 14.6849 15.5445 15.5961 15.499V14.9672H14.475V14.1562H17.5272V14.9672H16.406ZM16.406 16.3053V16.3065C17.2091 16.2673 17.8086 16.1154 17.8086 15.9335C17.8086 15.7516 17.2096 15.5997 16.406 15.5606V16.1545C16.3827 16.1568 16.2576 16.1683 16.0074 16.1683C15.7991 16.1683 15.648 16.1586 15.5955 16.1545V15.56C14.7909 15.5986 14.1898 15.7511 14.1898 15.9329C14.1898 16.1154 14.7904 16.2673 15.5955 16.3059V16.3053C15.6475 16.3082 15.7943 16.3145 16.0037 16.3145C16.2656 16.3145 16.3832 16.307 16.406 16.3053Z" fill="white"/>
</svg>
