<svg width="21" height="22" viewBox="0 0 21 22" fill="none" xmlns="http://www.w3.org/2000/svg">
<circle cx="10.5" cy="10.7734" r="10.5" fill="#F7931A"/>
<path fill-rule="evenodd" clip-rule="evenodd" d="M14.9765 9.09766C15.1637 7.83675 14.2107 7.15891 12.9074 6.70672L13.3302 4.99866L12.298 4.73954L11.8864 6.4026C11.6151 6.33449 11.3364 6.27023 11.0594 6.20656L11.474 4.53255L10.4424 4.27344L10.0193 5.98091C9.79473 5.92939 9.57425 5.87845 9.36023 5.82485L9.3614 5.81952L7.93794 5.4615L7.66336 6.57198C7.66336 6.57198 8.42918 6.74877 8.41301 6.75973C8.83106 6.86485 8.90661 7.14351 8.89397 7.36442L8.41243 9.31028C8.44124 9.31768 8.47857 9.32834 8.51973 9.34493L8.4847 9.33612C8.46078 9.33008 8.43598 9.32381 8.41066 9.31768L7.73568 12.0435C7.68452 12.1715 7.55488 12.3634 7.26266 12.2905C7.27295 12.3056 6.51241 12.1019 6.51241 12.1019L6 13.292L7.34321 13.6293C7.49323 13.6672 7.64145 13.7061 7.78812 13.7446L7.78859 13.7448C7.88607 13.7704 7.98286 13.7958 8.07905 13.8206L7.65189 15.5482L8.68289 15.8073L9.10593 14.0981C9.38757 14.1751 9.66097 14.2461 9.9285 14.3131L9.50692 16.0143L10.5391 16.2734L10.9663 14.5491C12.7263 14.8846 14.0498 14.7493 14.6069 13.1457C15.0559 11.8546 14.5846 11.1099 13.6586 10.6242C14.3329 10.4675 14.841 10.0207 14.9765 9.09766ZM12.6181 12.429C12.3254 13.6135 10.4847 13.1238 9.64251 12.8997C9.56673 12.8796 9.49904 12.8616 9.44128 12.8471L10.0081 10.5583C10.0784 10.576 10.1643 10.5954 10.2616 10.6174L10.2617 10.6175C11.1328 10.8143 12.9179 11.2178 12.6181 12.429ZM10.4368 9.55508C11.139 9.74384 12.6706 10.1556 12.9374 9.07897C13.2099 7.97776 11.7212 7.64581 10.9942 7.48369C10.9124 7.46545 10.8403 7.44936 10.7813 7.43457L10.2675 9.51043C10.316 9.52261 10.373 9.53793 10.4368 9.55508Z" fill="white"/>
<circle cx="16" cy="16.2734" r="5" fill="#344955"/>
<path fill-rule="evenodd" clip-rule="evenodd" d="M16.406 15.0844V15.6162L16.4066 15.6167C17.3162 15.6622 18 15.8585 18 16.0927C18 16.3275 17.3162 16.5232 16.4066 16.5687V18.2734H15.5961V16.5687C14.6854 16.5226 14 16.327 14 16.0921C14 15.8573 14.6849 15.6616 15.5961 15.6162V15.0844H14.475V14.2734H17.5272V15.0844H16.406ZM16.406 16.4225V16.4237C17.2091 16.3845 17.8086 16.2326 17.8086 16.0507C17.8086 15.8688 17.2096 15.7169 16.406 15.6778V16.2717C16.3827 16.274 16.2576 16.2855 16.0074 16.2855C15.7991 16.2855 15.648 16.2757 15.5955 16.2717V15.6772C14.7909 15.7157 14.1898 15.8683 14.1898 16.0501C14.1898 16.2326 14.7904 16.3845 15.5955 16.4231V16.4225C15.6475 16.4254 15.7943 16.4317 16.0037 16.4317C16.2656 16.4317 16.3832 16.4242 16.406 16.4225Z" fill="white"/>
</svg>
