<svg width="103" height="27" viewBox="0 0 103 27" fill="none" xmlns="http://www.w3.org/2000/svg">
<g clip-path="url(#clip0_703_12826)">
<path d="M1 24.2064L2.01 22.6984L3.02 24.5418L4.03 24.313L5.04 24.2038L6.05 23.9542L7.06 21.8352L8.07 22.0562L9.08 21.2346L10.09 22.7036L11.1 23.9126L12.11 21.2243L13.12 19.7396L14.13 19.8879L15.14 21.6922L16.15 22.818L17.16 22.8336L18.17 22.5268L19.18 25.8236L20.19 26.2812L21.2 23.533L22.21 22.9948L23.22 19.6825L24.23 19.9814L25.24 23.6838L26.25 21.6611L27.26 22.1836L28.27 23.1664L29.28 19.958L30.29 16.9316L31.3 19.997L32.31 18.6268L33.32 16.8718L34.33 15.6472L35.34 15.005L36.35 15.707L37.36 16.3804L38.37 17.4308L39.38 19.1988L40.39 13.978L41.4 13.419L42.41 10.8632L43.42 8.99385L44.43 7.41045L45.44 9.61005L46.45 8.26845L47.46 8.65325L48.47 4.44905L49.48 2.47825L50.49 2.30405L51.5 5.40065L52.51 7.29085L53.52 10.806L54.53 14.2692L55.54 14.4642L56.55 15.1532L57.56 13.4502L58.57 12.405L59.58 11.4846L60.59 7.07765L61.6 0.28125L62.61 1.22765L63.62 2.20265L64.63 2.08565L65.64 4.66745L66.65 7.17905L67.66 5.39025L68.67 5.77765L69.68 8.66885L70.69 8.42185L71.7 9.45925L72.71 10.6292L73.72 11.9214L74.73 13.3306L75.74 17.5608L76.75 17.9768L77.76 16.8562L78.77 15.7148L79.78 16.4064L80.79 17.124L81.8 16.6898L82.81 17.8494L83.82 16.6404L84.83 17.5348L85.84 17.1396L86.85 17.8625L87.86 16.11L88.87 13.5412L89.88 9.55285L90.89 9.20965L91.9 10.8008L92.91 11.833L93.92 7.60025L94.93 6.36265L95.94 10.0182L96.95 12.1476L97.96 10.7072L98.97 9.44105L99.98 12.0671L100.99 9.47745L102 6.24565" stroke="white" stroke-linecap="round" stroke-linejoin="round"/>
</g>
<defs>
<clipPath id="clip0_703_12826">
<rect width="103" height="25.9792" fill="white" transform="translate(0 0.28125)"/>
</clipPath>
</defs>
</svg>
