<svg width="21" height="22" viewBox="0 0 21 22" fill="none" xmlns="http://www.w3.org/2000/svg">
<g clip-path="url(#clip0_1419_9378)">
<path d="M10.5 21.9922C16.299 21.9922 21 17.2912 21 11.4922C21 5.6932 16.299 0.992188 10.5 0.992188C4.70101 0.992188 0 5.6932 0 11.4922C0 17.2912 4.70101 21.9922 10.5 21.9922Z" fill="#008CE7"/>
<path d="M12.5261 6.24219H7.75119L7.35613 8.45178L11.6624 8.45834C13.7828 8.45834 14.4121 9.22813 14.3918 10.5058C14.3826 11.1608 14.0971 12.2685 13.9764 12.6255C13.6502 13.5837 12.9782 14.6743 10.4595 14.6711L6.27397 14.6684L5.87891 16.8807H10.6413C12.3207 16.8807 13.036 16.6844 13.7913 16.336C15.4674 15.5629 16.4655 13.9072 16.8665 11.7462C17.4611 8.53053 16.7195 6.24219 12.5254 6.24219H12.5261Z" fill="white"/>
<path d="M10.3746 11.3588C10.5302 10.7123 10.5794 10.4531 10.5794 10.4531H5.69294C4.44344 10.4531 4.26494 11.2669 4.14616 11.7591C3.99062 12.4028 3.94141 12.6653 3.94141 12.6653H8.8285C10.0773 12.6653 10.2558 11.8516 10.3746 11.3588Z" fill="white"/>
<circle cx="16" cy="16.9922" r="5" fill="#344955"/>
<path fill-rule="evenodd" clip-rule="evenodd" d="M16.406 15.8031V16.3349L16.4066 16.3355C17.3162 16.381 18 16.5772 18 16.8115C18 17.0463 17.3162 17.242 16.4066 17.2874V18.9922H15.5961V17.2874C14.6854 17.2414 14 17.0457 14 16.8109C14 16.5761 14.6849 16.3804 15.5961 16.3349V15.8031H14.475V14.9922H17.5272V15.8031H16.406ZM16.406 17.1413V17.1424C17.2091 17.1033 17.8086 16.9513 17.8086 16.7695C17.8086 16.5876 17.2096 16.4356 16.406 16.3965V16.9905C16.3827 16.9928 16.2576 17.0043 16.0074 17.0043C15.7991 17.0043 15.648 16.9945 15.5955 16.9905V16.3959C14.7909 16.4345 14.1898 16.587 14.1898 16.7689C14.1898 16.9513 14.7904 17.1033 15.5955 17.1418V17.1413C15.6475 17.1441 15.7943 17.1505 16.0037 17.1505C16.2656 17.1505 16.3832 17.143 16.406 17.1413Z" fill="white"/>
</g>
<defs>
<clipPath id="clip0_1419_9378">
<rect width="21" height="21" fill="white" transform="translate(0 0.992188)"/>
</clipPath>
</defs>
</svg>
