<svg width="21" height="22" viewBox="0 0 21 22" fill="none" xmlns="http://www.w3.org/2000/svg">
<circle cx="10.5" cy="10.7109" r="10.5" fill="#5B5ECB"/>
<path d="M10.4171 13.2298L6 10.5962L10.4171 3.21094L14.8302 10.5962L10.4171 13.2298Z" fill="white"/>
<path d="M10.5 17.6424L6 11.3594L10.5 13.9943L15 11.3594L10.5 17.6424Z" fill="white"/>
<circle cx="16" cy="16.2109" r="5" fill="#344955"/>
<path fill-rule="evenodd" clip-rule="evenodd" d="M16.406 15.0219V15.5537L16.4066 15.5542C17.3162 15.5997 18 15.796 18 16.0302C18 16.265 17.3162 16.4607 16.4066 16.5062V18.2109H15.5961V16.5062C14.6854 16.4601 14 16.2645 14 16.0296C14 15.7948 14.6849 15.5991 15.5961 15.5537V15.0219H14.475V14.2109H17.5272V15.0219H16.406ZM16.406 16.36V16.3612C17.2091 16.322 17.8086 16.1701 17.8086 15.9882C17.8086 15.8063 17.2096 15.6544 16.406 15.6153V16.2092C16.3827 16.2115 16.2576 16.223 16.0074 16.223C15.7991 16.223 15.648 16.2132 15.5955 16.2092V15.6147C14.7909 15.6532 14.1898 15.8058 14.1898 15.9876C14.1898 16.1701 14.7904 16.322 15.5955 16.3606V16.36C15.6475 16.3629 15.7943 16.3692 16.0037 16.3692C16.2656 16.3692 16.3832 16.3617 16.406 16.36Z" fill="white"/>
</svg>
