<svg width="21" height="22" viewBox="0 0 21 22" fill="none" xmlns="http://www.w3.org/2000/svg">
<g clip-path="url(#clip0_1419_10588)">
<path d="M10.5 21.1016C16.299 21.1016 21 16.4006 21 10.6016C21 4.80257 16.299 0.101562 10.5 0.101562C4.70101 0.101562 0 4.80257 0 10.6016C0 16.4006 4.70101 21.1016 10.5 21.1016Z" fill="#005EEC"/>
<path fill-rule="evenodd" clip-rule="evenodd" d="M6.84272 12.7108L5.90625 13.0743L6.35775 11.2637L7.30537 10.8831L8.67103 5.35156H12.0369L11.0401 9.41769L11.9654 9.04297L11.5192 10.8477L10.5827 11.2224L10.0262 13.5081H15.0938L14.5208 15.8516H6.07162L6.84272 12.7108Z" fill="white"/>
<circle cx="16" cy="16.1016" r="5" fill="#344955"/>
<path fill-rule="evenodd" clip-rule="evenodd" d="M16.406 14.9125V15.4443L16.4066 15.4449C17.3162 15.4903 18 15.6866 18 15.9208C18 16.1557 17.3162 16.3513 16.4066 16.3968V18.1016H15.5961V16.3968C14.6854 16.3508 14 16.1551 14 15.9203C14 15.6854 14.6849 15.4898 15.5961 15.4443V14.9125H14.475V14.1016H17.5272V14.9125H16.406ZM16.406 16.2506V16.2518C17.2091 16.2126 17.8086 16.0607 17.8086 15.8788C17.8086 15.697 17.2096 15.545 16.406 15.5059V16.0998C16.3827 16.1021 16.2576 16.1136 16.0074 16.1136C15.7991 16.1136 15.648 16.1039 15.5955 16.0998V15.5053C14.7909 15.5439 14.1898 15.6964 14.1898 15.8783C14.1898 16.0607 14.7904 16.2126 15.5955 16.2512V16.2506C15.6475 16.2535 15.7943 16.2598 16.0037 16.2598C16.2656 16.2598 16.3832 16.2524 16.406 16.2506Z" fill="white"/>
</g>
<defs>
<clipPath id="clip0_1419_10588">
<rect width="21" height="21" fill="white" transform="translate(0 0.101562)"/>
</clipPath>
</defs>
</svg>
