<svg width="21" height="21" viewBox="0 0 21 21" fill="none" xmlns="http://www.w3.org/2000/svg">
<g id="zec" clip-path="url(#clip0_890_25054)">
<g id="Group">
<path id="Vector" d="M10.5 21C16.299 21 21 16.299 21 10.5C21 4.70101 16.299 0 10.5 0C4.70101 0 0 4.70101 0 10.5C0 16.299 4.70101 21 10.5 21Z" fill="#ECB244"/>
<path id="Vector_2" d="M9.90677 13.0239H14.0392V15.2224H11.4962C11.5382 15.8511 11.5599 16.4345 11.6019 17.0625H9.46183V15.2447H6.91821C6.91821 14.5274 6.83355 13.8095 6.96086 13.1362C7.02452 12.7772 7.4058 12.4628 7.63877 12.1492C8.4448 11.1419 9.25726 10.1398 10.0761 9.14288C10.3944 8.76094 10.712 8.40197 11.0723 7.97606H7.10852V5.77762H9.46183V3.9375H11.5172V5.73234H14.0818C14.0818 6.47259 14.1665 7.19053 14.0392 7.86384C13.9755 8.22281 13.5942 8.53716 13.3403 8.85084C12.5342 9.85811 11.7218 10.8602 10.903 11.8571C10.5832 12.2564 10.251 12.6456 9.90677 13.0239Z" fill="white"/>
</g>
<g id="Group 32">
<circle id="Ellipse 2" cx="16" cy="16" r="5" fill="#344955"/>
<path id="Vector_3" fill-rule="evenodd" clip-rule="evenodd" d="M16.406 14.8109V15.3427L16.4066 15.3433C17.3162 15.3888 18 15.585 18 15.8193C18 16.0541 17.3162 16.2498 16.4066 16.2953V18H15.5961V16.2953C14.6854 16.2492 14 16.0535 14 15.8187C14 15.5839 14.6849 15.3882 15.5961 15.3427V14.8109H14.475V14H17.5272V14.8109H16.406ZM16.406 16.1491V16.1502C17.2091 16.1111 17.8086 15.9591 17.8086 15.7773C17.8086 15.5954 17.2096 15.4435 16.406 15.4043V15.9983C16.3827 16.0006 16.2576 16.0121 16.0074 16.0121C15.7991 16.0121 15.648 16.0023 15.5955 15.9983V15.4037C14.7909 15.4423 14.1898 15.5948 14.1898 15.7767C14.1898 15.9591 14.7904 16.1111 15.5955 16.1496V16.1491C15.6475 16.1519 15.7943 16.1583 16.0037 16.1583C16.2656 16.1583 16.3832 16.1508 16.406 16.1491Z" fill="white"/>
</g>
</g>
<defs>
<clipPath id="clip0_890_25054">
<rect width="21" height="21" fill="white"/>
</clipPath>
</defs>
</svg>
