<svg width="21" height="21" viewBox="0 0 21 21" fill="none" xmlns="http://www.w3.org/2000/svg">
<g id="busd" clip-path="url(#clip0_890_25262)">
<g id="Group 178">
<g id="Group">
<path id="Vector" d="M10.5 21C16.299 21 21 16.299 21 10.5C21 4.70101 16.299 0 10.5 0C4.70101 0 0 4.70101 0 10.5C0 16.299 4.70101 21 10.5 21Z" fill="#F0B90B"/>
</g>
<path id="Union" fill-rule="evenodd" clip-rule="evenodd" d="M7.13156 7.36752L6.40473 8.09719C6.71023 8.40647 7.01777 8.71393 7.3253 9.02137L7.33336 9.02943L6.51002 9.78868C6.21087 9.48952 5.91212 9.18991 5.61402 8.89008C5.471 9.0328 5.32739 9.17502 5.18376 9.31726C4.78524 9.71191 4.3864 10.1069 4 10.5128C4.03041 10.5768 4.08077 10.6269 4.13084 10.6768C4.15075 10.6967 4.17063 10.7165 4.18918 10.7371C4.42644 10.9704 4.66122 11.2061 4.89599 11.4419C5.11272 11.6595 5.32944 11.8772 5.54813 12.0929C5.60184 12.165 5.66682 12.1 5.71291 12.0539C5.71851 12.0483 5.72382 12.043 5.7288 12.0382C5.93617 11.8284 6.14488 11.6199 6.35362 11.4114L7.14838 12.2077C6.90313 12.4504 6.65686 12.692 6.40898 12.9319C6.65935 13.2159 6.92998 13.4817 7.20065 13.7476C7.40488 13.9481 7.60917 14.1488 7.80477 14.3573C7.88342 14.4446 7.97198 14.5248 8.08039 14.5724C9.10297 13.5401 10.1289 12.5112 11.1561 11.4835L11.9838 12.2393C10.9438 13.2807 9.90359 14.3218 8.86118 15.361C8.94757 15.5074 9.06988 15.6249 9.19157 15.7417C9.22559 15.7743 9.25955 15.8069 9.29267 15.8401C9.55005 16.0975 9.80712 16.3552 10.0643 16.613L10.4504 17L10.5085 16.9993C12.0666 15.448 13.6207 13.8922 15.1748 12.3366L15.1784 12.3329C15.7855 11.7252 16.3927 11.1174 17 10.5099C16.6576 10.165 16.3139 9.82127 15.9702 9.47757C15.7983 9.30569 15.6264 9.13382 15.4547 8.96178C15.4101 8.88796 15.3215 8.8766 15.2719 8.94971C14.2954 9.9245 13.3205 10.9008 12.3455 11.877C12.2271 11.9957 12.1086 12.1143 11.9901 12.233L11.1624 11.4772C11.7231 10.9162 12.2842 10.3555 12.8453 9.79485C13.4136 9.22698 13.9819 8.65909 14.5499 8.09081C14.222 7.71336 13.8638 7.36275 13.5057 7.01217C13.3081 6.81882 13.1106 6.62548 12.9182 6.42766C12.3177 7.04135 11.7099 7.64747 11.102 8.25361L10.7986 8.5563L9.99681 7.76581C10.7089 7.05351 11.4195 6.33971 12.1275 5.6234C11.5784 5.09031 11.0371 4.548 10.5028 4C9.37324 5.11651 8.25218 6.24224 7.13156 7.36752ZM6.51628 9.79494L7.33962 9.03569C7.57009 9.2661 7.80054 9.49651 8.03009 9.72769C8.68407 9.07656 9.33789 8.42495 9.99055 7.77207L10.7923 8.56255C10.4672 8.887 10.1424 9.21181 9.81911 9.53817C9.36145 9.99042 8.90755 10.4465 8.45366 10.9027C8.02173 11.3367 7.58981 11.7708 7.15467 12.2014L6.35988 11.4052C6.65469 11.1107 6.94955 10.8161 7.24079 10.5177C6.99911 10.2772 6.75756 10.0362 6.51628 9.79494Z" fill="white"/>
</g>
<g id="Group 32">
<circle id="Ellipse 2" cx="16" cy="16" r="5" fill="#344955"/>
<path id="Vector_2" fill-rule="evenodd" clip-rule="evenodd" d="M16.406 14.8109V15.3427L16.4066 15.3433C17.3162 15.3888 18 15.585 18 15.8193C18 16.0541 17.3162 16.2498 16.4066 16.2953V18H15.5961V16.2953C14.6854 16.2492 14 16.0535 14 15.8187C14 15.5839 14.6849 15.3882 15.5961 15.3427V14.8109H14.475V14H17.5272V14.8109H16.406ZM16.406 16.1491V16.1502C17.2091 16.1111 17.8086 15.9591 17.8086 15.7773C17.8086 15.5954 17.2096 15.4435 16.406 15.4043V15.9983C16.3827 16.0006 16.2576 16.0121 16.0074 16.0121C15.7991 16.0121 15.648 16.0023 15.5955 15.9983V15.4037C14.7909 15.4423 14.1898 15.5948 14.1898 15.7767C14.1898 15.9591 14.7904 16.1111 15.5955 16.1496V16.1491C15.6475 16.1519 15.7943 16.1583 16.0037 16.1583C16.2656 16.1583 16.3832 16.1508 16.406 16.1491Z" fill="white"/>
</g>
</g>
<defs>
<clipPath id="clip0_890_25262">
<rect width="21" height="21" fill="white"/>
</clipPath>
</defs>
</svg>
