<svg width="21" height="21" viewBox="0 0 21 21" fill="none" xmlns="http://www.w3.org/2000/svg">
<g id="atom" clip-path="url(#clip0_890_24699)">
<g id="Group">
<path id="Vector" d="M10.5 21C16.299 21 21 16.299 21 10.5C21 4.70101 16.299 0 10.5 0C4.70101 0 0 4.70101 0 10.5C0 16.299 4.70101 21 10.5 21Z" fill="#2E3148"/>
<g id="Group_2">
<path id="Vector_2" d="M10.5125 3.62903C9.6627 3.62903 8.97363 6.71143 8.97363 10.5131C8.97363 14.3147 9.6627 17.3972 10.5125 17.3972C11.3617 17.3972 12.0508 14.3147 12.0508 10.5131C12.0508 6.71143 11.3617 3.62903 10.5125 3.62903ZM10.6189 17.008C10.5217 17.1379 10.4239 17.0408 10.4239 17.0408C10.0328 16.5867 9.83726 15.7447 9.83726 15.7447C9.15279 13.5417 9.31554 8.81209 9.31554 8.81209C9.6371 5.05768 10.2225 4.17043 10.4213 3.97356C10.4417 3.95337 10.4685 3.94104 10.4971 3.93876C10.5257 3.93647 10.5542 3.94439 10.5775 3.96109C10.8663 4.1665 11.1091 5.02225 11.1091 5.02225C11.8244 7.67875 11.7594 10.1725 11.7594 10.1725C11.8244 12.3434 11.4011 14.7728 11.4011 14.7728C11.0749 16.6195 10.6189 17.008 10.6189 17.008Z" fill="white"/>
<path id="Vector_3" d="M16.4834 7.08749C16.0601 6.34987 13.0446 7.28633 9.74566 9.1783C6.44669 11.0703 4.11963 13.2011 4.5416 13.9387C4.96488 14.6764 7.98101 13.7399 11.28 11.8479C14.5789 9.95596 16.9067 7.82446 16.484 7.08749H16.4834ZM4.93141 13.837C4.76998 13.8173 4.80673 13.6835 4.80673 13.6835C5.00491 13.1191 5.63754 12.5298 5.63754 12.5298C7.20794 10.8399 11.3922 8.62771 11.3922 8.62771C14.8086 7.03827 15.8698 7.10521 16.1389 7.17871C16.1666 7.18633 16.1908 7.20359 16.207 7.22739C16.2233 7.2512 16.2305 7.28 16.2274 7.30865C16.1946 7.66105 15.5712 8.29762 15.5712 8.29762C13.6248 10.2408 11.4289 11.4266 11.4289 11.4266C9.57832 12.5632 7.25979 13.4039 7.25979 13.4039C5.49579 14.0391 4.93141 13.837 4.93141 13.837Z" fill="white"/>
<path id="Vector_4" d="M16.468 13.9629C16.8945 13.2279 14.5734 11.0866 11.2849 9.18019C7.9971 7.27443 4.98228 6.32681 4.55638 7.06312C4.12982 7.80009 6.45163 9.93947 9.74075 11.8459C13.0305 13.7516 16.0421 14.6992 16.468 13.9629ZM4.83922 7.34728C4.77557 7.19765 4.90878 7.16156 4.90878 7.16156C5.49744 7.05 6.32432 7.30397 6.32432 7.30397C8.57328 7.81584 12.5836 10.328 12.5836 10.328C15.6713 12.4883 16.1451 13.4406 16.216 13.7103C16.2231 13.738 16.2203 13.7673 16.2079 13.7932C16.1956 13.819 16.1745 13.8396 16.1484 13.8514C15.8268 13.999 14.9638 13.7792 14.9638 13.7792C12.306 13.0665 10.1804 11.7612 10.1804 11.7612C8.27075 10.7309 6.38207 9.14606 6.38207 9.14606C4.94685 7.93725 4.83988 7.34793 4.83988 7.34793L4.83857 7.34728H4.83922Z" fill="white"/>
<path id="Vector_5" d="M10.4963 11.3065C10.9436 11.3065 11.3061 10.9439 11.3061 10.4967C11.3061 10.0495 10.9436 9.68689 10.4963 9.68689C10.0491 9.68689 9.68652 10.0495 9.68652 10.4967C9.68652 10.9439 10.0491 11.3065 10.4963 11.3065Z" fill="white"/>
<path id="Vector_6" d="M13.8174 8.04297C14.1798 8.04297 14.4736 7.74916 14.4736 7.38672C14.4736 7.02428 14.1798 6.73047 13.8174 6.73047C13.4549 6.73047 13.1611 7.02428 13.1611 7.38672C13.1611 7.74916 13.4549 8.04297 13.8174 8.04297Z" fill="white"/>
<path id="Vector_7" d="M6.10645 9.69543C6.46888 9.69543 6.7627 9.40162 6.7627 9.03918C6.7627 8.67675 6.46888 8.38293 6.10645 8.38293C5.74401 8.38293 5.4502 8.67675 5.4502 9.03918C5.4502 9.40162 5.74401 9.69543 6.10645 9.69543Z" fill="white"/>
<path id="Vector_8" d="M9.54102 15.6555C9.90345 15.6555 10.1973 15.3617 10.1973 14.9993C10.1973 14.6368 9.90345 14.343 9.54102 14.343C9.17858 14.343 8.88477 14.6368 8.88477 14.9993C8.88477 15.3617 9.17858 15.6555 9.54102 15.6555Z" fill="white"/>
</g>
</g>
<g id="Group 32">
<circle id="Ellipse 2" cx="16" cy="16" r="5" fill="#344955"/>
<path id="Vector_9" fill-rule="evenodd" clip-rule="evenodd" d="M16.406 14.8109V15.3427L16.4066 15.3433C17.3162 15.3888 18 15.585 18 15.8193C18 16.0541 17.3162 16.2498 16.4066 16.2953V18H15.5961V16.2953C14.6854 16.2492 14 16.0535 14 15.8187C14 15.5839 14.6849 15.3882 15.5961 15.3427V14.8109H14.475V14H17.5272V14.8109H16.406ZM16.406 16.1491V16.1502C17.2091 16.1111 17.8086 15.9591 17.8086 15.7773C17.8086 15.5954 17.2096 15.4435 16.406 15.4043V15.9983C16.3827 16.0006 16.2576 16.0121 16.0074 16.0121C15.7991 16.0121 15.648 16.0023 15.5955 15.9983V15.4037C14.7909 15.4423 14.1898 15.5948 14.1898 15.7767C14.1898 15.9591 14.7904 16.1111 15.5955 16.1496V16.1491C15.6475 16.1519 15.7943 16.1583 16.0037 16.1583C16.2656 16.1583 16.3832 16.1508 16.406 16.1491Z" fill="white"/>
</g>
</g>
<defs>
<clipPath id="clip0_890_24699">
<rect width="21" height="21" fill="white"/>
</clipPath>
</defs>
</svg>
