<svg width="21" height="21" viewBox="0 0 21 21" fill="none" xmlns="http://www.w3.org/2000/svg">
<g id="xrp" clip-path="url(#clip0_890_25106)">
<g id="Group">
<path id="Vector" d="M10.5 21C16.299 21 21 16.299 21 10.5C21 4.70101 16.299 0 10.5 0C4.70101 0 0 4.70101 0 10.5C0 16.299 4.70101 21 10.5 21Z" fill="#23292F"/>
<path id="Vector_2" d="M15.1397 5.25H17.0362L13.0889 9.15928C12.3988 9.83924 11.4688 10.2204 10.5 10.2204C9.53117 10.2204 8.60123 9.83924 7.91109 9.15928L3.96047 5.25H5.86031L8.85938 8.21822C9.29611 8.64928 9.88505 8.89098 10.4987 8.89098C11.1123 8.89098 11.7013 8.64928 12.138 8.21822L15.1397 5.25ZM5.83734 16.1195H3.9375L7.91109 12.1866C8.60123 11.5066 9.53117 11.1255 10.5 11.1255C11.4688 11.1255 12.3988 11.5066 13.0889 12.1866L17.0625 16.1188H15.1627L12.1406 13.125C11.7039 12.6939 11.115 12.4522 10.5013 12.4522C9.88768 12.4522 9.29873 12.6939 8.862 13.125L5.83669 16.1195H5.83734Z" fill="white"/>
</g>
<g id="Group 32">
<circle id="Ellipse 2" cx="16" cy="16" r="5" fill="#344955"/>
<path id="Vector_3" fill-rule="evenodd" clip-rule="evenodd" d="M16.406 14.8109V15.3427L16.4066 15.3433C17.3162 15.3888 18 15.585 18 15.8193C18 16.0541 17.3162 16.2498 16.4066 16.2953V18H15.5961V16.2953C14.6854 16.2492 14 16.0535 14 15.8187C14 15.5839 14.6849 15.3882 15.5961 15.3427V14.8109H14.475V14H17.5272V14.8109H16.406ZM16.406 16.1491V16.1502C17.2091 16.1111 17.8086 15.9591 17.8086 15.7773C17.8086 15.5954 17.2096 15.4435 16.406 15.4043V15.9983C16.3827 16.0006 16.2576 16.0121 16.0074 16.0121C15.7991 16.0121 15.648 16.0023 15.5955 15.9983V15.4037C14.7909 15.4423 14.1898 15.5948 14.1898 15.7767C14.1898 15.9591 14.7904 16.1111 15.5955 16.1496V16.1491C15.6475 16.1519 15.7943 16.1583 16.0037 16.1583C16.2656 16.1583 16.3832 16.1508 16.406 16.1491Z" fill="white"/>
</g>
</g>
<defs>
<clipPath id="clip0_890_25106">
<rect width="21" height="21" fill="white"/>
</clipPath>
</defs>
</svg>
