<svg width="21" height="21" viewBox="0 0 21 21" fill="none" xmlns="http://www.w3.org/2000/svg">
<g id="etc" clip-path="url(#clip0_890_24676)">
<g id="Group">
<path id="Vector" d="M10.5 21C16.299 21 21 16.299 21 10.5C21 4.70101 16.299 0 10.5 0C4.70101 0 0 4.70101 0 10.5C0 16.299 4.70101 21 10.5 21Z" fill="#328332"/>
<g id="Group_2">
<path id="Vector_2" d="M10.4928 10.8629L6.08212 10.4843L10.4921 7.98919V10.8629H10.4928ZM10.4928 13.7898V18.3442C8.95913 15.9567 7.26863 13.3291 5.90625 11.2022C7.51406 12.1078 9.19275 13.0548 10.4928 13.7904V13.7898ZM10.4928 7.18266L5.90625 9.74203L10.4928 2.625V7.18266Z" fill="white"/>
<path id="Vector_3" d="M14.9038 10.4843L10.4932 10.8629V7.98919L14.9032 10.4843H14.9038ZM10.4932 13.7904C11.7925 13.0554 13.4706 12.1078 15.079 11.2022C13.7167 13.3298 12.0262 15.9574 10.4932 18.3435V13.7904ZM10.4932 7.18266V2.625L15.079 9.74203L10.4932 7.18266Z" fill="white" fill-opacity="0.601"/>
<path id="Vector_4" opacity="0.2" fill-rule="evenodd" clip-rule="evenodd" d="M10.4932 10.8629L14.9032 10.4843L10.4932 12.9616V10.8629Z" fill="white"/>
<path id="Vector_5" opacity="0.603" fill-rule="evenodd" clip-rule="evenodd" d="M10.4917 10.8629L6.08105 10.4843L10.4917 12.9616V10.8629Z" fill="white"/>
</g>
</g>
<g id="Group 32">
<circle id="Ellipse 2" cx="16" cy="16" r="5" fill="#344955"/>
<path id="Vector_6" fill-rule="evenodd" clip-rule="evenodd" d="M16.406 14.8109V15.3427L16.4066 15.3433C17.3162 15.3888 18 15.585 18 15.8193C18 16.0541 17.3162 16.2498 16.4066 16.2953V18H15.5961V16.2953C14.6854 16.2492 14 16.0535 14 15.8187C14 15.5839 14.6849 15.3882 15.5961 15.3427V14.8109H14.475V14H17.5272V14.8109H16.406ZM16.406 16.1491V16.1502C17.2091 16.1111 17.8086 15.9591 17.8086 15.7773C17.8086 15.5954 17.2096 15.4435 16.406 15.4043V15.9983C16.3827 16.0006 16.2576 16.0121 16.0074 16.0121C15.7991 16.0121 15.648 16.0023 15.5955 15.9983V15.4037C14.7909 15.4423 14.1898 15.5948 14.1898 15.7767C14.1898 15.9591 14.7904 16.1111 15.5955 16.1496V16.1491C15.6475 16.1519 15.7943 16.1583 16.0037 16.1583C16.2656 16.1583 16.3832 16.1508 16.406 16.1491Z" fill="white"/>
</g>
</g>
<defs>
<clipPath id="clip0_890_24676">
<rect width="21" height="21" fill="white"/>
</clipPath>
</defs>
</svg>
