<svg width="21" height="21" viewBox="0 0 21 21" fill="none" xmlns="http://www.w3.org/2000/svg">
<g clip-path="url(#clip0_890_25079)">
<path d="M10.5 21C16.299 21 21 16.299 21 10.5C21 4.70101 16.299 0 10.5 0C4.70101 0 0 4.70101 0 10.5C0 16.299 4.70101 21 10.5 21Z" fill="#F3BA2F"/>
<path fill-rule="evenodd" clip-rule="evenodd" d="M10.5 4.20026L6.62948 8.07102L8.05325 9.49479L10.5 7.048L12.9483 9.49608L14.3721 8.07241L10.5 4.20026ZM4.2002 10.5L5.62387 11.9237L7.04774 10.4999L5.62397 9.07625L4.2002 10.5ZM8.05325 11.5056L10.5 13.9524L12.9482 11.5043L14.3727 12.9272L14.3721 12.9281L10.5 16.8L6.62938 12.9293L6.62729 12.9273L8.05325 11.5056ZM13.9527 10.5006L15.3763 11.9243L16.8002 10.5006L15.3763 9.07687L13.9527 10.5006ZM9.43238 10.1223L10.5001 9.05462L11.9449 10.4994H11.9443L11.9456 10.5001L11.9449 10.5009L10.5001 11.9457L9.05661 10.5022L9.05462 10.5001L9.05661 10.4981L9.30968 10.245L9.43228 10.1223H9.43238Z" fill="white"/>
<circle cx="16" cy="16" r="5" fill="#344955"/>
<path fill-rule="evenodd" clip-rule="evenodd" d="M16.406 14.8109V15.3427L16.4066 15.3433C17.3162 15.3888 18 15.585 18 15.8193C18 16.0541 17.3162 16.2498 16.4066 16.2953V18H15.5961V16.2953C14.6854 16.2492 14 16.0535 14 15.8187C14 15.5839 14.6849 15.3882 15.5961 15.3427V14.8109H14.475V14H17.5272V14.8109H16.406ZM16.406 16.1491V16.1502C17.2091 16.1111 17.8086 15.9591 17.8086 15.7773C17.8086 15.5954 17.2096 15.4435 16.406 15.4043V15.9983C16.3827 16.0006 16.2576 16.0121 16.0074 16.0121C15.7991 16.0121 15.648 16.0023 15.5955 15.9983V15.4037C14.7909 15.4423 14.1898 15.5948 14.1898 15.7767C14.1898 15.9591 14.7904 16.1111 15.5955 16.1496V16.1491C15.6475 16.1519 15.7943 16.1583 16.0037 16.1583C16.2656 16.1583 16.3832 16.1508 16.406 16.1491Z" fill="white"/>
</g>
<defs>
<clipPath id="clip0_890_25079">
<rect width="21" height="21" fill="white"/>
</clipPath>
</defs>
</svg>
