<svg width="21" height="21" viewBox="0 0 21 21" fill="none" xmlns="http://www.w3.org/2000/svg">
<g id="Group 34">
<g id="Group 33">
<circle id="Ellipse 1" cx="10.5" cy="10.5" r="10.5" fill="#F7931A"/>
<path id="Logo" fill-rule="evenodd" clip-rule="evenodd" d="M14.9765 8.82422C15.1637 7.56331 14.2107 6.88547 12.9074 6.43328L13.3302 4.72522L12.298 4.46611L11.8864 6.12916C11.6151 6.06105 11.3364 5.99679 11.0594 5.93312L11.474 4.25911L10.4424 4L10.0193 5.70747C9.79473 5.65595 9.57425 5.60501 9.36023 5.55142L9.3614 5.54609L7.93794 5.18807L7.66336 6.29855C7.66336 6.29855 8.42918 6.47533 8.41301 6.48629C8.83106 6.59142 8.90661 6.87007 8.89397 7.09099L8.41243 9.03684C8.44124 9.04425 8.47857 9.05491 8.51973 9.07149L8.4847 9.06268C8.46078 9.05664 8.43598 9.05038 8.41066 9.04425L7.73568 11.7701C7.68452 11.898 7.55488 12.0899 7.26266 12.0171C7.27295 12.0322 6.51241 11.8284 6.51241 11.8284L6 13.0186L7.34321 13.3559C7.49323 13.3937 7.64145 13.4327 7.78812 13.4712L7.78859 13.4713C7.88607 13.4969 7.98286 13.5224 8.07905 13.5472L7.65189 15.2748L8.68289 15.5339L9.10593 13.8246C9.38757 13.9016 9.66097 13.9727 9.9285 14.0396L9.50692 15.7409L10.5391 16L10.9663 14.2756C12.7263 14.6112 14.0498 14.4758 14.6069 12.8723C15.0559 11.5812 14.5846 10.8364 13.6586 10.3508C14.3329 10.1941 14.841 9.74725 14.9765 8.82422ZM12.6181 12.1556C12.3254 13.3401 10.4847 12.8504 9.64251 12.6263C9.56673 12.6061 9.49904 12.5881 9.44128 12.5737L10.0081 10.2849C10.0784 10.3026 10.1643 10.322 10.2616 10.344L10.2617 10.344C11.1328 10.5409 12.9179 10.9444 12.6181 12.1556ZM10.4368 9.28164C11.139 9.4704 12.6706 9.88214 12.9374 8.80553C13.2099 7.70432 11.7212 7.37237 10.9942 7.21025C10.9124 7.19201 10.8403 7.17592 10.7813 7.16113L10.2675 9.23699C10.316 9.24918 10.373 9.26449 10.4368 9.28164Z" fill="white"/>
</g>
<g id="Group 32">
<circle id="Ellipse 2" cx="16" cy="16" r="5" fill="#344955"/>
<path id="Vector" fill-rule="evenodd" clip-rule="evenodd" d="M16.406 14.8109V15.3427L16.4066 15.3433C17.3162 15.3888 18 15.585 18 15.8193C18 16.0541 17.3162 16.2498 16.4066 16.2953V18H15.5961V16.2953C14.6854 16.2492 14 16.0535 14 15.8187C14 15.5839 14.6849 15.3882 15.5961 15.3427V14.8109H14.475V14H17.5272V14.8109H16.406ZM16.406 16.1491V16.1502C17.2091 16.1111 17.8086 15.9591 17.8086 15.7773C17.8086 15.5954 17.2096 15.4435 16.406 15.4043V15.9983C16.3827 16.0006 16.2576 16.0121 16.0074 16.0121C15.7991 16.0121 15.648 16.0023 15.5955 15.9983V15.4037C14.7909 15.4423 14.1898 15.5948 14.1898 15.7767C14.1898 15.9591 14.7904 16.1111 15.5955 16.1496V16.1491C15.6475 16.1519 15.7943 16.1583 16.0037 16.1583C16.2656 16.1583 16.3832 16.1508 16.406 16.1491Z" fill="white"/>
</g>
</g>
</svg>
