<svg width="21" height="21" viewBox="0 0 21 21" fill="none" xmlns="http://www.w3.org/2000/svg">
<g id="Group">
<g id="Group 180">
<path id="Vector" d="M10.5 21C16.299 21 21 16.299 21 10.5C21 4.70101 16.299 0 10.5 0C4.70101 0 0 4.70101 0 10.5C0 16.299 4.70101 21 10.5 21Z" fill="#8DC351"/>
<path id="Vector_2" d="M13.9175 6.91292C13.4083 5.6188 12.1312 5.50198 10.6442 5.79073L10.1146 3.9447L8.99107 4.26692L9.50688 6.06505C9.21157 6.14905 8.91101 6.24223 8.61241 6.33411L8.09398 4.52417L6.97113 4.84573L7.49941 6.69176C7.25791 6.76658 7.02035 6.84008 6.78738 6.90701L6.78541 6.90045L5.23535 7.34473L5.57988 8.54567C5.57988 8.54567 6.40545 8.29105 6.3956 8.31073C6.85104 8.18014 7.07482 8.40195 7.1831 8.61786L7.78685 10.7205C7.81769 10.712 7.85904 10.7015 7.9076 10.6942L7.78882 10.7284L8.63341 13.6749C8.65441 13.8239 8.63604 14.0765 8.31841 14.1684C8.33613 14.177 7.50073 14.402 7.50073 14.402L7.66282 15.8084L9.12495 15.3884C9.39729 15.3116 9.66635 15.2394 9.92951 15.1653L10.4657 17.0323L11.5879 16.7107L11.0583 14.8634C11.3593 14.7835 11.6594 14.7004 11.9586 14.614L12.4849 16.4535L13.6091 16.1313L13.0749 14.2675C14.9328 13.6172 16.1186 12.7621 15.7741 10.9403C15.4971 9.47426 14.6427 9.02933 13.4962 9.0792C14.0527 8.56076 14.2923 7.85989 13.9175 6.91358V6.91292ZM13.491 11.3557C13.8913 12.7516 11.4566 13.2779 10.6954 13.4971L9.98594 11.023C10.7472 10.8045 13.0729 9.90083 13.4903 11.3564L13.491 11.3557ZM11.9672 8.01542C12.3307 9.28526 10.2957 9.70855 9.6611 9.89033L9.01798 7.64661C9.65191 7.46483 11.5872 6.69176 11.9672 8.01608V8.01542Z" fill="white"/>
</g>
<g id="Group 34">
<g id="Group 32">
<circle id="Ellipse 2" cx="16" cy="16" r="5" fill="#344955"/>
<path id="Vector_3" fill-rule="evenodd" clip-rule="evenodd" d="M16.406 14.8109V15.3427L16.4066 15.3433C17.3162 15.3888 18 15.585 18 15.8193C18 16.0541 17.3162 16.2498 16.4066 16.2953V18H15.5961V16.2953C14.6854 16.2492 14 16.0535 14 15.8187C14 15.5839 14.6849 15.3882 15.5961 15.3427V14.8109H14.475V14H17.5272V14.8109H16.406ZM16.406 16.1491V16.1502C17.2091 16.1111 17.8086 15.9591 17.8086 15.7773C17.8086 15.5954 17.2096 15.4435 16.406 15.4043V15.9983C16.3827 16.0006 16.2576 16.0121 16.0074 16.0121C15.7991 16.0121 15.648 16.0023 15.5955 15.9983V15.4037C14.7909 15.4423 14.1898 15.5948 14.1898 15.7767C14.1898 15.9591 14.7904 16.1111 15.5955 16.1496V16.1491C15.6475 16.1519 15.7943 16.1583 16.0037 16.1583C16.2656 16.1583 16.3832 16.1508 16.406 16.1491Z" fill="white"/>
</g>
</g>
</g>
</svg>
