<svg width="21" height="21" viewBox="0 0 21 21" fill="none" xmlns="http://www.w3.org/2000/svg">
<g id="xlm" clip-path="url(#clip0_890_25179)">
<g id="Group">
<path id="Vector" d="M10.5 21C16.299 21 21 16.299 21 10.5C21 4.70101 16.299 0 10.5 0C4.70101 0 0 4.70101 0 10.5C0 16.299 4.70101 21 10.5 21Z" fill="black"/>
<path id="Vector_2" d="M15.1787 6.09786L13.6037 6.90111L5.99255 10.7776C5.88411 9.94453 6.00925 9.09773 6.35399 8.33165C6.69874 7.56557 7.24954 6.91033 7.94496 6.43903C8.64038 5.96772 9.45306 5.69889 10.2924 5.66252C11.1316 5.62615 11.9645 5.82367 12.6981 6.23305L13.5998 5.77367L13.7343 5.70476C12.8789 5.08401 11.8637 4.721 10.8087 4.65859C9.7536 4.59618 8.7027 4.83699 7.78008 5.35257C6.85745 5.86816 6.10162 6.63699 5.60185 7.56827C5.10207 8.49956 4.87923 9.55441 4.95962 10.6083C4.97466 10.8065 4.93072 11.0047 4.83333 11.178C4.73594 11.3513 4.58945 11.4919 4.4123 11.5821L3.93652 11.825V12.9563L5.33696 12.2423L5.79043 12.0107L6.23734 11.783L14.2606 7.69451L15.1623 7.2358L17.0261 6.2862V5.15548L15.1787 6.09786ZM17.0267 7.41823L6.69409 12.6787L5.7924 13.1381L3.93718 14.0851V15.2158L5.77993 14.2774L7.35559 13.4741L14.9746 9.59173C15.0847 10.4261 14.9605 11.2746 14.6157 12.0423C14.271 12.81 13.7194 13.4666 13.0227 13.9386C12.3259 14.4106 11.5116 14.6794 10.6708 14.7149C9.82998 14.7504 8.99588 14.5512 8.26187 14.1395L8.20609 14.1691L7.22827 14.6678C8.08382 15.2889 9.09927 15.6522 10.1547 15.7146C11.21 15.7771 12.2612 15.5361 13.1841 15.0203C14.1069 14.5044 14.8628 13.7352 15.3624 12.8035C15.8621 11.8717 16.0846 10.8165 16.0036 9.76236C15.9888 9.56433 16.0327 9.36632 16.13 9.19317C16.2272 9.02003 16.3735 8.87947 16.5503 8.78914L17.0267 8.54633V7.41889V7.41823Z" fill="white"/>
</g>
<g id="Group 32">
<circle id="Ellipse 2" cx="16" cy="16" r="5" fill="#344955"/>
<path id="Vector_3" fill-rule="evenodd" clip-rule="evenodd" d="M16.406 14.8109V15.3427L16.4066 15.3433C17.3162 15.3888 18 15.585 18 15.8193C18 16.0541 17.3162 16.2498 16.4066 16.2953V18H15.5961V16.2953C14.6854 16.2492 14 16.0535 14 15.8187C14 15.5839 14.6849 15.3882 15.5961 15.3427V14.8109H14.475V14H17.5272V14.8109H16.406ZM16.406 16.1491V16.1502C17.2091 16.1111 17.8086 15.9591 17.8086 15.7773C17.8086 15.5954 17.2096 15.4435 16.406 15.4043V15.9983C16.3827 16.0006 16.2576 16.0121 16.0074 16.0121C15.7991 16.0121 15.648 16.0023 15.5955 15.9983V15.4037C14.7909 15.4423 14.1898 15.5948 14.1898 15.7767C14.1898 15.9591 14.7904 16.1111 15.5955 16.1496V16.1491C15.6475 16.1519 15.7943 16.1583 16.0037 16.1583C16.2656 16.1583 16.3832 16.1508 16.406 16.1491Z" fill="white"/>
</g>
</g>
<defs>
<clipPath id="clip0_890_25179">
<rect width="21" height="21" fill="white"/>
</clipPath>
</defs>
</svg>
