<svg width="21" height="21" viewBox="0 0 21 21" fill="none" xmlns="http://www.w3.org/2000/svg">
<g clip-path="url(#clip0_890_25234)">
<path d="M10.5 21C16.299 21 21 16.299 21 10.5C21 4.70101 16.299 0 10.5 0C4.70101 0 0 4.70101 0 10.5C0 16.299 4.70101 21 10.5 21Z" fill="url(#paint0_linear_890_25234)"/>
<path d="M13.3736 5.4469C12.7964 5.44633 12.2424 5.67543 11.8336 6.08389C11.4247 6.49235 11.1943 7.04676 11.1929 7.62537V10.0399C10.9681 10.055 10.7385 10.0644 10.5004 10.0644C10.2623 10.0644 10.034 10.0743 9.80831 10.0876V7.62537C9.80028 7.05103 9.56701 6.50294 9.15896 6.09964C8.75091 5.69633 8.20086 5.47023 7.62779 5.47023C7.05471 5.47023 6.50467 5.69633 6.09662 6.09964C5.68856 6.50294 5.4553 7.05103 5.44727 7.62537V13.398C5.4553 13.9723 5.68856 14.5204 6.09662 14.9237C6.50467 15.327 7.05471 15.5532 7.62779 15.5532C8.20086 15.5532 8.75091 15.327 9.15896 14.9237C9.56701 14.5204 9.80028 13.9723 9.80831 13.398V10.9843C10.0327 10.9693 10.2623 10.9598 10.5004 10.9598C10.7385 10.9598 10.9672 10.95 11.1929 10.9367V13.3997C11.2042 13.9718 11.4389 14.5166 11.8465 14.9172C12.2542 15.3178 12.8023 15.5422 13.3732 15.5422C13.9441 15.5422 14.4922 15.3178 14.8999 14.9172C15.3075 14.5166 15.5422 13.9718 15.5535 13.3997V7.62537C15.552 7.04695 15.3217 6.49273 14.913 6.08432C14.5044 5.67591 13.9507 5.44667 13.3736 5.4469ZM7.62757 6.33932C7.7963 6.33932 7.96337 6.37263 8.11925 6.43735C8.27513 6.50207 8.41676 6.59692 8.53607 6.7165C8.65537 6.83608 8.75001 6.97804 8.81458 7.13428C8.87914 7.29052 8.91238 7.45798 8.91238 7.62709V10.1846C8.27448 10.2774 7.65156 10.4541 7.05969 10.71C6.80325 10.8225 6.56184 10.9667 6.34106 11.1393V7.62537C6.34128 7.45626 6.37474 7.28885 6.43951 7.1327C6.50429 6.97654 6.59912 6.83471 6.71858 6.71529C6.83804 6.59587 6.97981 6.5012 7.13577 6.43669C7.29174 6.37218 7.45885 6.3391 7.62757 6.33932ZM8.91623 13.398C8.91623 13.7401 8.78066 14.0681 8.53936 14.31C8.29805 14.5518 7.97076 14.6877 7.6295 14.6877C7.28824 14.6877 6.96096 14.5518 6.71965 14.31C6.47834 14.0681 6.34277 13.7401 6.34277 13.398V12.8189C6.34277 12.3077 6.74706 11.8231 7.42458 11.5213C7.90207 11.3149 8.40303 11.168 8.91623 11.0839V13.398ZM13.3758 14.6858C13.2069 14.6861 13.0396 14.653 12.8834 14.5884C12.7273 14.5238 12.5854 14.429 12.4659 14.3094C12.3464 14.1897 12.2515 14.0477 12.1868 13.8913C12.1221 13.7349 12.0888 13.5673 12.0888 13.398V10.8405C12.7267 10.7478 13.3496 10.5713 13.9415 10.3155C14.1979 10.2029 14.4393 10.0587 14.6602 9.88627V13.3989C14.6602 13.7404 14.5248 14.068 14.2838 14.3095C14.0429 14.551 13.7161 14.6866 13.3753 14.6866L13.3758 14.6858ZM13.5805 9.50036C13.1018 9.70645 12.5997 9.85278 12.0854 9.93606V7.62537C12.0854 7.28332 12.221 6.95528 12.4623 6.71342C12.7036 6.47155 13.0309 6.33567 13.3721 6.33567C13.7134 6.33567 14.0407 6.47155 14.282 6.71342C14.5233 6.95528 14.6589 7.28332 14.6589 7.62537V8.20444C14.6602 8.71354 14.2559 9.19817 13.5783 9.49865L13.5805 9.50036Z" fill="white"/>
<circle cx="16" cy="16" r="5" fill="#344955"/>
<path fill-rule="evenodd" clip-rule="evenodd" d="M16.406 14.8109V15.3427L16.4066 15.3433C17.3162 15.3888 18 15.585 18 15.8193C18 16.0541 17.3162 16.2498 16.4066 16.2953V18H15.5961V16.2953C14.6854 16.2492 14 16.0535 14 15.8187C14 15.5839 14.6849 15.3882 15.5961 15.3427V14.8109H14.475V14H17.5272V14.8109H16.406ZM16.406 16.1491V16.1502C17.2091 16.1111 17.8086 15.9591 17.8086 15.7773C17.8086 15.5954 17.2096 15.4435 16.406 15.4043V15.9983C16.3827 16.0006 16.2576 16.0121 16.0074 16.0121C15.7991 16.0121 15.648 16.0023 15.5955 15.9983V15.4037C14.7909 15.4423 14.1898 15.5948 14.1898 15.7767C14.1898 15.9591 14.7904 16.1111 15.5955 16.1496V16.1491C15.6475 16.1519 15.7943 16.1583 16.0037 16.1583C16.2656 16.1583 16.3832 16.1508 16.406 16.1491Z" fill="white"/>
</g>
<defs>
<linearGradient id="paint0_linear_890_25234" x1="15.4227" y1="1.96875" x2="4.59487" y2="19.0318" gradientUnits="userSpaceOnUse">
<stop stop-color="#5DF0D7"/>
<stop offset="1" stop-color="#0CBFF2"/>
</linearGradient>
<clipPath id="clip0_890_25234">
<rect width="21" height="21" fill="white"/>
</clipPath>
</defs>
</svg>
