<svg width="21" height="21" viewBox="0 0 21 21" fill="none" xmlns="http://www.w3.org/2000/svg">
<circle cx="10.5" cy="10.5" r="10.5" fill="white"/>
<g clip-path="url(#clip0_890_25305)">
<path d="M10.4995 6.14614C12.0882 6.14614 13.376 5.44185 13.376 4.57307C13.376 3.70429 12.0882 3 10.4995 3C8.91089 3 7.62305 3.70429 7.62305 4.57307C7.62305 5.44185 8.91089 6.14614 10.4995 6.14614Z" fill="#E6007A"/>
<path d="M10.4995 17.9989C12.0882 17.9989 13.376 17.2946 13.376 16.4259C13.376 15.5571 12.0882 14.8528 10.4995 14.8528C8.91089 14.8528 7.62305 15.5571 7.62305 16.4259C7.62305 17.2946 8.91089 17.9989 10.4995 17.9989Z" fill="#E6007A"/>
<path d="M6.49107 8.32365C7.28539 7.03003 7.28023 5.62896 6.47955 5.19428C5.67888 4.75959 4.38588 5.4559 3.59156 6.74952C2.79724 8.04314 2.8024 9.44421 3.60308 9.87889C4.40375 10.3136 5.69675 9.61727 6.49107 8.32365Z" fill="#E6007A"/>
<path d="M17.4061 14.2493C18.2004 12.9557 18.1957 11.5549 17.3956 11.1205C16.5954 10.6861 15.3029 11.3826 14.5086 12.6762C13.7142 13.9699 13.719 15.3707 14.5191 15.8051C15.3192 16.2395 16.6118 15.5429 17.4061 14.2493Z" fill="#E6007A"/>
<path d="M6.47955 15.8047C7.28023 15.3701 7.28539 13.969 6.49107 12.6754C5.69675 11.3817 4.40375 10.6854 3.60308 11.1201C2.8024 11.5548 2.79724 12.9559 3.59156 14.2495C4.38588 15.5431 5.67888 16.2394 6.47955 15.8047Z" fill="#E6007A"/>
<path d="M17.3965 9.87922C18.1967 9.44483 18.2014 8.044 17.4071 6.75038C16.6128 5.45676 15.3202 4.76021 14.5201 5.19461C13.7199 5.629 13.7152 7.02983 14.5095 8.32345C15.3038 9.61707 16.5964 10.3136 17.3965 9.87922Z" fill="#E6007A"/>
</g>
<circle cx="16" cy="16" r="5" fill="#344955"/>
<path fill-rule="evenodd" clip-rule="evenodd" d="M16.406 14.8109V15.3427L16.4066 15.3433C17.3162 15.3888 18 15.585 18 15.8193C18 16.0541 17.3162 16.2498 16.4066 16.2953V18H15.5961V16.2953C14.6854 16.2492 14 16.0535 14 15.8187C14 15.5839 14.6849 15.3882 15.5961 15.3427V14.8109H14.475V14H17.5272V14.8109H16.406ZM16.406 16.1491V16.1502C17.2091 16.1111 17.8086 15.9591 17.8086 15.7773C17.8086 15.5954 17.2096 15.4435 16.406 15.4043V15.9983C16.3827 16.0006 16.2576 16.0121 16.0074 16.0121C15.7991 16.0121 15.648 16.0023 15.5955 15.9983V15.4037C14.7909 15.4423 14.1898 15.5948 14.1898 15.7767C14.1898 15.9591 14.7904 16.1111 15.5955 16.1496V16.1491C15.6475 16.1519 15.7943 16.1583 16.0037 16.1583C16.2656 16.1583 16.3832 16.1508 16.406 16.1491Z" fill="white"/>
<defs>
<clipPath id="clip0_890_25305">
<rect width="15" height="15" fill="white" transform="translate(3 3)"/>
</clipPath>
</defs>
</svg>
