<svg width="21" height="21" viewBox="0 0 21 21" fill="none" xmlns="http://www.w3.org/2000/svg">
<g id="Group">
<path id="Vector" d="M10.5 21C16.299 21 21 16.299 21 10.5C21 4.70101 16.299 0 10.5 0C4.70101 0 0 4.70101 0 10.5C0 16.299 4.70101 21 10.5 21Z" fill="black"/>
<path id="Vector_2" d="M6.72656 15.0386L8.23791 12.4228L9.74794 9.81619L11.2494 7.20038L11.4988 6.78563L11.6084 7.20038L12.0691 8.92238L11.5533 9.81619L10.0433 12.4228L8.54175 15.0386H10.3464L11.8571 12.4228L12.64 11.069L13.0088 12.4228L13.7084 15.0386H15.3293L14.6298 12.4228L13.9296 9.81619L13.7458 9.14353L14.8693 7.20038H13.23L13.1742 7.00678L12.6033 4.87003L12.5298 4.59375H10.9548L10.918 4.64888L9.44409 7.20038L7.93341 9.81619L6.43256 12.4228L4.92188 15.0386H6.72656Z" fill="white"/>
</g>
</svg>
