<svg width="21" height="21" viewBox="0 0 21 21" fill="none" xmlns="http://www.w3.org/2000/svg">
<g id="Group">
<path id="Vector" d="M10.5 21C16.299 21 21 16.299 21 10.5C21 4.70101 16.299 0 10.5 0C4.70101 0 0 4.70101 0 10.5C0 16.299 4.70101 21 10.5 21Z" fill="#328332"/>
<g id="Group_2">
<path id="Vector_2" d="M10.4928 10.8629L6.08212 10.4843L10.4921 7.98919V10.8629H10.4928ZM10.4928 13.7898V18.3442C8.95913 15.9567 7.26863 13.3291 5.90625 11.2022C7.51406 12.1078 9.19275 13.0548 10.4928 13.7904V13.7898ZM10.4928 7.18266L5.90625 9.74203L10.4928 2.625V7.18266Z" fill="white"/>
<path id="Vector_3" d="M14.9038 10.4843L10.4932 10.8629V7.98919L14.9032 10.4843H14.9038ZM10.4932 13.7904C11.7925 13.0554 13.4706 12.1078 15.079 11.2022C13.7167 13.3298 12.0262 15.9574 10.4932 18.3435V13.7904ZM10.4932 7.18266V2.625L15.079 9.74203L10.4932 7.18266Z" fill="white" fill-opacity="0.601"/>
<path id="Vector_4" opacity="0.2" fill-rule="evenodd" clip-rule="evenodd" d="M10.4932 10.8629L14.9032 10.4843L10.4932 12.9616V10.8629Z" fill="white"/>
<path id="Vector_5" opacity="0.603" fill-rule="evenodd" clip-rule="evenodd" d="M10.4917 10.8629L6.08105 10.4843L10.4917 12.9616V10.8629Z" fill="white"/>
</g>
</g>
</svg>
