<svg width="21" height="21" viewBox="0 0 21 21" fill="none" xmlns="http://www.w3.org/2000/svg">
<g id="Group">
<path id="Vector" d="M10.5 21C16.299 21 21 16.299 21 10.5C21 4.70101 16.299 0 10.5 0C4.70101 0 0 4.70101 0 10.5C0 16.299 4.70101 21 10.5 21Z" fill="#32A4BE"/>
<path id="Vector_2" fill-rule="evenodd" clip-rule="evenodd" d="M16.4062 15.8924L6.54741 6.24816C7.63935 5.18293 9.10579 4.58886 10.6313 4.59375C13.8206 4.59375 16.4062 7.12294 16.4062 10.2434V15.8924ZM4.59375 5.10759L14.4526 14.7518C13.3606 15.8171 11.8942 16.4111 10.3688 16.4062C7.17937 16.4062 4.59375 13.8771 4.59375 10.7566V5.10759Z" fill="white"/>
</g>
</svg>
