<svg width="21" height="21" viewBox="0 0 21 21" fill="none" xmlns="http://www.w3.org/2000/svg">
<g id="Group">
<path id="Vector" d="M10.5 21C16.299 21 21 16.299 21 10.5C21 4.70101 16.299 0 10.5 0C4.70101 0 0 4.70101 0 10.5C0 16.299 4.70101 21 10.5 21Z" fill="#3E73C4"/>
<g id="Group_2">
<path id="Vector_2" d="M13.1393 11.894C13.1393 10.5002 12.2993 10.0224 10.6193 9.82291C9.41965 9.66345 9.18012 9.34516 9.18012 8.78735C9.18012 8.22954 9.58043 7.87123 10.3797 7.87123C11.0997 7.87123 11.5 8.1101 11.6995 8.70795C11.7203 8.76575 11.7583 8.81581 11.8084 8.85136C11.8585 8.88691 11.9183 8.90625 11.9797 8.90679H12.6195C12.6565 8.90778 12.6933 8.90125 12.7276 8.8876C12.762 8.87394 12.7932 8.85346 12.8194 8.82738C12.8456 8.8013 12.8662 8.77017 12.88 8.73588C12.8939 8.70158 12.9006 8.66484 12.8997 8.62788V8.58851C12.8215 8.15597 12.6027 7.76137 12.2772 7.466C11.9517 7.17063 11.5377 6.99103 11.0997 6.9551V5.9996C11.0997 5.84013 10.9796 5.7207 10.7801 5.68066H10.1796C10.0201 5.68066 9.90003 5.8001 9.86 5.9996V6.91573C8.65971 7.07454 7.90043 7.87123 7.90043 8.86741C7.90043 10.1812 8.69975 10.699 10.3797 10.8985C11.5 11.0974 11.8596 11.3369 11.8596 11.9741C11.8596 12.6107 11.2998 13.049 10.5399 13.049C9.49971 13.049 9.14009 12.6113 9.02 12.0135C8.98062 11.8547 8.85987 11.7746 8.73978 11.7746H8.0599C8.023 11.7737 7.9863 11.7803 7.95202 11.794C7.91774 11.8077 7.88659 11.8282 7.86046 11.8543C7.83433 11.8803 7.81376 11.9114 7.79998 11.9457C7.78621 11.9799 7.77953 12.0166 7.78034 12.0535V12.0929C7.93981 13.0891 8.58031 13.8057 9.90003 14.0052V14.9614C9.90003 15.1202 10.0201 15.2403 10.2196 15.2796H10.8201C10.9796 15.2796 11.0997 15.1602 11.1397 14.9614V14.0045C12.34 13.8057 13.1393 12.969 13.1393 11.8934V11.894Z" fill="white"/>
<path id="Vector_3" d="M8.45992 16.0762C5.34011 14.9605 3.74017 11.4955 4.90042 8.42887C5.50023 6.75544 6.81995 5.48166 8.45992 4.88381C8.62005 4.80441 8.69945 4.68497 8.69945 4.48547V3.92766C8.69945 3.76884 8.62005 3.64941 8.45992 3.60938C8.41989 3.60938 8.33983 3.60937 8.2998 3.64875C7.3997 3.92984 6.5641 4.3862 5.84111 4.99155C5.11811 5.59691 4.522 6.3393 4.0871 7.17598C3.65219 8.01266 3.38709 8.92711 3.30705 9.86667C3.22701 10.8062 3.33362 11.7523 3.62073 12.6505C4.33998 14.8818 6.06002 16.5946 8.2998 17.3112C8.45992 17.3906 8.62005 17.3112 8.65942 17.1517C8.69945 17.1124 8.69945 17.0717 8.69945 16.9923V16.4345C8.69945 16.315 8.58002 16.1562 8.45992 16.0762ZM12.6993 3.64941C12.5392 3.56934 12.379 3.64941 12.3397 3.80822C12.2996 3.84825 12.2996 3.88828 12.2996 3.96769V4.5255C12.2996 4.68497 12.4191 4.84378 12.5392 4.92384C15.659 6.03947 17.2589 9.50447 16.0987 12.5711C15.4989 14.2446 14.1791 15.5183 12.5392 16.1162C12.379 16.1956 12.2996 16.315 12.2996 16.5145V17.0723C12.2996 17.2312 12.379 17.3506 12.5392 17.3906C12.5792 17.3906 12.6593 17.3906 12.6993 17.3513C13.5994 17.0702 14.435 16.6138 15.158 16.0084C15.881 15.4031 16.4771 14.6607 16.912 13.824C17.3469 12.9873 17.612 12.0729 17.692 11.1333C17.7721 10.1938 17.6655 9.24766 17.3784 8.34947C16.6591 6.07884 14.899 4.36603 12.6993 3.64941Z" fill="white"/>
</g>
</g>
</svg>
