<svg width="21" height="21" viewBox="0 0 21 21" fill="none" xmlns="http://www.w3.org/2000/svg">
<g id="Group">
<path id="Vector" d="M10.5 21C16.299 21 21 16.299 21 10.5C21 4.70101 16.299 0 10.5 0C4.70101 0 0 4.70101 0 10.5C0 16.299 4.70101 21 10.5 21Z" fill="#2A5ADA"/>
<path id="Vector_2" d="M10.5 3.9375L9.31941 4.62984L6.10313 6.52641L4.92188 7.21875V13.7812L6.10247 14.4736L9.34894 16.3702L10.5295 17.0625L11.7101 16.3702L14.8975 14.4736L16.0781 13.7812V7.21875L14.8975 6.52641L11.6806 4.62984L10.5 3.9375ZM7.28306 12.3966V8.60344L10.5 6.70688L13.7169 8.60344V12.3966L10.5 14.2931L7.28306 12.3966Z" fill="white"/>
</g>
</svg>
