<svg width="21" height="21" viewBox="0 0 21 21" fill="none" xmlns="http://www.w3.org/2000/svg">
<g id="usdt" clip-path="url(#clip0_890_25382)">
<g id="Group">
<path id="Vector" d="M10.5 21C16.299 21 21 16.299 21 10.5C21 4.70101 16.299 0 10.5 0C4.70101 0 0 4.70101 0 10.5C0 16.299 4.70101 21 10.5 21Z" fill="#26A17B"/>
<path id="Vector_2" fill-rule="evenodd" clip-rule="evenodd" d="M11.7617 11.4076V11.4063C11.6895 11.4115 11.3174 11.4339 10.4873 11.4339C9.82445 11.4339 9.35786 11.4142 9.1938 11.4063V11.4083C6.6423 11.296 4.73786 10.8518 4.73786 10.3202C4.73786 9.78929 6.6423 9.34501 9.1938 9.23082V10.9659C9.36048 10.9778 9.83823 11.006 10.4984 11.006C11.2905 11.006 11.6875 10.9732 11.7617 10.9666V9.23213C14.308 9.34566 16.2078 9.78994 16.2078 10.3202C16.2078 10.8518 14.308 11.2947 11.7617 11.4076ZM11.7617 9.05166V7.49898H15.3146V5.13123H5.64086V7.49898H9.1938V9.05101C6.3063 9.18357 4.13477 9.75582 4.13477 10.4409C4.13477 11.1261 6.3063 11.6977 9.1938 11.8309V16.8066H11.7617V11.8296C14.6446 11.697 16.8109 11.1254 16.8109 10.4409C16.8109 9.75648 14.6446 9.18488 11.7617 9.05166Z" fill="white"/>
</g>
</g>
<defs>
<clipPath id="clip0_890_25382">
<rect width="21" height="21" fill="white"/>
</clipPath>
</defs>
</svg>
