<svg width="21" height="21" viewBox="0 0 21 21" fill="none" xmlns="http://www.w3.org/2000/svg">
<path d="M10.5 21C16.2991 21 21 16.2991 21 10.5C21 4.70094 16.2991 0 10.5 0C4.70094 0 0 4.70094 0 10.5C0 16.2991 4.70094 21 10.5 21Z" fill="#8247E5"/>
<g clip-path="url(#clip0_890_25705)">
<path d="M13.8496 8.64684C13.6104 8.51363 13.3027 8.51363 13.0293 8.64684L11.1152 9.74581L9.81641 10.4452L7.93652 11.5441C7.69727 11.6773 7.38965 11.6773 7.11621 11.5441L5.64648 10.6783C5.40723 10.5451 5.23633 10.2786 5.23633 9.97893V8.31381C5.23633 8.0474 5.37305 7.78098 5.64648 7.61447L7.11621 6.78191C7.35547 6.6487 7.66309 6.6487 7.93652 6.78191L9.40625 7.64777C9.64551 7.78098 9.81641 8.0474 9.81641 8.34712V9.44609L11.1152 8.71344V7.58116C11.1152 7.31475 10.9785 7.04833 10.7051 6.88182L7.9707 5.31661C7.73145 5.1834 7.42383 5.1834 7.15039 5.31661L4.34766 6.91512C4.07422 7.04833 3.9375 7.31475 3.9375 7.58116V10.7116C3.9375 10.978 4.07422 11.2444 4.34766 11.4109L7.11621 12.9761C7.35547 13.1093 7.66309 13.1093 7.93652 12.9761L9.81641 11.9105L11.1152 11.1778L12.9951 10.1121C13.2344 9.97893 13.542 9.97893 13.8154 10.1121L15.2852 10.9447C15.5244 11.0779 15.6953 11.3443 15.6953 11.644V13.3092C15.6953 13.5756 15.5586 13.842 15.2852 14.0085L13.8496 14.8411C13.6104 14.9743 13.3027 14.9743 13.0293 14.8411L11.5596 14.0085C11.3203 13.8753 11.1494 13.6089 11.1494 13.3092V12.2435L9.85059 12.9761V14.0751C9.85059 14.3415 9.9873 14.6079 10.2607 14.7744L13.0293 16.3397C13.2686 16.4729 13.5762 16.4729 13.8496 16.3397L16.6182 14.7744C16.8574 14.6412 17.0283 14.3748 17.0283 14.0751V10.9114C17.0283 10.645 16.8916 10.3786 16.6182 10.212L13.8496 8.64684Z" fill="white"/>
</g>
<defs>
<clipPath id="clip0_890_25705">
<rect width="13.125" height="11.1562" fill="white" transform="translate(3.9375 5.25)"/>
</clipPath>
</defs>
</svg>
