<svg width="21" height="21" viewBox="0 0 21 21" fill="none" xmlns="http://www.w3.org/2000/svg">
<path d="M10.5 21C16.299 21 21 16.299 21 10.5C21 4.70101 16.299 0 10.5 0C4.70101 0 0 4.70101 0 10.5C0 16.299 4.70101 21 10.5 21Z" fill="#58BF00"/>
<path d="M16.4062 14.8181L11.8191 12.6801V7.94194L16.4062 6.31509V14.8181ZM9.72759 17.0625L5.25 14.9763V6.53494L9.72759 8.62181V17.0625ZM16.2967 6.00928L16.2225 6.03553L11.8191 7.59806L11.7088 7.63744L9.84309 8.29894L5.42653 6.24094L11.7088 4.01231L11.7639 3.99263L11.8801 3.95128L11.9208 3.9375L16.3373 5.9955L16.296 6.00928H16.2967Z" fill="white"/>
</svg>
