<svg width="21" height="21" viewBox="0 0 21 21" fill="none" xmlns="http://www.w3.org/2000/svg">
<g id="Group">
<path id="Vector" d="M10.5 21C16.299 21 21 16.299 21 10.5C21 4.70101 16.299 0 10.5 0C4.70101 0 0 4.70101 0 10.5C0 16.299 4.70101 21 10.5 21Z" fill="#EF0027"/>
<path id="Vector_2" d="M14.3929 6.50541L4.92188 4.76241L9.90609 17.3047L16.8512 8.84297L14.3929 6.50541ZM14.2406 7.27322L15.6896 8.65069L11.7272 9.36797L14.2406 7.27322ZM10.8662 9.22425L6.68981 5.76056L13.5161 7.01662L10.8662 9.22425ZM10.5689 9.83719L9.88772 15.4678L6.216 6.22584L10.5689 9.83653V9.83719ZM11.1989 10.1358L15.5873 9.34172L10.5538 15.4731L11.1989 10.1358Z" fill="white"/>
</g>
</svg>
