<svg width="21" height="21" viewBox="0 0 21 21" fill="none" xmlns="http://www.w3.org/2000/svg">
<g id="Group">
<path id="Vector" d="M10.5 21C16.299 21 21 16.299 21 10.5C21 4.70101 16.299 0 10.5 0C4.70101 0 0 4.70101 0 10.5C0 16.299 4.70101 21 10.5 21Z" fill="#008CE7"/>
<g id="Group_2">
<path id="Vector_2" d="M12.5261 5.25H7.75119L7.35613 7.45959L11.6624 7.46616C13.7828 7.46616 14.4121 8.23594 14.3918 9.51366C14.3826 10.1686 14.0971 11.2763 13.9764 11.6333C13.6502 12.5915 12.9782 13.6822 10.4595 13.6789L6.27397 13.6763L5.87891 15.8885H10.6413C12.3207 15.8885 13.036 15.6923 13.7913 15.3438C15.4674 14.5707 16.4655 12.915 16.8665 10.754C17.4611 7.53834 16.7195 5.25 12.5254 5.25H12.5261Z" fill="white"/>
<path id="Vector_3" d="M10.3746 10.3666C10.5302 9.72016 10.5794 9.46094 10.5794 9.46094H5.69294C4.44344 9.46094 4.26494 10.2747 4.14616 10.7669C3.99062 11.4107 3.94141 11.6732 3.94141 11.6732H8.8285C10.0773 11.6732 10.2558 10.8594 10.3746 10.3666Z" fill="white"/>
</g>
</g>
</svg>
