<svg width="21" height="21" viewBox="0 0 21 21" fill="none" xmlns="http://www.w3.org/2000/svg">
<circle cx="10.5" cy="10.5" r="10.5" fill="white"/>
<g clip-path="url(#clip0_890_25726)">
<path d="M10.4995 6.14614C12.0882 6.14614 13.376 5.44185 13.376 4.57307C13.376 3.70429 12.0882 3 10.4995 3C8.91089 3 7.62305 3.70429 7.62305 4.57307C7.62305 5.44185 8.91089 6.14614 10.4995 6.14614Z" fill="#E6007A"/>
<path d="M10.4995 17.9989C12.0882 17.9989 13.376 17.2946 13.376 16.4259C13.376 15.5571 12.0882 14.8528 10.4995 14.8528C8.91089 14.8528 7.62305 15.5571 7.62305 16.4259C7.62305 17.2946 8.91089 17.9989 10.4995 17.9989Z" fill="#E6007A"/>
<path d="M6.49107 8.32365C7.28539 7.03003 7.28023 5.62896 6.47955 5.19428C5.67888 4.75959 4.38588 5.4559 3.59156 6.74952C2.79724 8.04314 2.8024 9.44421 3.60308 9.87889C4.40375 10.3136 5.69675 9.61727 6.49107 8.32365Z" fill="#E6007A"/>
<path d="M17.4061 14.2493C18.2004 12.9557 18.1957 11.5549 17.3956 11.1205C16.5954 10.6861 15.3029 11.3826 14.5086 12.6762C13.7142 13.9699 13.719 15.3707 14.5191 15.8051C15.3192 16.2395 16.6118 15.5429 17.4061 14.2493Z" fill="#E6007A"/>
<path d="M6.47955 15.8047C7.28023 15.3701 7.28539 13.969 6.49107 12.6754C5.69675 11.3817 4.40375 10.6854 3.60308 11.1201C2.8024 11.5548 2.79724 12.9559 3.59156 14.2495C4.38588 15.5431 5.67888 16.2394 6.47955 15.8047Z" fill="#E6007A"/>
<path d="M17.3965 9.87922C18.1967 9.44483 18.2014 8.044 17.4071 6.75038C16.6128 5.45676 15.3202 4.76021 14.5201 5.19461C13.7199 5.629 13.7152 7.02983 14.5095 8.32345C15.3038 9.61707 16.5964 10.3136 17.3965 9.87922Z" fill="#E6007A"/>
</g>
<defs>
<clipPath id="clip0_890_25726">
<rect width="15" height="15" fill="white" transform="translate(3 3)"/>
</clipPath>
</defs>
</svg>
