<svg width="21" height="21" viewBox="0 0 21 21" fill="none" xmlns="http://www.w3.org/2000/svg">
<path d="M10.5 21C16.299 21 21 16.299 21 10.5C21 4.70101 16.299 0 10.5 0C4.70101 0 0 4.70101 0 10.5C0 16.299 4.70101 21 10.5 21Z" fill="#F3BA2F"/>
<path fill-rule="evenodd" clip-rule="evenodd" d="M10.5 4.20026L6.62948 8.07102L8.05325 9.49479L10.5 7.048L12.9483 9.49608L14.3721 8.07241L10.5 4.20026ZM4.2002 10.5L5.62387 11.9237L7.04774 10.4999L5.62397 9.07625L4.2002 10.5ZM8.05325 11.5056L10.5 13.9524L12.9482 11.5043L14.3727 12.9272L14.3721 12.9281L10.5 16.8L6.62938 12.9293L6.62729 12.9273L8.05325 11.5056ZM13.9527 10.5006L15.3763 11.9243L16.8002 10.5006L15.3763 9.07687L13.9527 10.5006ZM9.43238 10.1223L10.5001 9.05462L11.9449 10.4994H11.9443L11.9456 10.5001L11.9449 10.5009L10.5001 11.9457L9.05661 10.5022L9.05462 10.5001L9.05661 10.4981L9.30968 10.245L9.43228 10.1223H9.43238Z" fill="white"/>
</svg>
