<svg width="21" height="21" viewBox="0 0 21 21" fill="none" xmlns="http://www.w3.org/2000/svg">
<g id="Group">
<path id="Vector" d="M10.5 21C16.299 21 21 16.299 21 10.5C21 4.70101 16.299 0 10.5 0C4.70101 0 0 4.70101 0 10.5C0 16.299 4.70101 21 10.5 21Z" fill="#0D1E30"/>
<g id="Vector_2" filter="url(#filter0_d_890_25630)">
<path d="M10.3192 3.9766C10.6336 3.81451 11.0175 4.18923 10.8508 4.49832C10.753 4.75032 10.3849 4.81726 10.1972 4.62498C9.99833 4.44123 10.0633 4.07635 10.3192 3.97595V3.9766ZM6.93627 4.33491C7.12724 4.25748 7.3694 4.42941 7.34971 4.63482C7.3694 4.85663 7.09377 5.0207 6.89886 4.91504C6.64096 4.8166 6.67049 4.40448 6.93627 4.33491ZM13.865 4.92095C13.5664 4.88551 13.5191 4.42351 13.8059 4.33032C14.029 4.22401 14.2338 4.42416 14.2666 4.6322C14.2193 4.80938 14.0684 4.97213 13.865 4.92095ZM7.70605 5.7511C8.02565 5.55226 8.48108 5.84823 8.43186 6.21376C8.41546 6.58191 7.91802 6.79585 7.63715 6.54648C7.36546 6.35091 7.4068 5.90204 7.70605 5.7511ZM12.582 5.96241C12.7244 5.60148 13.3019 5.58966 13.464 5.94141C13.6248 6.21507 13.4272 6.55435 13.1418 6.64754C12.7631 6.7171 12.4041 6.31416 12.582 5.96241ZM9.91171 6.6272C9.90843 6.31613 10.1959 6.08513 10.4958 6.06348C10.6953 6.10285 10.9118 6.1862 10.9971 6.38373C11.1566 6.65673 11.0149 7.03145 10.7281 7.15679C10.5968 7.22898 10.4406 7.20207 10.2976 7.19354C10.0791 7.08854 9.89465 6.88051 9.91171 6.6272ZM4.8809 7.08001C5.17293 6.90282 5.56668 7.22438 5.45577 7.53676C5.3954 7.80648 5.02658 7.91607 4.81593 7.74413C4.59083 7.5827 4.62627 7.19485 4.88155 7.07935L4.8809 7.08001ZM15.6841 7.0787C15.9315 6.8897 16.3403 7.10691 16.3101 7.41404C16.3272 7.69426 15.9735 7.90623 15.7281 7.76185C15.4577 7.64176 15.4295 7.23226 15.6841 7.07935V7.0787ZM11.3266 7.63716C11.7348 7.49279 12.2204 7.66538 12.4527 8.02435C12.7598 8.46207 12.5971 9.12882 12.12 9.38016C11.6265 9.67744 10.9053 9.4261 10.7222 8.88273C10.5155 8.3971 10.8173 7.78941 11.3259 7.63716H11.3266ZM8.9293 7.68507C9.38211 7.47507 9.99177 7.65094 10.2103 8.10638C10.4676 8.55001 10.2687 9.16754 9.80868 9.39657C9.34799 9.65448 8.69765 9.45891 8.47518 8.98313C8.22515 8.52245 8.44696 7.89704 8.9293 7.68507ZM6.5294 8.4916C6.56418 8.20482 6.83915 8.01779 7.11674 7.9981C7.26151 8.01339 7.39681 8.07734 7.50052 8.1795C7.60423 8.28166 7.67021 8.41598 7.68768 8.56051C7.66799 8.85582 7.43633 9.14326 7.11871 9.14194C6.76893 9.17148 6.46246 8.82891 6.5294 8.4916ZM13.6182 8.0611C13.9772 7.8557 14.4753 8.15429 14.4595 8.55985C14.4838 8.9897 13.9326 9.29223 13.5756 9.04023C13.2041 8.83023 13.233 8.2396 13.6182 8.0611ZM7.95477 9.57507C8.37346 9.46154 8.85383 9.65579 9.05924 10.0351C9.28433 10.417 9.19246 10.9473 8.84268 11.2282C8.39315 11.639 7.56561 11.4736 7.32674 10.9132C7.05177 10.3993 7.3858 9.71026 7.95411 9.57441L7.95477 9.57507ZM12.5006 9.5731C12.9081 9.45826 13.3872 9.61248 13.6064 9.97801C13.8965 10.396 13.758 11.0201 13.3268 11.2892C12.874 11.6022 12.1745 11.4382 11.9251 10.9486C11.6232 10.4426 11.9271 9.72732 12.5006 9.5731ZM5.25561 10.0495C5.61786 9.91501 6.01949 10.3081 5.87249 10.6618C5.78324 10.9834 5.3219 11.1028 5.08368 10.8653C4.80477 10.6421 4.9078 10.1467 5.25561 10.0495ZM15.079 10.5627C15.0722 10.4183 15.1227 10.277 15.2196 10.1695C15.3164 10.0621 15.4518 9.99731 15.5961 9.98916C15.8442 10.0285 16.0857 10.2254 16.066 10.4912C16.089 10.8423 15.6591 11.0805 15.3546 10.9158C15.2122 10.8443 15.1394 10.7005 15.079 10.5627ZM3.4739 10.2241C3.69177 10.1303 3.96149 10.316 3.91161 10.5542C3.8998 10.8239 3.4949 10.9283 3.34658 10.7025C3.21533 10.5457 3.29408 10.3048 3.4739 10.2234V10.2241ZM17.2217 10.2182C17.3752 10.1112 17.622 10.188 17.6824 10.3645C17.7854 10.5575 17.5964 10.8213 17.3759 10.7891C17.0661 10.8167 16.9664 10.3527 17.2217 10.2182ZM9.13865 11.513C9.71221 11.3666 10.3291 11.8372 10.333 12.4186C10.3698 13.0059 9.76208 13.5264 9.1754 13.3912C8.72127 13.319 8.36493 12.8885 8.38002 12.4376C8.37871 12.0058 8.70946 11.6042 9.13865 11.513ZM11.4106 11.5123C11.9927 11.3522 12.6279 11.8313 12.6187 12.4258C12.6496 13.002 12.0609 13.5054 11.4861 13.3905C10.9446 13.3223 10.5456 12.7375 10.6966 12.2204C10.7727 11.8765 11.0654 11.597 11.4106 11.5117V11.5123ZM7.02946 11.87C7.4324 11.8024 7.8104 12.244 7.64699 12.6207C7.52755 13.0224 6.9343 13.1306 6.6718 12.8032C6.36468 12.4882 6.59436 11.9133 7.02946 11.87ZM13.693 11.8877C14.0526 11.7394 14.4936 12.0452 14.4661 12.4291C14.4805 12.8511 13.9358 13.1424 13.5847 12.8957C13.1864 12.6745 13.2592 12.0229 13.693 11.8877ZM15.5555 13.7252C15.415 13.4673 15.6703 13.1254 15.9623 13.1733C16.1067 13.1707 16.2084 13.2829 16.301 13.3774C16.32 13.5303 16.3521 13.7127 16.2229 13.8302C16.0476 14.0487 15.6506 13.9864 15.5555 13.7252ZM4.87958 13.2448C5.15193 13.067 5.54371 13.3328 5.48202 13.6451C5.44921 13.9227 5.09483 14.0809 4.86186 13.9234C4.61118 13.781 4.62036 13.3748 4.87958 13.2448ZM10.2562 13.8243C10.6126 13.6701 11.0667 13.9752 11.0326 14.3611C11.0588 14.7877 10.4977 15.083 10.1493 14.827C9.76208 14.6072 9.82705 13.9601 10.2562 13.8243ZM7.76643 14.3959C8.06961 14.239 8.47649 14.5101 8.44893 14.8448C8.45811 15.1191 8.18643 15.3527 7.9108 15.312C7.68308 15.3074 7.53477 15.1059 7.46127 14.915C7.46521 14.7069 7.55249 14.4753 7.76643 14.3965V14.3959ZM12.8104 14.4011C13.1227 14.2108 13.5664 14.4838 13.5368 14.8408C13.5447 15.2149 13.0433 15.4538 12.7526 15.2083C12.4717 15.016 12.5059 14.554 12.8104 14.4011ZM13.6878 16.5339C13.5486 16.3279 13.7121 16.0792 13.9371 16.0319C14.1189 16.068 14.3112 16.2025 14.2725 16.4086C14.2462 16.6888 13.8302 16.7741 13.6878 16.5346V16.5339ZM6.7243 16.3548C6.77943 16.1907 6.9133 16.0286 7.10952 16.0713C7.39499 16.091 7.47965 16.5149 7.22961 16.6455C7.00518 16.7945 6.74399 16.5904 6.7243 16.3548ZM10.0843 16.5431C10.1388 16.3003 10.4571 16.1829 10.6671 16.3115C10.8062 16.3705 10.8469 16.5228 10.8823 16.6527C10.8636 16.7202 10.8461 16.788 10.8298 16.8562C10.7438 16.9559 10.6329 17.0563 10.4899 17.053C10.2241 17.0839 9.9839 16.7879 10.0836 16.5431H10.0843Z" fill="black"/>
</g>
<path id="Vector_3" d="M10.3192 3.9766C10.6336 3.81451 11.0175 4.18923 10.8508 4.49832C10.753 4.75032 10.3849 4.81726 10.1972 4.62498C9.99833 4.44123 10.0633 4.07635 10.3192 3.97595V3.9766ZM6.93627 4.33491C7.12724 4.25748 7.3694 4.42941 7.34971 4.63482C7.3694 4.85663 7.09377 5.0207 6.89886 4.91504C6.64096 4.8166 6.67049 4.40448 6.93627 4.33491ZM13.865 4.92095C13.5664 4.88551 13.5191 4.42351 13.8059 4.33032C14.029 4.22401 14.2338 4.42416 14.2666 4.6322C14.2193 4.80938 14.0684 4.97213 13.865 4.92095ZM7.70605 5.7511C8.02565 5.55226 8.48108 5.84823 8.43186 6.21376C8.41546 6.58191 7.91802 6.79585 7.63715 6.54648C7.36546 6.35091 7.4068 5.90204 7.70605 5.7511ZM12.582 5.96241C12.7244 5.60148 13.3019 5.58966 13.464 5.94141C13.6248 6.21507 13.4272 6.55435 13.1418 6.64754C12.7631 6.7171 12.4041 6.31416 12.582 5.96241ZM9.91171 6.6272C9.90843 6.31613 10.1959 6.08513 10.4958 6.06348C10.6953 6.10285 10.9118 6.1862 10.9971 6.38373C11.1566 6.65673 11.0149 7.03145 10.7281 7.15679C10.5968 7.22898 10.4406 7.20207 10.2976 7.19354C10.0791 7.08854 9.89465 6.88051 9.91171 6.6272ZM4.8809 7.08001C5.17293 6.90282 5.56668 7.22438 5.45577 7.53676C5.3954 7.80648 5.02658 7.91607 4.81593 7.74413C4.59083 7.5827 4.62627 7.19485 4.88155 7.07935L4.8809 7.08001ZM15.6841 7.0787C15.9315 6.8897 16.3403 7.10691 16.3101 7.41404C16.3272 7.69426 15.9735 7.90623 15.7281 7.76185C15.4577 7.64176 15.4295 7.23226 15.6841 7.07935V7.0787ZM11.3266 7.63716C11.7348 7.49279 12.2204 7.66538 12.4527 8.02435C12.7598 8.46207 12.5971 9.12882 12.12 9.38016C11.6265 9.67744 10.9053 9.4261 10.7222 8.88273C10.5155 8.3971 10.8173 7.78941 11.3259 7.63716H11.3266ZM8.9293 7.68507C9.38211 7.47507 9.99177 7.65094 10.2103 8.10638C10.4676 8.55001 10.2687 9.16754 9.80868 9.39657C9.34799 9.65448 8.69765 9.45891 8.47518 8.98313C8.22515 8.52245 8.44696 7.89704 8.9293 7.68507ZM6.5294 8.4916C6.56418 8.20482 6.83915 8.01779 7.11674 7.9981C7.26151 8.01339 7.39681 8.07734 7.50052 8.1795C7.60423 8.28166 7.67021 8.41598 7.68768 8.56051C7.66799 8.85582 7.43633 9.14326 7.11871 9.14194C6.76893 9.17148 6.46246 8.82891 6.5294 8.4916ZM13.6182 8.0611C13.9772 7.8557 14.4753 8.15429 14.4595 8.55985C14.4838 8.9897 13.9326 9.29223 13.5756 9.04023C13.2041 8.83023 13.233 8.2396 13.6182 8.0611ZM7.95477 9.57507C8.37346 9.46154 8.85383 9.65579 9.05924 10.0351C9.28433 10.417 9.19246 10.9473 8.84268 11.2282C8.39315 11.639 7.56561 11.4736 7.32674 10.9132C7.05177 10.3993 7.3858 9.71026 7.95411 9.57441L7.95477 9.57507ZM12.5006 9.5731C12.9081 9.45826 13.3872 9.61248 13.6064 9.97801C13.8965 10.396 13.758 11.0201 13.3268 11.2892C12.874 11.6022 12.1745 11.4382 11.9251 10.9486C11.6232 10.4426 11.9271 9.72732 12.5006 9.5731ZM5.25561 10.0495C5.61786 9.91501 6.01949 10.3081 5.87249 10.6618C5.78324 10.9834 5.3219 11.1028 5.08368 10.8653C4.80477 10.6421 4.9078 10.1467 5.25561 10.0495ZM15.079 10.5627C15.0722 10.4183 15.1227 10.277 15.2196 10.1695C15.3164 10.0621 15.4518 9.99731 15.5961 9.98916C15.8442 10.0285 16.0857 10.2254 16.066 10.4912C16.089 10.8423 15.6591 11.0805 15.3546 10.9158C15.2122 10.8443 15.1394 10.7005 15.079 10.5627ZM3.4739 10.2241C3.69177 10.1303 3.96149 10.316 3.91161 10.5542C3.8998 10.8239 3.4949 10.9283 3.34658 10.7025C3.21533 10.5457 3.29408 10.3048 3.4739 10.2234V10.2241ZM17.2217 10.2182C17.3752 10.1112 17.622 10.188 17.6824 10.3645C17.7854 10.5575 17.5964 10.8213 17.3759 10.7891C17.0661 10.8167 16.9664 10.3527 17.2217 10.2182ZM9.13865 11.513C9.71221 11.3666 10.3291 11.8372 10.333 12.4186C10.3698 13.0059 9.76208 13.5264 9.1754 13.3912C8.72127 13.319 8.36493 12.8885 8.38002 12.4376C8.37871 12.0058 8.70946 11.6042 9.13865 11.513ZM11.4106 11.5123C11.9927 11.3522 12.6279 11.8313 12.6187 12.4258C12.6496 13.002 12.0609 13.5054 11.4861 13.3905C10.9446 13.3223 10.5456 12.7375 10.6966 12.2204C10.7727 11.8765 11.0654 11.597 11.4106 11.5117V11.5123ZM7.02946 11.87C7.4324 11.8024 7.8104 12.244 7.64699 12.6207C7.52755 13.0224 6.9343 13.1306 6.6718 12.8032C6.36468 12.4882 6.59436 11.9133 7.02946 11.87ZM13.693 11.8877C14.0526 11.7394 14.4936 12.0452 14.4661 12.4291C14.4805 12.8511 13.9358 13.1424 13.5847 12.8957C13.1864 12.6745 13.2592 12.0229 13.693 11.8877ZM15.5555 13.7252C15.415 13.4673 15.6703 13.1254 15.9623 13.1733C16.1067 13.1707 16.2084 13.2829 16.301 13.3774C16.32 13.5303 16.3521 13.7127 16.2229 13.8302C16.0476 14.0487 15.6506 13.9864 15.5555 13.7252ZM4.87958 13.2448C5.15193 13.067 5.54371 13.3328 5.48202 13.6451C5.44921 13.9227 5.09483 14.0809 4.86186 13.9234C4.61118 13.781 4.62036 13.3748 4.87958 13.2448ZM10.2562 13.8243C10.6126 13.6701 11.0667 13.9752 11.0326 14.3611C11.0588 14.7877 10.4977 15.083 10.1493 14.827C9.76208 14.6072 9.82705 13.9601 10.2562 13.8243ZM7.76643 14.3959C8.06961 14.239 8.47649 14.5101 8.44893 14.8448C8.45811 15.1191 8.18643 15.3527 7.9108 15.312C7.68308 15.3074 7.53477 15.1059 7.46127 14.915C7.46521 14.7069 7.55249 14.4753 7.76643 14.3965V14.3959ZM12.8104 14.4011C13.1227 14.2108 13.5664 14.4838 13.5368 14.8408C13.5447 15.2149 13.0433 15.4538 12.7526 15.2083C12.4717 15.016 12.5059 14.554 12.8104 14.4011ZM13.6878 16.5339C13.5486 16.3279 13.7121 16.0792 13.9371 16.0319C14.1189 16.068 14.3112 16.2025 14.2725 16.4086C14.2462 16.6888 13.8302 16.7741 13.6878 16.5346V16.5339ZM6.7243 16.3548C6.77943 16.1907 6.9133 16.0286 7.10952 16.0713C7.39499 16.091 7.47965 16.5149 7.22961 16.6455C7.00518 16.7945 6.74399 16.5904 6.7243 16.3548ZM10.0843 16.5431C10.1388 16.3003 10.4571 16.1829 10.6671 16.3115C10.8062 16.3705 10.8469 16.5228 10.8823 16.6527C10.8636 16.7202 10.8461 16.788 10.8298 16.8562C10.7438 16.9559 10.6329 17.0563 10.4899 17.053C10.2241 17.0839 9.9839 16.7879 10.0836 16.5431H10.0843Z" fill="white"/>
</g>
<defs>
<filter id="filter0_d_890_25630" x="2.28125" y="3.4375" width="16.4297" height="15.1178" filterUnits="userSpaceOnUse" color-interpolation-filters="sRGB">
<feFlood flood-opacity="0" result="BackgroundImageFix"/>
<feColorMatrix in="SourceAlpha" type="matrix" values="0 0 0 0 0 0 0 0 0 0 0 0 0 0 0 0 0 0 127 0" result="hardAlpha"/>
<feOffset dy="0.5"/>
<feGaussianBlur stdDeviation="0.5"/>
<feColorMatrix type="matrix" values="0 0 0 0 0 0 0 0 0 0 0 0 0 0 0 0 0 0 0.204257 0"/>
<feBlend mode="normal" in2="BackgroundImageFix" result="effect1_dropShadow_890_25630"/>
<feBlend mode="normal" in="SourceGraphic" in2="effect1_dropShadow_890_25630" result="shape"/>
</filter>
</defs>
</svg>
