<svg width="21" height="21" viewBox="0 0 21 21" fill="none" xmlns="http://www.w3.org/2000/svg">
<g id="Group">
<path id="Vector" d="M10.5 21C16.299 21 21 16.299 21 10.5C21 4.70101 16.299 0 10.5 0C4.70101 0 0 4.70101 0 10.5C0 16.299 4.70101 21 10.5 21Z" fill="#66F9A1"/>
<path id="Vector_2" d="M6.51294 12.9196C6.5855 12.848 6.68336 12.8079 6.78529 12.808H16.213C16.251 12.8075 16.2883 12.8184 16.3201 12.8393C16.3518 12.8601 16.3766 12.8901 16.3912 12.9252C16.4058 12.9602 16.4096 12.9989 16.4021 13.0362C16.3945 13.0734 16.376 13.1076 16.3488 13.1342L14.4864 14.9815C14.4139 15.0534 14.3161 15.0937 14.214 15.0938H4.78635C4.74834 15.0941 4.7111 15.0831 4.6794 15.0621C4.64769 15.0411 4.62297 15.0112 4.60838 14.9761C4.59379 14.941 4.59001 14.9023 4.59751 14.8651C4.60501 14.8278 4.62347 14.7936 4.6505 14.7669L6.51294 12.9196ZM6.51294 6.01781C6.5855 5.94623 6.68336 5.90614 6.78529 5.90625H16.213C16.3843 5.90625 16.4702 6.11231 16.3488 6.23306L14.4864 8.08041C14.4138 8.15199 14.316 8.19208 14.214 8.19197H4.78635C4.74848 8.19216 4.71141 8.18109 4.67984 8.16016C4.64828 8.13923 4.62366 8.10939 4.6091 8.07443C4.59453 8.03947 4.5907 8.00097 4.59807 7.96382C4.60544 7.92668 4.62369 7.89256 4.6505 7.86581L6.51294 6.01781ZM14.4864 9.44672C14.4138 9.37513 14.316 9.33505 14.214 9.33516H4.78635C4.74834 9.33483 4.7111 9.34586 4.6794 9.36682C4.64769 9.38778 4.62297 9.41772 4.60838 9.45282C4.59379 9.48792 4.59001 9.52657 4.59751 9.56383C4.60501 9.60108 4.62347 9.63526 4.6505 9.66197L6.51294 11.5093C6.58513 11.5808 6.68357 11.6209 6.78529 11.6209H16.213C16.251 11.6212 16.2882 11.6102 16.3199 11.5892C16.3516 11.5683 16.3764 11.5383 16.3909 11.5032C16.4055 11.4681 16.4093 11.4295 16.4018 11.3922C16.3943 11.3549 16.3759 11.3208 16.3488 11.2941L14.4864 9.44672Z" fill="white"/>
</g>
</svg>
