<svg width="21" height="21" viewBox="0 0 21 21" fill="none" xmlns="http://www.w3.org/2000/svg">
<g id="Group">
<path id="Vector" d="M10.5 21C16.299 21 21 16.299 21 10.5C21 4.70101 16.299 0 10.5 0C4.70101 0 0 4.70101 0 10.5C0 16.299 4.70101 21 10.5 21Z" fill="#23292F"/>
<path id="Vector_2" d="M15.1397 5.25H17.0362L13.0889 9.15928C12.3988 9.83924 11.4688 10.2204 10.5 10.2204C9.53117 10.2204 8.60123 9.83924 7.91109 9.15928L3.96047 5.25H5.86031L8.85938 8.21822C9.29611 8.64928 9.88505 8.89098 10.4987 8.89098C11.1123 8.89098 11.7013 8.64928 12.138 8.21822L15.1397 5.25ZM5.83734 16.1195H3.9375L7.91109 12.1866C8.60123 11.5066 9.53117 11.1255 10.5 11.1255C11.4688 11.1255 12.3988 11.5066 13.0889 12.1866L17.0625 16.1188H15.1627L12.1406 13.125C11.7039 12.6939 11.115 12.4522 10.5013 12.4522C9.88768 12.4522 9.29873 12.6939 8.862 13.125L5.83669 16.1195H5.83734Z" fill="white"/>
</g>
</svg>
