<svg width="21" height="21" viewBox="0 0 21 21" fill="none" xmlns="http://www.w3.org/2000/svg">
<g id="Group">
<path id="Vector" d="M10.5 21C16.299 21 21 16.299 21 10.5C21 4.70101 16.299 0 10.5 0C4.70101 0 0 4.70101 0 10.5C0 16.299 4.70101 21 10.5 21Z" fill="black"/>
<path id="Vector_2" d="M15.1787 6.09787L13.6037 6.90112L5.99255 10.7776C5.88411 9.94454 6.00925 9.09774 6.35399 8.33166C6.69874 7.56558 7.24954 6.91034 7.94496 6.43904C8.64038 5.96774 9.45306 5.69891 10.2924 5.66254C11.1316 5.62617 11.9645 5.82369 12.6981 6.23306L13.5998 5.77369L13.7343 5.70478C12.8789 5.08403 11.8637 4.72101 10.8087 4.65861C9.7536 4.5962 8.7027 4.83701 7.78008 5.35259C6.85745 5.86817 6.10162 6.637 5.60185 7.56829C5.10207 8.49958 4.87923 9.55443 4.95962 10.6083C4.97466 10.8065 4.93072 11.0047 4.83333 11.178C4.73594 11.3513 4.58945 11.4919 4.4123 11.5822L3.93652 11.825V12.9563L5.33696 12.2423L5.79043 12.0107L6.23734 11.783L14.2606 7.69453L15.1623 7.23581L17.0261 6.28622V5.1555L15.1787 6.09787ZM17.0267 7.41825L6.69409 12.6787L5.7924 13.1381L3.93718 14.0851V15.2158L5.77993 14.2774L7.35559 13.4741L14.9746 9.59175C15.0847 10.4261 14.9605 11.2746 14.6157 12.0423C14.271 12.81 13.7194 13.4666 13.0227 13.9386C12.3259 14.4106 11.5116 14.6794 10.6708 14.7149C9.82998 14.7504 8.99588 14.5512 8.26187 14.1396L8.20609 14.1691L7.22827 14.6678C8.08382 15.2889 9.09927 15.6522 10.1547 15.7146C11.21 15.7771 12.2612 15.5361 13.1841 15.0203C14.1069 14.5044 14.8628 13.7352 15.3624 12.8035C15.8621 11.8718 16.0846 10.8165 16.0036 9.76237C15.9888 9.56434 16.0327 9.36633 16.13 9.19319C16.2272 9.02005 16.3735 8.87949 16.5503 8.78915L17.0267 8.54634V7.41891V7.41825Z" fill="white"/>
</g>
</svg>
