<svg width="21" height="21" viewBox="0 0 21 21" fill="none" xmlns="http://www.w3.org/2000/svg">
<path d="M10.5 21C16.299 21 21 16.299 21 10.5C21 4.70101 16.299 0 10.5 0C4.70101 0 0 4.70101 0 10.5C0 16.299 4.70101 21 10.5 21Z" fill="url(#paint0_linear_890_25688)"/>
<path d="M13.3736 5.44687C12.7964 5.4463 12.2424 5.6754 11.8336 6.08386C11.4247 6.49232 11.1943 7.04673 11.1929 7.62534V10.0399C10.9681 10.0549 10.7385 10.0644 10.5004 10.0644C10.2623 10.0644 10.034 10.0742 9.80831 10.0876V7.62534C9.80028 7.051 9.56701 6.50291 9.15896 6.09961C8.75091 5.6963 8.20086 5.4702 7.62779 5.4702C7.05471 5.4702 6.50467 5.6963 6.09662 6.09961C5.68856 6.50291 5.4553 7.051 5.44727 7.62534V13.398C5.4553 13.9723 5.68856 14.5204 6.09662 14.9237C6.50467 15.327 7.05471 15.5531 7.62779 15.5531C8.20086 15.5531 8.75091 15.327 9.15896 14.9237C9.56701 14.5204 9.80028 13.9723 9.80831 13.398V10.9843C10.0327 10.9692 10.2623 10.9598 10.5004 10.9598C10.7385 10.9598 10.9672 10.9499 11.1929 10.9366V13.3997C11.2042 13.9718 11.4389 14.5166 11.8465 14.9172C12.2542 15.3178 12.8023 15.5422 13.3732 15.5422C13.9441 15.5422 14.4922 15.3178 14.8999 14.9172C15.3075 14.5166 15.5422 13.9718 15.5535 13.3997V7.62534C15.552 7.04692 15.3217 6.4927 14.913 6.08429C14.5044 5.67588 13.9507 5.44664 13.3736 5.44687ZM7.62757 6.33929C7.7963 6.33929 7.96337 6.3726 8.11925 6.43732C8.27513 6.50204 8.41676 6.59689 8.53607 6.71647C8.65537 6.83605 8.75001 6.97801 8.81458 7.13425C8.87914 7.29049 8.91238 7.45795 8.91238 7.62706V10.1846C8.27448 10.2774 7.65156 10.4541 7.05969 10.71C6.80325 10.8225 6.56184 10.9667 6.34106 11.1392V7.62534C6.34128 7.45623 6.37474 7.28882 6.43951 7.13267C6.50429 6.97651 6.59912 6.83468 6.71858 6.71526C6.83804 6.59584 6.97981 6.50117 7.13577 6.43666C7.29174 6.37215 7.45885 6.33907 7.62757 6.33929ZM8.91623 13.398C8.91623 13.74 8.78066 14.0681 8.53936 14.3099C8.29805 14.5518 7.97076 14.6877 7.6295 14.6877C7.28824 14.6877 6.96096 14.5518 6.71965 14.3099C6.47834 14.0681 6.34277 13.74 6.34277 13.398V12.8189C6.34277 12.3077 6.74706 11.823 7.42458 11.5213C7.90207 11.3149 8.40303 11.168 8.91623 11.0839V13.398ZM13.3758 14.6857C13.2069 14.686 13.0396 14.6529 12.8834 14.5883C12.7273 14.5237 12.5854 14.4289 12.4659 14.3093C12.3464 14.1897 12.2515 14.0477 12.1868 13.8913C12.1221 13.7349 12.0888 13.5673 12.0888 13.398V10.8405C12.7267 10.7478 13.3496 10.5713 13.9415 10.3155C14.1979 10.2029 14.4393 10.0587 14.6602 9.88623V13.3988C14.6602 13.7404 14.5248 14.0679 14.2838 14.3094C14.0429 14.5509 13.7161 14.6866 13.3753 14.6866L13.3758 14.6857ZM13.5805 9.50033C13.1018 9.70642 12.5997 9.85275 12.0854 9.93603V7.62534C12.0854 7.28329 12.221 6.95525 12.4623 6.71339C12.7036 6.47152 13.0309 6.33564 13.3721 6.33564C13.7134 6.33564 14.0407 6.47152 14.282 6.71339C14.5233 6.95525 14.6589 7.28329 14.6589 7.62534V8.20441C14.6602 8.71351 14.2559 9.19814 13.5783 9.49862L13.5805 9.50033Z" fill="white"/>
<defs>
<linearGradient id="paint0_linear_890_25688" x1="15.4227" y1="1.96875" x2="4.59487" y2="19.0318" gradientUnits="userSpaceOnUse">
<stop stop-color="#5DF0D7"/>
<stop offset="1" stop-color="#0CBFF2"/>
</linearGradient>
</defs>
</svg>
