<svg width="21" height="21" viewBox="0 0 21 21" fill="none" xmlns="http://www.w3.org/2000/svg">
<g id="Group">
<path id="Vector" d="M10.5 21C16.299 21 21 16.299 21 10.5C21 4.70101 16.299 0 10.5 0C4.70101 0 0 4.70101 0 10.5C0 16.299 4.70101 21 10.5 21Z" fill="#2E3148"/>
<g id="Group_2">
<path id="Vector_2" d="M10.5125 3.62906C9.6627 3.62906 8.97363 6.71147 8.97363 10.5131C8.97363 14.3148 9.6627 17.3972 10.5125 17.3972C11.3617 17.3972 12.0508 14.3148 12.0508 10.5131C12.0508 6.71147 11.3617 3.62906 10.5125 3.62906ZM10.6189 17.008C10.5217 17.138 10.4239 17.0408 10.4239 17.0408C10.0328 16.5867 9.83726 15.7447 9.83726 15.7447C9.15279 13.5417 9.31554 8.81212 9.31554 8.81212C9.6371 5.05772 10.2225 4.17047 10.4213 3.97359C10.4417 3.9534 10.4685 3.94107 10.4971 3.93879C10.5257 3.9365 10.5542 3.94442 10.5775 3.96112C10.8663 4.16653 11.1091 5.02228 11.1091 5.02228C11.8244 7.67878 11.7594 10.1725 11.7594 10.1725C11.8244 12.3434 11.4011 14.7728 11.4011 14.7728C11.0749 16.6195 10.6189 17.008 10.6189 17.008Z" fill="white"/>
<path id="Vector_3" d="M16.4834 7.08749C16.0601 6.34987 13.0446 7.28633 9.74566 9.1783C6.44669 11.0703 4.11963 13.2011 4.5416 13.9387C4.96488 14.6764 7.98101 13.7399 11.28 11.8479C14.5789 9.95596 16.9067 7.82446 16.484 7.08749H16.4834ZM4.93141 13.837C4.76998 13.8173 4.80673 13.6835 4.80673 13.6835C5.00491 13.1191 5.63754 12.5298 5.63754 12.5298C7.20794 10.8399 11.3922 8.62771 11.3922 8.62771C14.8086 7.03827 15.8698 7.10521 16.1389 7.17871C16.1666 7.18633 16.1908 7.20359 16.207 7.22739C16.2233 7.2512 16.2305 7.28 16.2274 7.30865C16.1946 7.66105 15.5712 8.29762 15.5712 8.29762C13.6248 10.2408 11.4289 11.4266 11.4289 11.4266C9.57832 12.5632 7.25979 13.4039 7.25979 13.4039C5.49579 14.0391 4.93141 13.837 4.93141 13.837Z" fill="white"/>
<path id="Vector_4" d="M16.468 13.963C16.8945 13.228 14.5734 11.0867 11.2849 9.18028C7.9971 7.27453 4.98228 6.3269 4.55638 7.06321C4.12982 7.80018 6.45163 9.93956 9.74075 11.846C13.0305 13.7517 16.0421 14.6993 16.468 13.963ZM4.83922 7.34737C4.77557 7.19775 4.90878 7.16165 4.90878 7.16165C5.49744 7.05009 6.32432 7.30406 6.32432 7.30406C8.57328 7.81593 12.5836 10.3281 12.5836 10.3281C15.6713 12.4884 16.1451 13.4407 16.216 13.7104C16.2231 13.7381 16.2203 13.7674 16.2079 13.7933C16.1956 13.8191 16.1745 13.8397 16.1484 13.8515C15.8268 13.9991 14.9638 13.7793 14.9638 13.7793C12.306 13.0666 10.1804 11.7613 10.1804 11.7613C8.27075 10.731 6.38207 9.14615 6.38207 9.14615C4.94685 7.93734 4.83988 7.34803 4.83988 7.34803L4.83857 7.34737H4.83922Z" fill="white"/>
<path id="Vector_5" d="M10.4963 11.3065C10.9436 11.3065 11.3061 10.9439 11.3061 10.4967C11.3061 10.0495 10.9436 9.68689 10.4963 9.68689C10.0491 9.68689 9.68652 10.0495 9.68652 10.4967C9.68652 10.9439 10.0491 11.3065 10.4963 11.3065Z" fill="white"/>
<path id="Vector_6" d="M13.8174 8.043C14.1798 8.043 14.4736 7.74919 14.4736 7.38675C14.4736 7.02431 14.1798 6.7305 13.8174 6.7305C13.4549 6.7305 13.1611 7.02431 13.1611 7.38675C13.1611 7.74919 13.4549 8.043 13.8174 8.043Z" fill="white"/>
<path id="Vector_7" d="M6.10645 9.69543C6.46888 9.69543 6.7627 9.40162 6.7627 9.03918C6.7627 8.67675 6.46888 8.38293 6.10645 8.38293C5.74401 8.38293 5.4502 8.67675 5.4502 9.03918C5.4502 9.40162 5.74401 9.69543 6.10645 9.69543Z" fill="white"/>
<path id="Vector_8" d="M9.54102 15.6555C9.90345 15.6555 10.1973 15.3617 10.1973 14.9992C10.1973 14.6368 9.90345 14.343 9.54102 14.343C9.17858 14.343 8.88477 14.6368 8.88477 14.9992C8.88477 15.3617 9.17858 15.6555 9.54102 15.6555Z" fill="white"/>
</g>
</g>
</svg>
