<svg width="21" height="21" viewBox="0 0 21 21" fill="none" xmlns="http://www.w3.org/2000/svg">
<g id="Group">
<path id="Vector" d="M10.5 21C16.299 21 21 16.299 21 10.5C21 4.70101 16.299 0 10.5 0C4.70101 0 0 4.70101 0 10.5C0 16.299 4.70101 21 10.5 21Z" fill="#ECB244"/>
<path id="Vector_2" d="M9.90677 13.0239H14.0392V15.2224H11.4962C11.5382 15.8511 11.5599 16.4345 11.6019 17.0625H9.46183V15.2447H6.91821C6.91821 14.5274 6.83355 13.8095 6.96086 13.1362C7.02452 12.7772 7.4058 12.4628 7.63877 12.1492C8.4448 11.1419 9.25726 10.1398 10.0761 9.14288C10.3944 8.76094 10.712 8.40197 11.0723 7.97606H7.10852V5.77762H9.46183V3.9375H11.5172V5.73234H14.0818C14.0818 6.47259 14.1665 7.19053 14.0392 7.86384C13.9755 8.22281 13.5942 8.53716 13.3403 8.85084C12.5342 9.85811 11.7218 10.8602 10.903 11.8571C10.5832 12.2564 10.251 12.6456 9.90677 13.0239Z" fill="white"/>
</g>
</svg>
