<svg width="14" height="13" viewBox="0 0 14 13" fill="none" xmlns="http://www.w3.org/2000/svg">
<path id="Vector" d="M13.3333 2.5H8.66667C6.45754 2.5 4.66666 4.29086 4.66666 6.5C4.66666 8.70913 6.45754 10.5 8.66667 10.5H13.3333V11.8333C13.3333 12.2015 13.0349 12.5 12.6667 12.5H0.666666C0.29848 12.5 0 12.2015 0 11.8333V1.16667C0 0.79848 0.29848 0.5 0.666666 0.5H12.6667C13.0349 0.5 13.3333 0.79848 13.3333 1.16667V2.5ZM8.66667 3.83333H14V9.16667H8.66667C7.19387 9.16667 6.00001 7.97273 6.00001 6.5C6.00001 5.02724 7.19387 3.83333 8.66667 3.83333ZM8.66667 5.83333V7.16667H10.6667V5.83333H8.66667Z" fill="white"/>
</svg>
