<svg width="46" height="46" viewBox="0 0 46 46" fill="none" xmlns="http://www.w3.org/2000/svg">
<circle cx="23" cy="23" r="23" fill="#0A1F2B"/>
<path d="M23 23.0668C24.578 23.0668 25.8571 21.8038 25.8571 20.2458C25.8571 18.6878 24.578 17.4247 23 17.4247C21.422 17.4247 20.1429 18.6878 20.1429 20.2458C20.1429 21.8038 21.422 23.0668 23 23.0668ZM23 23.0668V28.7088M25.189 11.5511L31.511 14.9559C32.4289 15.4502 33 16.4001 33 17.4324V24.1265C33 27.5349 31.2196 30.7022 28.2901 32.5053C25.0522 34.4982 20.9478 34.4982 17.7099 32.5053C14.7804 30.7022 13 27.5349 13 24.1265V17.4324C13 16.4001 13.5711 15.4502 14.489 14.9559L20.811 11.5511C22.1754 10.8163 23.8246 10.8163 25.189 11.5511Z" stroke="white" stroke-width="1.5" stroke-linecap="round"/>
</svg>
