<svg width="46" height="46" viewBox="0 0 46 46" fill="none" xmlns="http://www.w3.org/2000/svg">
<circle cx="23" cy="23" r="23" fill="#0A1F2B"/>
<path d="M33 26.9071V15.8609C33 15.044 32.0111 14.6575 31.4746 15.2646L28.1453 19.0326C27.7582 19.4707 27.0675 19.4122 26.7568 18.9148L24.0546 14.5897C23.5634 13.8034 22.4366 13.8034 21.9454 14.5897L19.2432 18.9148C18.9325 19.4122 18.2418 19.4707 17.8547 19.0326L14.5254 15.2646C13.9889 14.6575 13 15.044 13 15.8609V26.9071C13 29.7198 15.2386 32 18 32H28C30.7614 32 33 29.7198 33 26.9071Z" stroke="white" stroke-width="1.5" stroke-linecap="round"/>
</svg>
