<svg width="46" height="46" viewBox="0 0 46 46" fill="none" xmlns="http://www.w3.org/2000/svg">
<circle cx="23" cy="23" r="23" fill="#0A1F2B"/>
<path d="M23 33C28.5228 33 33 28.5228 33 23C33 17.4772 28.5228 13 23 13M23 33C17.4772 33 13 28.5228 13 23C13 17.4772 17.4772 13 23 13M23 33C25.7133 33 26.957 29.6322 27.699 25.0953C27.9258 23.7084 27.9258 22.2916 27.699 20.9047C26.957 16.3678 25.7133 13 23 13M23 33C20.2867 33 19.043 29.6322 18.301 25.0953C18.0742 23.7084 18.0742 22.2916 18.301 20.9047C19.043 16.3678 20.2867 13 23 13M32.4444 23L29.7583 23.474C25.2873 24.263 20.7127 24.263 16.2417 23.474L13.5556 23" stroke="white" stroke-width="1.5" stroke-linecap="round"/>
</svg>
