<svg width="450" height="405" viewBox="0 0 450 405" fill="none" xmlns="http://www.w3.org/2000/svg">
<path fill-rule="evenodd" clip-rule="evenodd" d="M409.594 93.5966C408.055 70.4908 400.69 53.474 391.24 41.1775C372.838 17.2223 344.986 9.90523 343.116 12.5257C330.61 9.41072 187.207 -1.63526 169.302 0.205539C167.124 0.442146 166.768 0.843194 166.342 1.9517C162.269 12.5955 158.432 84.557 157.958 97.7029C157.098 98.6865 156.566 99.9118 156.435 101.21C156.303 102.508 156.579 103.814 157.224 104.949C157.982 106.436 157.579 103.533 157.462 117.694C154.406 122.721 151.778 127.96 150.807 129.943C145.88 127.889 129.278 120.998 124.21 119.322C131.812 114.224 127.076 101.597 116.347 106.624C106.329 111.534 114.429 123.145 121.865 120.479C124.589 129.191 127.751 137.762 131.339 146.158C120.798 147.29 97.517 159.397 92.3779 170.631C80.5361 174.289 81.6734 173.793 81.4122 174.384C77.1521 172.666 72.6987 171.469 68.1495 170.82C60.1683 169.617 50.8136 171.646 51.0499 179.694C50.3516 181.906 50.0471 184.222 50.15 186.538C50.3162 190.032 53.6319 194.043 58.6048 197.654C58.0599 197.654 57.6338 197.3 57.515 197.796C55.7391 204.333 74.0935 319.131 81.6485 326.613C87.6162 332.443 210.582 373.061 216.999 371.456C235.425 366.995 285.042 339.853 302.781 329.256C303.049 330.817 303.51 332.339 304.155 333.787C305.576 336.973 310.052 339.475 315.996 341.056C316.348 343.566 316.984 346.029 317.891 348.396C323.338 360.527 374.542 363.053 374.022 341.316C379.919 340.938 385.247 338.719 386.858 333.102C387.639 330.364 388.705 328.381 387.948 326.187C387.948 314.693 360.001 305.088 349.273 304.025C342.523 303.34 334.14 304.616 332.695 311.106C328.111 310.99 323.525 311.243 318.982 311.86C325.259 285.757 340.511 198.95 340.89 194.986C351.887 192.672 362.338 188.281 371.678 182.052C401.946 162.227 412.106 129.562 409.596 93.593L409.594 93.5966ZM330.302 29.4714C330.298 29.5266 330.298 29.5819 330.302 29.6371C330.287 29.5827 330.287 29.5257 330.302 29.4714ZM330.183 29.8725C329.875 31.9972 329.449 53.0256 329.425 55.1492C224.721 38.4861 215.271 39.6432 214.987 40.3979C212.254 32.9358 208.936 25.6993 205.064 18.7555C237.557 20.7619 323.481 27.8424 330.184 29.8713L330.183 29.8725ZM311.094 196.689C310.241 191.709 309.175 185.737 307.707 177.949C310.557 175.428 313.172 172.656 315.522 169.666C317.369 180.57 318.98 189.704 320.827 199.805L318.459 200.513C316.754 199.498 315 198.506 311.094 196.689ZM316.233 201.267L312.088 202.612C311.97 201.927 311.686 200.252 311.52 199.213C313.012 199.898 314.717 200.653 316.233 201.267ZM282.033 207.451C278.41 204.028 271.589 203.25 266.616 203.131C265.195 199.78 270.169 196.24 273.484 194.729C280.732 192.774 288.213 191.805 295.722 191.85C296.694 197.301 297.641 202.494 298.091 205.349C292.843 206.693 287.451 207.399 282.033 207.451ZM295.627 208.088L284.923 211.722C284.679 210.889 284.222 210.133 283.597 209.528C283.36 209.08 287.575 209.717 295.627 208.088ZM228.747 219.015C230.382 218.213 232.087 217.386 233.698 216.655C232.229 219.274 232.845 222.248 236.777 224.207C239.121 225.252 241.614 225.929 244.166 226.213L238.222 228.384C233.58 226.638 228.465 223.735 228.749 219.015H228.747ZM192.394 204.216C196.349 211.297 183.158 218.849 175.649 222.201L156.323 218C161.179 210.613 189.03 198.103 192.394 204.122V204.216ZM182.375 201.502C173.754 204.337 165.681 208.615 158.502 214.152C157.305 215.241 156.226 216.451 155.281 217.763L151.799 217.032C152.953 215.281 154.339 213.693 155.92 212.312C164.043 205.231 196.703 189.324 198.55 204.546C199.497 212.288 189.882 219.722 183.226 223.734L178.868 222.79C203.357 211.084 197.365 197.158 182.374 201.501L182.375 201.502ZM92.3779 182.054C92.6379 181.889 91.9279 182.054 105.688 178.207C106.281 183.682 108.506 199.449 110.141 208.322L107.773 207.874C103.296 199.851 94.7462 185.973 92.3779 182.054ZM105.593 207.402L95.8598 205.396L75.6344 192.509C78.7364 190.573 83.6631 187.789 90.8156 183.068C93.5864 188.025 101.094 200.628 105.547 207.401L105.593 207.402ZM107.488 177.853C113.764 178.515 121.698 178.797 125.44 180.214C121.461 191.424 117.151 202.14 114.119 209.22L111.751 208.748C110.732 199.45 108.435 183.424 107.44 177.853H107.488ZM134.771 153.945C139.058 160.884 126.079 169.05 118.666 172.827C113.692 169.452 108.127 166.076 108.127 166.076C107.677 165.794 107.96 165.817 100.122 168.247C104.74 161.686 131.146 148.022 134.771 153.945ZM123.639 178.562C118.324 177.242 112.917 176.327 107.463 175.825L108.008 167.942C111.916 170.515 119.921 175.777 123.639 178.563V178.562ZM121.033 198.245C124.795 197.751 128.602 197.695 132.377 198.08C137.967 198.433 155.35 200.251 155.232 205.774C155.066 213.728 140.549 213.751 132.591 213.02C117.979 209.951 118.807 210.33 116.391 209.007C121.366 197.396 120.536 198.364 121.033 198.245ZM157.292 205.822C157.435 196.168 128.279 195.838 121.174 197.349C121.601 196.286 122.003 195.224 122.405 194.186C132.945 193.313 161.389 195.626 161.08 205.987C161.063 206.51 161.007 207.031 160.914 207.545C157.126 209.902 153.757 212.869 150.943 216.324L149.806 216.655L143.198 215.286C149.901 214.695 157.172 212.501 157.29 205.822H157.292ZM190.449 148.919C191.374 150.541 191.795 152.4 191.66 154.261C191.526 156.122 190.84 157.901 189.692 159.374C188.484 159.374 187.323 159.587 186.162 159.728C187.161 158.573 187.807 157.157 188.026 155.647C188.244 154.138 188.024 152.597 187.393 151.208C183.225 142.239 155.847 155.433 150.873 159.374C141.4 166.974 143.318 175.542 158.452 173.087C158.642 174.102 158.831 175.258 159.044 176.509C152.815 177.666 142.466 176.699 141.069 170.468C144.135 167.408 146.029 163.374 146.421 159.068C154.071 151.917 184.741 140.14 190.378 148.919H190.449ZM305.408 175.919C299.393 173.677 294.088 171.86 293.922 171.813C296.147 169.216 301.24 163.222 303.181 160.389C303.584 164.308 304.507 170.963 305.336 175.919H305.408ZM304.106 160.248L315.214 168.697C313.674 170.255 312.538 170.774 307.328 175.541C306.121 169.617 304.722 163.433 304.036 160.246L304.106 160.248ZM265.17 203.108C263.773 203.108 262.328 203.108 260.883 203.25C260.102 197.844 266.33 193.479 271.423 191.449C279.116 189.193 287.087 188.017 295.106 187.955C295.296 189.065 295.437 189.914 295.485 190.15C285.704 190.339 262.897 193.667 265.099 203.108H265.17ZM288.001 186.729C286.628 186.894 285.325 187.082 283.786 187.319C288.072 183.732 291.269 179.012 288.522 174.149C286.297 170.207 279.854 171.506 275.543 172.899C275.268 172.223 274.902 171.588 274.454 171.011C279.948 169.336 289.114 167.353 291.861 172.38C294.608 177.406 291.884 182.551 287.929 186.73L288.001 186.729ZM276.799 180.262C276.901 178.372 276.765 176.478 276.397 174.621C279.381 173.748 285.207 172.451 286.723 175.164C289.47 180.098 283.809 185.101 279.073 188.239C273.365 189.49 266.212 191.826 262.234 196.098C258.231 197.325 250.393 198.883 249.09 194.895C260.672 194.942 277.108 191.638 276.729 180.262H276.799ZM247.953 201.221C247.432 199.167 246.839 196.878 246.272 194.825H247.693C248.569 199.805 255.485 199.546 260.482 198.436C259.83 199.585 259.457 200.87 259.392 202.188C255.534 202.805 251.582 202.473 247.882 201.221H247.953ZM223.346 219.512L221.404 218.355C226.14 211.888 234.335 199.827 237.011 195.579C240.658 199.544 245.632 204.312 247.313 207.38C237.816 212.477 229.171 216.655 223.275 219.51L223.346 219.512ZM228.083 222.698C227.159 222.013 226.188 221.329 225.193 220.667L227.395 219.629C227.389 220.68 227.59 221.723 227.988 222.698H228.083ZM209.848 209.574C210.653 209.881 211.506 210.235 212.43 210.66L213.401 214.201C202.862 209.315 200.281 212.997 209.848 209.574ZM209.541 199.851L210.18 202.211C207.74 203.204 205.221 203.994 202.649 204.571C202.483 204.241 202.649 204.76 201.276 202.211C204.118 201.754 206.894 200.954 209.542 199.827L209.541 199.851ZM200.067 200.417C197.983 197.538 193.981 195.697 188.225 196.311C187.965 194.824 187.609 192.96 187.207 190.86C193.807 191.357 200.445 190.84 206.887 189.325C207.408 191.403 208.142 194.423 208.996 197.798C206.167 199.062 203.18 199.935 200.115 200.395L200.067 200.417ZM207.622 186.894C213.022 187.815 216.196 188.452 223.017 189.444C221.691 195.345 218.99 208.538 217.83 216.42C217.026 215.996 216.243 215.595 215.462 215.24C213.71 209.009 210.797 198.436 207.67 186.871L207.622 186.894ZM222.637 180.946C222.851 183.047 223.04 185.666 223.182 187.696C219.274 187.177 214.94 186.705 208.167 186.138L220.411 180.049C221.216 180.379 221.951 180.687 222.637 180.946ZM210.795 160.507C208.708 158.513 206.791 156.35 205.064 154.04C203.193 151.467 200.113 146.582 201.772 143.845C207.906 133.555 239.855 164.26 234.929 170.231C231.921 173.984 226.593 172.119 222.4 169.712C221.476 164.401 216.218 161.782 210.96 160.508L210.795 160.507ZM224.769 189.678L235.569 194.776C232.798 198.575 224.769 210.282 220.198 217.692L219.084 217.054C223.111 199.825 224.461 189.629 224.768 189.677L224.769 189.678ZM236.942 193.454C224.793 187.719 225.408 187.979 225.1 187.932C224.413 187.932 225.1 188.475 223.656 181.3C225.545 181.941 227.513 182.322 229.506 182.433L242.626 188.806L236.942 193.454ZM243.171 189.441C244.19 193.359 246.273 201.455 247.032 205.348C244.375 201.433 241.413 197.732 238.174 194.279L243.171 189.441ZM273.179 179.128C269.532 187.506 253.592 188.568 244.308 188.191C243.93 187.389 233.035 183.211 233.556 183.069C243.835 186.421 270.124 188.072 270.124 175.541C270.124 167.445 250.561 166.69 242.415 166.902C242.13 165.984 241.765 165.091 241.325 164.236C249.544 164.236 263.895 165.462 270.598 170.183C272.12 171.037 273.245 172.454 273.728 174.128C274.211 175.802 274.014 177.597 273.18 179.128H273.179ZM242.769 168.176C248.69 168.318 268.087 169.663 268.063 175.539C268.063 185.286 245.801 183.989 236.304 181.889C239.429 179.93 243.953 174.171 242.769 168.176ZM240.258 173.203C236.8 178.986 229.411 177.923 223.23 175.091C223.23 175.091 223.016 172.401 223.016 172.259C227.919 174.785 233.413 175.822 236.847 171.504C242.91 163.857 219.061 145.542 212.998 142.781C200.872 137.259 193.553 144.527 207.597 159.845C205.986 159.586 204.305 159.421 202.601 159.279C201.326 157.841 200.229 156.256 199.332 154.558C191.066 138.722 201.132 133.317 213.709 139.595C222.827 144.174 245.445 164.566 240.258 173.204V173.203ZM220.009 169.804C220.814 182.219 198.504 185.146 185.976 184.413C185.716 182.997 185.502 182.053 185.312 181.014C196.633 182.265 217.072 181.297 216.243 170.016C215.532 160.882 189.884 162.487 180.978 164.47L177.733 162.11C188.083 159.419 219.345 159.206 220.009 169.804ZM176.572 193.855C175.483 187.506 174.37 181.44 173.162 175.116C176.019 172.586 178.642 169.806 181.001 166.809C182.776 177.383 184.387 186.563 186.211 196.57C182.729 197.184 183.535 197.396 182.871 197.019C180.929 195.956 178.561 194.8 176.571 193.856L176.572 193.855ZM180.599 197.985C179.557 198.315 178.491 198.67 177.45 199.071C177.307 198.198 177.142 197.278 177 196.357C178.113 196.9 179.463 197.514 180.599 197.986V197.985ZM158.077 171.269C154.785 171.835 148.603 172.519 146.756 169.687C140.361 159.561 182.281 145.118 185.431 152.056C186.828 155.101 185.312 157.863 182.896 160.175C180.857 160.509 178.841 160.966 176.857 161.544L169.065 156.045C169.02 156.011 168.967 155.986 168.911 155.974C168.856 155.961 168.798 155.96 168.742 155.971C168.686 155.982 168.633 156.005 168.586 156.038C168.54 156.072 168.501 156.114 168.473 156.164C167.123 158.406 159.615 166.548 157.862 168.484C157.554 168.838 157.721 169.145 158.077 171.269ZM180.599 165.863C179.509 166.949 176.976 168.814 172.713 172.707C171.528 166.594 170.345 161.166 169.516 157.413L180.599 165.863ZM168.591 157.651C169.065 161.616 169.989 168.318 170.793 173.18C161.06 169.452 162.172 170.066 159.33 168.956C161.58 166.337 166.625 160.388 168.59 157.651H168.591ZM171.197 175.564C172.192 181.323 173.565 188.686 174.608 194.611C169.469 199.922 168.995 200.606 166.01 204.052C165.773 203.91 166.224 204.052 159.355 170.136C163.139 172.249 167.101 174.026 171.197 175.447V175.564ZM175.081 197.112L175.579 199.614C175.698 200.252 176.052 199.401 169.445 202.729C168 203.343 168.924 203.225 175.081 196.994V197.112ZM182.044 165.344C188.709 164.526 195.443 164.431 202.128 165.061C205.799 165.439 213.97 166.619 214.184 170.301C214.847 179.742 194.384 180.166 184.935 179.175C182.803 168.389 182.376 165.486 182.045 165.227L182.044 165.344ZM160.018 182.596C160.729 186.609 161.415 190.526 162.386 195.436C153.813 195.246 136.027 186.372 131.266 178.915C134.363 176.809 137.272 174.44 139.959 171.834C143.629 182.573 151.327 183.753 160.019 182.478L160.018 182.596ZM162.694 197.536L163.167 200.061C162.145 200.039 161.125 199.96 160.112 199.825C155.589 195.883 147.227 194.231 141.165 193.523C135.401 191.012 130.472 186.919 126.955 181.722V181.556C127.878 181.037 128.826 180.47 129.725 179.881C134.817 188.071 153.409 197.441 162.692 197.417L162.694 197.536ZM197.248 221.68C198.994 224.191 201.091 226.44 203.477 228.359L196.845 226.872C196.182 226.094 195.282 224.819 194.713 223.969C195.613 223.12 196.442 222.34 197.248 221.562V221.68ZM198.432 220.453C200.659 218.171 202.328 215.409 203.312 212.381C211.672 212.381 228.819 224.441 233.082 230.224C231.021 231.002 226.26 232.797 224.272 233.694C218.956 231.998 213.557 230.573 208.096 229.422C204.384 226.957 201.117 223.884 198.432 220.335V220.453ZM237.487 222.671C233.888 221.042 233.532 218.518 235.664 215.945C236.611 214.788 235.664 215.826 244.782 210.847C251.101 209.55 257.537 208.902 263.989 208.912C267.683 208.912 275.831 209.384 276.471 213.042C276.553 213.605 276.553 214.177 276.471 214.74C266.595 218.139 256.931 221.538 248.619 224.535C244.816 224.577 241.04 223.904 237.487 222.552V222.671ZM248.926 206.15C262.568 203.79 281.633 205.23 282.321 212.759L278.626 214.009C278.626 207.142 262.829 206.599 252.906 208.156C246.511 209.171 247.6 209.477 248.666 208.533C249.259 207.824 249.116 207.212 248.926 206.007V206.15ZM293.925 173.108C297.704 175.256 301.667 177.065 305.767 178.514C306.738 184.225 308.135 191.683 309.178 197.537C299.942 206.977 301.812 206.223 300.485 206.671C298.283 194.87 296.388 185.123 293.901 172.898L293.925 173.108ZM309.651 200.038C309.911 201.477 310.101 202.398 310.315 203.413L303.897 205.538C305.532 203.815 306.644 202.847 309.629 199.826L309.651 200.038ZM318.177 175.587C316.685 168.153 316.804 168.506 316.496 168.176L303.636 159.089C303.596 159.048 303.548 159.015 303.495 158.992C303.442 158.97 303.385 158.958 303.328 158.958C303.27 158.958 303.213 158.97 303.16 158.992C303.107 159.015 303.06 159.048 303.02 159.089C300.326 162.663 297.432 166.083 294.351 169.332C266.712 162.252 233.295 153.354 232.774 153.236C225.883 146.155 212.596 135.534 202.814 136.243C203.312 133.197 203.785 130.201 204.164 127.463C230.69 130.461 289.425 141.79 327.768 146.345C327.768 150.545 327.294 173.487 327.057 177.688C324.475 177.003 320.733 176.035 318.152 175.375L318.177 175.587ZM197.225 110.047C196.294 111.203 195.289 112.299 194.217 113.327C196.585 88.2623 197.343 67.1392 198.314 44.3635C206.437 59.8931 209.422 84.486 202.222 101.479C198.409 103.037 196.04 106.152 197.225 110.047ZM193.483 114.106C190.843 116.506 187.827 118.459 184.554 119.888C181.357 118.638 187.253 39.8088 188.674 32.9637C192.443 35.3982 195.486 38.7973 197.484 42.8054C194.476 68.6488 193.078 113.444 193.481 114.106H193.483ZM202.507 103.626C211.53 99.2361 214.988 111.108 206.651 114.86C201.677 116.466 194.572 107.284 202.507 103.626ZM204.875 116.065C205.694 116.034 206.499 115.841 207.243 115.498C206.556 116.395 205.822 117.292 205.065 118.165C205.122 117.464 205.098 116.759 204.994 116.064L204.875 116.065ZM204.259 126.331C204.519 124.467 204.78 122.272 204.923 120.43C210.583 114.554 214.94 107.558 217.712 99.8962C254.327 106.198 288.502 111.956 328.243 116.417C328.077 126.636 327.912 136.525 327.746 145.306C306.762 142.144 238.341 128.879 204.378 126.33L204.259 126.331ZM218.138 99.0717C221.204 89.9615 222.404 80.3307 221.667 70.7498C245.02 72.7563 290.752 80.4034 328.883 84.9108C328.693 94.8944 328.528 105.397 328.362 115.593C304.442 111.84 264.014 104.995 218.139 99.0717H218.138ZM221.62 69.9714C220.801 60.0337 218.634 50.2524 215.178 40.8948C306.952 52.4826 283.861 50.6891 329.404 56.0234C329.214 64.7093 329.025 75.3057 328.883 84.0625C299.918 79.4132 253.996 71.3875 221.62 69.9714ZM171.694 105.113C172.194 104.211 172.509 103.219 172.623 102.194C172.737 101.169 172.647 100.132 172.358 99.1427C171.789 97.2072 171.789 99.804 172.192 90.0794C172.666 78.5141 175.674 25.3403 178.445 18.2125C181.974 17.5275 198.622 18.5189 202.673 18.7555C217.617 45.3312 226.973 79.341 213.094 106.482C212.959 105.483 212.606 104.525 212.059 103.676C211.512 102.828 210.785 102.109 209.929 101.571C209.073 101.033 208.109 100.689 207.105 100.563C206.1 100.437 205.081 100.532 204.118 100.841C215.202 74.1014 202.459 36.598 188.558 30.6509C188.4 30.5845 188.23 30.5529 188.059 30.5583C187.888 30.5637 187.72 30.606 187.567 30.6822C187.414 30.7584 187.279 30.8668 187.172 30.9999C187.065 31.1329 186.988 31.2875 186.947 31.453C184.744 37.283 180.67 112.549 183.346 119.888C183.606 120.573 183.844 120.573 184.389 120.785C184.496 120.819 184.612 120.819 184.72 120.785C189.77 118.734 194.247 115.494 197.769 111.344C198.79 113.272 200.47 114.771 202.506 115.569C199.19 117.127 186.496 126.732 183.559 127.676C182.778 127.015 172.238 114.742 171.551 113.964C171.575 111.179 171.622 108.205 171.693 105.113H171.694ZM183.844 127.747H183.56C183.56 127.747 183.891 127.653 183.844 127.747ZM161.984 97.2545C171.007 92.888 174.489 104.76 166.128 108.512C161.06 110.118 153.955 101.007 161.984 97.2545ZM121.39 119.746C116.416 121.352 109.289 112.17 117.246 108.489C126.27 104.122 129.728 115.994 121.39 119.746ZM123.616 120.832C128.496 122.508 146.186 130.06 150.899 132.09C151.013 132.141 151.135 132.17 151.26 132.174C151.384 132.178 151.508 132.157 151.625 132.114C151.742 132.07 151.848 132.003 151.939 131.918C152.03 131.833 152.103 131.731 152.154 131.618C154.901 125.859 160.751 115.097 165.274 110.377C168.638 112.996 179.485 126.898 182.422 129.258C182.719 129.522 183.092 129.687 183.488 129.73C186.14 129.872 198.385 119.959 203.098 117.552C202.665 123.885 201.874 130.189 200.73 136.433C196.324 137.614 193.008 144.764 192.156 147.384C190.932 146.159 189.452 145.216 187.822 144.623C173.612 139.737 146.47 157.51 146.234 157.605C145.665 153.356 140.857 145.567 132.402 146.017C129.015 137.615 125.535 127.63 123.616 120.832ZM98.6543 163.74C106.423 156.306 133.563 142.498 139.366 150.334C146.021 159.16 132.995 170.254 123.404 175.942L120.609 174.006C129.278 169.64 141.665 161.096 136.524 152.765C131.384 144.434 103.912 160.695 98.6306 168.625L93.8939 170.064C95.117 167.707 96.7258 165.569 98.6543 163.739V163.74ZM107.109 167.775L105.783 176.059C90.0095 180.59 91.7629 180.001 91.0518 180.473C89.0147 178.797 85.4153 175.752 83.2131 174.384L107.109 167.775ZM82.1946 174.738C83.6631 175.872 88.2098 180.19 89.5596 181.465C86.1015 183.825 81.9571 186.681 75.492 191.473L82.1946 174.738ZM73.7385 193.053C70.5434 191.632 67.4835 189.925 64.5963 187.955C61.9906 186.115 57.4913 182.457 58.1787 179.34C59.7659 172.071 74.141 177.146 79.0439 179.151C79.3988 179.293 79.7775 177.877 73.5973 192.273C73.549 192.404 73.5368 192.545 73.5618 192.682C73.5869 192.819 73.6483 192.947 73.7397 193.052L73.7385 193.053ZM68.0308 171.67C72.4525 172.509 76.7661 173.84 80.8911 175.635L79.8488 177.995C56.9701 169.664 50.15 179.293 63.484 189.466C68.9315 193.244 74.9201 196.18 81.2472 198.176C83.4731 199.663 85.5815 201.079 87.1212 202.07C75.9193 200.654 63.224 194.399 59.1984 190.482C46.2906 178.02 54.178 169.808 68.0319 171.648L68.0308 171.67ZM215.532 369.12C204.709 369.12 87.9012 330.131 82.9045 325.316C76.2019 318.826 57.2076 208.253 58.2261 198.411C70.3991 201.361 212.026 231.028 222.897 235.158C222.778 242.192 215.532 354.771 215.532 369.12ZM327.673 348.823C324.144 347.36 319.668 344.929 317.821 341.601C319.573 341.978 321.397 342.309 323.291 342.545C325.671 344.338 328.396 345.624 331.296 346.321C340.367 348.847 362.582 350.097 366.632 341.081C367.886 341.247 369.143 341.34 370.35 341.388C365.542 352.669 336.436 352.504 327.696 348.822L327.673 348.823ZM326.868 342.876C335.418 343.466 346.976 342.499 354.222 337.99C357.549 339.188 360.972 340.104 364.453 340.728C360 348.375 335.157 346.722 326.843 342.875L326.868 342.876ZM333.973 311.888C334.755 305.846 342.926 304.288 349.083 304.807C359.788 305.893 387.829 317.481 385.698 327.064C384.111 334.144 376.225 335.23 369.12 334.521C357.847 333.435 345.081 327.607 340.96 323.854C337.644 320.998 333.452 316.278 333.95 311.888H333.973ZM340.226 331.005C332.829 331.873 325.338 331.514 318.059 329.943C314.957 329.165 309.437 327.394 308.94 324.231C307.685 316.466 323.884 316.207 331.771 316.632C331.274 321.281 331.961 325.223 340.297 331.005H340.226ZM332.364 312.667C332.364 312.95 332.126 314.413 332.009 315.027C304.157 314.626 300.96 326.828 317.562 331.548C325.829 333.549 334.415 333.87 342.809 332.492C343.804 333.083 344.846 333.673 345.935 334.239C335.231 337.448 319.883 336.481 313.939 334.026C309.842 332.327 304.3 329.305 303.4 324.939C301.221 314.53 318.841 311.957 332.436 312.666L332.364 312.667ZM316.827 312.337C309.415 313.801 300.604 318.049 301.906 325.412C302.032 326.015 302.206 326.607 302.427 327.182C284.878 337.731 236.847 363.857 217.9 369.144C220.814 356.47 225.005 246.416 225.005 235.3C233.129 231.335 329.97 196.57 339.965 195.32C338.804 203.651 322.794 288.711 316.898 312.336L316.827 312.337ZM394.131 157.487C381.755 175.569 362.897 188.239 341.435 192.89C342.524 172.875 342.761 20.0083 344.514 13.8483C347.97 14.122 351.364 14.9178 354.58 16.2084C368.623 21.3855 380.929 30.3791 390.105 42.1701C399.578 54.23 407.252 70.9403 408.792 93.7397C410.687 122.251 403.96 142.807 394.203 157.487H394.131Z" fill="white"/>
<path fill-rule="evenodd" clip-rule="evenodd" d="M359.362 42.4044C358.012 42.5463 357.727 43.4431 357.419 44.7645C354.34 58.1943 352.162 149.32 355.217 163.386C353.962 164.92 355.715 168.272 360.641 165.912C365.212 163.741 373.478 156.637 380.702 145.024C394.912 122.201 400.525 88.3806 386.764 64.4963C378.238 49.7214 363.65 42.0045 359.363 42.4055L359.362 42.4044ZM372.317 142.404C368.343 149.726 363.154 156.326 356.97 161.923C354.435 145.165 356.52 68.2477 358.674 49.4375C364.378 52.7858 369.322 57.2785 373.192 62.6307C372.481 82.1259 372.008 113.728 372.317 142.404ZM373.714 139.761C374.448 117.623 374.709 83.1173 374.59 64.6608C389.203 86.6332 384.916 118.024 373.714 139.761ZM363.08 373.746C351.522 376.908 349.651 385.027 363.885 389.11C370.99 391.069 383.897 391.8 391.689 389.417C396.663 387.906 400.001 385.05 399.86 380.495C399.576 370.748 369.474 371.976 363.08 373.746ZM394.437 385.995C386.692 390.597 365.069 389.37 357.846 384.792C352.067 381.134 356.78 376.508 363.292 374.549C365.661 373.629 397.634 372.709 397.799 380.567C397.816 381.698 397.509 382.809 396.913 383.771C396.317 384.733 395.459 385.505 394.437 385.995Z" fill="white"/>
<path fill-rule="evenodd" clip-rule="evenodd" d="M402.939 374.785C395.006 367.704 371.085 367.823 361.446 370.064C353.631 371.976 345.601 377.145 348.776 384.508C348.945 386.861 349.539 389.163 350.528 391.306C352.092 394.752 357.231 397.419 363.886 398.953C371.492 400.623 379.335 400.927 387.048 399.85C396.308 398.505 407.274 394.398 406.706 385.098C406.881 383.209 406.633 381.304 405.982 379.521C405.331 377.738 404.293 376.121 402.94 374.785H402.939ZM403.129 383.777C401.377 388.663 395.456 391.117 390.388 392.368C379.374 395.082 365.402 393.808 360.263 391.66C356.166 389.961 350.623 386.939 349.723 382.573C346.005 365.06 402.206 367.326 403.603 379.788C403.735 381.12 403.573 382.466 403.129 383.73V383.777ZM261.454 370.702C249.944 373.864 248.025 381.984 262.283 386.09C269.388 388.049 282.296 388.78 290.063 386.396C295.037 384.886 298.376 382.03 298.258 377.475C297.974 367.704 267.896 368.956 261.454 370.702ZM292.835 382.975C285.114 387.53 263.515 386.374 256.244 381.772C248.973 377.17 256.789 367.611 284.38 371.764C288.027 372.307 296.222 373.842 296.222 377.524C296.228 378.657 295.913 379.77 295.314 380.734C294.715 381.698 293.856 382.475 292.835 382.975Z" fill="white"/>
<path fill-rule="evenodd" clip-rule="evenodd" d="M301.314 371.693C290.064 361.544 239.334 363.173 247.149 381.535C247.301 383.85 247.862 386.119 248.808 388.238C254.444 400.794 306.169 401.927 304.985 382.031C305.141 380.147 304.895 378.252 304.263 376.47C303.63 374.688 302.625 373.06 301.314 371.693ZM288.761 389.301C277.748 392.014 263.775 390.74 258.66 388.592C254.563 386.869 249.02 383.872 248.12 379.481C244.331 361.71 300.484 364.282 302 376.72C302.829 383.801 295.7 387.601 288.761 389.299V389.301ZM84.0418 358.264C72.5075 361.426 70.6128 369.545 84.8466 373.651C91.9517 375.611 104.883 376.318 112.651 373.958C117.625 372.423 120.963 369.591 120.822 365.037C120.538 355.171 90.1282 356.611 84.0418 358.263V358.264ZM115.399 370.513C107.678 375.091 86.0789 373.935 78.8076 369.332C71.5364 364.729 79.1151 355.171 106.968 359.325C110.615 359.868 118.81 361.402 118.81 365.084C118.83 366.224 118.519 367.345 117.914 368.313C117.309 369.28 116.435 370.052 115.399 370.535V370.513ZM14.9809 339.878C3.44661 343.04 1.55193 351.16 15.7858 355.266C22.8908 357.225 35.8224 357.932 43.5899 355.572C48.564 354.038 51.9022 351.206 51.761 346.651C51.4772 337.021 21.3274 338.107 14.9809 339.877V339.878ZM46.3381 352.127C38.6169 356.706 16.9943 355.526 9.74678 350.947C2.49927 346.367 10.1967 336.786 37.907 340.916C41.5539 341.482 49.63 343.017 49.7488 346.698C49.7648 347.834 49.4516 348.951 48.8466 349.913C48.2416 350.876 47.3705 351.645 46.3381 352.126V352.127Z" fill="white"/>
<path fill-rule="evenodd" clip-rule="evenodd" d="M58.4873 351.183C58.3211 348.351 58.6773 346.157 57.2325 344.292C53.4431 333.459 23.8619 333.671 13.3474 336.22C9.45027 336.987 5.8239 338.762 2.83167 341.365C1.5123 342.506 0.592118 344.037 0.204674 345.734C-0.182771 347.432 -0.0173229 349.208 0.677007 350.806C0.855827 353.091 1.4327 355.327 2.38174 357.414C8.0183 370.064 59.6958 371.032 58.4885 351.183H58.4873ZM51.3823 354.535C44.7984 359.468 32.4355 360.341 24.0756 359.869C20.042 359.755 16.0493 359.031 12.2338 357.722C-4.34461 350.901 -0.0578346 340.375 13.6074 337.047C23.4832 334.687 53.8693 335.797 55.5503 345.709C55.766 347.429 55.4864 349.174 54.7442 350.741C54.0019 352.308 52.8277 353.633 51.3585 354.56L51.3823 354.535ZM47.6166 100.535C52.8501 104.193 56.9191 109.272 59.3397 115.168C59.427 115.367 59.5745 115.533 59.7614 115.644C59.9483 115.754 60.1654 115.804 60.3821 115.786C60.5988 115.768 60.8044 115.682 60.97 115.542C61.1356 115.401 61.2529 115.213 61.3056 115.002C62.6041 109.324 65.4759 104.124 69.5942 99.9921C69.695 99.9035 69.7758 99.7945 69.8311 99.6724C69.8864 99.5504 69.915 99.418 69.915 99.284C69.915 99.1501 69.8864 99.0177 69.8311 98.8956C69.7758 98.7735 69.695 98.6646 69.5942 98.576C64.7931 94.8357 60.9603 90.0044 58.4161 84.486C58.4161 84.227 57.7762 84.0613 57.6349 84.486C54.343 94.588 47.1192 98.647 47.1905 99.7566C47.19 99.9117 47.2288 100.064 47.3033 100.2C47.3778 100.336 47.4856 100.452 47.6166 100.535ZM58.0849 85.9495C60.2075 91.028 63.4445 95.5684 67.5583 99.2373C64.0747 102.747 61.4984 107.048 60.0508 111.769C57.6611 106.942 54.1242 102.769 49.7476 99.6147C53.6712 95.8593 56.5445 91.1493 58.0837 85.9495H58.0849ZM114.807 16.561C120.082 20.1742 124.194 25.2317 126.648 31.1229C126.736 31.3214 126.883 31.4878 127.07 31.5986C127.257 31.7094 127.474 31.7591 127.691 31.7409C127.907 31.7226 128.113 31.6373 128.279 31.4967C128.444 31.3562 128.562 31.1676 128.614 30.9573C129.907 25.3306 132.735 20.169 136.784 16.0416C136.885 15.953 136.966 15.8441 137.021 15.722C137.076 15.5999 137.105 15.4675 137.105 15.3336C137.105 15.1996 137.076 15.0672 137.021 14.9452C136.966 14.8231 136.885 14.7141 136.784 14.6255C131.946 10.8948 128.086 6.05237 125.535 0.511943C125.535 0.275336 124.895 0.110894 124.73 0.511943C121.462 10.6139 114.214 14.6729 114.285 15.7825C114.301 15.945 114.357 16.1011 114.448 16.2369C114.539 16.3727 114.662 16.484 114.807 16.561ZM134.748 15.2632C131.255 18.7848 128.678 23.1029 127.24 27.8424C124.822 23.0046 121.243 18.8374 116.819 15.7116C133.468 -0.337474 115.47 -2.67397 134.748 15.2632ZM449.668 131.689C444.887 127.978 441.07 123.179 438.536 117.694C438.536 117.435 437.896 117.269 437.755 117.694C434.486 127.748 427.215 131.855 427.31 132.988C427.405 134.121 430.033 134.286 434.605 140.069C439.508 146.276 438.844 148.966 440.503 148.824C442.161 148.682 441.024 146.464 444.53 139.927C447.63 134.049 449.999 133.554 449.999 132.42C450.006 132.281 449.98 132.142 449.922 132.015C449.865 131.887 449.777 131.776 449.668 131.689ZM440.194 144.953C437.781 140.113 434.201 135.945 429.773 132.822C448.033 115.286 428.802 114.838 447.702 132.421C444.209 135.951 441.617 140.265 440.147 145.001L440.194 144.953ZM206.982 246.392C204.614 244.032 98.5593 223.429 85.604 220.856C85.5667 220.571 85.442 220.304 85.2469 220.093C85.0518 219.882 84.7959 219.736 84.5142 219.675L78.7827 218.494C78.5975 218.399 78.3932 218.346 78.1849 218.34C77.9765 218.333 77.7694 218.373 77.5786 218.457C77.3878 218.541 77.2183 218.666 77.0824 218.823C76.9464 218.981 76.8476 219.167 76.7931 219.367C75.3721 224.56 90.0083 310.587 96.0711 316.134C100.405 320.193 192.605 349.553 199.995 349.176C200.322 349.199 200.647 349.115 200.921 348.936C201.195 348.757 201.402 348.492 201.511 348.184C203.879 342.213 207.171 254.298 207.266 247.618C207.29 247.335 207.337 246.746 206.982 246.392ZM200.446 341.743C181.499 337.188 122.1 317.503 106.919 311.061C103.32 309.526 103.485 309.55 102.751 307.946C101.75 305.418 100.904 302.833 100.217 300.204C136.121 309.975 194.951 323.215 201.653 326.166C201.322 332.302 200.848 337.848 200.446 341.743ZM201.724 325.08C187.846 318.849 113.717 301.879 99.8854 298.693C97.7307 290.574 95.5274 279.812 93.9176 271.575C129.869 280.425 195.923 293.926 203.288 296.616C202.838 305.703 202.293 315.993 201.724 325.22V325.08ZM203.312 295.719C187.159 289.393 107.252 273.085 93.6339 270.3C91.9754 261.686 90.3894 252.717 89.0396 244.552C131.67 255.031 197.06 268.153 204.425 270.891C204.118 278.42 203.692 287.058 203.312 295.743V295.719ZM205.278 247.785C205.278 251.514 204.614 266.076 204.473 269.994C189.173 263.787 105.002 246.628 88.8259 243.324C87.4287 234.709 86.3151 227.062 85.7002 221.776C107.796 226.496 205.302 246.675 205.279 247.809L205.278 247.785ZM322.938 217.599C320.81 217.728 318.716 218.19 316.732 218.967C306.122 222.177 260.792 237.849 243.314 244.929C239.241 246.534 238.577 246.794 238.577 247.572C238.577 250.734 234.48 314.27 233.462 339.618C233.327 339.741 233.22 339.891 233.147 340.057C233.074 340.224 233.036 340.404 233.035 340.586C232.752 347.5 232.798 347.925 233.509 348.515C233.684 348.652 233.888 348.746 234.106 348.791C234.324 348.836 234.549 348.83 234.764 348.775C250.892 344.739 304.227 314.034 306.24 310.398C309.225 305.017 322.345 225.433 323.221 218.943C323.316 218.329 323.435 217.809 322.938 217.597V217.599ZM299.254 303.791C294.991 308.134 253.901 331.263 235.64 338.532C235.83 333.812 236.114 328.454 236.351 323.757C254.729 317.526 283.718 303.696 301.884 293.665C301.26 297.103 300.374 300.488 299.232 303.791H299.254ZM302.262 291.99C289.781 297.937 248.122 318.141 236.375 322.861C236.801 314.955 237.298 305.868 237.796 296.9C257.169 291.425 289.023 277.357 307.07 268.578C305.697 275.305 303.731 285.099 302.239 291.944L302.262 291.99ZM307.402 266.831C288.455 274.902 250.111 291.659 237.891 295.884C238.341 287.812 238.719 280.826 239.217 272.282C263.859 264.839 287.989 255.804 311.452 245.234C311.666 244.975 311.997 243.299 307.379 266.782L307.402 266.831ZM311.902 243.535C300.226 248.256 250.799 267.279 239.264 271.267C239.928 259.466 240.402 250.545 240.472 248.114C247.174 244.857 300.58 225.197 316.259 220.264C315.169 225.834 313.63 234.189 311.877 243.488L311.902 243.535ZM345.199 322.861C351.19 327.062 363.175 332.019 371.251 332.302C376.437 332.515 380.534 330.933 381.955 326.614C385.295 316.158 341.03 300.015 338.118 312.571C337.265 316.537 341.907 320.501 345.199 322.861ZM360.404 312.076C365.591 313.987 381.719 320.762 380.014 326.047C377.432 334.001 362.134 328.998 354.412 325.623C350.007 323.711 343.944 320.572 340.936 316.796C336.909 311.627 341.907 305.114 360.404 312.028V312.076ZM156.797 360.435C149.052 353.354 126.648 353.354 116.535 355.501C106.281 352.268 80.5361 351.182 71.8913 359.797C70.5972 360.93 69.6929 362.439 69.3063 364.112C68.9196 365.785 69.0702 367.536 69.7367 369.119C69.8279 370.575 70.082 372.015 70.4941 373.415C67.5447 373.631 64.6155 374.065 61.7306 374.713C53.8919 376.624 45.9095 381.793 49.0602 389.156C49.209 391.471 49.7706 393.741 50.7186 395.859C56.3552 408.415 108.08 409.548 106.895 389.652C106.906 387.937 106.772 386.223 106.493 384.531C108.731 384.283 110.947 383.873 113.124 383.304C128.803 388.874 161.415 386.679 160.491 370.748C160.648 368.866 160.399 366.972 159.762 365.194C159.125 363.415 158.114 361.793 156.797 360.435ZM90.6731 396.923C79.6838 399.637 65.7111 398.386 60.5719 396.214C56.4751 394.515 50.9323 391.494 50.0325 387.104C48.2328 378.702 60.7132 374.902 70.874 374.572C71.1784 375.519 71.6341 376.412 72.2237 377.215C51.2873 378.324 48.3503 389.157 64.1951 393.736C75.7531 396.945 100.881 397.206 100.17 385.003C104.338 385.003 103.936 384.602 103.96 385.003C104.078 391.917 97.3283 395.293 90.6731 396.922V396.923ZM73.4311 378.466C78.9489 383.4 90.7206 384.909 98.0857 384.98C99.1042 396.143 66.8947 394.916 58.1549 389.394C52.7783 386.019 55.1704 378.395 73.4311 378.466ZM120.419 372.968C113.835 377.901 101.473 378.774 93.1127 378.302C89.0779 378.2 85.0834 377.475 81.271 376.155C64.6925 369.287 69.0743 358.784 82.6445 355.48C92.5441 353.12 122.906 354.23 124.587 364.142C124.801 365.856 124.523 367.594 123.785 369.156C123.047 370.719 121.88 372.041 120.419 372.969V372.968ZM124.232 359.609C130.414 359.443 151.539 360.105 151.658 366.265C151.872 374.761 135.246 375.02 126.72 374.313C128.331 370.726 127.904 363.29 124.232 359.609ZM157.011 369.379C153.481 379.316 133.091 380.307 122.623 379.174C123.739 378.335 124.72 377.333 125.535 376.201C136.098 377.334 153.955 376.791 153.648 366.217C153.388 357.65 131.527 357.744 122.859 358.523C121.462 357.541 119.942 356.747 118.336 356.163C126.762 355.262 135.275 355.588 143.607 357.13C151.588 358.688 159.664 361.851 157.012 369.379H157.011Z" fill="white"/>
</svg>
