<svg width="111" height="63" viewBox="0 0 111 63" fill="none" xmlns="http://www.w3.org/2000/svg">
<path d="M75.8295 0C74.85 0.874607 74.0729 1.91326 73.5427 3.05655C73.0125 4.19984 72.7396 5.42536 72.7396 6.66301C72.7396 7.90066 73.0125 9.12618 73.5427 10.2695C74.0729 11.4128 74.85 12.4514 75.8295 13.326L96.107 31.4575L75.7799 49.6293L65.4401 40.3819C63.4631 38.6153 60.7822 37.6229 57.9868 37.6229C55.1915 37.6229 52.5106 38.6153 50.5336 40.3819L75.7663 62.9432L111 31.4454L75.8295 0Z" fill="white"/>
<path d="M75.829 37.9601C79.8206 37.9601 83.0565 35.0674 83.0565 31.499C83.0565 27.9307 79.8206 25.0379 75.829 25.0379C71.8374 25.0379 68.6016 27.9307 68.6016 31.499C68.6016 35.0674 71.8374 37.9601 75.829 37.9601Z" fill="white"/>
<path d="M35.175 63C37.1511 61.2326 38.2612 58.8359 38.2612 56.337C38.2612 53.8381 37.1511 51.4414 35.175 49.674L14.9066 31.5425L35.2337 13.3707L45.5644 22.6181C47.5414 24.3847 50.2224 25.3771 53.0177 25.3771C55.813 25.3771 58.4939 24.3847 60.471 22.6181L35.2337 0.0567637L0 31.5546L35.175 63Z" fill="white"/>
<path d="M35.1745 37.9601C39.1661 37.9601 42.4019 35.0674 42.4019 31.499C42.4019 27.9307 39.1661 25.0379 35.1745 25.0379C31.1829 25.0379 27.9471 27.9307 27.9471 31.499C27.9471 35.0674 31.1829 37.9601 35.1745 37.9601Z" fill="white"/>
</svg>
