<svg width="20" height="17" viewBox="0 0 20 17" fill="none" xmlns="http://www.w3.org/2000/svg">
<g id="Hide balances button">
<path id="Vector" d="M0 8.5C0.869343 3.66422 5.01587 0 10 0C14.9841 0 19.1307 3.66422 20 8.5C19.1307 13.3357 14.9841 17 10 17C5.01587 17 0.869343 13.3357 0 8.5ZM10 13.2222C12.5525 13.2222 14.6217 11.108 14.6217 8.5C14.6217 5.89199 12.5525 3.77778 10 3.77778C7.44752 3.77778 5.37833 5.89199 5.37833 8.5C5.37833 11.108 7.44752 13.2222 10 13.2222ZM10 11.3333C8.4685 11.3333 7.227 10.0648 7.227 8.5C7.227 6.93515 8.4685 5.66667 10 5.66667C11.5315 5.66667 12.773 6.93515 12.773 8.5C12.773 10.0648 11.5315 11.3333 10 11.3333Z" fill="#606E76"/>
<rect id="Rectangle 253" x="0.40625" y="4.11719" width="2" height="21" rx="1" transform="rotate(-60 0.40625 4.11719)" fill="white"/>
</g>
</svg>
