<svg width="1920" height="585" viewBox="0 0 1920 585" fill="none" xmlns="http://www.w3.org/2000/svg">
<path d="M140.834 78.3958C140.724 80.8492 141.945 87.9079 139.887 89.6349C139.788 89.7194 139.667 89.7745 139.538 89.794C139.409 89.8135 139.277 89.7967 139.158 89.7454C139.038 89.6941 138.935 89.6103 138.86 89.5036C138.785 89.397 138.742 89.2715 138.735 89.1415L138.2 78.1217C138.193 77.9549 138.14 77.7932 138.046 77.6552C137.951 77.5172 137.82 77.4084 137.667 77.3412C137.514 77.274 137.345 77.2512 137.18 77.2753C137.015 77.2994 136.859 77.3695 136.732 77.4775L126.704 85.8931C126.597 85.985 126.467 86.0458 126.328 86.069C126.189 86.0923 126.046 86.0772 125.914 86.0252C125.782 85.9733 125.666 85.8865 125.578 85.774C125.49 85.6615 125.433 85.5275 125.414 85.386C125.085 82.5214 133.865 76.0932 136.005 74.517C136.18 74.3889 136.323 74.2215 136.422 74.0279C136.521 73.8344 136.573 73.6201 136.574 73.402C136.575 73.1839 136.526 72.968 136.429 72.7714C136.333 72.5747 136.192 72.4028 136.018 72.2692L125.455 64.2785C125.229 64.1221 125.073 63.8838 125.02 63.6143C124.967 63.3447 125.021 63.0651 125.171 62.8349C125.321 62.6046 125.555 62.4419 125.823 62.3813C126.092 62.3208 126.373 62.3671 126.607 62.5104C130.174 64.4384 133.508 66.6679 136.608 69.199C137.45 69.8843 137.912 69.6833 137.994 68.5959C138.145 66.4852 138.131 51.7373 139.325 51.0794C139.42 51.0273 139.527 50.9999 139.635 51C139.744 51.0001 139.85 51.0277 139.944 51.0801C140.038 51.1325 140.116 51.2079 140.171 51.299C140.226 51.3902 140.256 51.4939 140.257 51.6003L140.696 69.9254C140.698 69.9853 140.716 70.0435 140.749 70.0934C140.782 70.1434 140.828 70.1828 140.883 70.2073C140.938 70.2317 140.998 70.2401 141.058 70.2314C141.117 70.2228 141.172 70.1975 141.218 70.1584C143.372 68.1985 151.644 60.2078 154.045 59.9473C154.256 59.9228 154.47 59.9662 154.655 60.0713C154.84 60.1763 154.987 60.3375 155.074 60.5315C155.161 60.7255 155.184 60.9422 155.14 61.1502C155.095 61.3581 154.985 61.5465 154.827 61.688L142.837 72.7078C142.727 72.8082 142.64 72.9312 142.583 73.0682C142.525 73.2053 142.498 73.3532 142.503 73.5017C142.509 73.6502 142.546 73.7958 142.613 73.9285C142.68 74.0612 142.775 74.1778 142.891 74.2703C144.359 75.4353 153.565 83.1382 153.455 84.591C153.433 84.8396 153.342 85.0776 153.193 85.2782C153.045 85.4789 152.843 85.6342 152.613 85.7268C152.382 85.8193 152.13 85.8454 151.886 85.8022C151.643 85.7589 151.416 85.648 151.232 85.4819L142.48 77.6968C141.446 76.774 140.898 77.007 140.834 78.3958Z" fill="white"/>
<path d="M843.129 403.237L842.992 414.997C842.993 415.15 842.963 415.301 842.906 415.443C842.848 415.585 842.763 415.714 842.655 415.822C842.547 415.931 842.419 416.018 842.278 416.077C842.137 416.137 841.986 416.168 841.832 416.168C841.679 416.169 841.527 416.14 841.386 416.082C841.244 416.025 841.115 415.94 841.006 415.832C840.897 415.725 840.81 415.597 840.751 415.456C840.691 415.315 840.66 415.163 840.659 415.01L840.289 402.976C840.286 402.867 840.251 402.76 840.189 402.67C840.127 402.579 840.041 402.508 839.94 402.465C839.839 402.422 839.728 402.408 839.62 402.426C839.512 402.444 839.411 402.492 839.329 402.565L831.866 409.13C831.773 409.214 831.662 409.274 831.541 409.305C831.421 409.337 831.294 409.34 831.171 409.313C831.048 409.286 830.933 409.231 830.834 409.152C830.736 409.072 830.657 408.971 830.604 408.856C829.506 406.403 837.024 400.756 838.615 399.481C838.741 399.382 838.842 399.256 838.913 399.112C838.984 398.969 839.022 398.811 839.024 398.652C839.027 398.492 838.994 398.333 838.928 398.188C838.862 398.042 838.765 397.913 838.643 397.809L828.381 389.065C828.203 388.916 828.079 388.712 828.027 388.485C827.975 388.257 827.998 388.018 828.093 387.804C829.136 385.474 838.08 393.642 839.192 394.629C839.297 394.722 839.426 394.782 839.565 394.802C839.704 394.823 839.845 394.803 839.973 394.745C840.1 394.687 840.208 394.594 840.284 394.476C840.359 394.358 840.399 394.221 840.399 394.081V376.866C840.398 376.648 840.478 376.439 840.623 376.278C840.768 376.118 840.967 376.02 841.181 376.003C843.842 375.77 843.074 391.614 842.964 393.451C842.956 393.624 843.001 393.796 843.095 393.943C843.189 394.089 843.326 394.203 843.488 394.268C843.65 394.333 843.827 394.345 843.997 394.305C844.166 394.264 844.318 394.171 844.432 394.04C847.24 390.778 850.491 388.018 854.186 385.761C854.358 385.646 854.568 385.601 854.772 385.633C854.977 385.666 855.162 385.774 855.29 385.937C855.418 386.099 855.48 386.304 855.464 386.51C855.447 386.717 855.353 386.909 855.201 387.05L844.899 397.425C844.631 397.697 844.476 398.061 844.466 398.442C844.456 398.824 844.591 399.195 844.844 399.481L851.209 406.608C851.382 406.823 851.47 407.094 851.454 407.37C851.438 407.645 851.32 407.904 851.123 408.097C850.926 408.291 850.665 408.404 850.389 408.415C850.113 408.426 849.843 408.334 849.631 408.157L843.856 402.921C843.38 402.483 843.138 402.588 843.129 403.237Z" fill="white"/>
<path d="M1567.64 364.056C1568.43 367.5 1569.9 370.751 1571.96 373.616C1574.03 376.482 1576.64 378.903 1579.66 380.737C1582.68 382.57 1586.03 383.779 1589.52 384.289C1593.01 384.8 1596.57 384.602 1599.99 383.709C1624.27 377.672 1626.97 346.447 1606.84 334.807C1602.33 332.227 1597.17 331.02 1591.99 331.334C1586.81 331.647 1581.83 333.469 1577.67 336.575C1573.5 339.68 1570.34 343.936 1568.56 348.818C1566.78 353.7 1566.46 358.997 1567.64 364.057V364.056ZM1578.02 338.038C1580.81 335.864 1584.02 334.302 1587.45 333.454C1590.88 332.606 1594.45 332.492 1597.92 333.118C1601.4 333.744 1604.71 335.096 1607.63 337.087C1610.54 339.078 1613.01 341.663 1614.86 344.673C1630.81 370.625 1596 396.881 1575.18 375.187C1572.77 372.638 1570.92 369.612 1569.75 366.304C1568.58 362.996 1568.11 359.479 1568.38 355.979C1568.65 352.48 1569.65 349.076 1571.31 345.986C1572.97 342.896 1575.26 340.189 1578.03 338.038H1578.02Z" fill="white"/>
<path d="M1593.69 379.035C1596.75 378.952 1599.76 378.201 1602.51 376.835C1605.25 375.47 1607.67 373.522 1609.59 371.127C1611.51 368.733 1612.88 365.948 1613.61 362.968C1614.35 359.987 1614.42 356.882 1613.83 353.87C1612.95 349.329 1610.6 345.205 1607.14 342.13C1603.69 339.055 1599.33 337.199 1594.72 336.847C1591.66 336.615 1588.59 337.052 1585.72 338.129C1581.82 339.748 1578.43 342.382 1575.9 345.757C1565.48 362.788 1578.58 379.632 1593.69 379.034V379.035ZM1589.65 373.627C1590.77 369.547 1591.6 366.066 1591.84 365.856C1592.14 365.663 1592.48 365.535 1592.83 365.481C1594.2 365.13 1601.3 362.842 1602.58 362.503C1603.11 362.363 1603.46 362.33 1602.55 363.272C1602.56 363.755 1589.27 375.044 1589.65 373.627ZM1591.53 361.384C1591.17 362.517 1590.87 362.275 1590.7 362.139C1588.65 360.128 1587.07 358.539 1585.35 356.56C1584.53 355.611 1584.02 355.278 1584.51 355.167C1587.25 354.508 1590.03 354.036 1592.84 353.749C1592.95 353.733 1593.61 353.625 1593.38 354.328C1593.38 354.603 1592.04 359.743 1591.53 361.384ZM1595.47 354.272C1597.69 355.717 1599.75 357.399 1601.61 359.288C1602.76 360.366 1602.33 360.385 1599.39 361.252C1592.9 363.199 1592.74 362.997 1592.98 362.015C1594.79 354.58 1594.64 353.805 1595.47 354.272ZM1598.1 341.719C1598.87 343.663 1602.4 356.621 1602.4 356.72C1603.5 361.162 1603.5 357.936 1595.82 352.826C1595.46 352.584 1595.55 352.404 1595.76 351.254C1595.89 350.546 1597.65 342.496 1597.8 341.947C1597.93 341.519 1598.04 341.585 1598.1 341.719ZM1596.7 341.428C1597.34 340.937 1596.2 343.35 1594.88 348.741C1593.97 352.409 1593.93 352.138 1593.34 352.171C1590.14 352.608 1586.97 353.204 1583.83 353.958C1587.83 349.498 1592.13 345.311 1596.7 341.428ZM1583.14 357.269C1583.45 357.018 1586.79 361.659 1590.16 365.141C1589.76 367.855 1589.21 370.547 1588.52 373.2C1588.15 374.67 1582.35 357.639 1583.14 357.269Z" fill="white"/>
<path d="M1425.64 349.909C1437 355.364 1494.91 372.861 1504.22 370.489C1508.3 369.449 1510.06 365.431 1512.37 360.886C1532.66 320.891 1535.81 315.785 1527.67 303.951C1524.97 300.021 1522.09 299.27 1514.91 296.979C1501.09 292.564 1453.31 279.989 1438.77 279.567C1428.63 278.709 1423.75 291.325 1417.47 303.04C1415.24 307.21 1406.7 326.86 1408.95 333.16C1413.45 345.768 1418.45 346.46 1425.64 349.91L1425.64 349.909ZM1411.73 325.195C1412.89 319.446 1418.75 304.358 1428.9 288.054C1434.03 279.823 1438.97 282.967 1439.01 282.018C1454.13 283.733 1490.39 292.541 1505.84 297.074C1530.45 304.291 1531.22 301.563 1512.95 338.306C1504.47 355.354 1502.88 362.008 1495.2 360.458C1462.17 353.799 1422.29 341.045 1414.14 335.818C1410.95 334.087 1411.01 328.772 1411.73 325.196H1411.73V325.195Z" fill="white"/>
<path d="M1579.77 305.131C1570.57 314.734 1544.91 370.636 1544.41 381.559C1544.24 385.304 1546.68 382.328 1571.82 394.423C1603.08 409.46 1609.71 418.166 1612.64 413.479C1620.54 400.816 1646.18 336.873 1641.52 330.702C1638.02 326.07 1621.65 317.556 1612.54 312.551C1607.93 310.016 1593.97 302.124 1586.21 302.251C1584.98 302.106 1583.73 302.297 1582.59 302.804C1581.46 303.311 1580.48 304.115 1579.77 305.132V305.131ZM1588.26 305.836C1604.95 310.227 1633.53 327.492 1638.12 331.376C1639.99 332.964 1640.31 333.261 1632.46 358.266C1626.76 374.658 1620.12 390.707 1612.57 406.331C1610.07 411.56 1610.27 411.102 1609.47 410.696C1592.34 402.032 1591.48 398.623 1559.55 384.698C1546.12 378.848 1546.46 385.291 1549.7 374.82C1556.85 354.232 1565.9 334.353 1576.72 315.442C1577.42 314.21 1578.3 313.195 1579.95 310.338C1581.98 306.834 1584.37 304.809 1588.27 305.835L1588.26 305.836Z" fill="white"/>
<path d="M1442.36 298.984C1438.78 299.25 1435.42 300.785 1432.88 303.313C1430.33 305.841 1428.77 309.195 1428.48 312.772C1428.41 330.405 1447.45 330.929 1452.79 316.809C1455.88 308.605 1451.5 299.422 1442.36 298.984ZM1448.15 320.066C1442.05 326.98 1431.67 325.022 1431.1 313.991C1431.32 303.112 1442.81 297.28 1448.95 304.256C1450.67 306.571 1451.54 309.419 1451.4 312.306C1451.25 315.193 1450.1 317.938 1448.14 320.066H1448.15Z" fill="white"/>
<path d="M1470.02 310.086C1488.85 315.867 1497.77 319.14 1499.62 318.894C1500.29 318.803 1500.74 318.025 1500.17 317.577C1495.41 313.895 1474.97 308.415 1472.21 308.465C1470.37 308.498 1469.88 308.344 1469.55 309.312C1469.41 309.682 1469.63 309.965 1470.02 310.086Z" fill="white"/>
<path d="M1491.23 322.498C1484.89 320.073 1478.42 318.049 1471.83 316.439C1470.51 316.072 1469.1 316.241 1467.91 316.911C1466.21 318.009 1468.67 318.832 1470.65 319.211C1485.21 322.07 1491.09 325.961 1491.99 323.736C1492.16 323.272 1491.98 322.864 1491.23 322.498Z" fill="white"/>
<path d="M1483.65 329.56C1482.83 329.116 1469.06 324.588 1465.86 324.004C1465.62 323.961 1465.36 324.008 1465.15 324.136C1464.93 324.264 1464.77 324.466 1464.69 324.703C1464.61 324.941 1464.62 325.199 1464.72 325.43C1464.82 325.661 1464.99 325.85 1465.21 325.962C1465.9 326.396 1482.06 331.516 1482.86 331.662C1484.18 331.904 1485.05 330.3 1483.65 329.56Z" fill="white"/>
<path d="M1586.5 321.188C1587.56 320.761 1585.51 324.599 1587.12 325.107C1587.47 325.217 1587.86 324.385 1588 324.048C1589.46 320.421 1588.88 320.494 1590.38 321.07C1593.3 322.19 1593.57 322.14 1594 322.052C1594.43 321.964 1594.5 321.696 1594.22 321.457C1593.32 320.692 1592.38 319.971 1591.42 319.295C1590.34 318.548 1595.45 317.333 1595.09 316.476C1594.73 315.621 1594.71 316.117 1591.17 317.072C1589.89 317.42 1590.65 316.655 1590.96 313.9C1590.99 313.671 1590.93 313.439 1590.79 313.254C1590.65 313.069 1590.45 312.948 1590.22 312.916C1589.99 312.884 1589.76 312.945 1589.57 313.085C1589.39 313.224 1589.27 313.432 1589.24 313.661C1587.94 317.574 1588.14 317.229 1587.03 316.603C1584.45 315.13 1583.88 315.881 1584.33 317.407C1584.53 318.08 1586.8 318.662 1585.95 319.194C1584.55 320.077 1583.39 320.443 1583.96 321.488C1584.34 322.172 1585.01 321.778 1586.5 321.19L1586.5 321.188Z" fill="white"/>
<path d="M1609.34 394.101C1604.38 393.679 1604.9 395.001 1606.89 390.897C1607.72 389.201 1606.53 388.205 1605.33 389.926C1604.35 391.344 1604.22 392.305 1603.66 391.635C1603.03 390.861 1601.94 389.253 1600.95 389.849C1599.95 390.444 1601.16 391.583 1602.07 393.314C1602.82 394.749 1597.91 393.094 1597.73 394.719C1597.69 395.023 1598.17 395.596 1598.64 395.756C1601.37 396.68 1601.86 395.322 1601.31 397.024C1601.12 397.619 1600.64 398.295 1601.23 398.901C1601.5 399.176 1601.78 398.937 1601.98 398.709C1604.7 395.499 1603.12 396.023 1605.49 398.643C1606.89 400.198 1607.51 399.467 1607.35 398.96C1606.07 394.79 1604.78 396.556 1609.47 394.79C1609.95 394.609 1609.61 394.175 1609.34 394.101Z" fill="white"/>
<path d="M1622.12 343.688C1624 343.941 1624.63 343.343 1624.46 344.152C1623.88 346.736 1624.38 345.999 1626.31 344.308C1626.9 345.175 1628.23 347.444 1628.37 346.035C1628.75 342.116 1625.78 344.095 1631.25 342.097C1631.46 342.023 1631.76 342.097 1631.89 341.455C1631.94 341.204 1630.82 341.179 1629.51 341.093C1629.51 341.131 1628.1 341.368 1628.73 340.02C1629 339.427 1629.14 338.878 1628.54 338.602C1627.65 338.188 1627.43 338.978 1626.86 339.843C1626.19 340.855 1626.29 339.763 1624.61 338.449C1624.06 338.016 1623.3 338.609 1623.75 339.748C1624.35 341.265 1625 341.281 1623.7 341.655C1623.08 341.744 1622.47 341.946 1621.92 342.251C1621.36 342.789 1621.56 343.618 1622.12 343.691V343.688Z" fill="white"/>
<path d="M1564.12 370.15C1563.77 369.618 1562.9 370.359 1562.4 370.823C1560.75 372.337 1560.69 372.886 1560.29 372.138C1560.04 371.674 1559.74 370.701 1559.28 370.853C1559.1 370.913 1558.94 371.035 1558.84 371.198C1558.74 371.361 1558.7 371.555 1558.73 371.744C1558.63 372.597 1558.66 372.447 1557.45 372.293C1555.76 372.293 1555.47 373.717 1556.86 374.359C1558.24 375.001 1558.56 374.68 1558 375.55C1556.58 377.745 1556.92 377.158 1556.73 377.745C1557.24 377.792 1557.24 378.222 1559.34 376.452C1560.05 375.86 1559.81 376.579 1560.86 378.524C1560.97 378.746 1561.27 378.863 1561.49 379.031C1562.09 377.214 1560.83 375.684 1561.92 375.832C1562.4 375.898 1563.65 376.29 1563.7 375.887C1563.79 375.292 1563.39 374.957 1562.36 374.356C1560.94 373.541 1565.22 371.794 1564.12 370.15H1564.12Z" fill="white"/>
<path d="M1607.52 325.211C1608.92 325.854 1609.02 325.456 1608.44 326.339C1607.49 327.53 1606.9 328.244 1607.36 328.721C1607.81 329.199 1607.87 329.199 1610.06 327.384C1610.78 326.786 1610.17 327.299 1611.25 329.321C1611.37 329.547 1611.71 330.512 1612.3 330.054C1612.88 329.596 1611.62 326.596 1612.74 326.761C1613.23 326.827 1614.53 327.233 1614.59 326.816C1614.68 326.18 1614.26 325.865 1613.2 325.239C1611.73 324.372 1615.58 323.403 1614.43 321.729C1614.06 321.18 1613.16 321.943 1612.65 322.421C1610.95 323.985 1611.46 323.681 1611.06 322.903C1610.8 322.418 1610.46 321.408 1610.02 321.575C1609.83 321.629 1609.66 321.753 1609.55 321.924C1609.44 322.095 1609.4 322.301 1609.43 322.502C1609.32 323.379 1609.98 324.335 1607.94 323.795C1606.93 323.52 1606.63 323.891 1606.59 324.231C1606.55 324.57 1606.79 324.876 1607.52 325.21V325.211Z" fill="white"/>
<path fill-rule="evenodd" clip-rule="evenodd" d="M1659.58 326.657C1660.22 329.46 1660.13 332.38 1659.32 335.139C1658.19 338.926 1656.68 342.589 1654.81 346.073C1654.23 346.959 1654.41 347.352 1654.88 348.351C1655.34 349.33 1656.08 350.886 1656.63 354.056C1657.01 357.693 1656.79 361.367 1655.99 364.935C1655.31 369.317 1652.32 373.191 1650.37 375.712C1649.46 376.887 1648.78 377.764 1648.66 378.266C1648.59 378.581 1648.69 379.079 1648.83 379.784C1649.38 382.621 1650.59 388.811 1644.03 399.876C1643.7 400.425 1643.85 400.891 1644.16 401.818C1644.72 403.55 1645.81 406.887 1645.28 415.359C1644.91 425.336 1642.59 435.143 1638.46 444.229C1637.71 445.901 1638.12 447.739 1638.69 450.26C1639.21 452.577 1639.86 455.472 1639.86 459.348C1639.6 467.498 1637.65 475.506 1634.14 482.865C1633.8 483.754 1634.1 484.509 1634.56 485.678C1635.01 486.8 1635.61 488.303 1635.93 490.672C1636.14 492.713 1636.21 494.766 1636.14 496.818C1636.32 501.286 1635.49 503.768 1634.74 505.988C1633.92 508.433 1633.21 510.554 1634.07 514.653C1635.22 519.038 1635.99 523.516 1636.36 528.035C1636.86 534.154 1636.85 540.304 1636.32 546.42C1636.03 548.387 1635.19 550.352 1633.23 549.946C1631.79 549.645 1631.82 548.81 1632 544.527C1632.12 541.695 1632.3 537.36 1632.16 530.676C1631.62 525.274 1630.78 519.906 1629.64 514.596C1628.86 510.653 1629.25 509.318 1630.17 506.15C1630.63 504.584 1631.22 502.573 1631.86 499.579C1631.93 499.222 1631.92 494.957 1631.91 493.314L1631.91 492.74C1631.89 490.043 1631.26 488.411 1630.71 486.971C1629.76 484.5 1629.03 482.597 1631.97 476.859C1634.08 472.016 1635.29 466.829 1635.54 461.554C1635.99 456.469 1635.21 453.007 1634.6 450.285C1634.25 448.683 1633.95 447.338 1633.99 446.071C1634.04 444.304 1634.62 442.921 1635.54 440.748C1636.55 438.358 1637.97 435.01 1639.53 429.142C1640.96 423.753 1642.5 409.805 1641.31 403.917L1639.96 405.316C1637.64 407.709 1637.27 408.087 1637.23 409.276C1636.44 429.953 1627.63 437.271 1622.94 441.162C1621.17 442.63 1619.99 443.611 1620.05 444.637C1620.78 457.642 1617.06 462.864 1607.63 469.828C1606.54 470.622 1606.56 471.648 1606.61 473.722L1606.62 474.218C1606.8 476.965 1606.29 479.713 1605.13 482.21C1603.97 484.707 1602.2 486.872 1599.99 488.508C1596.73 490.668 1596.57 491.095 1596.23 492.029L1596.21 492.076C1596 492.65 1595.83 493.185 1595.68 493.684C1595.04 495.697 1594.6 497.131 1592.18 498.28C1588.97 499.806 1586.89 500.663 1585.53 501.225C1583.39 502.108 1583.02 502.262 1582.78 503.135C1581.75 506.422 1579.48 509.178 1576.45 510.818C1570.35 514.616 1566.51 516.529 1558.19 514.861C1555.98 514.422 1554.1 515.148 1552.05 515.944C1548 517.508 1543.3 519.328 1534.22 512.916C1534.05 512.793 1533.88 512.67 1533.71 512.546C1532.44 511.63 1531.66 511.07 1529.84 511.374C1516.53 513.569 1510.76 508.249 1506.01 503.864C1505.31 503.21 1504.6 502.57 1503.87 501.946C1502.39 500.686 1500.47 500.481 1498.25 500.242C1493.92 499.778 1488.4 499.185 1482.46 490.493C1480.35 487.42 1477.87 486.459 1475.21 485.433C1471.16 483.872 1466.71 482.151 1462.58 472.63C1461.36 469.817 1459.35 468.972 1455.7 467.435L1455.3 467.267C1447.93 464.183 1445.7 458.067 1443.93 453.252C1442.89 450.401 1442.01 448.009 1440.33 446.962C1439.13 446.21 1437.83 445.691 1436.52 445.165C1432.18 443.43 1427.62 441.605 1425.31 431.1C1424.99 429.655 1423.6 428.773 1421.75 427.596C1419.81 426.361 1417.36 424.8 1415.1 421.926C1412.59 418.736 1410.89 415.303 1409.56 412.622C1408.3 410.062 1407.37 408.188 1406.4 407.862C1403.25 406.582 1400.74 404.107 1399.41 400.978C1398.16 398.053 1397.8 396.006 1397.5 394.28C1397.11 392.06 1396.82 390.373 1394.84 388.032C1392.57 385.613 1390.58 382.951 1388.9 380.093C1386.72 376.605 1391.24 374.567 1394.62 376.4C1397.83 378.353 1400.7 380.816 1403.12 383.691C1403.29 383.23 1403.4 382.569 1403.54 381.77C1403.66 381.028 1403.81 380.17 1404.04 379.235C1405.28 374.301 1405.9 373.454 1405.71 372.875C1405.64 372.666 1405.46 372.494 1405.17 372.178C1404.01 370.449 1402.35 369.11 1400.42 368.336C1398.64 367.967 1396.97 367.161 1395.58 365.99C1395.32 365.616 1395.14 365.192 1395.04 364.745C1394.95 364.297 1394.95 363.835 1395.05 363.388C1395.14 362.941 1395.33 362.518 1395.59 362.146C1395.86 361.775 1396.2 361.461 1396.59 361.227C1397.37 360.706 1397.8 360.593 1397.8 360.466C1397.81 360.293 1397.01 360.099 1395.19 358.795C1391.24 355.966 1397.35 350.912 1406.16 353.675C1419.23 357.78 1419.44 370.281 1419.6 379.638C1419.69 384.805 1419.76 389.011 1421.97 390.323C1426.27 392.877 1429.21 392.317 1432.07 391.771C1434.91 391.231 1437.67 390.704 1441.63 393.253C1441.98 393.475 1442.31 393.705 1442.63 393.928C1444.32 395.111 1445.77 396.126 1448.67 395.3C1457.45 392.801 1458.79 393.698 1462.05 395.893C1462.85 396.426 1463.75 397.032 1464.9 397.685C1466.77 398.747 1467.88 398.396 1469.68 397.823C1472.08 397.005 1474.59 396.594 1477.12 396.607C1480.52 396.588 1482.28 397.853 1486.01 400.545L1486.24 400.704C1487.95 401.939 1488.93 401.557 1490.48 400.957C1491.8 400.447 1493.52 399.783 1496.42 399.805C1499.31 399.827 1502.1 400.85 1504.32 402.7C1505.91 404.181 1507.19 404.104 1508.51 404.029C1508.81 404.009 1509.11 403.993 1509.42 403.993C1510.02 403.996 1509.99 403.798 1509.86 402.912C1509.7 401.759 1509.37 399.44 1510.02 394.889C1510.15 393.929 1510.51 393.013 1511.06 392.22C1511.62 391.426 1512.35 390.776 1513.21 390.326C1514.26 389.705 1514.36 389.604 1514.03 388.421C1513.39 386.545 1513.13 384.562 1513.27 382.585C1513.4 380.609 1513.92 378.678 1514.81 376.905C1515.69 375.132 1516.92 373.554 1518.42 372.26C1519.92 370.967 1521.66 369.984 1523.54 369.371C1524.34 369.072 1524.31 368.731 1524.17 366.816C1524.05 365.225 1523.98 363.63 1523.97 362.034C1523.86 353.618 1527.68 349.49 1534.28 344.17C1536.62 342.278 1536.55 339.587 1536.47 336.236C1536.38 332.164 1536.26 327.119 1540.41 321.356C1543.74 317.13 1548.25 314.002 1553.37 312.38C1553.61 312.303 1553.83 312.24 1554.05 312.18C1555.32 311.821 1556.17 311.576 1556.61 309.576L1556.62 309.518C1557.92 303.619 1559.13 298.079 1562.82 293.609C1566.25 289.436 1574.11 282.719 1579.16 284.123C1580.79 284.57 1581.78 286.528 1580.26 286.801C1577.98 286.612 1575.7 287.17 1573.76 288.393C1563.5 294.374 1561.89 302.095 1560.7 307.759C1559.96 311.305 1559.39 314.043 1556.97 315.042C1556.43 315.262 1555.83 315.475 1555.16 315.709C1551.82 316.886 1547.06 318.563 1543.07 324.081C1540.28 327.95 1540.22 332.343 1540.16 336.371C1540.1 340.204 1540.05 343.709 1537.66 346.117C1536.59 347.193 1535.59 348.125 1534.67 348.987C1530.6 352.796 1528.08 355.153 1528.08 361.891C1528.08 363.727 1528.12 365.217 1528.14 366.435C1528.25 370.798 1528.27 371.703 1526.15 372.776C1525.83 372.941 1525.46 373.107 1525.05 373.289C1522.47 374.455 1518.63 376.187 1517.53 381.339C1516.9 384.317 1517.56 386.49 1518.09 388.204C1518.82 390.61 1519.28 392.119 1515.52 393.702C1513.32 394.629 1513.02 396.625 1512.77 400.996C1512.59 404.159 1513.97 404.582 1516.1 405.235C1517.9 405.786 1520.24 406.503 1522.64 409.178L1522.78 409.327C1523.46 410.082 1524.66 411.406 1524.18 412.156C1523.99 412.339 1523.77 412.481 1523.52 412.573C1523.28 412.665 1523.02 412.705 1522.76 412.69C1522.49 412.675 1522.24 412.605 1522.01 412.486C1521.77 412.366 1521.57 412.2 1521.41 411.996C1517.99 409.02 1513.56 407.457 1509.04 407.625C1507.82 407.898 1506.56 407.857 1505.36 407.507C1504.17 407.158 1503.08 406.51 1502.21 405.625C1501.22 404.573 1499.96 403.804 1498.58 403.396C1497.19 402.987 1495.72 402.955 1494.32 403.301C1493.38 403.455 1492.55 403.817 1491.73 404.173C1489.75 405.031 1487.81 405.872 1484.59 403.773C1483.56 403.096 1482.55 402.383 1481.57 401.635C1479.91 400.387 1479.21 399.865 1477.31 399.865C1474.48 399.865 1472.55 400.51 1470.87 401.07C1467.8 402.102 1465.59 402.84 1460.22 398.735C1459.6 398.097 1458.85 397.611 1458.01 397.316C1457.18 397.021 1456.28 396.925 1455.41 397.036C1453.41 397.453 1451.87 397.878 1450.59 398.227C1446.16 399.443 1444.97 399.769 1439.65 395.845C1436.85 393.782 1433.54 394.528 1431.28 395.035C1430.65 395.175 1430.1 395.299 1429.67 395.336C1424.56 395.783 1423.71 394.404 1423.43 394.511C1423.25 394.585 1423.32 395.329 1422.54 397.757C1421.1 403.14 1418.1 407.979 1413.92 411.666C1413.72 411.886 1413.49 411.976 1413.3 412.053C1412.86 412.231 1412.65 412.317 1413.54 413.798C1418 421.163 1421.82 423.399 1424.61 425.029C1426.94 426.388 1428.54 427.329 1429.2 430.473C1430.94 438.798 1434.42 440.213 1438.2 441.744C1440.23 442.569 1442.35 443.432 1444.33 445.432C1445.64 446.757 1446.14 448.181 1446.9 450.296C1447.42 451.778 1448.07 453.6 1449.2 455.966C1451.87 461.577 1455.34 463.08 1460.34 465.242L1460.4 465.267C1464.74 467.153 1465.77 469.558 1466.89 472.17C1468.33 475.54 1469.91 479.247 1478.96 482.602C1482.96 484.086 1484.66 486.386 1486.38 488.705C1488.93 492.152 1491.51 495.641 1501.73 496.575C1504.66 496.836 1506.88 498.88 1509.37 501.16C1513.06 504.549 1517.31 508.459 1525.28 507.825C1531.17 507.356 1531.17 507.315 1531.25 506.651L1531.26 506.538C1531.69 500.881 1533.17 495.355 1535.65 490.251C1540.61 480.652 1545.24 473.484 1553.97 466.731C1554.54 466.154 1555.25 465.727 1556.02 465.485C1560.31 461.298 1568 459.509 1571.31 458.74C1571.87 458.61 1572.3 458.511 1572.57 458.433C1576.61 457.722 1580.72 457.522 1584.81 457.837C1592.08 458.393 1599.03 461.063 1604.8 465.52C1604.88 465.611 1604.98 465.683 1605.09 465.733C1605.2 465.782 1605.32 465.808 1605.45 465.808C1605.57 465.809 1605.69 465.782 1605.8 465.731C1605.88 465.696 1605.95 465.652 1606.01 465.599C1606.04 465.573 1606.07 465.547 1606.09 465.519C1616.24 458.242 1616.19 451.303 1616.16 446.21C1616.14 443.309 1616.12 441.01 1617.99 439.586C1631.14 429.587 1631.96 421.962 1633.16 410.743C1633.26 409.863 1633.35 408.959 1633.46 408.032C1633.61 406.69 1634.99 404.96 1636.76 402.751C1640.2 398.432 1645.11 392.288 1645.11 383.665C1645.11 381.324 1644.86 379.944 1644.69 378.965C1644.45 377.606 1644.34 377.015 1645.21 375.708C1645.57 375.173 1646.01 374.591 1646.5 373.949C1649.13 370.494 1653.11 365.257 1652.7 355.622C1652.54 353.052 1651.76 350.557 1650.44 348.345C1649.71 346.922 1650.89 344.575 1652.36 341.653C1654.97 336.45 1658.51 329.423 1653.75 322.528C1653.21 321.744 1652.65 320.972 1652.07 320.212C1649.73 317.087 1649.6 316.908 1651.74 310.803C1655.89 298.953 1651.24 294.905 1647.78 291.889C1646.27 290.571 1644.99 289.452 1644.76 287.965C1644.11 285.393 1642.93 282.987 1641.29 280.906C1639.65 278.825 1637.59 277.116 1635.24 275.892C1634.12 275.343 1633.15 274.904 1632.29 274.51C1630.96 273.906 1629.87 273.412 1628.85 272.803C1627.71 272.119 1627.42 271.011 1627.08 269.634C1626.3 266.575 1625.19 262.179 1613.51 258.154C1613.15 258.035 1612.79 257.924 1612.43 257.822C1610.44 257.235 1608.25 256.593 1607.37 253.528C1606.99 252.265 1606.33 251.103 1605.45 250.13C1604.56 249.158 1603.46 248.399 1602.24 247.911C1598.22 245.836 1593.7 244.94 1589.2 245.327C1588.6 245.316 1588.29 246.041 1587.78 247.221C1587 249.013 1585.77 251.847 1582.42 254.714C1577.64 259.672 1572.02 263.732 1565.81 266.702C1554.96 271.646 1537.43 275.073 1501.03 268.488C1469.23 262.728 1464.27 249.289 1462.68 244.166C1461.66 240.647 1461.56 236.927 1462.39 233.358C1462.5 232.774 1462.46 232.661 1457.71 231.654C1455.45 230.88 1453 230.851 1450.73 231.572C1446.42 232.822 1442.63 235.435 1439.94 239.021C1438.94 240.052 1438.46 239.945 1437.33 239.688C1436.23 239.437 1434.51 239.048 1431.09 239.432C1427.51 240.184 1424.13 241.679 1421.17 243.822C1417.3 246.552 1414.39 250.426 1412.84 254.899C1412.12 256.587 1411.3 256.609 1409.64 256.648C1408.55 256.675 1407.09 256.708 1405.07 257.229C1395.93 259.581 1392.88 264.827 1391.17 273.932C1390.75 276.171 1390.04 276.461 1388.34 277.156C1386.71 277.823 1384.18 278.863 1380.11 282.359C1375.38 286.44 1374.7 290.315 1374.1 293.663C1373.55 296.76 1373.08 299.407 1369.56 301.343C1358.73 307.3 1358.68 310.3 1358.52 319.743L1358.48 321.648C1358.41 324.676 1357.1 324.99 1354.97 325.497C1353.73 325.79 1352.22 326.148 1350.51 327.136C1344.88 330.39 1343.75 333.674 1342.32 337.836C1341.87 339.137 1341.4 340.525 1340.75 342.023C1340.62 342.237 1340.59 342.491 1340.65 342.73C1340.71 342.97 1340.87 343.175 1341.08 343.302C1345.62 347.025 1346.75 351.599 1344.8 351.92C1344.04 352.044 1344 351.983 1343.7 351.465C1343.23 350.649 1342.1 348.704 1336.47 344.578C1333.26 342.899 1329.62 342.24 1326.02 342.69C1324.78 342.779 1323.55 342.965 1322.34 343.247C1320.61 343.619 1319.77 343.798 1318.49 342.461C1313.15 336.957 1308.45 334.886 1297.51 339.442C1295.77 340.167 1294.83 339.624 1293.34 338.748C1291.53 337.7 1288.92 336.172 1283.1 335.803C1280.9 335.663 1279.32 336.115 1277.99 336.495C1276.01 337.063 1274.6 337.463 1272.57 335.494C1269.4 332.41 1265.64 333.464 1262.72 334.281C1262.38 334.377 1262.04 334.47 1261.72 334.553C1260.02 334.994 1259.65 334.448 1259.13 333.684C1258.6 332.907 1257.91 331.903 1255.51 331.475C1254.43 331.277 1253.33 331.136 1252.23 331.053C1249.34 338.431 1242.89 347.593 1235.09 349.132C1234.65 350.684 1234.66 352.326 1235.1 353.877C1235.54 355.427 1236.4 356.824 1237.59 357.912C1244 363.155 1243.81 363.899 1243.49 365.181C1243.27 366.028 1243 367.109 1244.53 369.881C1247.46 375.154 1251.36 377.257 1256.92 380.25L1257.33 380.47C1258.59 381.151 1258.78 381.614 1259.17 382.61C1259.65 383.798 1260.43 385.74 1263.7 389.7C1267.35 394.14 1270.63 394.948 1273.25 395.599C1275.47 396.145 1277.22 396.578 1278.34 398.991C1281.25 402.77 1284.96 405.854 1289.21 408.019C1292.15 409.428 1295.36 410.195 1298.62 410.269C1300.27 410.483 1300.45 411.071 1300.79 412.121C1301.09 413.043 1301.5 414.327 1303.12 416.032C1306.56 420.051 1311.2 422.844 1316.36 423.988C1318.48 424.47 1320.65 424.67 1322.82 424.584C1323.37 424.595 1323.64 424.421 1323.64 423.826C1323.59 418.432 1333.97 398.365 1356.3 390.389C1358.55 389.549 1360.88 388.924 1363.25 388.52C1363.87 388.476 1363.89 387.924 1363.93 386.667C1364 384.596 1364.13 380.611 1367.12 373.839C1369.11 369.333 1370.7 367.141 1371.73 365.712C1372.7 364.375 1373.18 363.704 1373.07 362.428C1372.85 359.764 1373.02 357.083 1373.59 354.471C1376.23 341.962 1380.06 337.616 1382.66 334.652C1384.14 332.973 1385.23 331.738 1385.49 329.716C1386.24 323.795 1389.41 313.609 1393.66 308.752C1395.17 307.026 1397.64 309.199 1395.97 310.231C1393.34 311.847 1390.11 323.832 1389.17 328.001C1388.93 329.087 1388.86 329.987 1388.8 330.791C1388.68 332.435 1388.58 333.686 1387.05 335.344C1383.64 338.675 1381.02 342.732 1379.38 347.216C1377.97 350.854 1375.93 359.047 1376.77 362.827C1376.94 363.6 1376.92 364.406 1376.7 365.167C1376.47 365.929 1376.06 366.621 1375.5 367.178C1374.52 368.419 1373.65 369.747 1372.92 371.146C1367.25 380.368 1367.53 387.783 1367.71 392.83C1367.81 395.571 1367.89 397.615 1366.97 398.872C1359.22 409.489 1360.78 423.269 1361.42 429.014C1361.52 429.883 1361.6 430.566 1361.62 431.03C1361.71 433.033 1360.7 434.896 1359.44 437.218C1358.1 439.669 1356.5 442.631 1355.62 446.806C1355.07 449.448 1355.53 452.112 1356.08 455.23C1356.34 456.703 1356.62 458.275 1356.81 459.995C1357.04 461.99 1357.27 463.464 1357.44 464.592C1357.88 467.38 1357.98 468.072 1356.91 469.344C1353.3 473.455 1351.34 478.747 1351.37 484.216C1351.94 488.236 1352.91 491.029 1353.65 493.186C1354.78 496.424 1355.4 498.216 1353.38 500.532C1352.97 500.995 1352.58 501.356 1352.23 501.684C1351.3 502.543 1350.6 503.19 1350.4 504.952C1349.63 511.963 1350.98 515.81 1351.94 518.542C1352.84 521.102 1353.4 522.685 1351.54 524.982C1350.89 525.8 1350.33 526.394 1349.86 526.903C1348.82 528.023 1348.19 528.704 1347.73 530.344C1346.81 536 1347.18 541.786 1348.8 547.279C1349.6 548.523 1345.72 548.744 1344.48 544.747C1341.94 536.587 1341.65 528.204 1347.9 522.424C1348.66 521.724 1348.23 520.449 1347.58 518.461C1346.6 515.519 1345.11 511.018 1346.17 504.516C1346.8 500.686 1348.22 499.382 1349.23 498.458C1349.74 498.003 1350.13 497.637 1350.28 497.107C1349.92 495.289 1349.43 493.498 1348.82 491.749C1346.67 486.958 1346.46 481.525 1348.22 476.581C1349.43 471.694 1351.02 469.695 1352.09 468.347C1352.98 467.227 1353.51 466.557 1353.18 465.057C1352.85 463.41 1352.62 461.75 1352.47 460.079C1352.27 458.221 1352.06 456.652 1351.89 455.294C1350.93 447.771 1350.78 446.577 1354.49 437.452C1354.69 436.955 1353.61 437.142 1350.76 437.633L1350.29 437.713C1341.01 439.293 1330.51 433.924 1323.2 428.044C1322.63 427.583 1321.89 427.693 1320.85 427.846C1319.2 428.091 1316.8 428.447 1313.08 426.853C1312.07 426.422 1311.06 426.003 1310.05 425.596C1307.3 424.482 1306.48 424.156 1303.63 421.771C1299.78 418.553 1298.65 416.525 1297.96 415.29C1297.35 414.217 1297.09 413.748 1295.67 413.627C1290.92 413.207 1286.4 411.422 1282.65 408.488C1277.99 404.869 1276.42 402.75 1275.44 401.431C1274.49 400.149 1274.1 399.619 1271.98 399.202C1263.49 397.526 1257.36 388.888 1255.81 384.385C1255.6 383.762 1254.52 383.205 1252.99 382.408C1249.84 380.772 1244.75 378.133 1241.24 371.882C1240 370.082 1239.43 367.907 1239.62 365.73C1239.9 364.942 1239.01 364.216 1237.71 363.146C1235.97 361.73 1233.51 359.71 1232.08 356.16C1231.16 354.047 1230.92 351.702 1231.4 349.448C1227.88 349.333 1224.43 348.455 1221.28 346.875C1218.13 345.295 1215.36 343.05 1213.17 340.295C1208.78 338.149 1204.69 335.45 1200.99 332.264C1199.25 330.753 1195.56 325.797 1197.94 323.484C1199.33 322.128 1202.28 322.954 1203.88 323.687C1201.34 321.69 1199.16 319.278 1197.42 316.553C1196.76 315.711 1196.36 314.688 1196.28 313.616C1196.19 312.545 1196.43 311.473 1196.97 310.539C1197.61 309.84 1198.46 309.358 1199.39 309.156C1200.32 308.955 1201.29 309.043 1202.17 309.411L1202.42 309.505C1202.53 309.549 1202.65 309.593 1202.77 309.634C1200.17 307.898 1198.08 305.515 1196.68 302.72C1196.45 302.086 1196.43 301.393 1196.62 300.745C1196.81 300.096 1197.2 299.526 1197.74 299.118C1198.48 298.577 1199.37 298.288 1200.29 298.294L1201.96 301.145C1200.55 300.717 1199.45 300.668 1199.09 301.34C1198.63 302.201 1199.83 303.513 1200.65 304.318C1202.76 306.447 1204.98 308.466 1207.3 310.366C1208.36 312.18 1209.53 314.13 1210.82 316.215C1208.56 314.831 1206.19 313.647 1203.73 312.678C1201.53 311.759 1197.49 310.872 1199.37 314.815C1202.87 320.371 1209.77 324.916 1215.36 328.309C1215.65 328.492 1215.87 328.781 1215.96 329.118C1216.06 329.455 1216.02 329.815 1215.85 330.124C1215.69 330.434 1215.42 330.67 1215.09 330.785C1214.76 330.901 1214.4 330.887 1214.08 330.746C1212.85 330.095 1200.64 323.76 1199.62 325.481C1199.03 326.32 1200.25 327.955 1201.82 329.573C1205.4 333.266 1209.35 335.245 1212.06 336.602C1213.53 337.341 1214.64 337.898 1215.12 338.447C1216.3 339.789 1217.65 340.97 1219.14 341.959C1231.08 349.949 1237.7 344.797 1240.04 342.848C1244.6 338.896 1248 333.774 1249.88 328.031C1250.37 326.724 1250.8 325.4 1251.16 324.057C1252.28 323.234 1253.39 322.395 1254.49 321.539C1254.67 321.388 1254.84 321.246 1255.01 321.103C1254.67 323.298 1254.14 325.469 1253.41 327.589C1255.13 327.812 1256.83 328.135 1258.51 328.555C1259.78 328.873 1260.33 329.482 1260.75 329.959C1261.19 330.442 1261.51 330.79 1262.33 330.566C1264.24 329.827 1266.31 329.569 1268.34 329.815C1270.38 330.062 1272.33 330.804 1274.01 331.978C1275.23 332.93 1276.3 333.663 1277.79 332.698C1283.57 331.404 1289.62 332.355 1294.72 335.359C1296.06 336.089 1297.35 335.584 1299.15 334.884C1301.13 334.113 1303.72 333.103 1307.64 333.246C1312.03 333.254 1316.25 334.98 1319.38 338.056C1321.03 339.689 1322.05 339.515 1323.84 339.211C1326.13 338.825 1329.67 338.224 1337.35 340.874C1337.5 340.929 1337.6 340.965 1337.66 340.937C1337.92 340.827 1337.74 339.719 1339.4 334.722C1340.3 331.987 1341.82 329.495 1343.83 327.438C1345.85 325.381 1348.3 323.812 1351.02 322.853C1352.09 322.477 1352.86 322.265 1353.42 322.114C1354.59 321.796 1354.79 321.739 1354.79 320.972C1354.81 308.787 1355.22 304.995 1368.31 297.663C1369.56 296.96 1369.88 295.291 1370.3 293.055C1370.9 289.897 1371.7 285.609 1375.67 281.327C1378.11 278.94 1380.84 276.863 1383.79 275.15C1384.73 274.668 1385.44 274.387 1385.98 274.179C1387.01 273.771 1387.39 273.622 1387.58 272.734C1388.14 267.593 1390.37 262.781 1393.94 259.039C1396.09 256.683 1398.89 255.023 1401.99 254.274C1405.3 253.231 1407.13 253.094 1408.22 253.011C1409.33 252.929 1409.69 252.901 1410.08 252.059C1411.13 249.06 1412.89 246.361 1415.21 244.198C1417.76 241.493 1420.86 239.369 1424.3 237.969C1426.56 236.73 1429.07 236.023 1431.64 235.903C1433.52 235.758 1435.4 235.85 1437.25 236.178C1437.68 236.302 1438.33 235.64 1439.32 234.642C1442.36 231.577 1448.53 225.345 1460.73 228.983C1454.53 220.483 1450.93 210.369 1450.35 199.862C1450.08 195.379 1450.46 192.07 1450.72 189.855C1450.91 188.168 1451.03 187.111 1450.74 186.648C1446.19 178.031 1443.87 168.408 1444 158.66C1446.12 128.817 1460.12 117.714 1466.46 112.684C1468.07 111.405 1469.19 110.522 1469.49 109.819C1479.29 87.0293 1516.38 77.183 1540.5 80.0012C1600.96 87.0692 1609.08 133.963 1611.19 146.172C1611.47 147.785 1611.64 148.795 1611.82 149.026C1621.57 161.788 1616.87 192.294 1604.97 199.894C1604.57 200.147 1604.22 200.294 1603.9 200.429C1603.12 200.758 1602.55 200.997 1602.04 202.462C1598.37 213.122 1585.44 226.561 1583.51 228.312C1582.43 229.128 1581.42 230.027 1580.49 231.004C1580.44 231.064 1580.57 231.401 1580.75 231.401C1583.1 231.906 1585.25 233.125 1586.89 234.892C1588.53 236.66 1589.59 238.889 1589.92 241.279C1589.99 241.745 1590 241.979 1590.12 242.097C1590.46 242.421 1591.65 241.861 1597.32 242.817C1600.28 243.577 1603.1 244.797 1605.68 246.435C1608.83 248.683 1609.52 250.564 1610.05 252.011C1610.52 253.285 1610.86 254.22 1612.64 254.774C1619.41 256.873 1624.78 258.638 1628.18 264.224C1629.1 266.022 1629.85 267.893 1630.44 269.822C1630.75 270.542 1631.79 270.947 1633.27 271.535C1636.33 272.742 1641.3 274.706 1645.75 281.733C1646.89 283.533 1647.13 284.88 1647.33 285.958C1647.53 287.1 1647.68 287.941 1648.78 288.705C1650.83 290.273 1652.61 292.163 1654.05 294.303C1658.25 299.942 1656.67 308.866 1653.74 315.252C1653.2 316.421 1654.05 317.362 1655.57 319.044L1655.66 319.14C1657.59 321.269 1658.94 323.858 1659.58 326.661L1659.58 326.657ZM1255.26 311.426C1255.11 309.955 1254.88 308.494 1254.56 307.05C1254.1 305.828 1253.5 304.237 1251.74 303.886C1251.57 303.851 1251.39 303.839 1251.22 303.848C1252.59 306.357 1253.94 308.884 1255.26 311.426ZM1354.94 393.951C1341.38 398.41 1327.58 415.254 1325.79 424.837C1325.7 425.306 1325.65 425.531 1325.72 425.711C1325.78 425.887 1325.95 426.024 1326.29 426.307C1331.64 430.293 1337.81 433.043 1344.34 434.36C1348.16 434.779 1352.03 434.396 1355.69 433.235C1357.56 432.639 1357.48 431.814 1357.15 428.494C1357.02 427.16 1356.84 425.427 1356.75 423.141C1356.16 409.888 1358.92 404.77 1361.13 400.674C1362.57 398.013 1363.77 395.782 1363.68 392.031C1363.68 391.943 1363.69 391.861 1363.7 391.784C1363.77 391.086 1363.77 391.045 1354.94 393.951ZM1591.57 178.338C1592.65 201.082 1602.84 202.569 1609.09 188.461C1619.06 165.969 1609.09 140.736 1599.87 151.753C1593.26 159.656 1592.43 168.894 1591.78 176.1C1591.71 176.869 1591.64 177.616 1591.57 178.338ZM1593.69 198.058C1592.75 196.954 1591.95 195.724 1591.34 194.404C1585.55 182.209 1588.29 163.546 1593.47 154.351C1596.35 149.253 1598.21 148.243 1599.37 147.609C1599.62 147.482 1599.85 147.341 1600.08 147.187C1600.57 146.869 1601.15 146.487 1600.82 146.235C1599.7 145.746 1598.47 145.579 1597.26 145.752C1594 145.948 1590.91 147.311 1588.57 149.594C1581.18 156.667 1576.28 182.281 1583.13 195.381C1585 198.933 1590.36 199.264 1593.72 198.861C1594.3 198.79 1594.18 198.647 1593.69 198.062V198.058ZM1562.33 88.7224C1529.66 76.0318 1492.83 85.9015 1477.54 103.032V103.035C1476.42 104.095 1475.49 105.336 1474.78 106.705C1475.27 106.59 1476.02 106.162 1477.08 105.558C1482.07 102.707 1493.98 95.9088 1518.8 99.1134C1539.47 101.786 1564.93 115.872 1580.8 138.829C1584.95 144.838 1585.49 146.652 1586 146.644C1586.64 146.633 1587.23 143.68 1595.12 142.651C1598.95 142.195 1602.84 142.902 1606.27 144.681C1607.03 144.951 1606.93 144.532 1606.59 143.081C1606.43 142.409 1606.22 141.512 1606.01 140.36C1604.82 134.363 1602.83 128.555 1600.1 123.089C1596.34 113.966 1585.9 97.8728 1562.33 88.7224ZM1517.61 211.882C1517.27 211.058 1516.73 209.769 1516.25 207.764V207.767L1516.01 206.771C1513.39 196.002 1511.23 187.125 1513.78 171.964C1513.83 171.504 1514.02 171.069 1514.32 170.715C1514.62 170.362 1515.02 170.105 1515.46 169.978C1515.91 169.85 1516.38 169.858 1516.82 169.999C1517.27 170.141 1517.65 170.41 1517.94 170.773C1521.66 175.392 1523.27 177.419 1524.07 177.136C1525.11 176.766 1524.75 172.433 1525.85 164.77C1528.23 148.221 1530.5 136.843 1538.34 121.751C1542.74 113.307 1544.23 112.068 1544.01 111.585C1543.96 111.464 1543.8 111.393 1543.55 111.265C1537.2 107.998 1530.48 105.511 1523.54 103.856C1520.67 103.068 1506.99 145.697 1505.85 149.779C1505.44 151.233 1503.37 152.816 1501.14 147.941C1500.48 146.056 1499.66 144.234 1498.67 142.497C1496.94 145.682 1495.74 149.133 1495.14 152.709L1494.92 153.79C1490.49 176.381 1489 183.964 1492.76 206.116C1492.93 207.126 1493.04 207.941 1493.13 208.602C1493.41 210.654 1493.48 211.194 1494.54 211.329C1501.95 213.008 1509.56 213.673 1517.15 213.307C1518.2 213.296 1518.11 213.07 1517.61 211.88L1517.61 211.882ZM1454.27 191.988C1453.05 196.502 1454.64 210.674 1460.16 221.241V221.244C1473.19 246.224 1542.49 248.795 1569.04 233.759C1586.95 223.619 1596.87 205.305 1598.13 202.791C1598.5 202.038 1597.53 202.132 1595.81 202.291C1591.07 202.736 1580.65 203.718 1577.45 188.833C1577.13 187.33 1576.99 187.554 1576.23 188.696C1575.54 189.786 1574.76 190.814 1573.89 191.768C1543.81 224.477 1497.46 220.831 1474.25 207.741C1462.74 201.243 1459.91 198.008 1457.49 195.248C1456.53 194.145 1455.63 193.116 1454.27 191.988H1454.27ZM1565.45 240.193C1559.5 249.651 1548.12 253.007 1536.97 253.476C1521.01 254.319 1505.02 252.29 1489.78 247.486C1484.83 246.257 1480.4 243.511 1477.09 239.633C1482.56 241.529 1488.12 243.145 1493.75 244.473C1534.46 251.634 1556.54 243.405 1563.31 240.882C1564.45 240.457 1565.16 240.195 1565.45 240.193ZM1547.79 268.166C1563.45 265.403 1573.25 259.008 1578.25 254.279L1578.23 254.276C1586.83 246.141 1586.82 242.887 1586.53 240.794C1586.16 238.757 1585.14 236.898 1583.61 235.501C1582.09 234.103 1580.14 233.246 1578.09 233.058C1577.78 232.992 1577.16 233.426 1576.22 234.093C1575.03 234.929 1573.31 236.137 1571.04 237.174C1570.3 237.516 1570.19 237.984 1569.98 238.82C1569.85 239.374 1569.68 240.088 1569.26 241.037C1566.79 246.605 1555.09 255.593 1539.55 256.984C1538.19 257.106 1536.17 257.031 1534.11 256.957C1532.48 256.875 1530.83 256.849 1529.19 256.877C1516.81 256.61 1504.5 254.859 1492.53 251.663C1486.84 250.549 1481.54 247.974 1477.15 244.189C1474.16 241.531 1473.66 239.981 1473.32 238.908C1473.1 238.194 1472.93 237.695 1472.16 237.218C1467.07 234.09 1465.97 233.222 1465.7 233.434C1465.62 233.494 1465.6 233.64 1465.58 233.845C1464.38 238.142 1464.94 242.74 1467.13 246.627C1475.33 259.649 1492.1 263.244 1505.75 265.748C1519.59 268.286 1535.5 270.334 1547.79 268.166H1547.79ZM1407.05 405.514C1407.68 405.878 1408.22 406.187 1408.57 406.537V406.54C1408.98 406.943 1409.33 407.342 1409.65 407.704C1410.83 409.043 1411.55 409.86 1412.84 408.483C1415.35 405.308 1417.44 401.817 1419.04 398.098C1419.66 396.487 1420.02 394.792 1420.12 393.071C1420.17 392.674 1419.98 392.376 1419.67 391.907C1419.05 390.958 1417.96 389.296 1417.51 384.633C1417.33 382.713 1417.17 380.792 1417.03 378.869C1416.09 366.327 1415.39 356.937 1401.45 355.776C1398.93 356.13 1397.55 356.201 1397.48 356.537C1397.4 356.951 1399.32 357.769 1403.59 360.017C1405.42 360.442 1407.17 361.139 1408.79 362.082C1412.36 363.908 1414.88 369.439 1413.54 370.039C1412.52 370.5 1411.89 369.383 1411.15 368.083C1410.6 367.104 1409.98 366.02 1409.1 365.419C1407.64 364.28 1405.91 363.52 1404.08 363.207C1402.26 362.897 1400.38 363.043 1398.62 363.632C1397.81 364.118 1398.43 364.341 1399.72 364.807C1401.43 365.425 1404.33 366.47 1406.63 369.12C1408.87 371.716 1408.25 374.084 1407.39 377.338C1406.37 381.254 1405 386.45 1407.89 394.869C1408.14 395.621 1408.07 396.844 1407.25 396.388C1405.45 395.398 1404.53 392.396 1403.7 389.712L1403.62 389.462C1403.36 388.612 1402.95 388.397 1402.47 388.15C1401.95 387.919 1401.51 387.548 1401.19 387.08C1398.73 383.613 1395.49 380.775 1391.72 378.796C1389.96 378.176 1393.88 383.373 1395.25 384.833C1398.59 388.415 1398.97 390.417 1399.52 393.303C1399.71 394.294 1399.92 395.391 1400.28 396.69C1401.88 402.547 1405 404.337 1407.05 405.514ZM1600.85 481.275C1601.8 479.214 1602.32 476.987 1602.4 474.723V474.726C1602.51 470.487 1602.91 469.345 1602.52 468.667C1602.33 468.336 1601.95 468.113 1601.24 467.691C1580.28 455.259 1553.63 461.235 1538.07 491.892C1535.88 496.534 1534.47 501.506 1533.9 506.607C1533.8 506.884 1533.8 507.191 1533.91 507.465C1534.02 507.742 1534.23 507.967 1534.5 508.096C1536.49 509.545 1538.61 510.81 1540.83 511.877C1546.13 514.048 1548.21 513.154 1550.87 512.012C1551.77 511.626 1552.74 511.208 1553.92 510.876C1556.07 510.272 1558.03 510.558 1560.1 510.854C1564.46 511.485 1569.25 512.18 1577.15 504.749C1578.81 503.188 1579.03 502.261 1579.21 501.462C1579.55 499.978 1579.8 498.935 1589.01 495.096C1591.09 494.23 1591.36 493.329 1591.79 491.892C1591.87 491.641 1591.95 491.379 1592.04 491.095C1593.06 488.042 1594.97 486.735 1596.83 485.467C1598.4 484.392 1599.94 483.344 1600.85 481.275Z" fill="white"/>
<path d="M1183.64 280.996C1186.83 288.703 1206.08 317.555 1212.5 328.16C1214.58 331.803 1216.87 335.32 1219.36 338.694C1222.74 342.393 1224.29 343.027 1227.48 342.423C1232.57 341.455 1259.36 324.258 1261.49 320.132C1263.53 316.194 1261 314.84 1242.51 279.928C1224.66 246.247 1227.01 247.057 1206.87 255.005C1199.65 258.35 1192.64 262.125 1185.87 266.31C1180.79 269.462 1181.16 275.001 1183.64 280.996ZM1191.4 267.518C1193.89 266.029 1193.88 265.966 1196.16 267.728C1196.83 268.361 1197.68 268.765 1198.6 268.881C1199.52 268.996 1200.45 268.819 1201.25 268.373C1209.63 264.081 1214.67 263.178 1213.15 258.552C1213.06 258.178 1213.07 257.787 1213.17 257.416C1213.27 257.045 1213.47 256.708 1213.75 256.437C1223.55 251.871 1223.71 253.37 1238.35 280.296C1251.48 304.406 1255.93 312.149 1257.17 315.58C1257.81 317.366 1258.08 318.563 1254.48 321.534C1246.88 327.461 1238.71 332.621 1230.09 336.941C1226.08 338.587 1223.81 335.451 1221.37 332.032C1214.94 323.018 1210.17 315.362 1206.7 309.342C1184.59 270.906 1183.07 272.495 1191.4 267.52V267.518Z" fill="white"/>
<path d="M1230.09 208.503C1229.14 208.337 1229.42 207.581 1229.49 206.812C1233.98 160.241 1230.09 151.169 1233 151.496C1237.03 151.948 1233.23 209.054 1230.09 208.503Z" fill="white"/>
<path d="M1271.89 279.495C1272.2 279.25 1272.4 278.966 1272.65 278.9C1274.31 278.451 1276.02 278.183 1277.74 278.101C1281.73 278.255 1329.03 280.37 1328.69 284.305C1328.55 285.872 1324.01 284.385 1319.48 283.968C1270.04 279.396 1273.69 282.137 1271.89 279.495Z" fill="white"/>
<path d="M1286.77 215.121C1262.92 238.343 1264.7 239.388 1263.52 235.475C1273.49 223.127 1297.16 200.158 1304.01 197.207C1304.22 197.119 1305.04 197.772 1304.74 198.167C1304.62 198.318 1304.51 198.477 1304.42 198.641C1304.22 198.671 1302.11 200.183 1286.77 215.121Z" fill="white"/>
<path d="M1167.02 199.237C1159.2 186.497 1154.71 180.702 1154.16 178.537C1151.35 167.41 1186.48 222.714 1183.76 226.983C1180.08 222.922 1185 228.546 1167.02 199.237Z" fill="white"/>
<path d="M1206.89 271.689C1209.83 272.213 1215.54 273.719 1218.53 274.499C1220.69 275.373 1220.82 275.903 1219.39 277.557C1216.78 280.576 1216.12 280.028 1217.89 281.608C1239.61 301.108 1239.52 300.34 1234.27 301.259C1225.61 302.779 1228.51 300.804 1242.12 316.834C1244.5 319.644 1240.99 321.96 1239.14 322.085C1238.05 322.159 1236.97 320.53 1236.58 320.072C1216.3 296.03 1215.22 297.764 1224.28 296.694C1225.08 296.598 1225.47 296.008 1224.22 294.67C1214.66 284.364 1215.71 285.313 1214.36 284.243C1211.19 281.711 1208.2 291.143 1206.92 283.694C1204.86 271.651 1204.16 271.202 1206.89 271.69V271.689Z" fill="white"/>
<path d="M1376.15 118.894C1372.1 122.283 1362.08 129.497 1365.34 131.096C1366.28 131.554 1366.74 130.257 1368.84 128.548C1378.23 120.89 1377.25 121.538 1377.46 122.901C1378.13 127.291 1377.37 135.324 1379.06 135.001C1379.37 134.943 1379.82 134.792 1379.9 134.568C1381.15 131.226 1379.61 121.921 1380.27 121.685C1380.86 121.473 1389.9 130.405 1391.34 130.852C1392.77 131.299 1393.27 129.892 1392.68 128.802C1392.46 128.408 1386.25 122.656 1385.91 122.346C1381.48 118.263 1381.08 118.722 1381.61 118.179C1383.36 116.411 1395.84 106.726 1394.47 104.953C1393.28 103.422 1385.24 111.243 1380.19 115.548C1379.97 110.319 1379.77 96.8069 1379.49 96.0793C1379.25 95.4425 1378.12 95.4838 1378.01 96.9843C1377.47 103.874 1377.82 115.011 1377.28 115.003C1376.74 114.995 1369.08 108.586 1365.73 107.472C1365.52 107.389 1365.3 107.377 1365.09 107.439C1364.88 107.501 1364.69 107.633 1364.57 107.813C1364.44 107.993 1364.38 108.21 1364.39 108.43C1364.4 108.65 1364.49 108.86 1364.63 109.024C1367.65 112.041 1377.4 117.846 1376.15 118.894Z" fill="white"/>
<path d="M1249.22 54.25C1250.2 55.0917 1249.18 55.1908 1245.56 58.5659C1241.15 62.6632 1241.15 62.8791 1240.8 63.9272C1240.45 64.9752 1241.67 66.3093 1242.75 65.0109C1243.82 63.7126 1250.22 58.3239 1250.61 58.0502C1251 59.4984 1250.43 66.2158 1251.06 70.749C1251.51 73.9289 1253.44 72.8368 1253.44 67.8759C1253.44 58.0804 1253.48 59.5397 1253.65 58.5879C1254.84 59.4118 1253.31 58.0804 1258.59 63.2532C1260.96 65.5694 1264.16 65.1746 1259.04 59.8533C1253.69 54.2775 1253.8 55.0876 1254.69 54.1812C1256.61 52.2337 1261.15 47.7912 1264.01 44.8328C1266.47 42.265 1265.79 41.3174 1264.95 41.7492C1258.31 45.1381 1253.48 52.3382 1253.47 50.5021C1253.3 31.9235 1253.04 32.0226 1251.85 32.0006C1250.37 31.9758 1250.75 32.7281 1250.75 42.1715C1250.82 42.1715 1250.87 50.8171 1250.61 51.6107C1250.1 51.2709 1241.57 43.9443 1239.65 43.379C1238.39 43.0146 1237.87 44.2373 1238.61 45.0391C1239.46 45.9551 1239.71 46.0844 1249.22 54.25Z" fill="white"/>
<path d="M1236.68 451.535C1244.77 445.044 1244.17 442.325 1243.26 442.992C1235.72 448.433 1236.95 447.613 1233.98 449.881C1232.55 450.978 1234.03 429.386 1231.13 429.364C1229.34 429.364 1229.95 431.151 1230.49 442.905C1230.71 447.748 1230.26 441.631 1230.76 449.57C1230.91 451.9 1224.02 443.437 1216.1 441.556C1215.99 441.524 1215.87 441.514 1215.76 441.528C1215.65 441.545 1215.54 441.584 1215.45 441.645C1215.35 441.705 1215.27 441.785 1215.2 441.879C1215.14 441.973 1215.1 442.08 1215.08 442.191C1214.81 443.514 1215.63 443.539 1216.41 443.978C1220.85 446.51 1218.15 444.488 1228.72 452.41C1230.25 453.552 1229.74 453.389 1228.01 455C1225.16 457.659 1218.08 463.391 1220.52 464.329C1221.92 464.864 1222.15 464.054 1230.13 457.022C1232.09 455.301 1230.5 463.27 1232.33 470.648C1232.38 470.841 1232.49 471.012 1232.65 471.131C1232.81 471.25 1233.01 471.31 1233.21 471.301C1234.87 471.397 1234.6 469.63 1233.8 457.974C1233.8 455.778 1233.47 456.248 1237.96 459.595C1240.79 461.691 1241.33 461.977 1242.41 462.065C1243.49 462.153 1243.6 460.874 1242.81 460.09C1242.26 459.542 1242.14 459.374 1235.08 453.665C1234.53 453.218 1234.67 453.149 1236.68 451.535Z" fill="white"/>
</svg>
