<svg width="304" height="313" viewBox="0 0 304 313" fill="none" xmlns="http://www.w3.org/2000/svg">
<path d="M112.246 121.52C111.114 120.865 109.84 120.496 108.534 120.446C107.228 120.396 105.93 120.666 104.752 121.233C103.573 121.8 102.55 122.647 101.77 123.701C100.99 124.755 100.478 125.984 100.276 127.281C100.075 128.579 100.191 129.906 100.614 131.149C101.038 132.391 101.756 133.511 102.706 134.412C103.657 135.313 104.812 135.968 106.07 136.32C107.329 136.672 108.654 136.711 109.931 136.432C111.516 136.082 112.959 135.258 114.071 134.07C115.182 132.882 115.911 131.383 116.161 129.772C116.411 128.16 116.171 126.51 115.473 125.038C114.774 123.565 113.649 122.339 112.246 121.52ZM102.67 133.778C101.932 133.002 101.365 132.078 101.005 131.066C100.646 130.055 100.503 128.979 100.585 127.908C100.667 126.837 100.973 125.796 101.482 124.852C101.991 123.907 102.692 123.082 103.539 122.428C104.387 121.774 105.362 121.307 106.401 121.057C107.44 120.807 108.52 120.779 109.571 120.977C110.621 121.174 111.618 121.591 112.497 122.202C113.376 122.812 114.118 123.601 114.673 124.519C119.472 132.406 108.955 140.381 102.67 133.778Z" fill="#606E76"/>
<path fill-rule="evenodd" clip-rule="evenodd" d="M113.423 124.982C112.808 124.053 111.963 123.302 110.971 122.802C109.979 122.302 108.874 122.071 107.766 122.131C106.657 122.192 105.584 122.542 104.651 123.147C103.719 123.751 102.959 124.59 102.448 125.58C101.936 126.57 101.691 127.677 101.735 128.792C101.779 129.906 102.112 130.99 102.701 131.936C103.289 132.882 104.113 133.657 105.09 134.185C106.068 134.713 107.166 134.976 108.275 134.947C109.421 134.93 110.54 134.601 111.515 133.996C112.489 133.391 113.283 132.532 113.811 131.51C114.339 130.488 114.581 129.342 114.513 128.192C114.445 127.043 114.068 125.933 113.423 124.982ZM105.272 127.377C106.473 125.992 107.793 124.715 109.216 123.561C109.224 123.566 109.23 123.573 109.232 123.582V123.596C109.007 124.323 108.802 125.057 108.619 125.796C108.367 126.834 108.336 126.832 108.188 126.827L108.152 126.826C107.257 126.887 106.312 127.137 105.757 127.284C105.434 127.37 105.244 127.421 105.272 127.378L105.272 127.377ZM105.746 128.111C106.277 128.717 106.753 129.211 107.374 129.824C107.56 129.959 107.669 129.523 108.016 128.106L108.182 127.434C108.242 127.241 108.091 127.251 108.022 127.254L108.001 127.256C107.155 127.347 106.317 127.491 105.49 127.688C105.378 127.714 105.441 127.78 105.589 127.936L105.746 128.111ZM106.712 133.175C105.922 131.658 105.373 130.027 105.084 128.34C105.166 128.34 105.419 128.647 105.796 129.105C106.163 129.553 106.648 130.144 107.215 130.741C107.145 131.57 106.976 132.387 106.713 133.176L106.712 133.175ZM107.802 130.885C107.672 130.959 107.619 131.167 107.422 131.923C107.302 132.385 107.179 132.846 107.053 133.305C108.485 132.429 109.801 131.374 110.97 130.166C111.317 129.803 111.111 129.873 110.378 130.121C109.856 130.299 109.067 130.566 108.02 130.835L107.993 130.838C107.927 130.843 107.862 130.859 107.802 130.888V130.885ZM109.069 127.102C108.939 127.018 108.874 126.974 108.848 126.915C108.822 126.852 108.838 126.771 108.869 126.609L108.889 126.508C108.93 126.296 109.462 123.847 109.507 123.683C109.551 123.518 109.582 123.572 109.599 123.614C109.838 124.202 110.9 128.165 110.9 128.165L110.949 128.343C111.091 128.834 111.11 128.903 110.958 128.745C109.897 127.646 109.343 127.282 109.071 127.102H109.069ZM108.067 129.773C107.993 130.071 108.038 130.139 110.005 129.544L110.226 129.478C110.909 129.272 110.983 129.251 110.673 128.946C110.105 128.379 109.483 127.869 108.815 127.424C108.632 127.319 108.602 127.451 108.405 128.334C108.324 128.685 108.22 129.154 108.067 129.773Z" fill="#606E76"/>
<path d="M11.8487 239.261C11.3731 239.898 11.7222 240.851 12.644 239.821C14.1746 238.111 19.0357 231.698 35.3675 209.692C35.7463 209.182 35.646 209.464 37.4148 210.828C38.1312 211.379 40.5417 207.762 14.6231 244.22C13.892 245.248 14.8376 245.615 15.4965 244.676L33.2389 219.443C40.9311 208.468 36.825 212.481 43.0729 212.61C45.8022 212.29 46.8102 212.444 48.2372 210.255C48.2718 210.204 48.183 210.075 48.1485 209.979C47.4453 210.397 47.1996 212.267 42.2974 211.847C41.4264 211.776 40.5714 211.572 39.762 211.241C38.7589 210.824 37.8084 213.217 55.0521 188.333C55.8359 187.201 55.1474 186.999 54.4786 187.928C49.1812 195.318 43.9254 202.738 38.7113 210.188C38.344 210.716 38.2767 210.593 36.4725 208.815C35.9106 208.26 36.2104 209.137 52.8988 186.183C53.579 185.247 52.9711 185.039 52.5365 185.565C51.4315 186.903 43.6349 197.163 43.5215 197.304C35.3264 207.972 35.7545 208.012 35.3396 207.29C32.8807 202.964 36.323 198.983 38.0327 200.469C38.6735 201.027 38.1559 201.499 38.2569 201.631C38.4213 201.819 38.657 202.057 38.8468 201.782C40.2451 199.765 36.9868 198.235 35.1211 200.134C34.1398 201.208 33.5675 202.595 33.5051 204.052C33.4427 205.508 33.8943 206.94 34.7801 208.094C35.3059 208.859 35.706 207.131 11.8487 239.262V239.261Z" fill="#606E76"/>
<path d="M18.8386 249.319C19.7119 249.241 20.5335 248.87 21.1711 248.265C21.8086 247.66 22.2247 246.857 22.3524 245.985C22.3984 244.806 21.6294 243.074 21.3295 243.316C21.0297 243.558 21.2802 243.825 21.438 245.169C21.6557 247.011 20.5696 247.434 19.3578 248.207C18.45 248.785 17.0057 246.783 17.2267 248.854C17.2427 249.878 17.0373 250.893 16.6247 251.829C16.212 252.764 15.602 253.599 14.8368 254.275C12.9997 255.859 10.0446 254.344 10.0947 249.583C10.0947 249.088 9.52126 249.051 9.17703 249.441C3.37682 256.02 -3.35833 246.788 4.55658 241.368C5.03226 241.049 5.60242 240.902 6.17094 240.953C6.56283 240.953 6.77725 241.235 7.07548 241.375C7.54952 241.599 7.99973 241.095 7.73108 240.734C7.1067 239.878 6.58336 239.704 6.50696 238.299C6.36237 235.334 9.73405 232.534 11.9153 234.66C12.3466 235.003 11.9153 235.805 12.3663 235.836C12.589 235.836 12.6136 235.671 12.681 235.493C13.2758 233.897 11.2055 232.606 9.53934 232.963C8.52932 233.216 7.61668 233.764 6.91722 234.539C6.21776 235.313 5.763 236.279 5.61064 237.314C5.50877 238.001 5.54327 238.701 5.71087 239.375C5.90065 240.062 5.56463 239.749 4.64859 240.186C3.45818 240.786 2.4228 241.656 1.6241 242.727C0.825409 243.798 0.285245 245.041 0.0462161 246.358C-0.469723 250.916 3.43104 254.101 6.9087 252.346C8.73256 251.427 8.83937 250.841 9.09159 251.588C11.4223 258.507 15.9179 255.842 17.2866 252.702C18.8369 249.121 17.5093 249.353 18.8369 249.318L18.8386 249.319Z" fill="#606E76"/>
<path d="M153.787 123.718C149.601 122.984 137.7 120.832 136.01 121.515C134.797 121.9 133.744 122.674 133.013 123.72C132.281 124.765 131.912 126.024 131.963 127.301C131.943 127.61 131.863 127.918 131.865 128.223C131.865 128.645 131.948 129.066 131.966 129.49C132.039 131.137 131.929 132.784 132.131 134.442C133.342 144.526 128.93 144.655 147.694 146.879C150.537 147.208 159.634 148.362 162.247 147.269C166.7 145.423 166.603 142.108 166.603 137.266H166.702C165.936 125.247 166.516 125.952 153.788 123.717L153.787 123.718ZM162.897 145.141C155.801 144.961 148.729 144.242 141.741 142.992C137.829 142.101 136.031 142.532 135.574 140.459C134.953 135.022 134.725 129.546 134.89 124.076C135.161 121.733 136.307 121.386 153.316 124.45C163.941 126.364 164.688 126.571 165.217 129.722C165.68 132.266 165.858 134.854 165.75 137.438C165.745 140.726 166.152 144.981 162.897 145.148V145.141Z" fill="#606E76"/>
<path d="M118.732 114.393C115.149 112.972 104.276 114.605 100.454 115.217C100.004 115.264 99.579 115.451 99.2383 115.75C98.8977 116.05 98.6576 116.448 98.5512 116.891C97.8261 121.212 97.3335 125.57 97.0757 129.945C96.9919 142.679 97.0083 143.927 98.5512 143.758C99.9331 143.608 100.939 143.593 101.921 143.464C120.691 141.085 120.229 143.907 120.916 141.866C121.642 139.71 121.759 122.892 120.033 116.095C119.969 115.726 119.818 115.379 119.592 115.082C119.365 114.786 119.07 114.549 118.733 114.393H118.732ZM119.912 141.207C119.81 142.307 119.697 140.645 106.814 141.611C101.308 142.024 98.5865 143.243 98.3967 142.129C97.7789 138.545 98.1248 116.964 100.123 116.323C104.683 115.41 109.317 114.92 113.966 114.862C118.742 114.862 119.078 115.16 119.531 118.98C120.583 126.344 120.709 133.812 119.906 141.207H119.912Z" fill="#606E76"/>
<path d="M36.6434 256.922C35.1211 256.881 36.3353 258.405 36.1077 258.76C35.4258 258.146 33.1575 255.747 32.4641 256.358C32.2645 256.535 32.5184 256.829 32.9217 257.134C36.6146 259.935 37.3549 263.242 38.1271 262.71C38.9709 262.127 37.4798 260.134 37.0287 258.501C36.8061 257.692 40.4415 261.992 39.8294 260.533C39.23 258.986 38.1 257.705 36.6434 256.922Z" fill="#606E76"/>
<path d="M154.824 135.143C154.725 138.356 157.815 140.5 160.208 139.156C161.183 138.597 161.92 137.699 162.28 136.631C162.64 135.563 162.598 134.4 162.162 133.361C161.874 132.672 161.423 132.064 160.849 131.589C158.702 129.664 154.954 131.131 154.824 135.143ZM155.659 135.869C154.974 133.031 157.821 130.061 160.435 132.098C160.843 132.451 161.164 132.893 161.376 133.391C161.587 133.888 161.681 134.428 161.653 134.968C161.756 139.135 156.732 140.325 155.659 135.868L155.659 135.869Z" fill="#606E76"/>
<path d="M141.107 129.449C140.898 130.108 144.448 130.184 150.6 130.777C150.852 130.802 150.989 130.568 150.765 130.365C150.005 129.67 141.391 128.577 141.107 129.449Z" fill="#606E76"/>
<path d="M149.168 132.333C143.464 131.689 142.815 131.613 142.889 132.116C142.955 132.586 144.027 132.523 145.164 132.676C150.043 133.335 150.338 133.607 150.512 133.252C150.659 132.953 149.84 132.409 149.168 132.333Z" fill="#606E76"/>
<path d="M144.662 134.721C144.021 134.686 143.929 135.343 144.611 135.406C148.771 135.797 151.111 136.323 150.251 135.351C150.093 135.174 144.929 134.735 144.662 134.721Z" fill="#606E76"/>
<path d="M116.494 118.85C116.717 118.698 117.104 118.668 116.971 118.28C116.798 117.777 115.939 118.466 115.949 117.742C115.949 117.323 116.016 116.803 115.751 116.753C115.485 116.704 115.377 117.096 115.283 117.439C115.158 117.895 115.252 117.782 114.186 117.274C114.119 117.857 115.17 118.173 114.401 118.427C114.142 118.511 113.89 118.615 113.637 118.712C113.822 119.089 114.172 118.947 114.466 118.969C115.318 119.028 114.995 119.246 115.093 119.873C115.126 120.075 114.991 120.368 115.27 120.436C115.346 120.453 115.548 120.128 115.613 119.942C115.747 119.525 115.857 119.695 116.212 119.828C116.553 119.876 116.653 119.75 116.553 119.444C116.489 119.245 116.196 119.05 116.492 118.849L116.494 118.85Z" fill="#606E76"/>
<path d="M102.689 137.451C103.112 137.038 102.587 136.828 102.32 136.967C101.741 137.269 101.869 136.638 101.685 136.373C101.602 136.275 101.509 136.186 101.409 136.106C101.068 136.525 101.204 136.176 101.048 137.413C100.635 137.31 99.9002 137.037 100.147 137.413C100.484 137.943 100.889 137.859 100.341 138.497C100.31 138.531 100.043 138.758 100.16 138.915C100.442 139.294 101.308 138.147 101.484 138.957C101.556 139.133 101.652 139.3 101.768 139.451C101.866 139.313 101.966 139.239 101.975 139.156C102.046 138.498 103.103 139.11 103.155 138.72C103.255 137.975 101.793 138.322 102.688 137.451L102.689 137.451Z" fill="#606E76"/>
<path d="M106.777 117.664C106.625 117.588 106.436 117.424 106.363 117.465C105.967 117.694 105.747 117.591 105.581 117.184C105.522 117.037 105.268 117.032 105.24 117.184C105.168 117.805 104.834 117.526 104.217 117.526C104.647 118.312 105.089 118.288 104.766 118.699C104.657 118.857 104.6 119.045 104.602 119.237C104.701 119.217 104.82 119.237 104.895 119.176C105.082 119.041 105.286 118.832 105.451 119.142C105.793 119.776 105.742 118.951 106.368 119.206C106.891 119.42 106.897 118.863 106.709 118.754C106.11 118.331 106.539 118.127 106.775 117.663L106.777 117.664Z" fill="#606E76"/>
<path d="M112.287 137.262C112.201 137.067 112.136 136.729 111.874 136.816C111.556 136.921 111.742 137.224 111.788 137.46C111.928 138.181 111.816 138.049 111.395 138.334C111.934 139.099 111.64 138.622 111.64 139.322C112.507 139.26 112.019 138.609 112.788 139.614C112.896 139.119 112.819 138.932 113.324 138.811C114.222 138.597 113.357 138.166 112.981 137.518C112.951 137.449 112.592 137.962 112.286 137.261L112.287 137.262Z" fill="#606E76"/>
<path d="M118.694 127.598C118.798 127.394 117.963 127.255 117.77 126.7C117.712 126.535 117.698 126.548 117.463 126.358C117.196 126.7 117.394 127.245 116.849 127.442L117.026 128.192C116.808 128.457 116.876 128.59 117.104 128.695C117.5 128.878 117.653 129.245 117.839 128.874C118.024 128.504 118.429 128.916 118.572 128.85C118.665 128.78 118.737 128.685 118.78 128.576C118.439 128.278 118.518 127.952 118.694 127.598Z" fill="#606E76"/>
<path fill-rule="evenodd" clip-rule="evenodd" d="M229.762 163.156C230.396 163.296 231.022 163.48 231.635 163.706C231.856 163.753 232.059 163.863 232.219 164.022C232.38 164.182 232.492 164.385 232.541 164.606C232.591 164.828 232.578 165.058 232.503 165.272C232.428 165.486 232.295 165.674 232.118 165.815C231.241 166.385 229.995 166.38 229.441 166.378C229.136 166.377 229.039 166.377 229.331 166.474C229.648 166.536 229.932 166.71 230.132 166.964C230.332 167.218 230.435 167.536 230.423 167.86C230.417 168.074 230.359 168.284 230.256 168.473C229.917 168.852 229.504 169.157 229.043 169.37C228.582 169.582 228.082 169.697 227.575 169.708C227.133 169.762 226.972 169.762 226.968 169.782C226.963 169.82 227.469 169.924 227.824 170.532C228.482 172.576 223.244 172.472 221.133 172.23C218.895 172.906 216.5 172.832 214.308 172.021C214.002 172.213 213.723 172.443 213.476 172.707C212.749 173.697 211.665 174.363 210.457 174.561C210.124 174.687 209.913 174.993 209.647 175.377C208.961 176.371 207.911 177.892 203.464 178.248C203.104 178.278 202.715 178.581 202.22 178.97C201.433 179.588 200.372 180.42 198.712 180.698C197.956 180.824 197.363 180.773 196.847 180.726C196.193 180.669 195.664 180.622 195.091 180.962C194.021 181.594 192.836 182.006 191.605 182.173C190.375 182.339 189.124 182.257 187.925 181.932C187.471 181.808 187.073 182.061 186.535 182.402C185.76 182.891 184.693 183.564 182.75 183.564C181.483 183.723 180.199 183.505 179.055 182.937C178.563 182.588 178.334 182.655 177.786 182.815C177.067 183.025 175.795 183.399 172.644 183.197C170.79 183.078 169.628 182.326 168.972 181.901C168.509 181.602 168.3 181.465 168.275 181.826C168.187 183.147 168.155 183.886 167.97 184.583C167.687 185.655 167.04 186.632 165.266 189.497C164.973 189.973 164.996 190.078 165.079 190.452C165.176 190.879 165.351 191.657 165.219 193.743C165.175 194.445 165.372 194.704 165.583 194.982C166.036 195.576 166.557 196.263 164.936 201.584C164.563 202.807 164.108 203.995 163.654 205.179C163.369 205.924 163.085 206.664 162.822 207.414C162.619 207.885 162.3 208.296 161.894 208.608C161.135 209.284 160.516 209.293 160.036 209.302C159.726 209.307 159.476 209.31 159.283 209.489C159.181 209.583 159.265 209.683 159.433 209.881C159.752 210.257 160.374 210.99 160.571 212.719C160.46 214.563 159.91 216.353 158.966 217.938C158.665 218.528 158.51 218.793 158.551 219.024C158.592 219.248 158.823 219.438 159.294 219.865C159.94 220.471 160.412 221.239 160.663 222.09C160.914 222.941 160.934 223.844 160.72 224.705C160.352 226.733 159.312 228.575 157.77 229.934C157.352 230.367 157.579 230.528 158.019 230.841C158.635 231.279 159.671 232.014 159.925 234.217C159.888 235.255 159.617 236.271 159.132 237.188C158.647 238.105 157.96 238.899 157.124 239.51C156.285 240.126 156.421 240.261 156.701 240.541L156.783 240.623C157.498 241.199 158.004 241.994 158.226 242.886C158.448 243.779 158.372 244.72 158.011 245.565C157.303 247.063 156.22 248.349 154.869 249.3C154.627 249.519 154.853 249.799 155.171 250.193C155.599 250.721 156.192 251.453 156.026 252.517C155.344 256.885 153.298 258.151 151.928 258.999C151.346 259.36 150.885 259.645 150.705 260.062C147.273 268.024 132.791 279.911 122.703 288.194C116.819 293.024 112.426 296.628 112.593 297.513C113.298 301.268 110.948 311.015 108.84 311.656C108.635 311.718 108.559 311.814 108.464 311.931C108.261 312.186 107.97 312.552 106.079 312.942C100.718 314.051 91.9508 298.935 89.9002 293.449L89.7572 293.065C87.2745 286.421 86.7955 285.138 88.9168 283.729C89.3448 283.446 89.5346 282.899 89.7736 282.212C90.1507 281.123 90.6502 279.687 92.4109 278.397C95.0366 276.472 95.2132 275.578 95.5295 273.964C95.9493 271.826 96.6181 268.426 103.567 259.693C106.253 256.316 108.31 254.147 112.455 249.774L114.376 247.745C114.699 247.404 114.65 247.372 114.251 247.115C113.701 246.767 113.193 246.356 112.737 245.89C111.726 244.882 112.226 243.864 112.892 242.508C112.974 242.342 113.058 242.17 113.142 241.994C113.476 241.292 113.368 241.244 112.804 240.993C112.262 240.751 111.297 240.32 109.899 238.941C108.35 237.416 108.93 235.538 109.854 233.231C110.171 232.442 109.867 232.212 107.886 230.701L107.688 230.55C105.813 229.116 105.655 227.702 105.563 226.889C105.506 226.374 105.474 226.1 105.054 226.215C104.011 226.498 103.079 226.591 102.28 226.67C100.829 226.816 99.8328 226.914 99.4582 228.041C99.3728 228.299 99.3267 228.624 99.275 228.991C99.0918 230.261 98.8322 232.056 96.6723 233.5C95.8105 234.075 95.2592 234.111 93.3696 234.24L92.9186 234.271C92.3205 234.312 92.3172 234.322 92.4026 234.909C92.7107 237.001 91.5474 239.14 87.286 239.569C86.9631 239.602 86.9697 239.839 86.9795 240.2C87.0042 241.102 87.0518 242.788 82.0181 244.028L82.0001 244.033C81.1563 244.239 80.5903 244.377 80.4169 244.926C80.1091 245.677 79.6065 246.332 78.9614 246.823C78.3162 247.313 77.5522 247.62 76.7486 247.713C75.9353 247.886 75.6584 248.233 75.2526 248.743C74.8525 249.243 74.3267 249.902 73.0368 250.705C51.8858 263.852 46.5144 265.694 43.9906 266.559C42.5857 267.04 42.0649 267.22 40.1917 268.88C36.5218 272.13 27.6547 277.921 23.9018 278.14C19.1598 278.415 15.9968 272.512 18.4771 265.852C21.6089 257.443 25.5984 254.571 27.7213 253.042C28.441 252.527 28.9437 252.165 29.1311 251.792C33.5322 242.999 40.4176 234.691 43.6858 230.748C44.4071 229.877 44.9527 229.219 45.2558 228.815C46.5736 227.064 47.6211 226.588 48.3728 226.246C48.9594 225.981 49.3694 225.794 49.5887 225.15C49.8209 224.464 50.2081 223.841 50.7199 223.33C51.2318 222.819 51.8544 222.435 52.5389 222.206C53.0278 222.046 53.0245 222.032 52.9193 221.481L52.9144 221.452C52.727 220.428 52.8013 219.373 53.1305 218.386C53.2274 218.222 53.4057 218.063 53.5979 217.891C54.1286 217.415 54.7711 216.842 54.1024 215.79C53.6906 213.634 53.8806 211.405 54.6512 209.35C55.1704 207.729 56.3 207.146 57.1684 206.699C57.824 206.361 58.3317 206.101 58.3129 205.526C58.2044 202.232 58.3112 198.838 61.0421 196.96C61.8488 196.405 62.4519 196.071 62.8972 195.822C63.7491 195.347 64.0367 195.187 64.1131 194.411C64.1624 193.916 64.1886 193.434 64.2149 192.963C64.3464 190.579 64.4639 188.481 67.2999 186.198C67.5455 186.002 67.7591 185.853 67.9276 185.736C68.3868 185.42 68.5421 185.313 68.2044 185.005C67.8766 184.705 67.6145 184.445 67.3977 184.23C66.8949 183.731 66.6352 183.475 66.3551 183.512C66.0552 183.551 65.7324 183.929 65.0603 184.714C64.5764 185.277 63.9126 186.052 62.9489 187.061C59.3809 190.8 52.4428 177.805 53.9849 173.803C54.9488 171.501 56.0898 169.277 57.3976 167.153C58.4501 166.242 58.409 165.118 58.3367 163.18C58.1469 157.981 57.7435 146.913 77.5751 118.334C81.6283 112.515 86.006 106.931 90.6872 101.609C105.309 84.9314 119.155 84.9545 124.115 84.9644C125.337 84.9677 126.019 84.9677 126.042 84.7191C126.162 84.3292 126.178 83.9144 126.087 83.5166C125.997 83.1187 125.804 82.7517 125.528 82.4525C123.192 79.8168 125.287 69.8799 129.676 67.297C130.127 67.0319 130.442 66.5191 130.895 65.7785C131.773 64.345 133.177 62.0552 137.107 59.0198C140.38 56.783 144.18 55.4493 148.127 55.1521C156.703 53.8887 166.558 58.5789 171.544 64.6257C174.593 68.3225 174.999 71.0029 175.24 72.5941C175.328 73.1671 175.393 73.599 175.553 73.8855C179.969 81.7548 176.917 92.6156 172.248 96.746C171.254 97.6237 171.018 98.3933 170.705 99.4081C170.268 100.835 169.678 102.752 166.624 106.159C165.611 107.291 164.637 107.858 164.08 108.184C163.433 108.56 163.341 108.614 164.377 108.848C166.985 109.436 167.796 111.06 168.413 112.296C168.832 113.136 169.162 113.795 169.904 113.828C171.372 114.473 172.628 115.525 173.523 116.861C174.418 118.197 174.915 119.762 174.957 121.373C174.937 121.758 175.135 121.883 175.618 122.19C175.99 122.427 176.535 122.771 177.281 123.43C178.116 124.224 178.714 125.235 179.01 126.351C179.305 127.466 179.285 128.643 178.953 129.748C178.775 130.321 179.179 130.849 179.722 131.552C180.514 132.582 181.595 133.991 181.584 136.476C181.58 137.277 181.423 137.804 181.299 138.231C181.102 138.895 180.979 139.31 181.618 140.112C184.403 143.597 183.353 145.734 182.707 147.05C182.391 147.693 182.171 148.141 182.542 148.454C183.566 149.231 184.335 150.297 184.751 151.517C185.166 152.736 185.209 154.053 184.873 155.297C184.765 155.903 184.987 155.92 185.552 155.963C186.288 155.997 187.011 156.171 187.684 156.473C188.42 156.799 188.847 157.048 189.135 157.214C189.584 157.476 189.69 157.539 190.103 157.384C191.121 156.996 192.224 156.897 193.294 157.097C194.364 157.297 195.358 157.789 196.168 158.519C196.288 158.628 196.401 158.746 196.514 158.863C196.967 159.34 197.404 159.799 198.25 159.527C200.005 159.367 201.751 159.914 203.104 161.048C203.188 161.142 203.299 161.207 203.422 161.233C203.545 161.26 203.673 161.246 203.788 161.194C205.216 160.659 206.353 161.32 207.147 161.781C207.576 162.031 207.904 162.223 208.122 162.13C208.7 161.993 209.3 161.974 209.886 162.073C210.471 162.173 211.032 162.389 211.533 162.71C211.984 160.177 213.18 157.838 214.967 155.995C215.135 155.813 215.349 155.68 215.586 155.61C215.823 155.54 216.075 155.536 216.314 155.598C217.034 155.869 217.027 157.237 216.82 158.622L215.552 159.66C216.099 156.868 216.203 155.357 214.211 158.417C213.554 159.545 213.063 160.763 212.752 162.033C212.63 162.148 212.531 162.25 212.451 162.339C212.115 162.706 211.92 162.98 212.423 163.978C212.273 165.55 212.396 167.137 212.788 168.667C212.982 169.305 213.334 169.884 213.812 170.347C214.29 170.811 214.877 171.145 215.519 171.317C217.285 171.829 219.154 171.871 220.941 171.438C221.106 171.438 221.372 171.451 221.7 171.467C223.149 171.543 225.846 171.68 226.907 171.009C226.989 170.943 227.058 170.885 227.058 170.825C226.432 170.072 223.521 169.886 222.472 169.818L222.223 169.802C222.163 169.798 222.105 169.783 222.051 169.756C221.998 169.729 221.95 169.692 221.911 169.647C221.872 169.601 221.842 169.548 221.824 169.491C221.805 169.434 221.798 169.374 221.803 169.314C221.812 169.193 221.868 169.081 221.959 169.001C222.05 168.922 222.169 168.882 222.289 168.89C224.526 169.104 226.784 168.923 228.96 168.352C230.256 167.686 228.971 167.266 228.209 167.059C227.287 166.791 226.342 166.61 225.387 166.519C225.609 166.35 225.825 166.186 226.029 166.026L226.443 165.706C227.485 165.726 228.885 165.685 230.755 165.44H230.748C231.124 165.395 231.699 165.283 231.745 164.958C231.835 164.392 230.149 164.023 228.874 163.836L229.765 163.154L229.762 163.156ZM163.845 106.871C166.415 104.974 168.359 102.346 169.428 99.3264L169.441 99.3247C169.499 99.1843 169.372 99.0035 169.145 99.0795C166.976 100.181 164.598 100.806 162.17 100.913C151.276 101.809 140.637 95.5437 136.407 86.5803C135.928 85.5778 135.554 84.5279 135.292 83.4475C135.124 82.7836 135.083 82.6234 134.768 82.976C134.696 83.0569 134.614 83.1569 134.521 83.2725C133.824 84.1221 132.51 85.7241 130.384 85.3252C129.403 85.0811 128.445 84.7538 127.519 84.3467C127.147 84.2724 127.182 85.1394 127.243 85.4838C128.993 95.2638 132.856 99.219 139.462 103.061C144.904 106.171 150.962 108.034 157.204 108.518C157.683 108.466 158.132 108.423 158.551 108.383C160.889 108.158 162.4 108.011 163.847 106.871H163.845ZM147.128 110.462C140.659 108.742 133.946 106.96 131.253 100.699L131.271 100.686C130.939 100.031 130.777 99.3028 130.799 98.5684C130.806 98.2389 130.855 98.1018 130.848 97.9689C130.835 97.7088 130.611 97.4586 129.435 95.7683C128.876 95.5376 128.26 95.4831 127.67 95.612C127.079 95.7409 126.541 96.0471 126.128 96.49C125.121 98.1555 125.954 101.154 126.938 102.697C128.53 105.506 130.86 107.821 133.672 109.39C141.259 114.036 158.885 118.515 161.119 109.894C161.221 109.5 161.084 109.347 160.705 109.4L160.559 109.416C160.06 109.474 158.661 109.635 158.385 110.017C157.579 111.131 154.828 111.683 153.445 111.57C151.683 111.389 149.932 111.114 148.2 110.746L147.126 110.46L147.128 110.462ZM132.167 99.3297C132.365 99.4585 132.556 99.598 132.735 99.7533C137.19 104.066 145.584 107.73 151.257 108.929C152.629 109.22 154.077 109.381 155.18 109.502C157.441 109.752 158.252 109.843 153.988 110.561C148.234 110.104 142.627 108.505 137.492 105.856C133.109 103.467 131.857 99.745 132.165 99.3297H132.167ZM133.799 67.9295C133.629 67.8469 133.481 67.989 133.601 68.1913V68.2028C135.395 71.2126 134.139 76.769 132.402 79.8993C131.679 81.3456 130.577 82.5661 129.214 83.4294C128.793 83.7803 129.631 84.0883 130.16 84.2534C130.519 84.419 130.916 84.4833 131.308 84.4392C131.7 84.3951 132.074 84.2444 132.387 84.0032C135.07 81.7118 136.796 76.6724 136.762 72.9549C136.741 70.5661 136.437 68.9286 133.8 67.9303L133.799 67.9295ZM153.064 85.3962C153.421 85.2237 153.787 85.0701 154.163 84.9396V84.9479C154.259 84.9176 154.362 84.9103 154.462 84.9265C154.562 84.9427 154.657 84.9821 154.739 85.0415C154.822 85.1009 154.889 85.1786 154.937 85.2687C154.984 85.3588 155.01 85.4587 155.013 85.5606C154.913 86.633 154.622 87.6787 154.154 88.648C153.049 91.794 151.342 93.9641 150.232 95.3711C149.324 96.5247 148.817 97.1671 149.377 97.4173C151.36 98.2884 153.427 98.9507 155.546 99.3941C155.723 99.4354 155.91 99.4141 156.073 99.3336C156.237 99.2532 156.368 99.1185 156.444 98.9523C161.949 90.2037 163.163 82.4426 163.025 79.6211C162.997 79.0942 162.559 79.5401 162.03 80.0793C161.109 81.0182 159.913 82.237 160.163 79.0249C160.723 74.6116 160.941 70.1612 160.814 65.7141C160.781 65.0254 160.776 64.9015 156.121 64.6579C155.469 64.6596 154.825 64.7075 154.169 64.7653C153.702 64.8049 153.756 65.1377 153.896 65.994C154.001 66.6413 154.154 67.5868 154.169 68.9344C154.264 77.5732 152.616 82.3105 151.865 84.4689C151.271 86.1691 151.239 86.2649 153.064 85.3962ZM154.849 56.4278C150.458 55.6946 142.689 56.6698 138.1 59.8579L138.092 59.8662C135.709 61.5218 132.521 64.7967 132.039 66.5563C133.066 66.5403 134.082 66.7761 134.998 67.2435C135.914 67.7108 136.703 68.3955 137.297 69.2383C137.608 69.742 138.182 69.3341 139.288 68.543C141.626 66.8759 146.339 63.5118 155.993 63.4722C158.891 63.4821 161.769 63.9618 164.516 64.8924C169.591 66.5728 171.77 69.0913 172.968 70.4736C173.419 70.9954 173.73 71.3546 174.004 71.4488C173.677 69.9448 173.072 68.5157 172.222 67.2351C168.055 61.4936 161.82 57.6158 154.849 56.4287L154.849 56.4278ZM132.692 68.9493C130.855 65.3615 125.755 72.7287 125.869 78.4229L125.861 78.4312C125.944 82.8414 127.661 83.3055 129.178 82.128C132.418 79.5946 134.43 72.3364 132.692 68.9493ZM62.1389 186.174C63.1669 185.157 64.102 184.049 64.933 182.864L64.9248 182.872C65.3906 182.199 65.3857 182.181 64.9215 181.55C60.8728 176.168 59.8064 171.936 59.2075 169.565C58.975 168.643 58.814 168 58.5749 167.682C57.0472 170.019 55.7879 172.522 54.8212 175.144C55.4305 178.81 56.9882 182.251 59.3382 185.121C59.7251 185.573 60.1704 185.967 60.6625 186.3C60.8836 186.458 61.1533 186.532 61.4235 186.509C61.6937 186.485 61.947 186.366 62.138 186.173L62.1389 186.174ZM63.4418 145.237C60.323 151.693 59.0247 158.884 59.6881 166.03L59.6734 166.038C60.4374 175.718 69.712 187.212 70.6009 183.932C70.5582 181.798 71.0141 179.684 71.9318 177.76C73.8411 174.529 75.3931 173.773 76.0569 173.448C76.4258 173.269 76.5211 173.223 76.25 172.957C75.7603 172.457 75.4482 171.808 75.3619 171.112C75.2757 170.415 75.42 169.71 75.7726 169.104C76.2565 167.966 76.6772 166.953 77.051 166.051C79.4113 160.376 79.924 159.144 82.5316 159.233C82.9416 159.247 82.9383 159.041 82.9251 158.447C82.9186 158.012 82.9071 157.37 83.05 156.456C83.5577 153.237 84.6134 151.669 85.3906 150.515C85.9279 149.716 86.333 149.115 86.328 148.301C86.2738 145.121 86.8522 141.959 88.0344 139.007C88.3742 137.925 88.9031 136.913 89.5962 136.017C89.8044 135.79 89.9519 135.514 90.0248 135.214C90.0976 134.914 90.0935 134.6 90.0127 134.302C89.611 131.862 90.3208 130.489 90.8499 129.459C91.2171 128.751 91.4973 128.207 91.2714 127.591C90.8244 126.201 90.7431 124.719 91.0356 123.288C91.328 121.858 91.9841 120.527 92.9399 119.427C93.5906 118.765 93.5725 118.525 93.5167 117.8C93.4739 117.23 93.4066 116.361 93.6235 114.755C93.7521 113.809 94.1253 112.912 94.7059 112.156C95.2866 111.4 96.0543 110.809 96.9327 110.444C97.5801 110.146 97.5883 109.916 97.6195 109.212C97.6341 108.734 97.6786 108.256 97.7526 107.784C97.8438 106.701 98.2501 105.668 98.921 104.816C99.5919 103.964 100.498 103.329 101.525 102.99C102.222 102.671 102.782 102.196 103.357 101.707C104.451 100.78 105.603 99.8012 107.871 99.7384C108.405 99.8144 108.948 99.7946 109.475 99.6806C109.953 99.3825 110.378 99.0068 110.737 98.5716C112.291 97.1464 113.874 97.2918 115.228 97.4156C116.31 97.5147 117.247 97.5998 117.903 96.8574C119.18 95.419 122.371 95.5709 123.997 96.3124C124.72 96.6403 124.84 96.4446 125.005 96.1737C125.046 96.1077 125.088 96.0367 125.144 95.9698C125.523 95.5069 126.005 95.1412 126.552 94.9029C127.099 94.6646 127.694 94.5604 128.289 94.5991C128.845 94.6321 128.818 94.5776 128.502 93.9186C128.161 93.2102 127.486 91.7982 126.835 89.0427C126.196 86.331 126.155 86.2567 125.687 86.2245C124.876 86.1628 124.065 86.0948 123.255 86.0205L122.981 85.9957C114.783 86.8116 107.856 89.4341 107.327 90.0798C107.798 90.2317 108.289 90.3102 108.785 90.3151C112.832 90.3581 117.928 92.7056 118.171 93.6528C117.43 93.4245 116.714 93.1227 116.032 92.7519C113.807 91.8527 105.92 90.4175 104.045 91.7635C99.3771 94.7996 95.1328 98.4477 91.4242 102.611C81.8292 113.216 69.4606 131.296 63.4418 145.237ZM91.0988 149.669C90.702 148.957 90.1138 147.906 89.8155 145.793C89.5683 143.296 89.9594 140.776 90.9518 138.474C90.8815 137.927 90.6789 137.405 90.3619 136.955C88.3599 140.447 87.3736 144.433 87.5152 148.46C87.5218 149.349 87.2038 150.213 86.6189 150.882C84.9715 153.4 84.1046 156.352 84.1279 159.365C83.98 160.463 83.4887 161.023 83.1396 161.422C82.7904 161.82 82.5825 162.057 83.0015 162.507C86.3729 166.352 90.2095 169.758 94.422 172.645C94.4635 172.676 94.502 172.711 94.537 172.749C94.6521 172.861 94.7696 172.979 94.9141 172.84C95.4646 172.311 94.0392 170.959 93.377 170.331L93.2538 170.214C92.3985 169.395 92.4248 168.781 92.4519 168.128C92.4782 167.54 92.5045 166.923 91.8883 166.095C91.4571 165.327 91.2214 164.464 91.2022 163.583C91.1829 162.701 91.3809 161.829 91.7783 161.043C92.1751 160.208 92.0896 160.048 91.9426 159.769V159.768C90.4802 156.992 89.5001 154.736 91.3264 151.345C91.6756 150.698 91.471 150.332 91.1005 149.67L91.0988 149.669ZM115.284 197.649C115.299 197.478 115.312 197.296 115.361 197.144V197.139C117.664 190.071 119.328 188.66 119.075 188.056C118.911 187.66 117.925 187.611 115.758 186.547C106.75 182.114 106.332 181.534 105.796 181.391C105.692 181.363 105.583 181.351 105.405 181.332C104.779 181.346 104.158 181.211 103.594 180.937C103.03 180.663 102.539 180.259 102.16 179.757C101.388 178.977 100.677 178.793 99.9363 178.601C98.9299 178.339 97.8709 178.064 96.5269 176.26C95.5697 174.973 94.8665 174.449 93.5536 173.471C92.111 172.393 89.9281 170.767 85.8581 166.97C81.5375 162.938 81.6739 161.828 81.7544 161.166C81.7807 160.957 81.8004 160.793 81.6739 160.596C81.4658 160.626 81.2672 160.703 81.0933 160.822C80.9194 160.94 80.7749 161.098 80.6708 161.281C80.0676 162.308 79.5497 163.383 79.1221 164.495C77.5505 168.704 76.5605 170.187 76.8045 171.424C77.0518 172.671 78.5585 173.667 81.9984 176.96C91.7531 185.712 102.804 192.885 114.754 198.22C115.225 198.411 115.252 198.057 115.283 197.651L115.284 197.649ZM137.355 194.259C137.154 193.705 134.392 194.097 120.558 188.47V188.459C120.078 188.268 119.649 189.437 118.969 191.288C118.277 193.174 117.325 195.769 115.796 198.351C115.676 198.552 115.651 198.71 115.909 198.817C121.353 201.145 126.947 203.104 132.652 204.68C133.053 204.683 133.122 204.499 133.458 203.616C133.691 203.005 134.05 202.058 134.737 200.603C135.605 198.758 136.446 196.903 137.151 194.985C137.293 194.603 137.407 194.401 137.356 194.259H137.355ZM100.489 177.376C101.309 177.609 102.084 177.834 102.733 178.586L102.728 178.578C103.662 179.665 104.752 180.391 107.935 179.83C108.106 179.801 108.263 179.719 108.385 179.597C108.507 179.474 108.588 179.316 108.617 179.144C108.964 177.858 109.162 176.533 109.207 175.201C109.086 172.827 108.611 170.486 107.797 168.255C107.042 166.225 105.794 164.417 104.166 162.995C102.539 161.572 100.584 160.581 98.4789 160.111C97.2449 159.767 93.727 159.487 93.3885 160.426C93.3096 160.645 93.2234 160.867 93.1347 161.091C92.5826 162.503 91.9919 164.007 93.0985 165.57C93.3976 165.965 93.6127 166.417 93.7303 166.899C93.8479 167.381 93.8655 167.882 93.782 168.371C93.7393 168.873 93.8691 169.015 94.9371 170.184C95.1713 170.439 95.4498 170.744 95.7809 171.113C96.2007 171.58 96.1908 171.789 96.1744 172.113C96.1531 172.505 96.1251 173.065 96.8317 174.448C97.958 176.645 99.2709 177.022 100.488 177.375L100.489 177.376ZM25.9188 255.814C24.8713 255.838 18.671 264.1 18.4122 271.113C19.1121 276.144 22.2226 277.818 25.0471 276.839C24.9682 276.602 24.8343 276.609 24.6404 276.617C24.4925 276.624 24.3093 276.632 24.0883 276.535C20.8119 275.104 19.6757 272.105 20.0183 268.603C20.4496 264.219 22.842 260.543 25.1219 257.045C25.3889 256.631 25.6559 256.222 25.9188 255.814ZM76.5597 246.643C77.3188 246.424 78.1658 246.178 79.2067 245.249C79.666 244.839 79.256 244.809 78.2283 244.731C75.7891 244.543 69.8599 244.09 63.7245 237.686C58.6957 232.453 56.857 229.01 55.4473 226.375C54.8081 225.176 54.2576 224.145 53.5363 223.19C53.2447 222.801 51.3206 223.544 50.7011 225.339C50.278 226.56 49.6355 226.896 48.8345 227.314C48.0573 227.721 47.1314 228.205 46.1119 229.654C46.079 229.69 36.7921 241.396 34.7702 244.315C33.413 246.277 32.6104 247.773 31.8841 249.124C31.2499 250.306 30.6748 251.377 29.8401 252.552L29.5583 252.918C28.132 254.748 22.0007 262.609 21.2581 267.543C20.655 271.561 21.7871 275.294 25.7618 275.636C30.2689 275.474 37.4625 269.885 40.0586 267.618C41.4635 266.391 42.1881 266.115 43.7302 265.524C46.3099 264.541 51.176 262.683 65.3273 254.054L65.7406 253.802C72.8175 249.489 73.6012 249.014 74.2634 248.112C75.0176 247.089 75.7357 246.882 76.5597 246.642V246.643ZM95.6741 302.32C97.5883 305.527 101.922 311.77 105.62 312.164C106.457 311.977 106.856 311.932 106.877 311.817C106.967 311.322 100.064 309.519 91.4652 289.212C89.9979 285.737 89.8427 284.548 89.5477 284.512C89.4245 284.497 89.2791 284.68 89.0071 284.982C88.2595 285.813 88.2431 286.181 88.4238 286.717C90.1934 292.198 92.6288 297.439 95.6749 302.321L95.6741 302.32ZM112.7 294.877L112.758 294.829H112.761L113.43 294.287C118.432 290.241 148.022 266.304 149.308 260.23C146.673 260.894 143.909 260.837 141.303 260.065C135.489 258.649 130.751 256.056 127.043 254.027C125.47 253.166 124.083 252.408 122.878 251.882C119.6 250.454 118.014 249.402 117.126 248.811C116.027 248.083 115.991 248.06 115.143 248.906C98.7574 265.215 97.2581 271.715 96.5022 274.991C96.1662 276.446 95.9781 277.265 94.6989 278.024C92.6613 279.271 91.1275 281.201 90.3685 283.473C90.6618 284.71 94.5099 293.511 95.3151 294.975C98.4353 300.654 100.681 304.657 105.279 309.168C106.118 310.084 107.262 310.662 108.493 310.791C109.288 310.669 111.761 305.003 111.676 297.393C111.659 295.947 111.229 295.677 110.827 295.423C110.699 295.35 110.581 295.262 110.474 295.16C109.766 294.433 107.103 291.234 107.985 290.74C108.352 290.534 108.741 291.097 109.27 291.864C109.483 292.172 109.721 292.514 109.988 292.852C112.027 295.437 112.074 295.397 112.7 294.877ZM157.345 228.626C159.515 226.263 160.748 222.415 158.149 220.481L158.103 220.473C156.78 219.49 157.447 218.144 158.229 216.562C159.122 214.76 160.167 212.653 158.595 210.425C158.193 209.857 158.157 209.612 158.021 209.519C157.677 209.285 156.697 210 147.758 208.977C124.387 206.302 100.111 194.734 83.3449 179.984C81.047 177.963 79.698 176.632 78.8428 175.79C77.3788 174.347 77.3615 174.329 76.5005 174.703C74.6657 175.751 73.2689 177.429 72.5669 179.429C72.1159 180.687 71.8528 182.006 71.7864 183.341C71.7059 184.462 71.6648 185.042 70.6379 185.494C69.3231 186.101 68.1364 186.955 67.1422 188.011C65.628 189.572 65.536 191.208 65.4341 193.052C65.4062 193.561 65.3766 194.087 65.3158 194.63C65.1827 195.821 64.8894 196.277 62.8651 197.266C59.6857 198.827 59.6791 201.43 59.6758 203.679C59.6725 205.494 59.6692 207.078 57.9924 207.691C57.4559 207.875 56.9724 208.189 56.5842 208.605C56.196 209.02 55.9148 209.525 55.7652 210.075C55.057 212.03 54.9581 214.157 55.4818 216.17C55.7093 216.903 55.8161 217.192 55.7438 217.422C55.6683 217.652 55.4127 217.824 54.91 218.328C53.0368 220.206 54.3266 222.362 56.0314 225.217C56.3707 225.783 56.7248 226.378 57.0756 227.003C59.3948 231.142 64.8755 237.859 68.7795 240.33C74.5863 244.002 79.8213 243.849 80.2526 243.418C80.5919 243.072 81.0002 242.992 81.6279 242.869C82.6602 242.686 83.6653 242.372 84.6192 241.936C85.8252 241.394 85.7472 240.604 85.6716 239.835C85.6607 239.735 85.6514 239.634 85.6437 239.533C85.5664 238.471 86.0027 238.443 86.9713 238.379C87.3402 238.354 87.7863 238.325 88.3121 238.23C91.2738 237.702 91.1802 236.16 91.1046 234.908C91.0504 233.999 91.006 233.241 92.1455 233.135C92.5686 233.095 92.9556 233.069 93.3121 233.046C95.1195 232.924 96.167 232.855 97.1784 231.385C97.8208 230.451 97.9753 229.512 98.1125 228.667C98.3335 227.326 98.5159 226.222 100.55 225.748C101.612 225.501 102.423 225.408 103.107 225.329C105.179 225.091 106.06 224.99 109.162 221.135C112.105 217.475 116.334 217.391 116.18 218.443C116.114 218.888 115.803 218.885 115.373 218.882C115.123 218.87 114.873 218.889 114.627 218.938C111.754 219.599 110.758 220.968 109.694 222.43C109.043 223.323 108.368 224.25 107.228 225.072C106.972 225.257 106.63 225.601 106.63 225.855C106.638 228.218 108.297 229.519 109.641 230.577C110.736 231.436 111.622 232.133 111.243 233.104C111.161 233.309 111.101 233.542 111.008 233.89C110.876 234.385 110.682 235.115 110.278 236.348C110.119 236.836 110.281 237.828 111.524 238.75C113.416 240.157 114.5 240.288 114.752 240.822C114.968 241.274 114.588 242.012 113.605 244.058L113.554 244.16C113.303 244.653 113.208 244.839 115.722 246.352C121.66 249.919 133.298 256.37 139.979 258.355C146.639 260.334 149.6 258.761 151.703 257.643L151.823 257.579C153.231 256.6 154.204 255.106 154.532 253.417C154.791 252.885 154.84 252.275 154.67 251.709C154.5 251.143 154.123 250.662 153.615 250.364C152.531 249.589 153.329 248.894 154.442 247.925C155.271 247.202 156.276 246.328 156.804 245.154C157.611 243.363 156.764 242.439 155.794 241.38C155.608 241.174 155.415 240.963 155.229 240.741C154.606 239.998 155.227 239.474 156.106 238.736C157.005 237.979 158.173 236.996 158.545 235.319C158.774 234.624 158.742 233.869 158.454 233.196C158.167 232.523 157.645 231.979 156.986 231.667C155.176 230.886 155.795 230.245 156.848 229.153C157.006 228.99 157.174 228.815 157.346 228.628L157.345 228.626ZM161.554 206.823C162.702 204.055 163.699 201.227 164.54 198.349H164.513C164.662 197.661 164.74 196.959 164.748 196.253C164.753 196.192 164.715 196.126 164.679 196.061C164.661 196.028 164.642 195.995 164.628 195.962C164.365 196.161 164.21 196.376 164.065 196.578C163.925 196.774 163.795 196.957 163.581 197.1C162.082 198.103 161.006 198.03 158.372 197.85L157.699 197.803C151.387 197.049 145.122 195.945 138.932 194.497C138.702 194.441 138.581 194.406 138.499 194.449C138.314 194.545 138.33 195.032 137.761 196.555C135.364 202.987 133.732 204.404 133.974 204.896C134.089 205.133 134.647 205.154 135.772 205.422C139.404 206.299 160.149 210.315 161.553 206.823H161.554ZM174.49 182.182C175.505 182.179 176.517 182.057 177.506 181.82L177.486 181.813C178.922 181.689 178.24 172.479 172.058 167.79C171.982 167.733 171.913 167.654 171.845 167.577C171.573 167.266 171.316 166.975 170.797 168.195C170.733 168.349 170.758 168.725 170.793 169.269C170.896 170.861 171.092 173.884 169.434 176.926C167.895 179.75 167.946 179.796 168.601 180.29C170.244 181.669 172.357 182.348 174.49 182.183L174.49 182.182ZM210.161 173.456C210.983 173.252 212.027 172.993 212.829 171.84L212.783 171.828C212.998 171.448 212.819 171.153 212.51 170.646C212.175 170.096 211.689 169.298 211.383 167.875C211.106 166.6 211.063 165.284 211.257 163.994C210.907 163.877 210.563 163.744 210.226 163.595C209.406 163.246 208.801 162.987 208.101 163.455C207.696 163.725 207.405 163.489 207.014 163.173C206.876 163.062 206.729 162.943 206.558 162.83C205.231 161.969 204.619 162.168 204.084 162.342C203.571 162.51 203.127 162.655 202.191 161.842C200.724 160.565 199.407 160.661 198.321 160.74C197.409 160.807 196.656 160.862 196.112 160.079C195.883 159.828 195.623 159.607 195.34 159.42C194.693 158.773 193.859 158.348 192.958 158.203C192.057 158.058 191.133 158.202 190.318 158.614C190.09 158.746 189.825 158.801 189.564 158.772C189.302 158.742 189.057 158.629 188.864 158.449C186.027 156.2 183.691 157.28 182.386 157.882C181.872 158.121 181.518 158.285 181.357 158.139C181.051 157.853 181.586 157.093 182.121 156.821C182.395 156.683 182.625 156.573 182.819 156.48C183.647 156.083 183.793 156.012 183.793 155.504C183.788 155.123 183.801 154.759 183.814 154.404C183.878 152.635 183.931 151.154 181.688 149.352C181.018 148.812 180.927 148.607 181.221 147.764C181.357 147.372 181.496 147.012 181.626 146.676C182.088 145.484 182.434 144.591 182.12 143.539C181.565 142.21 180.869 140.945 180.043 139.766C179.806 139.283 179.956 138.577 180.122 137.806C180.283 137.054 180.458 136.241 180.296 135.517C179.78 133.272 178.979 132.432 178.394 131.817C177.911 131.31 177.575 130.958 177.662 130.096C177.699 129.748 177.749 129.402 177.809 129.058C178.006 127.874 178.164 126.916 177.225 125.258C176.507 123.988 175.638 123.534 174.946 123.175C174.228 122.801 173.701 122.526 173.734 121.536C173.783 119.844 173.203 118.195 172.106 116.91C170.584 115.103 169.584 114.891 168.909 114.748C168.343 114.627 168.006 114.557 167.781 113.636C167.461 112.633 166.916 111.717 166.188 110.96C165.233 110.199 164.065 109.758 162.847 109.698C162.325 109.624 162.298 109.698 162.134 110.193C160.668 114.58 156.985 115.949 152.436 115.784C143.482 115.468 132.462 111.923 127.031 104.86C124.95 102.154 124.804 100.088 124.715 98.8375C124.664 98.1208 124.633 97.67 124.268 97.518C123.179 97.0514 122.009 96.8077 120.825 96.8013C119.339 96.8112 118.799 97.3347 118.341 97.7798C117.979 98.1324 117.666 98.4354 116.972 98.3925C115.885 98.2509 114.785 98.2338 113.694 98.3413C112.095 98.4866 111.46 99.1976 110.916 99.8078C110.483 100.292 110.107 100.714 109.354 100.742C108.168 100.612 106.968 100.771 105.856 101.205C104.863 101.615 104.384 102.136 103.939 102.619C103.472 103.129 103.043 103.594 102.087 103.841C101.418 103.974 100.797 104.286 100.289 104.745C99.7818 105.204 99.407 105.792 99.2043 106.447C98.8305 107.513 98.7747 108.366 98.7287 109.066C98.658 110.14 98.612 110.852 97.4799 111.417C94.5214 112.892 94.6931 115.227 94.8328 117.133C94.915 118.27 94.9889 119.254 94.3752 119.809C93.5145 120.628 92.8693 121.649 92.4974 122.781C92.1255 123.912 92.0384 125.119 92.2441 126.292C92.2868 126.541 92.3591 126.794 92.4289 127.05C92.6466 127.825 92.8717 128.62 92.3287 129.38C90.5213 131.91 91.2401 134.714 91.95 137.378L92.0239 137.628C92.1849 138.145 92.304 138.534 91.7043 140.063C91.0936 141.62 90.8536 143.299 91.0036 144.966C91.1535 146.633 91.6891 148.242 92.5678 149.664C93.0533 150.45 92.7378 151.229 92.355 152.181C91.7552 153.666 90.9863 155.575 92.8274 158.581C93.0566 158.955 93.2045 158.919 93.7237 158.793C94.1649 158.688 94.8722 158.517 96.1268 158.477C98.7097 158.742 98.7163 158.76 98.7327 158.806C98.7443 158.835 98.759 158.871 99.2832 158.972C101.605 159.61 103.731 160.823 105.465 162.5C110.03 166.948 110.902 176.316 109.353 179.482C109.327 179.537 109.312 179.597 109.31 179.657C109.307 179.718 109.316 179.779 109.337 179.836C109.358 179.893 109.389 179.945 109.43 179.99C109.471 180.035 109.521 180.071 109.576 180.096C110.524 180.822 111.654 181.27 112.839 181.391C114.025 181.512 115.221 181.301 116.295 180.782C117.869 180.119 118.875 180.418 119.855 180.707C120.904 181.019 121.92 181.318 123.571 180.419C125.368 179.437 125.805 179.25 126.533 179.25C127.882 179.451 129.26 179.263 130.507 178.708C131.104 178.303 131.538 177.944 131.907 177.639C132.772 176.924 133.274 176.509 134.653 176.509C137.844 176.518 138.936 175.291 139.914 174.191C140.76 173.237 141.522 172.378 143.49 172.5C145.949 172.654 146.657 171.706 147.326 170.81C147.846 170.113 148.347 169.444 149.632 169.349C151.437 169.207 153.136 168.433 154.432 167.161C154.48 166.987 154.401 166.825 154.274 166.567C153.963 165.931 153.37 164.714 153.653 161.303C153.694 160.817 153.56 160.793 153.204 160.725C152.866 160.663 152.326 160.56 151.542 159.986C149.945 158.815 149.093 159.047 148.311 159.261C147.667 159.435 147.069 159.6 146.143 158.956C145.884 158.771 145.634 158.572 145.394 158.361C144.6 157.688 143.86 157.058 142.612 157.482C141.984 157.716 141.299 157.747 140.652 157.571C140.005 157.393 139.43 157.016 139.006 156.494C138.549 156.122 138.033 155.83 137.479 155.631C137.1 155.438 136.912 155.499 136.489 155.631C136.219 155.713 135.853 155.828 135.281 155.925C133.99 156.146 133.573 155.679 133.206 155.267C133.111 155.161 133.02 155.058 132.918 154.972C131.559 153.825 130.779 154.049 130.023 154.263C129.844 154.318 129.661 154.364 129.476 154.399C128.755 154.519 128.457 154.385 127.952 154.16C127.585 153.99 127.206 153.846 126.818 153.73C125.472 153.329 125.057 153.427 124.454 153.565C124.089 153.657 123.716 153.718 123.341 153.747C123.252 153.761 123.161 153.742 123.086 153.694C123.01 153.645 122.955 153.57 122.931 153.483C122.907 153.396 122.916 153.303 122.955 153.222C122.995 153.141 123.063 153.077 123.146 153.044C123.608 152.739 124.129 152.535 124.675 152.446C125.22 152.357 125.778 152.385 126.313 152.527C126.999 152.637 127.16 152.187 127.452 151.378C127.544 151.128 127.645 150.843 127.78 150.53C128.039 149.924 127.683 149.429 127.272 148.936C126.761 148.316 127.064 147.865 127.629 147.027C127.766 146.824 127.918 146.598 128.079 146.34C129.242 144.462 127.947 142.941 127.258 142.126C127.168 142.023 127.081 141.917 126.998 141.81C126.566 141.232 126.888 140.587 127.306 139.747C127.983 138.384 128.915 136.51 127.314 133.573C126.467 132.02 126.883 131.11 127.388 130.007C127.686 129.354 128.016 128.634 128.134 127.674C128.495 124.727 127.049 123.308 125.954 122.235C125.274 121.569 124.73 121.036 124.838 120.354C124.907 119.92 124.981 119.511 125.051 119.118C125.362 117.405 125.606 116.047 125.08 114.565C123.998 111.513 122.897 111.004 122.341 110.747C122.091 110.632 121.951 110.566 121.974 110.343C122.02 109.911 123.01 109.903 123.38 110.216C124.585 111.128 125.476 112.395 125.929 113.84C126.703 115.893 126.584 116.616 126.186 119.095L126.027 120.1C125.931 120.733 126.166 120.913 126.598 121.247C127.155 121.676 128.041 122.359 128.977 124.586C129.908 126.8 129.227 128.495 128.656 129.919C128.205 131.043 127.822 131.997 128.346 132.906C129.067 134.162 129.482 135.574 129.55 137.024C129.385 138.322 128.937 139.566 128.239 140.67C128.031 141.075 128.237 141.296 128.499 141.581L128.539 141.624C129.326 142.459 129.777 143.557 129.805 144.706C129.832 145.856 129.435 146.975 128.69 147.847C128.456 148.172 128.555 148.384 128.698 148.682C128.9 149.104 129.184 149.699 128.721 151.03C128.596 151.387 128.448 151.736 128.278 152.074C128.034 152.576 127.934 152.781 128.29 153.007C128.791 153.326 129.308 153.234 129.901 153.13C130.683 152.992 131.596 152.829 132.784 153.559C133.26 153.85 133.559 154.119 133.795 154.33C134.174 154.668 134.392 154.862 134.915 154.785C135.735 154.618 136.57 154.533 137.406 154.538C138.324 154.808 139.176 155.257 139.923 155.856C140.7 156.744 141.474 156.601 142.323 156.442C143.159 156.287 144.069 156.118 145.13 156.906C146.838 158.169 147.33 158.51 148.081 158.278C148.773 158.064 149.509 158.031 150.218 158.182C150.927 158.333 151.586 158.663 152.132 159.141C153.006 159.907 155.037 160.088 155.544 159.029C155.562 158.991 158.184 153.874 158.385 153.617C162.53 148.339 168.458 152.737 166.343 153.86C166.163 153.956 165.977 153.992 165.822 154.022C165.535 154.077 165.346 154.113 165.466 154.474C165.778 155.413 165.613 155.949 164.549 156.1C164.195 156.153 163.956 156.116 163.725 156.083C163.308 156.02 162.916 155.961 161.926 156.429C161.377 156.688 161.363 156.868 161.308 157.505C161.266 158.101 161.178 158.692 161.046 159.275C161.023 159.462 161.023 159.654 161.046 159.841C161.75 159.815 161.83 159.759 161.974 159.659C162.151 159.533 162.425 159.341 164.097 159.056C165.282 158.855 166.456 160.128 165.308 160.884C164.58 161.365 163.982 161.693 163.471 161.973C162.395 162.561 161.707 162.937 161.015 164.09C160.654 164.765 160.139 165.345 159.512 165.781C158.886 166.217 158.165 166.498 157.409 166.601C156.752 166.554 156.026 167.162 155.141 167.905C153.937 168.915 152.433 170.174 150.397 170.373C149.923 170.369 149.456 170.497 149.05 170.744C148.643 170.99 148.312 171.345 148.095 171.769C147.522 172.494 146.765 173.048 145.903 173.372C145.041 173.697 144.107 173.779 143.202 173.61C142.701 173.611 142.21 173.745 141.778 174C141.346 174.254 140.989 174.62 140.743 175.059C138.755 177.477 137.116 177.57 135.631 177.656C134.505 177.722 133.47 177.782 132.439 178.847C130.826 180.517 129.25 180.504 126.942 180.445C126.344 180.43 125.714 180.758 124.987 181.137C123.588 181.865 121.825 182.782 119.224 181.817C118.255 181.456 117.667 181.667 116.084 182.234L115.328 182.503C114.365 182.727 113.366 182.755 112.392 182.585C111.417 182.415 110.486 182.051 109.654 181.514C109.425 181.327 109.16 181.19 108.875 181.113C108.591 181.035 108.293 181.019 108.002 181.066C105.75 181.145 128.673 191.526 144.356 194.362C144.595 194.405 144.946 194.472 145.389 194.556C149.511 195.337 161.468 197.605 162.868 196.074C163.422 195.298 163.787 194.401 163.933 193.457C164.08 192.513 164.003 191.548 163.71 190.639C163.382 189.804 163.98 188.933 164.751 187.82C165.872 186.196 167.354 184.049 166.836 180.727C166.831 180.695 166.826 180.663 166.821 180.631C166.667 179.665 166.621 179.368 167.744 177.375C169.286 174.87 169.86 171.884 169.356 168.983C169.243 168.39 169.533 167.799 169.913 167.023C170.566 165.69 171.483 163.819 171.062 160.484C170.977 159.814 170.901 159.331 170.844 158.967C170.693 158.022 170.673 157.888 170.974 157.343C172.288 154.635 172.487 151.514 171.526 148.66C171.303 148.145 171.24 147.575 171.343 147.024C172.041 144.744 172.244 142.339 171.939 139.973C171.684 139.208 172.975 138.919 173.087 141.39C173.204 143.938 172.894 145.233 172.672 146.156C172.464 147.026 172.335 147.565 172.715 148.514C174.1 151.957 172.792 155.878 172.225 157.573C172.077 158.016 171.981 158.308 171.995 158.398C172.635 160.824 172.569 163.385 171.806 165.775C171.751 165.94 171.707 166.037 171.715 166.129C171.737 166.388 172.168 166.612 173.913 168.175C177.588 171.468 179.648 178.527 178.776 181.337C178.476 182.301 184.21 183.375 186.541 180.947C187.05 180.415 187.449 180.541 188.093 180.748C188.75 180.957 189.665 181.248 191.215 181.008C193.01 180.73 193.887 180.245 194.537 179.886C195.068 179.593 195.448 179.382 196.053 179.434C196.774 179.565 197.509 179.607 198.239 179.561C200.17 179.149 201.01 178.434 201.672 177.871C202.225 177.398 202.653 177.033 203.494 177.044C205.336 177.069 208.286 176.188 208.857 174.244C209.003 173.746 209.513 173.619 210.157 173.459L210.161 173.456ZM162.639 153.21C162.86 153.19 163.087 153.168 163.313 153.142C163.318 153.191 163.305 153.228 163.316 153.253C163.354 153.327 163.636 153.276 165.434 153.055C166.444 152.921 161.57 150.075 159.078 154.209C158.512 155.162 157.977 156.133 157.472 157.119C156.663 158.659 156.037 159.856 155.385 160.274C154.051 161.132 154.652 164.789 155.072 165.971C155.223 166.399 155.512 166.481 155.949 166.279C156.563 165.995 157.022 165.919 157.438 165.85C157.979 165.759 158.448 165.682 159.097 165.175C159.859 164.578 160.245 164.012 160.614 163.473C161.106 162.749 161.565 162.077 162.85 161.456C163.502 161.187 164.11 160.821 164.653 160.369C164.688 160.342 164.63 160.112 164.592 160.112C163.928 159.988 162.601 160.583 161.617 161.023C161.206 161.205 160.855 161.364 160.637 161.43C160.198 161.565 159.744 162.028 159.334 162.445C158.83 162.96 158.395 163.403 158.14 163.077C157.975 162.867 158.145 162.7 158.301 162.549L158.345 162.504C159.574 161.054 160.328 159.258 160.505 157.361C160.484 157.063 160.537 156.764 160.66 156.492C160.783 156.219 160.971 155.982 161.208 155.802C161.834 155.353 162.585 155.115 163.353 155.115C163.388 155.118 164.51 155.166 164.51 155.032C164.518 154.305 161.755 153.495 160.524 154.648C160.355 154.808 160.285 154.878 160.201 154.903C160.099 154.933 159.978 154.893 159.641 154.857C160.021 153.453 161.262 153.338 162.639 153.21Z" fill="#606E76"/>
<path d="M235.88 157.159C234.58 155.37 233.175 153.66 231.673 152.04C227.345 147.877 228.039 147.921 219.936 154.707C211.5 161.769 210.757 161.81 210.862 163.034C210.981 164.337 216.056 171.567 217.24 172.352C217.991 172.846 218.461 172.846 219.713 172.244C220.7 171.632 221.654 170.968 222.573 170.256C225.304 168.164 233.274 162.791 234.903 161.152C236.168 159.872 236.827 158.507 235.88 157.159ZM226.026 166.033C224.048 167.564 221.998 168.998 219.883 170.331C218.9 170.952 217.99 171.524 217.154 170.674C215.409 168.651 213.854 166.47 212.511 164.159C211.896 163.017 212.094 162.734 212.448 162.346C213.13 161.592 215.07 160.071 220.958 155.245C227.53 149.855 227.723 149.48 229.761 151.692C229.803 151.791 229.819 151.898 229.806 152.005C229.794 152.112 229.755 152.213 229.692 152.3C228.827 153.328 230.064 154.071 231.723 156.072C231.883 156.27 232.101 156.411 232.346 156.478C232.591 156.544 232.85 156.532 233.088 156.443C233.859 156.226 233.851 156.246 234.334 156.892C235.897 158.972 235.849 158.41 226.025 166.027V166.034L226.026 166.033Z" fill="#606E76"/>
<path d="M230.587 137.615C230.849 137.673 230.859 137.45 230.928 137.244C235.002 124.899 236.599 122.863 235.814 122.638C234.719 122.327 229.724 137.425 230.587 137.615Z" fill="#606E76"/>
<path d="M235.411 172.15C235.074 172.465 235.858 172.898 238.842 179.137C242.484 186.749 242.148 186.635 242.697 185.915C241.714 182.433 236.093 171.516 235.411 172.15Z" fill="#606E76"/>
<path d="M257.338 164.2C254.306 163.322 241.141 159.879 243.516 161.803C243.924 161.754 246.262 162.071 256.673 164.813C257.623 165.065 258.277 165.381 258.476 165.063C258.735 164.664 257.797 164.331 257.338 164.2Z" fill="#606E76"/>
<path d="M212.449 151.487C212.395 151.39 212.375 151.295 212.316 151.257C211.937 150.968 211.529 150.72 211.098 150.517C210.074 150.136 197.711 145.715 197.385 146.744C197.255 147.158 198.576 147.256 199.775 147.625C212.928 151.673 211.714 151.979 212.449 151.486V151.487Z" fill="#606E76"/>
<path d="M215.366 133.357C219.049 141.835 218.481 141.923 219.198 141.038C217.933 136.816 214.281 128.408 212.817 126.932C212.773 126.888 212.489 126.97 212.53 127.097C212.69 127.699 212.127 125.898 215.365 133.357L215.366 133.357Z" fill="#606E76"/>
<path d="M247.722 141.867C251.056 139.408 252.817 138.391 253.181 137.893C255.064 135.323 240.277 145.86 240.53 147.245C241.895 146.593 240.056 147.522 247.722 141.867Z" fill="#606E76"/>
<path d="M229.928 156.319C229.12 156.145 227.499 155.932 226.65 155.825C226.005 155.825 225.921 155.944 226.111 156.51C226.461 157.555 226.69 157.489 226.074 157.711C218.468 160.455 218.569 160.251 219.819 161.04C221.87 162.335 221.345 161.535 216.179 164.222C215.271 164.696 215.933 165.659 216.396 165.89C216.665 166.023 217.116 165.724 217.263 165.643C224.997 161.625 225.076 162.139 222.859 160.916C222.664 160.809 222.633 160.618 223.086 160.403C224.245 159.753 225.455 159.202 226.704 158.755C227.782 158.437 227.557 161.179 228.671 159.393C230.451 156.523 230.675 156.48 229.928 156.319L229.928 156.319Z" fill="#606E76"/>
<path d="M256.877 0.00298007C279.988 0.216845 303.781 20.5043 303.999 49.4231C304.049 56.0546 302.776 62.6289 300.254 68.7569C297.731 74.8848 294.011 80.4419 289.314 85.0992C284.617 89.7565 279.038 93.4194 272.907 95.8709C266.777 98.3225 260.219 99.5129 253.622 99.3718C212.701 98.6567 191.476 51.736 214.864 20.1707C224.502 7.16044 238.142 -0.169598 256.877 0.00298007ZM284.804 87.3549C291.848 81.6846 297.156 74.1312 300.119 65.5635C303.081 56.9958 303.577 47.7617 301.55 38.9231C295.978 12.1768 266.667 -6.47243 237.377 4.438C216.328 12.2775 204.654 34.2173 206.387 52.4792C210.516 96.0433 257.649 110.045 284.804 87.3549Z" fill="#606E76"/>
<path d="M256.433 64.5357C262.543 63.6249 265.384 72.4975 260.312 79.3783C256.018 85.2063 249.519 83.284 248.694 77.9316C247.649 71.1548 252.114 65.1815 256.432 64.5357H256.433ZM260.039 66.8651C259.473 66.2626 258.727 65.8627 257.915 65.7264C257.102 65.5902 256.267 65.725 255.538 66.1104C258.574 67.112 258.951 70.3307 258.549 73.5445C258.131 76.3477 257.09 79.0201 255.502 81.3625C258.375 82.0116 264.845 72.0615 260.035 66.8643L260.039 66.8651Z" fill="#606E76"/>
<path d="M232.44 57.3304C232.537 59.4581 231.985 61.5649 230.857 63.3678C229.728 65.1708 228.078 66.5837 226.128 67.4167C222.204 68.657 218.839 65.5373 218.588 61.061C217.877 48.4752 232.536 45.3465 232.44 57.3304ZM225.144 51.1035C218.144 53.7393 217.836 66.4944 224.599 66.4944C224.702 66.4764 224.802 66.4401 224.892 66.387C224.853 66.2892 224.8 66.1973 224.736 66.1137C221.258 62.7084 223.456 53.3602 228.243 51.452C228.309 51.416 228.371 51.3746 228.43 51.3281C227.93 51.0556 227.378 50.8941 226.812 50.8547C226.245 50.8152 225.676 50.8987 225.144 51.0994V51.1027L225.144 51.1035Z" fill="#606E76"/>
<path d="M239.681 36.0075C233.168 36.2676 230.365 31.0109 237.143 26.5322C245.529 20.9907 255.964 23.3712 253.434 29.0738C251.561 33.299 244.18 36.1412 239.681 36.0075ZM234.323 31.8887C235.483 35.3353 233.692 31.2479 240.899 28.6386C250.179 25.2762 251.659 29.7922 252.059 29.1935C253.852 26.5478 251.575 23.7115 244.381 24.8344C240.545 25.4306 234.641 28.4487 234.323 31.8854V31.8887Z" fill="#606E76"/>
<path d="M275.585 42.1055C275.674 49.1085 270.709 51.1869 268.419 45.1681C266.405 39.8702 268.357 32.0803 272.353 34.1933C274.731 35.4451 275.557 39.3855 275.585 42.1055ZM270.504 35.2709C271.431 36.2923 272.079 37.5375 272.383 38.8851C273.135 41.6323 272.985 44.5502 271.954 47.2044C271.718 47.7808 272.751 47.3101 272.884 47.1433C276.047 43.1979 273.713 33.9646 270.503 35.2709H270.504Z" fill="#606E76"/>
<path d="M224.794 22.9014C224.418 30.5733 216.217 36.4261 215.022 31.3685C214.104 27.4859 219.008 19.8949 223.217 20.4531C224.156 20.5786 224.9 22.3424 224.794 22.9014ZM216.628 31.8581C216.752 31.9677 216.911 32.0267 217.076 32.0233C217.417 31.9374 216.977 31.7219 217.124 31.1992C217.59 28.8525 218.665 26.6711 220.238 24.8749C221.122 23.749 222.223 22.8152 223.477 22.1302C223.388 21.9134 223.236 21.7285 223.041 21.5995C222.846 21.4706 222.617 21.4034 222.383 21.4068C222.228 21.4098 222.075 21.444 221.934 21.5076C220.617 22.1953 219.454 23.1481 218.519 24.3067C217.584 25.4653 216.896 26.805 216.498 28.2423C216.17 29.262 215.736 31.2537 216.628 31.8581Z" fill="#606E76"/>
<path d="M290.397 63.8917C289.878 70.2672 283.092 73.3703 281.525 69.1962C281.279 68.2292 281.233 67.2216 281.392 66.2363C281.551 65.251 281.91 64.3092 282.447 63.4697C282.984 62.63 283.686 61.9102 284.511 61.3551C285.336 60.7999 286.266 60.4213 287.243 60.2427C288.505 60.0058 290.388 61.284 290.396 63.8917H290.397ZM285.08 68.8667C284.681 69.2276 284.353 69.3985 283.985 69.7346C287.004 70.7642 291.628 62.677 287.65 61.5705C287.771 62.9004 287.605 64.2409 287.161 65.4998C286.718 66.7586 286.007 67.9056 285.08 68.8617V68.8667Z" fill="#606E76"/>
<path d="M291.117 47.3175C290.742 45.7814 290.791 44.1719 291.257 42.6614C291.723 41.1509 292.59 39.7964 293.764 38.7431C295.604 37.2997 297.862 38.8538 298.404 41.5077C300.107 49.7807 292.441 53.8706 291.117 47.3175ZM296.572 40.1848C296.377 39.8551 296.066 39.6113 295.7 39.5021C295.334 39.3928 294.94 39.4261 294.597 39.5953C294.232 39.7926 294.24 39.8174 294.461 40.2195C295.251 41.9591 295.414 43.9205 294.922 45.7676C294.052 48.9566 292.783 49.0144 293.809 49.2712C296.803 50.0226 298.511 42.6472 296.572 40.1848Z" fill="#606E76"/>
<path d="M278.181 14.6185C281.153 17.3186 280.509 19.7628 278.247 19.8767C273.746 20.1022 267.244 13.7704 270.473 12.0207C272.615 10.8597 276.365 12.9695 278.181 14.6185ZM271.789 12.8555C271.213 13.0075 270.806 13.0108 270.806 13.5425C270.806 14.2279 271.19 13.4715 273.13 14.5706C277.993 17.3269 277.47 19.1121 278.538 18.6035C280.568 17.6299 275.333 12.9051 271.788 12.8522L271.789 12.8555Z" fill="#606E76"/>
<path d="M231.659 79.3783C237.701 81.3089 238.379 87.7355 235.204 86.9957C233.886 86.6127 232.697 85.8764 231.763 84.8655C230.829 83.8546 230.187 82.6074 229.905 81.2577C229.873 81.0127 229.894 80.7635 229.968 80.5277C230.044 80.2934 230.171 80.0788 230.339 79.8991C230.507 79.7195 230.712 79.5791 230.94 79.4881C231.168 79.3975 231.414 79.3605 231.659 79.3783ZM231.256 80.6499C231.201 80.6783 231.154 80.7208 231.121 80.7732C231.088 80.8255 231.069 80.8859 231.066 80.948C231.064 81.0107 231.079 81.0728 231.109 81.1275C231.14 81.1821 231.185 81.2272 231.24 81.2577C232.84 82.2821 234.107 83.7542 234.887 85.4929C234.947 85.6256 235.056 85.7301 235.19 85.7849C235.325 85.8396 235.475 85.8405 235.61 85.7874C235.746 85.7343 235.856 85.6311 235.918 85.4991C235.98 85.3671 235.989 85.2162 235.944 85.0775C235.038 81.9397 232.068 80.2379 231.259 80.6491L231.256 80.6499Z" fill="#606E76"/>
<path d="M268.303 85.0057C269.084 84.3091 270.036 83.8335 271.061 83.6275C272.085 83.4215 273.146 83.4925 274.134 83.8331C276.14 84.388 276.439 86.2401 275.499 87.1394C272.446 90.0616 265.785 87.7884 268.303 85.0057ZM272.401 84.6878C268.773 84.7175 268.593 86.7802 269.286 86.3648C270.056 86.0159 270.89 85.8331 271.734 85.8283C272.579 85.8235 273.415 85.9967 274.188 86.3368C275.014 86.7092 275.748 84.9644 272.401 84.6878H272.4H272.401Z" fill="#606E76"/>
<path d="M248.557 8.1571C248.179 7.03988 249.377 6.01515 250.452 5.65182C256.926 3.41161 259.845 8.3784 253.313 9.77059C251.609 10.1281 249.122 9.82095 248.557 8.1571ZM255.702 7.00355C252.84 5.05977 249.325 7.28843 249.686 7.74506C250.047 8.20169 250.574 8.77145 250.941 8.26527C251.357 7.88631 251.865 7.62358 252.413 7.50332C252.961 7.38306 253.532 7.40947 254.067 7.57991C254.278 7.65588 254.468 7.78552 254.678 7.86809C255.04 8.01177 255.752 7.48413 255.701 7.0052L255.702 7.00355Z" fill="#606E76"/>
<path d="M252.626 51.978C252.221 51.9379 251.836 51.782 251.517 51.5288C251.198 51.2756 250.958 50.9357 250.826 50.5495C250.694 50.1635 250.674 49.7478 250.768 49.3509C250.862 48.954 251.067 48.5921 251.358 48.3076C251.842 47.6751 252.483 47.1828 253.218 46.8807C254.175 45.9336 256.725 45.8923 257.356 47.5396C258.143 49.5875 255.462 51.8706 252.624 51.978H252.626ZM255.686 48.5693C256.368 48.8806 256.549 47.9897 255.951 47.6668C253.683 46.4414 251.103 49.8261 252.083 50.485C252.367 50.6758 252.604 48.7634 255.686 48.5693Z" fill="#606E76"/>
<path d="M98.3622 40.2608C99.7852 34.4311 99.6997 36.289 96.2237 37.5161C95.7875 37.6713 95.5122 37.175 95.937 36.9034C99.777 34.432 99.7638 35.5855 97.7592 33.233C97.2482 32.6335 96.2024 31.4651 96.9138 31.1175C97.1578 30.9969 97.286 31.1885 97.4059 31.3297C100.216 34.5632 99.5855 34.6144 100.279 31.8334C100.935 29.2207 101.234 27.2489 101.841 27.7146C102.36 28.12 100.671 33.0687 100.801 33.92C100.889 34.4947 105.47 31.3107 106.046 32.6649C106.071 32.7194 105.905 32.8688 105.809 32.9564C105.257 33.451 107.12 32.1001 101.482 34.8803C100.267 35.4798 101.274 35.3304 103.242 38.7101C103.285 38.7905 103.297 38.8838 103.276 38.9725C103.255 39.0612 103.203 39.1391 103.129 39.1918C103.055 39.2444 102.964 39.268 102.874 39.2582C102.784 39.2485 102.7 39.2059 102.639 39.1386C102 38.5243 100.613 36.2808 100.309 36.4253C99.8509 36.6524 99.4828 42.0791 98.3631 40.2583L98.3622 40.2608Z" fill="#606E76"/>
<path d="M26.3517 131.724C26.2729 131.959 24.4687 137.365 24.5065 137.587C26.3797 136.939 29.7513 135.706 29.8466 136.645C29.8466 136.778 29.702 137.029 29.2502 137.095C27.7328 137.411 26.2556 137.897 24.8442 138.541C24.4474 138.693 24.4359 138.831 24.6799 139.227C26.3961 142.101 26.5251 142.228 26.4651 142.657C26.254 144.149 24.5952 140.551 23.823 139.756C23.1411 140.729 22.5003 144.213 21.6918 143.93C20.8834 143.647 23.3407 139.384 22.5767 139.508C21.5045 139.684 19.8704 140.922 19.5673 140.078C19.4605 139.787 19.3677 139.831 22.3162 138.525C23.0967 138.179 23.031 138.497 20.9935 135.485C20.4332 134.661 20.5556 134.594 20.7232 134.388C20.9557 134.103 21.3164 134.447 21.5119 134.717C24.0998 138.251 22.9874 138.388 25.4193 132.016C25.5556 131.655 25.7849 131.144 26.1012 131.312C26.2227 131.375 26.2663 131.572 26.3517 131.724Z" fill="#606E76"/>
<path d="M287.438 230.934C286.48 231.085 285.044 232.492 284.652 231.922C284.368 231.516 284.833 231.324 286.862 230.081C287.645 229.601 287.811 229.738 287.518 229.196C285.233 225.025 285.246 225.465 285.366 224.594C286.389 224.974 287.518 227.608 288.211 228.264C288.501 227.807 288.069 228.797 289.577 224.206C289.708 223.804 289.896 223.42 290.051 223.024C290.067 222.948 290.112 222.882 290.177 222.84C290.242 222.798 290.32 222.784 290.395 222.8C290.96 222.924 290.656 223.404 290.146 225.068C288.999 228.839 288.799 229.022 289.805 228.62C292.387 227.595 292.428 227.466 293.129 227.424C293.594 227.394 293.469 227.866 293.294 228.02C293.187 228.116 291.345 228.933 289.609 229.735C288.845 230.088 289.166 229.989 290.411 232.164C290.619 232.526 290.755 232.927 290.96 233.303C291.109 233.577 291.093 233.811 290.795 233.94C290.288 234.164 290.092 233.116 288.612 231.097C287.588 232.891 287.99 233.496 287.039 235.158C286.998 235.231 286.695 235.398 286.647 235.056C286.474 233.819 287.534 231.797 287.439 230.936L287.438 230.934Z" fill="#606E76"/>
<path d="M242.477 213.681C224.394 196.275 193.818 208.913 193.685 234.437C193.591 240.234 195.244 245.923 198.427 250.758C201.609 255.593 206.173 259.347 211.518 261.526C215.066 262.973 218.868 263.688 222.696 263.628C248.586 263.531 261.212 231.715 242.478 213.681L242.477 213.681ZM198.202 248.477C196.277 245.067 195.085 241.29 194.702 237.389C194.319 233.487 194.753 229.548 195.978 225.826C197.205 222.105 199.193 218.683 201.816 215.781C204.439 212.879 207.638 210.562 211.207 208.979C214.776 207.398 218.636 206.587 222.536 206.597C226.437 206.607 230.292 207.439 233.853 209.038C237.413 210.64 240.6 212.973 243.208 215.889C245.816 218.804 247.787 222.237 248.994 225.965C259.276 258.306 214.924 277.478 198.205 248.478H198.203L198.202 248.477Z" fill="#606E76"/>
<path d="M207.174 266.213C196.029 286.754 198.324 286.136 196.072 284.756C195.089 284.153 195.2 283.828 195.731 282.926C200.037 275.59 206.249 263.899 206.291 263.642C206.324 263.443 205.983 263.148 205.799 263.382C204.686 264.773 194.928 283.617 194.397 283.012C192.038 280.326 193.882 276.952 195.665 277.525C196.093 277.662 196.059 277.332 196.157 277.144C196.451 276.619 194.472 276.311 193.535 277.421C192.842 278.309 192.465 279.405 192.465 280.533C192.465 281.662 192.842 282.758 193.535 283.646C194.12 284.396 194.027 284.184 189.919 291.945C188.165 295.261 186.448 298.36 186.299 298.699C186.017 299.338 186.626 299.727 187.056 299.118C187.486 298.508 189.552 294.022 194.543 285.207C194.825 284.713 194.744 285.413 196.61 286.123C197.228 286.358 196.82 286.596 196.269 287.77C188.707 303.79 188.804 302.658 189.318 303.102C190.108 303.784 191.988 297.552 197.658 287.159C198.196 286.17 199.582 287.356 202.001 286.917C204.296 286.498 205.663 284.503 205.243 284.241C204.902 284.029 204.734 284.292 204.54 284.501C203.347 285.796 202.12 286.478 198.804 285.855C198.489 285.798 198.371 285.707 198.438 285.513C198.615 285.001 208.149 266.074 207.781 265.883C207.621 265.803 207.422 265.766 207.176 266.213H207.174Z" fill="#606E76"/>
<path d="M194.782 300.769C194.703 300.7 194.662 300.665 194.533 300.858C194.486 300.944 194.495 301.07 194.65 301.341C195.46 302.775 195.523 303.598 195.012 304.429C194.666 304.989 193.846 305.485 192.464 304.974C192.036 304.809 191.741 305.035 191.907 305.499C192.666 307.621 191.681 311.671 188.792 311.201C187.556 311 186.631 309.898 186.181 307.817C185.944 306.708 185.67 307.158 185.442 307.398C184.91 308.187 184.219 308.854 183.414 309.357C181.344 310.647 178.56 308.835 178.477 305.835C178.543 304.899 178.81 303.988 179.259 303.166C179.708 302.343 180.33 301.628 181.08 301.07C181.911 300.471 182.462 300.96 182.937 300.981C183.001 300.991 183.067 300.982 183.126 300.955C183.185 300.929 183.236 300.886 183.271 300.831C183.307 300.777 183.327 300.714 183.327 300.649C183.329 300.584 183.312 300.52 183.278 300.464C183.07 300.034 181.512 299.311 181.912 297.334C182.393 294.968 184.207 294.143 185.365 294.611C186.29 294.986 185.965 295.523 186.177 295.688C186.388 295.853 186.518 295.768 186.518 295.619C186.928 293.807 184.395 293.187 182.998 294.186C182.144 294.756 181.517 295.611 181.227 296.6C180.938 297.589 181.004 298.649 181.414 299.594C181.765 300.274 180.654 299.644 179.026 301.927C175.475 306.907 179.564 311.845 183.192 310.427C184.024 310.077 184.743 309.501 185.269 308.765C186.043 308.021 185.772 312.258 189.463 312.059C192.122 311.921 192.929 309.508 192.855 306.391C192.855 306.134 192.718 305.847 192.94 305.839C193.532 305.99 194.158 305.915 194.697 305.629C195.237 305.343 195.651 304.865 195.861 304.289C196.009 303.659 195.987 303.001 195.797 302.382C195.607 301.763 195.257 301.206 194.782 300.769Z" fill="#606E76"/>
<path d="M219.331 211.182C214.707 211.897 210.36 213.852 206.748 216.842C191.051 232.513 200.705 254.189 217.151 257.549C220.475 258.27 223.915 258.254 227.232 257.503C230.549 256.752 233.664 255.284 236.36 253.202C240.424 250.062 243.351 245.668 244.69 240.694C246.029 235.721 245.707 230.443 243.773 225.671C241.84 220.899 238.401 216.897 233.985 214.28C229.569 211.662 224.422 210.574 219.331 211.182ZM222.423 257.107C217.898 257.151 213.465 255.819 209.706 253.287C205.947 250.756 203.037 247.141 201.357 242.918C199.677 238.695 199.306 234.061 200.292 229.622C201.278 225.183 203.575 221.148 206.883 218.044C218.456 206.703 240.086 211.153 244.311 230.436C247.155 243.421 236.185 257.198 222.423 257.107Z" fill="#606E76"/>
<path d="M231.525 216.483C224.809 219.335 218.443 222.957 212.555 227.278C211.995 227.721 211.745 227.995 212.555 229.678C214.282 233.266 216.285 236.713 218.546 239.988C218.685 240.221 218.887 240.409 219.129 240.531C219.371 240.652 219.642 240.702 219.911 240.673C222.698 240.637 225.466 240.701 228.244 240.508C231.73 240.266 233.056 240.632 233.112 239.619C233.61 230.764 232.995 215.97 231.526 216.483H231.525ZM230.938 217.519C230.492 218.434 228.316 221.958 226.619 225.221C224.679 228.954 224.807 229.282 224.182 229.076C219.756 227.612 212.722 228.128 213.117 227.779C218.78 223.894 224.739 220.464 230.938 217.519ZM219.211 239.439C216.928 236.33 214.94 233.013 213.275 229.531C212.619 228.298 212.807 228.475 213.353 228.485C220.003 229.26 220.135 229.07 223.93 229.782C224.422 229.874 224.207 229.909 222.372 233.57C218.563 241.192 219.67 239.285 219.212 239.438L219.211 239.439ZM227.976 239.823C219.044 239.988 219.804 240.21 220.317 239.213C221.761 236.412 221.536 236.686 224.752 230.667C225.14 229.938 224.752 229.904 231.535 238.329C232.632 239.691 232.728 239.515 227.994 239.812L227.976 239.823L227.976 239.823ZM232.074 237.796C230.302 234.96 228.202 232.346 225.816 230.008C225.273 229.44 225.006 230.156 228.132 224.285C231.771 217.45 231.346 218.242 231.524 218.081C231.866 218.486 232.445 235.707 232.412 235.707C232.423 238.152 232.545 238.573 232.079 237.796H232.074Z" fill="#606E76"/>
<path d="M231.004 241.712C224.077 242.245 218.243 242.452 218.075 242.399C217.583 242.234 217.829 242.742 215.144 237.768C210.27 228.739 210.442 227.982 210.442 233.379C210.394 233.379 210.618 237.152 210.623 237.202C212.184 254.287 212.454 252.218 214.454 251.427C218.896 249.782 223.155 247.674 227.161 245.138C227.594 244.864 231.13 242.537 231.473 242.161C231.735 241.878 231.183 241.698 231.002 241.711L231.004 241.712ZM213.23 250.361C212.991 249.812 211.099 232.223 211.204 231.91C211.735 232.478 214.517 239.203 217.105 242.618C217.322 242.907 217.424 242.471 213.645 249.72C213.319 250.369 213.34 250.268 213.233 250.361H213.23ZM213.968 250.503C217.939 243.34 217.772 243.201 218.239 243.254C218.331 243.254 223.418 243.233 224.074 243.182C226.598 242.984 227.506 242.705 229.533 242.702C229.815 242.537 229.744 242.55 229.823 242.613C229.785 242.624 213.202 251.881 213.97 250.502H213.967L213.968 250.503Z" fill="#606E76"/>
</svg>
