<svg width="28" height="16" viewBox="0 0 28 16" fill="none" xmlns="http://www.w3.org/2000/svg">
<path d="M19.1282 0C18.8811 0.222122 18.6851 0.485906 18.5513 0.776267C18.4176 1.06663 18.3487 1.37787 18.3487 1.69219C18.3487 2.00652 18.4176 2.31776 18.5513 2.60812C18.6851 2.89848 18.8811 3.16226 19.1282 3.38439L24.2432 7.9892L19.1156 12.6043L16.5074 10.2557C16.0087 9.80706 15.3324 9.55502 14.6273 9.55502C13.9222 9.55502 13.2459 9.80706 12.7472 10.2557L19.1122 15.9856L28 7.98613L19.1282 0Z" fill="white"/>
<path d="M19.128 9.64067C20.1349 9.64067 20.9512 8.90601 20.9512 7.99976C20.9512 7.0935 20.1349 6.35884 19.128 6.35884C18.1212 6.35884 17.3049 7.0935 17.3049 7.99976C17.3049 8.90601 18.1212 9.64067 19.128 9.64067Z" fill="white"/>
<path d="M8.87297 16C9.37145 15.5511 9.65147 14.9425 9.65147 14.3078C9.65147 13.6732 9.37145 13.0645 8.87297 12.6156L3.76021 8.0108L8.88778 3.39573L11.4937 5.74428C11.9924 6.19294 12.6687 6.44498 13.3738 6.44498C14.079 6.44498 14.7552 6.19294 15.2539 5.74428L8.88778 0.0144162L0 8.01387L8.87297 16Z" fill="white"/>
<path d="M8.87285 9.64067C9.87974 9.64067 10.696 8.90601 10.696 7.99976C10.696 7.0935 9.87974 6.35884 8.87285 6.35884C7.86596 6.35884 7.04971 7.0935 7.04971 7.99976C7.04971 8.90601 7.86596 9.64067 8.87285 9.64067Z" fill="white"/>
</svg>
