<svg width="13" height="13" viewBox="0 0 13 13" fill="none" xmlns="http://www.w3.org/2000/svg">
<path d="M6.5 0C10.0898 0 13 2.91015 13 6.5C13 7.55098 12.7505 8.54373 12.3076 9.42227C12.2611 9.24137 12.175 9.06899 12.0493 8.91839L11.9692 8.83077L11.05 7.91154L10.1308 8.83077L10.0548 8.91345C9.62449 9.42422 9.64977 10.1883 10.1308 10.6692C10.4091 10.9476 10.7822 11.0733 11.1462 11.0465C9.96599 12.2517 8.32039 13 6.5 13C2.91015 13 0 10.0898 0 6.5C0 2.91015 2.91015 0 6.5 0ZM6.5 8.45C5.60293 8.45 4.79073 8.81348 4.20267 9.40114L4.09506 9.51392L4.70929 10.0725C5.22275 9.86862 5.8383 9.75 6.5 9.75C7.08818 9.75 7.6399 9.84373 8.11583 10.0077L8.29068 10.0725L8.90493 9.51392C8.31044 8.86028 7.45316 8.45 6.5 8.45ZM4.225 5.2C3.68652 5.2 3.25 5.63654 3.25 6.175C3.25 6.71346 3.68652 7.15 4.225 7.15C4.76348 7.15 5.2 6.71346 5.2 6.175C5.2 5.63654 4.76348 5.2 4.225 5.2ZM8.775 5.2C8.23654 5.2 7.8 5.63654 7.8 6.175C7.8 6.71346 8.23654 7.15 8.775 7.15C9.31346 7.15 9.75 6.71346 9.75 6.175C9.75 5.63654 9.31346 5.2 8.775 5.2Z" fill="#606E76"/>
</svg>
