<svg width="106" height="105" viewBox="0 0 106 105" fill="none" xmlns="http://www.w3.org/2000/svg">
<path d="M3.65517 0H0V3.62069H3.65517V0Z" fill="white"/>
<path d="M7.31034 0H3.65517V3.62069H7.31034V0Z" fill="white"/>
<path d="M10.9655 0H7.31034V3.62069H10.9655V0Z" fill="white"/>
<path d="M14.6207 0H10.9655V3.62069H14.6207V0Z" fill="white"/>
<path d="M18.2759 0H14.6207V3.62069H18.2759V0Z" fill="white"/>
<path d="M21.931 0H18.2759V3.62069H21.931V0Z" fill="white"/>
<path d="M25.5862 0H21.931V3.62069H25.5862V0Z" fill="white"/>
<path d="M32.8966 0H29.2414V3.62069H32.8966V0Z" fill="white"/>
<path d="M36.5517 0H32.8966V3.62069H36.5517V0Z" fill="white"/>
<path d="M43.8621 0H40.2069V3.62069H43.8621V0Z" fill="white"/>
<path d="M47.5172 0H43.8621V3.62069H47.5172V0Z" fill="white"/>
<path d="M51.1724 0H47.5172V3.62069H51.1724V0Z" fill="white"/>
<path d="M54.8276 0H51.1724V3.62069H54.8276V0Z" fill="white"/>
<path d="M58.4828 0H54.8276V3.62069H58.4828V0Z" fill="white"/>
<path d="M62.1379 0H58.4828V3.62069H62.1379V0Z" fill="white"/>
<path d="M69.4483 0H65.7931V3.62069H69.4483V0Z" fill="white"/>
<path d="M84.069 0H80.4138V3.62069H84.069V0Z" fill="white"/>
<path d="M87.7241 0H84.069V3.62069H87.7241V0Z" fill="white"/>
<path d="M91.3793 0H87.7241V3.62069H91.3793V0Z" fill="white"/>
<path d="M95.0345 0H91.3793V3.62069H95.0345V0Z" fill="white"/>
<path d="M98.6897 0H95.0345V3.62069H98.6897V0Z" fill="white"/>
<path d="M102.345 0H98.6897V3.62069H102.345V0Z" fill="white"/>
<path d="M106 0H102.345V3.62069H106V0Z" fill="white"/>
<path d="M3.65517 3.62069H0V7.24138H3.65517V3.62069Z" fill="white"/>
<path d="M25.5862 3.62069H21.931V7.24138H25.5862V3.62069Z" fill="white"/>
<path d="M36.5517 3.62069H32.8966V7.24138H36.5517V3.62069Z" fill="white"/>
<path d="M40.2069 3.62069H36.5517V7.24138H40.2069V3.62069Z" fill="white"/>
<path d="M58.4828 3.62069H54.8276V7.24138H58.4828V3.62069Z" fill="white"/>
<path d="M62.1379 3.62069H58.4828V7.24138H62.1379V3.62069Z" fill="white"/>
<path d="M65.7931 3.62069H62.1379V7.24138H65.7931V3.62069Z" fill="white"/>
<path d="M76.7586 3.62069H73.1034V7.24138H76.7586V3.62069Z" fill="white"/>
<path d="M84.069 3.62069H80.4138V7.24138H84.069V3.62069Z" fill="white"/>
<path d="M106 3.62069H102.345V7.24138H106V3.62069Z" fill="white"/>
<path d="M3.65517 7.24138H0V10.8621H3.65517V7.24138Z" fill="white"/>
<path d="M10.9655 7.24138H7.31034V10.8621H10.9655V7.24138Z" fill="white"/>
<path d="M14.6207 7.24138H10.9655V10.8621H14.6207V7.24138Z" fill="white"/>
<path d="M18.2759 7.24138H14.6207V10.8621H18.2759V7.24138Z" fill="white"/>
<path d="M25.5862 7.24138H21.931V10.8621H25.5862V7.24138Z" fill="white"/>
<path d="M32.8966 7.24138H29.2414V10.8621H32.8966V7.24138Z" fill="white"/>
<path d="M36.5517 7.24138H32.8966V10.8621H36.5517V7.24138Z" fill="white"/>
<path d="M40.2069 7.24138H36.5517V10.8621H40.2069V7.24138Z" fill="white"/>
<path d="M47.5172 7.24138H43.8621V10.8621H47.5172V7.24138Z" fill="white"/>
<path d="M51.1724 7.24138H47.5172V10.8621H51.1724V7.24138Z" fill="white"/>
<path d="M65.7931 7.24138H62.1379V10.8621H65.7931V7.24138Z" fill="white"/>
<path d="M76.7586 7.24138H73.1034V10.8621H76.7586V7.24138Z" fill="white"/>
<path d="M84.069 7.24138H80.4138V10.8621H84.069V7.24138Z" fill="white"/>
<path d="M91.3793 7.24138H87.7241V10.8621H91.3793V7.24138Z" fill="white"/>
<path d="M95.0345 7.24138H91.3793V10.8621H95.0345V7.24138Z" fill="white"/>
<path d="M98.6897 7.24138H95.0345V10.8621H98.6897V7.24138Z" fill="white"/>
<path d="M106 7.24138H102.345V10.8621H106V7.24138Z" fill="white"/>
<path d="M3.65517 10.8621H0V14.4828H3.65517V10.8621Z" fill="white"/>
<path d="M10.9655 10.8621H7.31034V14.4828H10.9655V10.8621Z" fill="white"/>
<path d="M14.6207 10.8621H10.9655V14.4828H14.6207V10.8621Z" fill="white"/>
<path d="M18.2759 10.8621H14.6207V14.4828H18.2759V10.8621Z" fill="white"/>
<path d="M25.5862 10.8621H21.931V14.4828H25.5862V10.8621Z" fill="white"/>
<path d="M32.8966 10.8621H29.2414V14.4828H32.8966V10.8621Z" fill="white"/>
<path d="M36.5517 10.8621H32.8966V14.4828H36.5517V10.8621Z" fill="white"/>
<path d="M43.8621 10.8621H40.2069V14.4828H43.8621V10.8621Z" fill="white"/>
<path d="M54.8276 10.8621H51.1724V14.4828H54.8276V10.8621Z" fill="white"/>
<path d="M58.4828 10.8621H54.8276V14.4828H58.4828V10.8621Z" fill="white"/>
<path d="M62.1379 10.8621H58.4828V14.4828H62.1379V10.8621Z" fill="white"/>
<path d="M65.7931 10.8621H62.1379V14.4828H65.7931V10.8621Z" fill="white"/>
<path d="M69.4483 10.8621H65.7931V14.4828H69.4483V10.8621Z" fill="white"/>
<path d="M76.7586 10.8621H73.1034V14.4828H76.7586V10.8621Z" fill="white"/>
<path d="M84.069 10.8621H80.4138V14.4828H84.069V10.8621Z" fill="white"/>
<path d="M91.3793 10.8621H87.7241V14.4828H91.3793V10.8621Z" fill="white"/>
<path d="M95.0345 10.8621H91.3793V14.4828H95.0345V10.8621Z" fill="white"/>
<path d="M98.6897 10.8621H95.0345V14.4828H98.6897V10.8621Z" fill="white"/>
<path d="M106 10.8621H102.345V14.4828H106V10.8621Z" fill="white"/>
<path d="M3.65517 14.4828H0V18.1034H3.65517V14.4828Z" fill="white"/>
<path d="M10.9655 14.4828H7.31034V18.1034H10.9655V14.4828Z" fill="white"/>
<path d="M14.6207 14.4828H10.9655V18.1034H14.6207V14.4828Z" fill="white"/>
<path d="M18.2759 14.4828H14.6207V18.1034H18.2759V14.4828Z" fill="white"/>
<path d="M25.5862 14.4828H21.931V18.1034H25.5862V14.4828Z" fill="white"/>
<path d="M36.5517 14.4828H32.8966V18.1034H36.5517V14.4828Z" fill="white"/>
<path d="M51.1724 14.4828H47.5172V18.1034H51.1724V14.4828Z" fill="white"/>
<path d="M58.4828 14.4828H54.8276V18.1034H58.4828V14.4828Z" fill="white"/>
<path d="M69.4483 14.4828H65.7931V18.1034H69.4483V14.4828Z" fill="white"/>
<path d="M73.1034 14.4828H69.4483V18.1034H73.1034V14.4828Z" fill="white"/>
<path d="M84.069 14.4828H80.4138V18.1034H84.069V14.4828Z" fill="white"/>
<path d="M91.3793 14.4828H87.7241V18.1034H91.3793V14.4828Z" fill="white"/>
<path d="M95.0345 14.4828H91.3793V18.1034H95.0345V14.4828Z" fill="white"/>
<path d="M98.6897 14.4828H95.0345V18.1034H98.6897V14.4828Z" fill="white"/>
<path d="M106 14.4828H102.345V18.1034H106V14.4828Z" fill="white"/>
<path d="M3.65517 18.1034H0V21.7241H3.65517V18.1034Z" fill="white"/>
<path d="M25.5862 18.1034H21.931V21.7241H25.5862V18.1034Z" fill="white"/>
<path d="M32.8966 18.1034H29.2414V21.7241H32.8966V18.1034Z" fill="white"/>
<path d="M36.5517 18.1034H32.8966V21.7241H36.5517V18.1034Z" fill="white"/>
<path d="M43.8621 18.1034H40.2069V21.7241H43.8621V18.1034Z" fill="white"/>
<path d="M47.5172 18.1034H43.8621V21.7241H47.5172V18.1034Z" fill="white"/>
<path d="M62.1379 18.1034H58.4828V21.7241H62.1379V18.1034Z" fill="white"/>
<path d="M65.7931 18.1034H62.1379V21.7241H65.7931V18.1034Z" fill="white"/>
<path d="M76.7586 18.1034H73.1034V21.7241H76.7586V18.1034Z" fill="white"/>
<path d="M84.069 18.1034H80.4138V21.7241H84.069V18.1034Z" fill="white"/>
<path d="M106 18.1034H102.345V21.7241H106V18.1034Z" fill="white"/>
<path d="M3.65517 21.7241H0V25.3448H3.65517V21.7241Z" fill="white"/>
<path d="M7.31034 21.7241H3.65517V25.3448H7.31034V21.7241Z" fill="white"/>
<path d="M10.9655 21.7241H7.31034V25.3448H10.9655V21.7241Z" fill="white"/>
<path d="M14.6207 21.7241H10.9655V25.3448H14.6207V21.7241Z" fill="white"/>
<path d="M18.2759 21.7241H14.6207V25.3448H18.2759V21.7241Z" fill="white"/>
<path d="M21.931 21.7241H18.2759V25.3448H21.931V21.7241Z" fill="white"/>
<path d="M25.5862 21.7241H21.931V25.3448H25.5862V21.7241Z" fill="white"/>
<path d="M32.8966 21.7241H29.2414V25.3448H32.8966V21.7241Z" fill="white"/>
<path d="M40.2069 21.7241H36.5517V25.3448H40.2069V21.7241Z" fill="white"/>
<path d="M47.5172 21.7241H43.8621V25.3448H47.5172V21.7241Z" fill="white"/>
<path d="M54.8276 21.7241H51.1724V25.3448H54.8276V21.7241Z" fill="white"/>
<path d="M62.1379 21.7241H58.4828V25.3448H62.1379V21.7241Z" fill="white"/>
<path d="M69.4483 21.7241H65.7931V25.3448H69.4483V21.7241Z" fill="white"/>
<path d="M76.7586 21.7241H73.1034V25.3448H76.7586V21.7241Z" fill="white"/>
<path d="M84.069 21.7241H80.4138V25.3448H84.069V21.7241Z" fill="white"/>
<path d="M87.7241 21.7241H84.069V25.3448H87.7241V21.7241Z" fill="white"/>
<path d="M91.3793 21.7241H87.7241V25.3448H91.3793V21.7241Z" fill="white"/>
<path d="M95.0345 21.7241H91.3793V25.3448H95.0345V21.7241Z" fill="white"/>
<path d="M98.6897 21.7241H95.0345V25.3448H98.6897V21.7241Z" fill="white"/>
<path d="M102.345 21.7241H98.6897V25.3448H102.345V21.7241Z" fill="white"/>
<path d="M106 21.7241H102.345V25.3448H106V21.7241Z" fill="white"/>
<path d="M32.8966 25.3448H29.2414V28.9655H32.8966V25.3448Z" fill="white"/>
<path d="M36.5517 25.3448H32.8966V28.9655H36.5517V25.3448Z" fill="white"/>
<path d="M40.2069 25.3448H36.5517V28.9655H40.2069V25.3448Z" fill="white"/>
<path d="M43.8621 25.3448H40.2069V28.9655H43.8621V25.3448Z" fill="white"/>
<path d="M47.5172 25.3448H43.8621V28.9655H47.5172V25.3448Z" fill="white"/>
<path d="M54.8276 25.3448H51.1724V28.9655H54.8276V25.3448Z" fill="white"/>
<path d="M62.1379 25.3448H58.4828V28.9655H62.1379V25.3448Z" fill="white"/>
<path d="M65.7931 25.3448H62.1379V28.9655H65.7931V25.3448Z" fill="white"/>
<path d="M3.65517 28.9655H0V32.5862H3.65517V28.9655Z" fill="white"/>
<path d="M7.31034 28.9655H3.65517V32.5862H7.31034V28.9655Z" fill="white"/>
<path d="M14.6207 28.9655H10.9655V32.5862H14.6207V28.9655Z" fill="white"/>
<path d="M25.5862 28.9655H21.931V32.5862H25.5862V28.9655Z" fill="white"/>
<path d="M29.2414 28.9655H25.5862V32.5862H29.2414V28.9655Z" fill="white"/>
<path d="M36.5517 28.9655H32.8966V32.5862H36.5517V28.9655Z" fill="white"/>
<path d="M54.8276 28.9655H51.1724V32.5862H54.8276V28.9655Z" fill="white"/>
<path d="M58.4828 28.9655H54.8276V32.5862H58.4828V28.9655Z" fill="white"/>
<path d="M62.1379 28.9655H58.4828V32.5862H62.1379V28.9655Z" fill="white"/>
<path d="M76.7586 28.9655H73.1034V32.5862H76.7586V28.9655Z" fill="white"/>
<path d="M80.4138 28.9655H76.7586V32.5862H80.4138V28.9655Z" fill="white"/>
<path d="M84.069 28.9655H80.4138V32.5862H84.069V28.9655Z" fill="white"/>
<path d="M87.7241 28.9655H84.069V32.5862H87.7241V28.9655Z" fill="white"/>
<path d="M95.0345 28.9655H91.3793V32.5862H95.0345V28.9655Z" fill="white"/>
<path d="M98.6897 28.9655H95.0345V32.5862H98.6897V28.9655Z" fill="white"/>
<path d="M106 28.9655H102.345V32.5862H106V28.9655Z" fill="white"/>
<path d="M7.31034 32.5862H3.65517V36.2069H7.31034V32.5862Z" fill="white"/>
<path d="M10.9655 32.5862H7.31034V36.2069H10.9655V32.5862Z" fill="white"/>
<path d="M29.2414 32.5862H25.5862V36.2069H29.2414V32.5862Z" fill="white"/>
<path d="M43.8621 32.5862H40.2069V36.2069H43.8621V32.5862Z" fill="white"/>
<path d="M47.5172 32.5862H43.8621V36.2069H47.5172V32.5862Z" fill="white"/>
<path d="M51.1724 32.5862H47.5172V36.2069H51.1724V32.5862Z" fill="white"/>
<path d="M58.4828 32.5862H54.8276V36.2069H58.4828V32.5862Z" fill="white"/>
<path d="M73.1034 32.5862H69.4483V36.2069H73.1034V32.5862Z" fill="white"/>
<path d="M76.7586 32.5862H73.1034V36.2069H76.7586V32.5862Z" fill="white"/>
<path d="M84.069 32.5862H80.4138V36.2069H84.069V32.5862Z" fill="white"/>
<path d="M87.7241 32.5862H84.069V36.2069H87.7241V32.5862Z" fill="white"/>
<path d="M95.0345 32.5862H91.3793V36.2069H95.0345V32.5862Z" fill="white"/>
<path d="M102.345 32.5862H98.6897V36.2069H102.345V32.5862Z" fill="white"/>
<path d="M10.9655 36.2069H7.31034V39.8276H10.9655V36.2069Z" fill="white"/>
<path d="M14.6207 36.2069H10.9655V39.8276H14.6207V36.2069Z" fill="white"/>
<path d="M21.931 36.2069H18.2759V39.8276H21.931V36.2069Z" fill="white"/>
<path d="M25.5862 36.2069H21.931V39.8276H25.5862V36.2069Z" fill="white"/>
<path d="M29.2414 36.2069H25.5862V39.8276H29.2414V36.2069Z" fill="white"/>
<path d="M36.5517 36.2069H32.8966V39.8276H36.5517V36.2069Z" fill="white"/>
<path d="M40.2069 36.2069H36.5517V39.8276H40.2069V36.2069Z" fill="white"/>
<path d="M43.8621 36.2069H40.2069V39.8276H43.8621V36.2069Z" fill="white"/>
<path d="M47.5172 36.2069H43.8621V39.8276H47.5172V36.2069Z" fill="white"/>
<path d="M51.1724 36.2069H47.5172V39.8276H51.1724V36.2069Z" fill="white"/>
<path d="M54.8276 36.2069H51.1724V39.8276H54.8276V36.2069Z" fill="white"/>
<path d="M91.3793 36.2069H87.7241V39.8276H91.3793V36.2069Z" fill="white"/>
<path d="M95.0345 36.2069H91.3793V39.8276H95.0345V36.2069Z" fill="white"/>
<path d="M98.6897 36.2069H95.0345V39.8276H98.6897V36.2069Z" fill="white"/>
<path d="M102.345 36.2069H98.6897V39.8276H102.345V36.2069Z" fill="white"/>
<path d="M106 36.2069H102.345V39.8276H106V36.2069Z" fill="white"/>
<path d="M3.65517 39.8276H0V43.4483H3.65517V39.8276Z" fill="white"/>
<path d="M18.2759 39.8276H14.6207V43.4483H18.2759V39.8276Z" fill="white"/>
<path d="M29.2414 39.8276H25.5862V43.4483H29.2414V39.8276Z" fill="white"/>
<path d="M32.8966 39.8276H29.2414V43.4483H32.8966V39.8276Z" fill="white"/>
<path d="M43.8621 39.8276H40.2069V43.4483H43.8621V39.8276Z" fill="white"/>
<path d="M47.5172 39.8276H43.8621V43.4483H47.5172V39.8276Z" fill="white"/>
<path d="M51.1724 39.8276H47.5172V43.4483H51.1724V39.8276Z" fill="white"/>
<path d="M62.1379 39.8276H58.4828V43.4483H62.1379V39.8276Z" fill="white"/>
<path d="M65.7931 39.8276H62.1379V43.4483H65.7931V39.8276Z" fill="white"/>
<path d="M76.7586 39.8276H73.1034V43.4483H76.7586V39.8276Z" fill="white"/>
<path d="M84.069 39.8276H80.4138V43.4483H84.069V39.8276Z" fill="white"/>
<path d="M91.3793 39.8276H87.7241V43.4483H91.3793V39.8276Z" fill="white"/>
<path d="M95.0345 39.8276H91.3793V43.4483H95.0345V39.8276Z" fill="white"/>
<path d="M98.6897 39.8276H95.0345V43.4483H98.6897V39.8276Z" fill="white"/>
<path d="M102.345 39.8276H98.6897V43.4483H102.345V39.8276Z" fill="white"/>
<path d="M10.9655 43.4483H7.31034V47.069H10.9655V43.4483Z" fill="white"/>
<path d="M18.2759 43.4483H14.6207V47.069H18.2759V43.4483Z" fill="white"/>
<path d="M25.5862 43.4483H21.931V47.069H25.5862V43.4483Z" fill="white"/>
<path d="M36.5517 43.4483H32.8966V47.069H36.5517V43.4483Z" fill="white"/>
<path d="M40.2069 43.4483H36.5517V47.069H40.2069V43.4483Z" fill="white"/>
<path d="M43.8621 43.4483H40.2069V47.069H43.8621V43.4483Z" fill="white"/>
<path d="M47.5172 43.4483H43.8621V47.069H47.5172V43.4483Z" fill="white"/>
<path d="M58.4828 43.4483H54.8276V47.069H58.4828V43.4483Z" fill="white"/>
<path d="M62.1379 43.4483H58.4828V47.069H62.1379V43.4483Z" fill="white"/>
<path d="M65.7931 43.4483H62.1379V47.069H65.7931V43.4483Z" fill="white"/>
<path d="M76.7586 43.4483H73.1034V47.069H76.7586V43.4483Z" fill="white"/>
<path d="M80.4138 43.4483H76.7586V47.069H80.4138V43.4483Z" fill="white"/>
<path d="M84.069 43.4483H80.4138V47.069H84.069V43.4483Z" fill="white"/>
<path d="M91.3793 43.4483H87.7241V47.069H91.3793V43.4483Z" fill="white"/>
<path d="M102.345 43.4483H98.6897V47.069H102.345V43.4483Z" fill="white"/>
<path d="M106 43.4483H102.345V47.069H106V43.4483Z" fill="white"/>
<path d="M3.65517 47.069H0V50.6897H3.65517V47.069Z" fill="white"/>
<path d="M7.31034 47.069H3.65517V50.6897H7.31034V47.069Z" fill="white"/>
<path d="M21.931 47.069H18.2759V50.6897H21.931V47.069Z" fill="white"/>
<path d="M32.8966 47.069H29.2414V50.6897H32.8966V47.069Z" fill="white"/>
<path d="M36.5517 47.069H32.8966V50.6897H36.5517V47.069Z" fill="white"/>
<path d="M40.2069 47.069H36.5517V50.6897H40.2069V47.069Z" fill="white"/>
<path d="M54.8276 47.069H51.1724V50.6897H54.8276V47.069Z" fill="white"/>
<path d="M69.4483 47.069H65.7931V50.6897H69.4483V47.069Z" fill="white"/>
<path d="M73.1034 47.069H69.4483V50.6897H73.1034V47.069Z" fill="white"/>
<path d="M76.7586 47.069H73.1034V50.6897H76.7586V47.069Z" fill="white"/>
<path d="M87.7241 47.069H84.069V50.6897H87.7241V47.069Z" fill="white"/>
<path d="M95.0345 47.069H91.3793V50.6897H95.0345V47.069Z" fill="white"/>
<path d="M106 47.069H102.345V50.6897H106V47.069Z" fill="white"/>
<path d="M14.6207 50.6897H10.9655V54.3103H14.6207V50.6897Z" fill="white"/>
<path d="M18.2759 50.6897H14.6207V54.3103H18.2759V50.6897Z" fill="white"/>
<path d="M25.5862 50.6897H21.931V54.3103H25.5862V50.6897Z" fill="white"/>
<path d="M36.5517 50.6897H32.8966V54.3103H36.5517V50.6897Z" fill="white"/>
<path d="M47.5172 50.6897H43.8621V54.3103H47.5172V50.6897Z" fill="white"/>
<path d="M51.1724 50.6897H47.5172V54.3103H51.1724V50.6897Z" fill="white"/>
<path d="M58.4828 50.6897H54.8276V54.3103H58.4828V50.6897Z" fill="white"/>
<path d="M62.1379 50.6897H58.4828V54.3103H62.1379V50.6897Z" fill="white"/>
<path d="M65.7931 50.6897H62.1379V54.3103H65.7931V50.6897Z" fill="white"/>
<path d="M69.4483 50.6897H65.7931V54.3103H69.4483V50.6897Z" fill="white"/>
<path d="M73.1034 50.6897H69.4483V54.3103H73.1034V50.6897Z" fill="white"/>
<path d="M76.7586 50.6897H73.1034V54.3103H76.7586V50.6897Z" fill="white"/>
<path d="M84.069 50.6897H80.4138V54.3103H84.069V50.6897Z" fill="white"/>
<path d="M87.7241 50.6897H84.069V54.3103H87.7241V50.6897Z" fill="white"/>
<path d="M98.6897 50.6897H95.0345V54.3103H98.6897V50.6897Z" fill="white"/>
<path d="M3.65517 54.3103H0V57.931H3.65517V54.3103Z" fill="white"/>
<path d="M18.2759 54.3103H14.6207V57.931H18.2759V54.3103Z" fill="white"/>
<path d="M29.2414 54.3103H25.5862V57.931H29.2414V54.3103Z" fill="white"/>
<path d="M36.5517 54.3103H32.8966V57.931H36.5517V54.3103Z" fill="white"/>
<path d="M51.1724 54.3103H47.5172V57.931H51.1724V54.3103Z" fill="white"/>
<path d="M65.7931 54.3103H62.1379V57.931H65.7931V54.3103Z" fill="white"/>
<path d="M69.4483 54.3103H65.7931V57.931H69.4483V54.3103Z" fill="white"/>
<path d="M73.1034 54.3103H69.4483V57.931H73.1034V54.3103Z" fill="white"/>
<path d="M76.7586 54.3103H73.1034V57.931H76.7586V54.3103Z" fill="white"/>
<path d="M91.3793 54.3103H87.7241V57.931H91.3793V54.3103Z" fill="white"/>
<path d="M95.0345 54.3103H91.3793V57.931H95.0345V54.3103Z" fill="white"/>
<path d="M102.345 54.3103H98.6897V57.931H102.345V54.3103Z" fill="white"/>
<path d="M106 54.3103H102.345V57.931H106V54.3103Z" fill="white"/>
<path d="M7.31034 57.931H3.65517V61.5517H7.31034V57.931Z" fill="white"/>
<path d="M18.2759 57.931H14.6207V61.5517H18.2759V57.931Z" fill="white"/>
<path d="M25.5862 57.931H21.931V61.5517H25.5862V57.931Z" fill="white"/>
<path d="M29.2414 57.931H25.5862V61.5517H29.2414V57.931Z" fill="white"/>
<path d="M32.8966 57.931H29.2414V61.5517H32.8966V57.931Z" fill="white"/>
<path d="M36.5517 57.931H32.8966V61.5517H36.5517V57.931Z" fill="white"/>
<path d="M40.2069 57.931H36.5517V61.5517H40.2069V57.931Z" fill="white"/>
<path d="M43.8621 57.931H40.2069V61.5517H43.8621V57.931Z" fill="white"/>
<path d="M47.5172 57.931H43.8621V61.5517H47.5172V57.931Z" fill="white"/>
<path d="M51.1724 57.931H47.5172V61.5517H51.1724V57.931Z" fill="white"/>
<path d="M58.4828 57.931H54.8276V61.5517H58.4828V57.931Z" fill="white"/>
<path d="M62.1379 57.931H58.4828V61.5517H62.1379V57.931Z" fill="white"/>
<path d="M65.7931 57.931H62.1379V61.5517H65.7931V57.931Z" fill="white"/>
<path d="M80.4138 57.931H76.7586V61.5517H80.4138V57.931Z" fill="white"/>
<path d="M91.3793 57.931H87.7241V61.5517H91.3793V57.931Z" fill="white"/>
<path d="M98.6897 57.931H95.0345V61.5517H98.6897V57.931Z" fill="white"/>
<path d="M102.345 57.931H98.6897V61.5517H102.345V57.931Z" fill="white"/>
<path d="M18.2759 61.5517H14.6207V65.1724H18.2759V61.5517Z" fill="white"/>
<path d="M21.931 61.5517H18.2759V65.1724H21.931V61.5517Z" fill="white"/>
<path d="M29.2414 61.5517H25.5862V65.1724H29.2414V61.5517Z" fill="white"/>
<path d="M32.8966 61.5517H29.2414V65.1724H32.8966V61.5517Z" fill="white"/>
<path d="M36.5517 61.5517H32.8966V65.1724H36.5517V61.5517Z" fill="white"/>
<path d="M40.2069 61.5517H36.5517V65.1724H40.2069V61.5517Z" fill="white"/>
<path d="M51.1724 61.5517H47.5172V65.1724H51.1724V61.5517Z" fill="white"/>
<path d="M54.8276 61.5517H51.1724V65.1724H54.8276V61.5517Z" fill="white"/>
<path d="M62.1379 61.5517H58.4828V65.1724H62.1379V61.5517Z" fill="white"/>
<path d="M69.4483 61.5517H65.7931V65.1724H69.4483V61.5517Z" fill="white"/>
<path d="M73.1034 61.5517H69.4483V65.1724H73.1034V61.5517Z" fill="white"/>
<path d="M84.069 61.5517H80.4138V65.1724H84.069V61.5517Z" fill="white"/>
<path d="M3.65517 65.1724H0V68.7931H3.65517V65.1724Z" fill="white"/>
<path d="M21.931 65.1724H18.2759V68.7931H21.931V65.1724Z" fill="white"/>
<path d="M25.5862 65.1724H21.931V68.7931H25.5862V65.1724Z" fill="white"/>
<path d="M32.8966 65.1724H29.2414V68.7931H32.8966V65.1724Z" fill="white"/>
<path d="M36.5517 65.1724H32.8966V68.7931H36.5517V65.1724Z" fill="white"/>
<path d="M43.8621 65.1724H40.2069V68.7931H43.8621V65.1724Z" fill="white"/>
<path d="M58.4828 65.1724H54.8276V68.7931H58.4828V65.1724Z" fill="white"/>
<path d="M62.1379 65.1724H58.4828V68.7931H62.1379V65.1724Z" fill="white"/>
<path d="M76.7586 65.1724H73.1034V68.7931H76.7586V65.1724Z" fill="white"/>
<path d="M80.4138 65.1724H76.7586V68.7931H80.4138V65.1724Z" fill="white"/>
<path d="M84.069 65.1724H80.4138V68.7931H84.069V65.1724Z" fill="white"/>
<path d="M87.7241 65.1724H84.069V68.7931H87.7241V65.1724Z" fill="white"/>
<path d="M102.345 65.1724H98.6897V68.7931H102.345V65.1724Z" fill="white"/>
<path d="M106 65.1724H102.345V68.7931H106V65.1724Z" fill="white"/>
<path d="M3.65517 68.7931H0V72.4138H3.65517V68.7931Z" fill="white"/>
<path d="M10.9655 68.7931H7.31034V72.4138H10.9655V68.7931Z" fill="white"/>
<path d="M18.2759 68.7931H14.6207V72.4138H18.2759V68.7931Z" fill="white"/>
<path d="M21.931 68.7931H18.2759V72.4138H21.931V68.7931Z" fill="white"/>
<path d="M29.2414 68.7931H25.5862V72.4138H29.2414V68.7931Z" fill="white"/>
<path d="M47.5172 68.7931H43.8621V72.4138H47.5172V68.7931Z" fill="white"/>
<path d="M51.1724 68.7931H47.5172V72.4138H51.1724V68.7931Z" fill="white"/>
<path d="M54.8276 68.7931H51.1724V72.4138H54.8276V68.7931Z" fill="white"/>
<path d="M76.7586 68.7931H73.1034V72.4138H76.7586V68.7931Z" fill="white"/>
<path d="M84.069 68.7931H80.4138V72.4138H84.069V68.7931Z" fill="white"/>
<path d="M98.6897 68.7931H95.0345V72.4138H98.6897V68.7931Z" fill="white"/>
<path d="M102.345 68.7931H98.6897V72.4138H102.345V68.7931Z" fill="white"/>
<path d="M3.65517 72.4138H0V76.0345H3.65517V72.4138Z" fill="white"/>
<path d="M10.9655 72.4138H7.31034V76.0345H10.9655V72.4138Z" fill="white"/>
<path d="M14.6207 72.4138H10.9655V76.0345H14.6207V72.4138Z" fill="white"/>
<path d="M18.2759 72.4138H14.6207V76.0345H18.2759V72.4138Z" fill="white"/>
<path d="M25.5862 72.4138H21.931V76.0345H25.5862V72.4138Z" fill="white"/>
<path d="M29.2414 72.4138H25.5862V76.0345H29.2414V72.4138Z" fill="white"/>
<path d="M36.5517 72.4138H32.8966V76.0345H36.5517V72.4138Z" fill="white"/>
<path d="M43.8621 72.4138H40.2069V76.0345H43.8621V72.4138Z" fill="white"/>
<path d="M54.8276 72.4138H51.1724V76.0345H54.8276V72.4138Z" fill="white"/>
<path d="M69.4483 72.4138H65.7931V76.0345H69.4483V72.4138Z" fill="white"/>
<path d="M73.1034 72.4138H69.4483V76.0345H73.1034V72.4138Z" fill="white"/>
<path d="M76.7586 72.4138H73.1034V76.0345H76.7586V72.4138Z" fill="white"/>
<path d="M80.4138 72.4138H76.7586V76.0345H80.4138V72.4138Z" fill="white"/>
<path d="M84.069 72.4138H80.4138V76.0345H84.069V72.4138Z" fill="white"/>
<path d="M87.7241 72.4138H84.069V76.0345H87.7241V72.4138Z" fill="white"/>
<path d="M91.3793 72.4138H87.7241V76.0345H91.3793V72.4138Z" fill="white"/>
<path d="M95.0345 72.4138H91.3793V76.0345H95.0345V72.4138Z" fill="white"/>
<path d="M98.6897 72.4138H95.0345V76.0345H98.6897V72.4138Z" fill="white"/>
<path d="M102.345 72.4138H98.6897V76.0345H102.345V72.4138Z" fill="white"/>
<path d="M106 72.4138H102.345V76.0345H106V72.4138Z" fill="white"/>
<path d="M51.1724 76.0345H47.5172V79.6552H51.1724V76.0345Z" fill="white"/>
<path d="M58.4828 76.0345H54.8276V79.6552H58.4828V76.0345Z" fill="white"/>
<path d="M65.7931 76.0345H62.1379V79.6552H65.7931V76.0345Z" fill="white"/>
<path d="M69.4483 76.0345H65.7931V79.6552H69.4483V76.0345Z" fill="white"/>
<path d="M73.1034 76.0345H69.4483V79.6552H73.1034V76.0345Z" fill="white"/>
<path d="M76.7586 76.0345H73.1034V79.6552H76.7586V76.0345Z" fill="white"/>
<path d="M91.3793 76.0345H87.7241V79.6552H91.3793V76.0345Z" fill="white"/>
<path d="M98.6897 76.0345H95.0345V79.6552H98.6897V76.0345Z" fill="white"/>
<path d="M3.65517 79.6552H0V83.2759H3.65517V79.6552Z" fill="white"/>
<path d="M7.31034 79.6552H3.65517V83.2759H7.31034V79.6552Z" fill="white"/>
<path d="M10.9655 79.6552H7.31034V83.2759H10.9655V79.6552Z" fill="white"/>
<path d="M14.6207 79.6552H10.9655V83.2759H14.6207V79.6552Z" fill="white"/>
<path d="M18.2759 79.6552H14.6207V83.2759H18.2759V79.6552Z" fill="white"/>
<path d="M21.931 79.6552H18.2759V83.2759H21.931V79.6552Z" fill="white"/>
<path d="M25.5862 79.6552H21.931V83.2759H25.5862V79.6552Z" fill="white"/>
<path d="M32.8966 79.6552H29.2414V83.2759H32.8966V79.6552Z" fill="white"/>
<path d="M36.5517 79.6552H32.8966V83.2759H36.5517V79.6552Z" fill="white"/>
<path d="M43.8621 79.6552H40.2069V83.2759H43.8621V79.6552Z" fill="white"/>
<path d="M51.1724 79.6552H47.5172V83.2759H51.1724V79.6552Z" fill="white"/>
<path d="M54.8276 79.6552H51.1724V83.2759H54.8276V79.6552Z" fill="white"/>
<path d="M58.4828 79.6552H54.8276V83.2759H58.4828V79.6552Z" fill="white"/>
<path d="M73.1034 79.6552H69.4483V83.2759H73.1034V79.6552Z" fill="white"/>
<path d="M76.7586 79.6552H73.1034V83.2759H76.7586V79.6552Z" fill="white"/>
<path d="M84.069 79.6552H80.4138V83.2759H84.069V79.6552Z" fill="white"/>
<path d="M91.3793 79.6552H87.7241V83.2759H91.3793V79.6552Z" fill="white"/>
<path d="M106 79.6552H102.345V83.2759H106V79.6552Z" fill="white"/>
<path d="M3.65517 83.2759H0V86.8966H3.65517V83.2759Z" fill="white"/>
<path d="M25.5862 83.2759H21.931V86.8966H25.5862V83.2759Z" fill="white"/>
<path d="M36.5517 83.2759H32.8966V86.8966H36.5517V83.2759Z" fill="white"/>
<path d="M40.2069 83.2759H36.5517V86.8966H40.2069V83.2759Z" fill="white"/>
<path d="M47.5172 83.2759H43.8621V86.8966H47.5172V83.2759Z" fill="white"/>
<path d="M54.8276 83.2759H51.1724V86.8966H54.8276V83.2759Z" fill="white"/>
<path d="M62.1379 83.2759H58.4828V86.8966H62.1379V83.2759Z" fill="white"/>
<path d="M65.7931 83.2759H62.1379V86.8966H65.7931V83.2759Z" fill="white"/>
<path d="M69.4483 83.2759H65.7931V86.8966H69.4483V83.2759Z" fill="white"/>
<path d="M73.1034 83.2759H69.4483V86.8966H73.1034V83.2759Z" fill="white"/>
<path d="M76.7586 83.2759H73.1034V86.8966H76.7586V83.2759Z" fill="white"/>
<path d="M91.3793 83.2759H87.7241V86.8966H91.3793V83.2759Z" fill="white"/>
<path d="M98.6897 83.2759H95.0345V86.8966H98.6897V83.2759Z" fill="white"/>
<path d="M102.345 83.2759H98.6897V86.8966H102.345V83.2759Z" fill="white"/>
<path d="M3.65517 86.8966H0V90.5172H3.65517V86.8966Z" fill="white"/>
<path d="M10.9655 86.8966H7.31034V90.5172H10.9655V86.8966Z" fill="white"/>
<path d="M14.6207 86.8966H10.9655V90.5172H14.6207V86.8966Z" fill="white"/>
<path d="M18.2759 86.8966H14.6207V90.5172H18.2759V86.8966Z" fill="white"/>
<path d="M25.5862 86.8966H21.931V90.5172H25.5862V86.8966Z" fill="white"/>
<path d="M36.5517 86.8966H32.8966V90.5172H36.5517V86.8966Z" fill="white"/>
<path d="M40.2069 86.8966H36.5517V90.5172H40.2069V86.8966Z" fill="white"/>
<path d="M47.5172 86.8966H43.8621V90.5172H47.5172V86.8966Z" fill="white"/>
<path d="M58.4828 86.8966H54.8276V90.5172H58.4828V86.8966Z" fill="white"/>
<path d="M62.1379 86.8966H58.4828V90.5172H62.1379V86.8966Z" fill="white"/>
<path d="M69.4483 86.8966H65.7931V90.5172H69.4483V86.8966Z" fill="white"/>
<path d="M76.7586 86.8966H73.1034V90.5172H76.7586V86.8966Z" fill="white"/>
<path d="M80.4138 86.8966H76.7586V90.5172H80.4138V86.8966Z" fill="white"/>
<path d="M84.069 86.8966H80.4138V90.5172H84.069V86.8966Z" fill="white"/>
<path d="M87.7241 86.8966H84.069V90.5172H87.7241V86.8966Z" fill="white"/>
<path d="M91.3793 86.8966H87.7241V90.5172H91.3793V86.8966Z" fill="white"/>
<path d="M106 86.8966H102.345V90.5172H106V86.8966Z" fill="white"/>
<path d="M3.65517 90.5172H0V94.1379H3.65517V90.5172Z" fill="white"/>
<path d="M10.9655 90.5172H7.31034V94.1379H10.9655V90.5172Z" fill="white"/>
<path d="M14.6207 90.5172H10.9655V94.1379H14.6207V90.5172Z" fill="white"/>
<path d="M18.2759 90.5172H14.6207V94.1379H18.2759V90.5172Z" fill="white"/>
<path d="M25.5862 90.5172H21.931V94.1379H25.5862V90.5172Z" fill="white"/>
<path d="M32.8966 90.5172H29.2414V94.1379H32.8966V90.5172Z" fill="white"/>
<path d="M43.8621 90.5172H40.2069V94.1379H43.8621V90.5172Z" fill="white"/>
<path d="M47.5172 90.5172H43.8621V94.1379H47.5172V90.5172Z" fill="white"/>
<path d="M51.1724 90.5172H47.5172V94.1379H51.1724V90.5172Z" fill="white"/>
<path d="M54.8276 90.5172H51.1724V94.1379H54.8276V90.5172Z" fill="white"/>
<path d="M58.4828 90.5172H54.8276V94.1379H58.4828V90.5172Z" fill="white"/>
<path d="M65.7931 90.5172H62.1379V94.1379H65.7931V90.5172Z" fill="white"/>
<path d="M69.4483 90.5172H65.7931V94.1379H69.4483V90.5172Z" fill="white"/>
<path d="M91.3793 90.5172H87.7241V94.1379H91.3793V90.5172Z" fill="white"/>
<path d="M98.6897 90.5172H95.0345V94.1379H98.6897V90.5172Z" fill="white"/>
<path d="M102.345 90.5172H98.6897V94.1379H102.345V90.5172Z" fill="white"/>
<path d="M3.65517 94.1379H0V97.7586H3.65517V94.1379Z" fill="white"/>
<path d="M10.9655 94.1379H7.31034V97.7586H10.9655V94.1379Z" fill="white"/>
<path d="M14.6207 94.1379H10.9655V97.7586H14.6207V94.1379Z" fill="white"/>
<path d="M18.2759 94.1379H14.6207V97.7586H18.2759V94.1379Z" fill="white"/>
<path d="M25.5862 94.1379H21.931V97.7586H25.5862V94.1379Z" fill="white"/>
<path d="M47.5172 94.1379H43.8621V97.7586H47.5172V94.1379Z" fill="white"/>
<path d="M51.1724 94.1379H47.5172V97.7586H51.1724V94.1379Z" fill="white"/>
<path d="M54.8276 94.1379H51.1724V97.7586H54.8276V94.1379Z" fill="white"/>
<path d="M62.1379 94.1379H58.4828V97.7586H62.1379V94.1379Z" fill="white"/>
<path d="M69.4483 94.1379H65.7931V97.7586H69.4483V94.1379Z" fill="white"/>
<path d="M73.1034 94.1379H69.4483V97.7586H73.1034V94.1379Z" fill="white"/>
<path d="M76.7586 94.1379H73.1034V97.7586H76.7586V94.1379Z" fill="white"/>
<path d="M84.069 94.1379H80.4138V97.7586H84.069V94.1379Z" fill="white"/>
<path d="M91.3793 94.1379H87.7241V97.7586H91.3793V94.1379Z" fill="white"/>
<path d="M95.0345 94.1379H91.3793V97.7586H95.0345V94.1379Z" fill="white"/>
<path d="M98.6897 94.1379H95.0345V97.7586H98.6897V94.1379Z" fill="white"/>
<path d="M3.65517 97.7586H0V101.379H3.65517V97.7586Z" fill="white"/>
<path d="M25.5862 97.7586H21.931V101.379H25.5862V97.7586Z" fill="white"/>
<path d="M32.8966 97.7586H29.2414V101.379H32.8966V97.7586Z" fill="white"/>
<path d="M36.5517 97.7586H32.8966V101.379H36.5517V97.7586Z" fill="white"/>
<path d="M40.2069 97.7586H36.5517V101.379H40.2069V97.7586Z" fill="white"/>
<path d="M54.8276 97.7586H51.1724V101.379H54.8276V97.7586Z" fill="white"/>
<path d="M76.7586 97.7586H73.1034V101.379H76.7586V97.7586Z" fill="white"/>
<path d="M84.069 97.7586H80.4138V101.379H84.069V97.7586Z" fill="white"/>
<path d="M102.345 97.7586H98.6897V101.379H102.345V97.7586Z" fill="white"/>
<path d="M106 97.7586H102.345V101.379H106V97.7586Z" fill="white"/>
<path d="M3.65517 101.379H0V105H3.65517V101.379Z" fill="white"/>
<path d="M7.31034 101.379H3.65517V105H7.31034V101.379Z" fill="white"/>
<path d="M10.9655 101.379H7.31034V105H10.9655V101.379Z" fill="white"/>
<path d="M14.6207 101.379H10.9655V105H14.6207V101.379Z" fill="white"/>
<path d="M18.2759 101.379H14.6207V105H18.2759V101.379Z" fill="white"/>
<path d="M21.931 101.379H18.2759V105H21.931V101.379Z" fill="white"/>
<path d="M25.5862 101.379H21.931V105H25.5862V101.379Z" fill="white"/>
<path d="M32.8966 101.379H29.2414V105H32.8966V101.379Z" fill="white"/>
<path d="M36.5517 101.379H32.8966V105H36.5517V101.379Z" fill="white"/>
<path d="M43.8621 101.379H40.2069V105H43.8621V101.379Z" fill="white"/>
<path d="M51.1724 101.379H47.5172V105H51.1724V101.379Z" fill="white"/>
<path d="M54.8276 101.379H51.1724V105H54.8276V101.379Z" fill="white"/>
<path d="M65.7931 101.379H62.1379V105H65.7931V101.379Z" fill="white"/>
<path d="M76.7586 101.379H73.1034V105H76.7586V101.379Z" fill="white"/>
<path d="M87.7241 101.379H84.069V105H87.7241V101.379Z" fill="white"/>
<path d="M95.0345 101.379H91.3793V105H95.0345V101.379Z" fill="white"/>
<path d="M98.6897 101.379H95.0345V105H98.6897V101.379Z" fill="white"/>
</svg>
