<?xml version="1.0" standalone="no"?>
<!DOCTYPE svg PUBLIC "-//W3C//DTD SVG 20010904//EN"
 "http://www.w3.org/TR/2001/REC-SVG-20010904/DTD/svg10.dtd">
<svg version="1.0" xmlns="http://www.w3.org/2000/svg"
 width="888.000000pt" height="888.000000pt" viewBox="0 0 888.000000 888.000000"
 preserveAspectRatio="xMidYMid meet">
<metadata>
Created by potrace 1.14, written by Peter Selinger 2001-2017
</metadata>
<g transform="translate(0.000000,888.000000) scale(0.100000,-0.100000)"
fill="#000000" stroke="none">
<path d="M6020 6914 c-82 -88 -134 -175 -171 -290 -19 -55 -23 -92 -24 -184 0
-63 3 -128 7 -145 18 -80 73 -216 90 -223 4 -2 8 -8 8 -14 0 -27 79 -112 230
-248 52 -47 100 -89 106 -95 6 -5 42 -37 79 -70 38 -33 78 -69 89 -80 12 -11
55 -49 96 -85 41 -36 79 -70 85 -76 5 -6 53 -49 105 -95 52 -46 100 -88 106
-94 6 -5 46 -41 90 -80 171 -153 289 -259 294 -264 3 -3 25 -24 50 -46 140
-123 196 -173 220 -195 88 -82 185 -166 198 -174 12 -7 9 -14 -19 -38 -19 -16
-54 -48 -79 -71 -25 -23 -83 -76 -130 -117 -118 -105 -159 -141 -190 -170 -15
-14 -60 -54 -101 -90 -41 -36 -79 -69 -85 -75 -6 -5 -49 -44 -94 -85 -46 -41
-92 -83 -102 -92 -10 -10 -20 -18 -22 -18 -3 0 -22 -17 -43 -37 -21 -21 -61
-58 -88 -82 -72 -63 -184 -162 -215 -191 -14 -14 -60 -54 -101 -90 -41 -36
-78 -70 -84 -75 -5 -6 -48 -45 -95 -85 -47 -41 -92 -82 -100 -90 -8 -9 -28
-26 -43 -37 l-29 -22 -22 22 c-13 12 -37 34 -53 48 -17 15 -55 49 -85 75 -29
27 -89 81 -132 119 -44 39 -91 81 -106 95 -76 68 -167 151 -188 168 -22 20
-129 115 -201 180 -197 178 -397 254 -654 247 -145 -3 -240 -23 -353 -75 -36
-16 -67 -29 -71 -29 -3 1 -9 -3 -12 -8 -3 -4 -25 -21 -49 -36 -23 -15 -53 -37
-66 -48 l-24 -21 81 -71 c45 -40 89 -79 98 -87 15 -15 153 -138 191 -171 63
-56 166 -148 189 -169 15 -14 55 -50 90 -80 34 -30 79 -71 100 -90 21 -19 50
-46 66 -59 23 -20 193 -172 229 -206 7 -5 37 -32 69 -60 31 -27 69 -61 84 -75
14 -14 65 -59 111 -100 47 -41 87 -77 90 -80 8 -8 99 -90 179 -160 41 -36 86
-76 101 -90 15 -14 47 -42 71 -64 64 -56 197 -177 232 -208 16 -16 32 -28 36
-28 7 0 36 24 135 113 38 34 78 70 90 80 12 10 37 33 56 50 20 18 76 68 125
112 50 44 95 85 101 90 6 6 46 42 89 80 43 39 86 77 95 85 9 8 52 46 96 85 43
38 84 74 90 80 24 22 178 161 194 175 40 35 154 137 179 160 15 14 45 40 67
59 57 51 283 253 335 301 15 14 50 45 79 70 29 25 67 59 85 75 17 17 65 59
105 95 41 36 87 78 104 93 16 15 50 45 75 66 25 22 64 57 87 78 22 21 71 65
108 98 83 73 101 89 160 143 26 23 52 42 58 42 6 0 8 3 5 6 -4 4 9 19 27 33
30 24 62 53 120 106 11 11 52 47 89 79 l69 60 -34 29 c-50 43 -177 158 -214
192 -17 17 -60 55 -95 85 -34 30 -71 63 -82 72 -19 17 -153 137 -193 173 -12
11 -57 52 -100 90 -43 39 -85 77 -94 85 -9 8 -47 42 -85 75 -38 33 -79 69 -91
80 -43 40 -111 102 -188 170 -44 39 -91 81 -106 95 -16 14 -57 50 -91 81 -35
31 -76 67 -90 80 -14 13 -57 51 -94 84 -37 33 -81 72 -97 88 -16 15 -30 27
-32 27 -2 0 -21 17 -43 38 -22 20 -64 59 -94 85 -63 55 -175 155 -198 177 -9
8 -55 49 -101 90 -46 41 -91 82 -100 90 -9 8 -35 32 -59 52 -23 20 -77 68
-119 107 -42 38 -88 79 -101 90 -12 11 -57 51 -99 88 -67 60 -95 85 -170 153
-46 42 -46 42 -92 -6z"/>
<path d="M2774 6917 c-27 -27 -96 -90 -177 -160 -12 -10 -51 -45 -87 -77 -36
-32 -74 -67 -86 -77 -23 -19 -177 -158 -204 -183 -9 -8 -36 -33 -60 -54 -25
-22 -81 -72 -125 -111 -44 -40 -107 -96 -140 -125 -33 -30 -65 -59 -71 -64 -7
-6 -40 -36 -74 -66 -34 -30 -75 -67 -90 -81 -16 -14 -59 -52 -96 -85 -37 -32
-82 -72 -99 -89 -18 -16 -63 -57 -101 -90 -95 -84 -152 -135 -189 -170 -29
-26 -108 -97 -171 -152 -18 -15 -113 -101 -198 -178 -13 -11 -53 -47 -91 -80
-38 -33 -83 -73 -101 -90 -17 -16 -60 -55 -94 -85 -34 -30 -72 -64 -85 -75
-12 -11 -55 -49 -95 -85 -40 -36 -80 -72 -89 -80 -9 -9 -54 -49 -101 -90 -46
-41 -100 -88 -118 -105 l-33 -29 33 -29 c18 -16 54 -48 79 -70 25 -23 76 -69
113 -102 38 -33 80 -71 96 -85 66 -60 168 -151 209 -187 24 -21 61 -54 81 -73
21 -19 66 -60 100 -90 89 -78 89 -78 175 -155 44 -38 86 -77 95 -85 9 -8 36
-33 61 -55 93 -83 192 -171 217 -194 15 -12 63 -55 106 -95 43 -39 88 -79 100
-89 12 -10 53 -47 91 -82 39 -35 79 -72 91 -82 62 -54 150 -132 178 -158 38
-35 165 -149 251 -225 33 -29 96 -85 140 -125 44 -39 100 -89 125 -111 24 -21
54 -48 65 -59 21 -20 149 -134 189 -168 12 -10 55 -49 97 -87 41 -38 87 -78
101 -89 l25 -20 39 42 c96 103 152 200 180 312 19 77 23 115 20 200 -5 121 -8
138 -50 241 -50 123 -107 193 -286 354 -106 96 -110 99 -190 170 -40 36 -83
74 -94 85 -12 11 -57 52 -101 90 -44 39 -87 77 -95 85 -9 8 -54 49 -101 90
-116 104 -139 124 -180 162 -40 36 -159 142 -193 171 -21 19 -151 135 -192
172 -12 11 -54 49 -94 85 -151 135 -175 156 -214 192 -23 21 -44 38 -47 38 -4
0 -10 7 -13 16 -4 11 4 26 26 46 18 16 64 57 102 91 38 34 80 71 92 82 77 69
164 146 208 187 28 26 63 56 76 68 40 35 143 126 171 151 14 13 58 52 97 87
39 35 82 73 95 85 13 12 42 38 63 57 22 19 78 69 124 111 47 41 100 89 119
105 18 16 45 40 60 54 31 29 166 150 197 177 12 10 44 38 71 63 28 25 64 57
81 72 l32 28 36 -32 c19 -17 50 -45 67 -61 18 -16 61 -55 97 -86 35 -31 78
-69 95 -86 17 -16 63 -57 101 -90 38 -33 88 -78 111 -100 23 -22 51 -47 61
-55 11 -8 44 -37 74 -65 149 -137 177 -161 228 -199 30 -22 57 -44 60 -47 9
-11 154 -77 205 -93 112 -35 175 -44 297 -41 68 1 139 6 158 10 81 17 179 49
235 77 67 34 185 115 185 127 0 8 -45 49 -250 231 -40 36 -85 76 -100 90 -34
31 -161 145 -192 172 -13 11 -39 34 -58 52 -19 17 -120 108 -225 201 -104 93
-195 174 -201 179 -6 6 -42 39 -80 72 -38 34 -81 73 -95 85 -14 13 -56 51 -93
84 -38 33 -78 69 -90 80 -12 11 -55 49 -95 85 -40 36 -83 74 -95 85 -12 11
-57 52 -101 90 -43 39 -83 75 -89 80 -6 6 -51 46 -101 90 -49 44 -101 90 -115
103 -32 29 -39 28 -76 -11z"/>
<path d="M2685 4943 c-156 -31 -315 -142 -388 -271 -102 -181 -70 -418 78
-567 38 -38 110 -95 121 -95 4 0 15 -6 23 -14 44 -38 204 -74 312 -70 147 5
253 41 359 124 58 45 60 46 104 104 66 86 94 173 94 289 1 150 -68 285 -195
388 -58 47 -174 99 -258 116 -58 11 -181 9 -250 -4z"/>
<path d="M5968 4949 c-278 -44 -478 -257 -478 -509 0 -92 38 -218 77 -258 7
-7 13 -17 13 -21 0 -6 60 -68 114 -118 20 -18 146 -85 146 -77 0 4 6 2 13 -4
6 -5 26 -13 42 -16 17 -3 41 -9 55 -12 53 -11 178 -10 240 2 70 14 186 60 208
81 7 7 17 13 22 13 4 0 37 29 73 65 64 63 111 143 137 227 21 69 13 235 -12
266 -6 6 -8 12 -4 12 19 0 -68 133 -123 187 -69 69 -182 131 -278 153 -65 15
-182 19 -245 9z"/>
</g>
</svg>
