<svg width="12" height="12" viewBox="0 0 12 12" fill="none" xmlns="http://www.w3.org/2000/svg">
<path id="Vector" d="M9.47006 8.63465L12 11.1646L11.1646 12L8.63465 9.47006C7.72497 10.1978 6.57133 10.6332 5.31661 10.6332C2.38184 10.6332 0 8.25138 0 5.31661C0 2.38184 2.38184 0 5.31661 0C8.25138 0 10.6332 2.38184 10.6332 5.31661C10.6332 6.57133 10.1978 7.72497 9.47006 8.63465ZM8.28487 8.19632C9.00722 7.45188 9.45175 6.43641 9.45175 5.31661C9.45175 3.03194 7.60127 1.18147 5.31661 1.18147C3.03194 1.18147 1.18147 3.03194 1.18147 5.31661C1.18147 7.60127 3.03194 9.45175 5.31661 9.45175C6.43641 9.45175 7.45188 9.00722 8.19632 8.28487L8.28487 8.19632Z" fill="#1D323E"/>
</svg>
