<svg width="12" height="12" viewBox="0 0 12 12" fill="none" xmlns="http://www.w3.org/2000/svg">
<path id="Vector" d="M6 12C2.68629 12 0 9.31368 0 6C0 2.68629 2.68629 0 6 0C9.31368 0 12 2.68629 12 6C12 9.31368 9.31368 12 6 12ZM5.4 7.8V9H6.6V7.8H5.4ZM6.6 6.81306C7.46742 6.55488 8.1 5.7513 8.1 4.8C8.1 3.6402 7.1598 2.7 6 2.7C4.9812 2.7 4.13182 3.42551 3.94039 4.38808L5.11728 4.62346C5.19936 4.21094 5.56338 3.9 6 3.9C6.49704 3.9 6.9 4.30294 6.9 4.8C6.9 5.29704 6.49704 5.7 6 5.7C5.66862 5.7 5.4 5.96862 5.4 6.3V7.2H6.6V6.81306Z" fill="#606E76"/>
</svg>
