<svg width="83" height="22" viewBox="0 0 83 22" fill="none" xmlns="http://www.w3.org/2000/svg">
<g clip-path="url(#clip0_1151_6638)">
<path d="M16.5293 8.57069H10.2174L8.26771 2.59712L6.31197 8.57069L0 8.56463L5.11172 12.2602L3.15599 18.2278L8.26771 14.5382L13.3733 18.2278L11.4237 12.2602L16.5293 8.57069Z" fill="#00B67A"/>
<path d="M11.8622 13.6114L11.4236 12.2603L8.26758 14.5383L11.8622 13.6114Z" fill="white"/>
</g>
<path d="M21.6385 7.32422V5.95455H29.7999V7.32422H26.5096V16.5H24.9237V7.32422H21.6385ZM30.1585 16.5V8.59091H31.6466V9.8473H31.729C31.8732 9.42164 32.1272 9.08694 32.4911 8.84322C32.8584 8.59606 33.2737 8.47248 33.7372 8.47248C33.8333 8.47248 33.9466 8.47591 34.077 8.48278C34.2109 8.48964 34.3156 8.49822 34.3911 8.50852V9.98118C34.3293 9.96402 34.2195 9.94513 34.0616 9.92454C33.9037 9.90051 33.7458 9.88849 33.5878 9.88849C33.224 9.88849 32.8996 9.96573 32.6147 10.1202C32.3332 10.2712 32.11 10.4824 31.9453 10.7536C31.7805 11.0213 31.6981 11.3268 31.6981 11.6701V16.5H30.1585ZM40.2336 13.22V8.59091H41.7783V16.5H40.2645V15.1303H40.1821C40.0001 15.5526 39.7084 15.9044 39.3067 16.1859C38.9085 16.464 38.4125 16.603 37.8186 16.603C37.3106 16.603 36.8609 16.4914 36.4695 16.2683C36.0816 16.0417 35.7761 15.707 35.553 15.2642C35.3333 14.8214 35.2235 14.2739 35.2235 13.6216V8.59091H36.7631V13.4363C36.7631 13.9752 36.9124 14.4043 37.211 14.7235C37.5097 15.0428 37.8976 15.2024 38.3747 15.2024C38.6631 15.2024 38.9497 15.1303 39.2346 14.9862C39.523 14.842 39.7616 14.624 39.9504 14.3322C40.1426 14.0404 40.237 13.6697 40.2336 13.22ZM49.2737 10.5218L47.8782 10.769C47.8199 10.5905 47.7272 10.4206 47.6002 10.2592C47.4766 10.0979 47.3084 9.96573 47.0956 9.86275C46.8827 9.75977 46.6167 9.70827 46.2975 9.70827C45.8615 9.70827 45.4976 9.80611 45.2058 10.0018C44.914 10.194 44.7682 10.4429 44.7682 10.7484C44.7682 11.0127 44.866 11.2256 45.0617 11.3869C45.2573 11.5482 45.5731 11.6804 46.0091 11.7834L47.2655 12.0717C47.9932 12.2399 48.5356 12.4991 48.8926 12.8493C49.2496 13.1994 49.4281 13.6542 49.4281 14.2138C49.4281 14.6875 49.2908 15.1097 49.0162 15.4805C48.745 15.8478 48.3657 16.1361 47.8782 16.3455C47.3942 16.5549 46.833 16.6596 46.1945 16.6596C45.3088 16.6596 44.5862 16.4708 44.0267 16.0932C43.4671 15.7122 43.1239 15.1715 42.9968 14.4712L44.485 14.2447C44.5776 14.6326 44.7682 14.9261 45.0565 15.1252C45.3449 15.3208 45.7207 15.4187 46.1842 15.4187C46.6888 15.4187 47.0921 15.314 47.3942 15.1046C47.6963 14.8917 47.8473 14.6326 47.8473 14.3271C47.8473 14.0799 47.7547 13.8722 47.5693 13.704C47.3874 13.5358 47.1076 13.4088 46.73 13.323L45.3912 13.0295C44.6532 12.8613 44.1073 12.5935 43.7538 12.2262C43.4036 11.8589 43.2286 11.3938 43.2286 10.8308C43.2286 10.3639 43.359 9.95543 43.6199 9.60529C43.8808 9.25515 44.2412 8.98224 44.7012 8.78658C45.1612 8.58748 45.6881 8.48793 46.282 8.48793C47.1368 8.48793 47.8096 8.6733 48.3005 9.04403C48.7914 9.41134 49.1158 9.90394 49.2737 10.5218ZM54.3129 8.59091V9.8267H49.9927V8.59091H54.3129ZM51.1513 6.69602H52.6909V14.1777C52.6909 14.4764 52.7355 14.7012 52.8248 14.8523C52.914 14.9999 53.029 15.1011 53.1697 15.1561C53.3139 15.2076 53.4701 15.2333 53.6383 15.2333C53.7619 15.2333 53.87 15.2247 53.9627 15.2076C54.0554 15.1904 54.1275 15.1767 54.179 15.1664L54.457 16.4382C54.3678 16.4725 54.2408 16.5069 54.076 16.5412C53.9112 16.579 53.7053 16.5996 53.4581 16.603C53.053 16.6098 52.6754 16.5378 52.3253 16.3867C51.9751 16.2357 51.6919 16.0022 51.4757 15.6864C51.2594 15.3706 51.1513 14.9741 51.1513 14.497V6.69602ZM55.5159 19.4659V8.59091H57.0195V9.87305H57.1482C57.2375 9.70827 57.3662 9.51776 57.5344 9.30149C57.7026 9.08523 57.936 8.89642 58.2347 8.73509C58.5333 8.57031 58.9281 8.48793 59.419 8.48793C60.0575 8.48793 60.6273 8.64927 61.1285 8.97195C61.6297 9.29463 62.0227 9.75977 62.3077 10.3674C62.596 10.975 62.7402 11.7061 62.7402 12.5609C62.7402 13.4157 62.5977 14.1486 62.3128 14.7596C62.0279 15.3672 61.6366 15.8358 61.1388 16.1653C60.6411 16.4914 60.0729 16.6545 59.4344 16.6545C58.9539 16.6545 58.5608 16.5738 58.2553 16.4125C57.9532 16.2511 57.7163 16.0623 57.5447 15.8461C57.3731 15.6298 57.2409 15.4376 57.1482 15.2694H57.0555V19.4659H55.5159ZM57.0246 12.5455C57.0246 13.1016 57.1053 13.589 57.2666 14.0078C57.428 14.4266 57.6614 14.7544 57.9669 14.9913C58.2724 15.2247 58.6466 15.3414 59.0894 15.3414C59.5494 15.3414 59.9339 15.2196 60.2429 14.9759C60.5518 14.7287 60.7852 14.394 60.9431 13.9718C61.1045 13.5495 61.1851 13.0741 61.1851 12.5455C61.1851 12.0237 61.1062 11.5551 60.9483 11.1397C60.7938 10.7244 60.5604 10.3965 60.248 10.1562C59.9391 9.91596 59.5529 9.79581 59.0894 9.79581C58.6432 9.79581 58.2656 9.91081 57.9566 10.1408C57.6511 10.3708 57.4194 10.6918 57.2615 11.1037C57.1036 11.5156 57.0246 11.9962 57.0246 12.5455ZM63.9652 16.5V8.59091H65.5047V16.5H63.9652ZM64.7427 7.37056C64.4749 7.37056 64.2449 7.28131 64.0527 7.1028C63.8639 6.92087 63.7695 6.7046 63.7695 6.45401C63.7695 6.19999 63.8639 5.98372 64.0527 5.80522C64.2449 5.62328 64.4749 5.53232 64.7427 5.53232C65.0104 5.53232 65.2387 5.62328 65.4275 5.80522C65.6197 5.98372 65.7159 6.19999 65.7159 6.45401C65.7159 6.7046 65.6197 6.92087 65.4275 7.1028C65.2387 7.28131 65.0104 7.37056 64.7427 7.37056ZM68.6156 5.95455V16.5H67.076V5.95455H68.6156ZM73.5183 16.6596C72.7769 16.6596 72.1298 16.4897 71.5771 16.1499C71.0244 15.81 70.5953 15.3346 70.2898 14.7235C69.9843 14.1125 69.8315 13.3985 69.8315 12.5815C69.8315 11.7611 69.9843 11.0436 70.2898 10.4292C70.5953 9.81469 71.0244 9.33754 71.5771 8.99769C72.1298 8.65785 72.7769 8.48793 73.5183 8.48793C74.2598 8.48793 74.9069 8.65785 75.4596 8.99769C76.0122 9.33754 76.4413 9.81469 76.7468 10.4292C77.0524 11.0436 77.2051 11.7611 77.2051 12.5815C77.2051 13.3985 77.0524 14.1125 76.7468 14.7235C76.4413 15.3346 76.0122 15.81 75.4596 16.1499C74.9069 16.4897 74.2598 16.6596 73.5183 16.6596ZM73.5235 15.3672C74.0041 15.3672 74.4023 15.2402 74.7181 14.9862C75.0339 14.7321 75.2673 14.394 75.4184 13.9718C75.5728 13.5495 75.6501 13.0844 75.6501 12.5763C75.6501 12.0717 75.5728 11.6083 75.4184 11.1861C75.2673 10.7604 75.0339 10.4189 74.7181 10.1614C74.4023 9.90394 74.0041 9.77521 73.5235 9.77521C73.0395 9.77521 72.6378 9.90394 72.3186 10.1614C72.0028 10.4189 71.7676 10.7604 71.6131 11.1861C71.4621 11.6083 71.3866 12.0717 71.3866 12.5763C71.3866 13.0844 71.4621 13.5495 71.6131 13.9718C71.7676 14.394 72.0028 14.7321 72.3186 14.9862C72.6378 15.2402 73.0395 15.3672 73.5235 15.3672ZM82.1156 8.59091V9.8267H77.7955V8.59091H82.1156ZM78.954 6.69602H80.4936V14.1777C80.4936 14.4764 80.5382 14.7012 80.6275 14.8523C80.7167 14.9999 80.8317 15.1011 80.9725 15.1561C81.1167 15.2076 81.2728 15.2333 81.4411 15.2333C81.5646 15.2333 81.6728 15.2247 81.7654 15.2076C81.8581 15.1904 81.9302 15.1767 81.9817 15.1664L82.2598 16.4382C82.1705 16.4725 82.0435 16.5069 81.8787 16.5412C81.714 16.579 81.508 16.5996 81.2608 16.603C80.8558 16.6098 80.4782 16.5378 80.128 16.3867C79.7779 16.2357 79.4947 16.0022 79.2784 15.6864C79.0621 15.3706 78.954 14.9741 78.954 14.497V6.69602Z" fill="white"/>
<defs>
<clipPath id="clip0_1151_6638">
<rect width="17" height="17" fill="white" transform="translate(0 2.5)"/>
</clipPath>
</defs>
</svg>
