<svg width="161" height="23" viewBox="0 0 161 23" fill="none" xmlns="http://www.w3.org/2000/svg">
<path d="M0.973092 7.84366C0.973092 5.80966 1.00019 3.77226 0.949493 1.73826C0.925893 0.804564 1.28699 0.477763 2.22199 0.501163C4.28089 0.554463 6.34659 0.531163 8.40889 0.537763C9.11409 2.93206 9.12459 5.47386 8.43919 7.87366C6.01449 8.67256 3.39119 8.66196 0.973092 7.84366Z" fill="#1D323E"/>
<path d="M23.2029 15.133C23.2029 17.1737 23.2029 19.2111 23.2501 21.2518C23.2771 22.1788 22.9126 22.5223 21.9844 22.4989C19.9187 22.4522 17.8497 22.4522 15.784 22.4522C14.9967 20.0769 14.9885 17.5166 15.7604 15.1363C18.1761 14.3431 20.7865 14.3419 23.2029 15.133Z" fill="#1D323E"/>
<path d="M15.8513 0.567965C17.9271 0.567965 20.0029 0.567963 22.0786 0.511263C22.9562 0.487963 23.2937 0.844765 23.2769 1.67506C23.233 3.72246 23.2262 5.76976 23.206 7.81386C20.9412 8.77086 18.5987 8.23736 16.2867 8.14726C16.0843 8.13486 15.8933 8.05026 15.7493 7.90926C15.6052 7.76816 15.518 7.58026 15.5036 7.38036C15.4125 5.11286 14.8556 2.79546 15.8513 0.567965Z" fill="#1D323E"/>
<path d="M0.973092 15.4964V15.1629C1.13059 15.0278 1.30679 14.9156 1.49629 14.8295C3.77119 14.6394 6.04609 14.376 8.30079 15.0029C8.46679 15.1314 8.59789 15.2987 8.68219 15.4897C8.94659 17.6263 8.95789 19.7861 8.71599 21.9253C8.62459 22.1114 8.49989 22.2797 8.34809 22.4221C6.18449 22.4388 4.02099 22.4621 1.86079 22.4721C1.54689 22.4721 1.18569 22.5555 1.03049 22.1387C1.17899 19.9212 1.28019 17.7071 0.973092 15.4964Z" fill="#1D323E"/>
<path d="M8.39889 15.1495H1.31079C0.949594 13.4823 1.24329 11.7883 1.13529 10.1111C1.09479 9.44746 1.31079 8.78056 0.973293 8.17036C0.939793 8.06166 0.939793 7.94566 0.973293 7.83696L8.32119 7.78026L8.56089 7.97696C9.06469 10.2603 9.08309 12.6221 8.61489 14.9128L8.39889 15.1495Z" fill="#1D323E"/>
<path d="M8.39849 15.4932C8.39849 15.3798 8.39849 15.2631 8.39849 15.1597L8.37149 15.1831C10.66 14.2094 13.0227 14.7329 15.3651 14.8496C15.5605 14.9245 15.7295 15.0544 15.8511 15.2231C15.8286 17.6373 15.8039 20.0503 15.7769 22.4623H15.6081L15.4427 22.439C13.2015 22.0888 10.9266 22.559 8.69219 22.1889C8.40869 20.555 8.65169 18.9077 8.56059 17.2671C8.52679 16.6703 8.73609 16.0534 8.39849 15.4932Z" fill="#1D323E"/>
<path d="M23.2029 15.133L15.8583 15.2061L15.7199 15.0661C15.6428 14.8711 15.6184 14.6597 15.649 14.4525C15.7165 12.852 15.676 11.2514 15.6828 9.65076C15.6828 8.53036 16.0203 7.89016 17.3468 7.98356C19.2875 8.13696 21.2486 7.82016 23.1894 8.15696C23.1939 10.4889 23.1984 12.8144 23.2029 15.133Z" fill="#1D323E"/>
<path d="M23.1891 8.16736C21.2888 8.16736 19.3885 8.21406 17.4916 8.16736C16.4791 8.13736 16.0842 8.50086 16.1415 9.50117C16.209 10.765 16.1753 12.0355 16.1415 13.3026C16.1415 13.8294 16.3339 14.423 15.804 14.8398C15.1121 14.0362 15.3349 13.0592 15.3247 12.1455C15.2842 7.99736 15.6319 8.39746 11.3824 8.34746C10.4002 8.34746 9.35729 8.58086 8.46959 7.90726L8.33449 7.80396L8.39869 0.538063L15.8243 0.568064C15.8243 2.54876 15.8715 4.53276 15.804 6.51346C15.7669 7.53716 16.1415 7.84726 17.1541 7.82726C19.1624 7.76396 21.1741 7.82726 23.1823 7.82726L23.1891 8.16736Z" fill="#1D323E"/>
<path d="M92.747 7.24706V20.395C92.669 20.325 92.524 20.2516 92.524 20.1783C92.591 15.8668 92.375 11.5519 92.747 7.24706Z" fill="#1D323E"/>
<path d="M105.232 20.4515C105.232 20.2447 105.232 20.0346 105.215 19.8279C105.215 17.5804 105.215 15.3363 105.215 13.0922C105.215 12.562 105.033 11.9851 105.495 11.5283C105.511 14.296 105.528 17.0636 105.546 19.8312C105.559 20.0647 105.65 20.3914 105.232 20.4515Z" fill="#1D323E"/>
<path d="M8.73599 22.1487C10.9704 22.3255 13.2386 21.7953 15.4562 22.4322H8.36809C8.37169 22.338 8.38879 22.2448 8.41869 22.1554C8.51329 21.9887 8.62129 21.992 8.73599 22.1487Z" fill="#1D323E"/>
<path d="M0.973293 8.17036C1.70569 9.73426 1.15539 11.3882 1.31059 12.9954C1.37809 13.7024 1.31059 14.4193 1.31059 15.1329C1.19909 15.1524 1.08629 15.1635 0.973092 15.1662C0.973092 12.832 0.973293 10.5001 0.973293 8.17036Z" fill="#1D323E"/>
<path d="M0.973092 15.4964C1.47249 17.6801 1.48959 19.9447 1.02369 22.1356C0.841393 19.9268 0.824572 17.7076 0.973092 15.4964Z" fill="#1D323E"/>
<path d="M56.9721 9.16066V7.51346C57.0092 7.46876 57.0558 7.43276 57.1086 7.40806C57.1614 7.38336 57.2191 7.37056 57.2776 7.37056C57.336 7.37056 57.3937 7.38336 57.4466 7.40806C57.4994 7.43276 57.546 7.46876 57.583 7.51346C57.583 8.18036 57.5527 8.84726 57.5392 9.51416L57.2455 9.43076C57.1792 9.41486 57.1187 9.38126 57.0704 9.33366C57.0222 9.28606 56.9882 9.22616 56.9721 9.16066Z" fill="#1D323E"/>
<path d="M57.3402 20.1815C56.9318 19.5446 56.9756 18.8477 57.0026 18.1274C58.1705 18.641 57.6574 19.4246 57.3402 20.1815Z" fill="#1D323E"/>
<path d="M139.315 15.5298C139.44 14.306 138.978 13.0422 139.575 11.8618C139.646 13.0889 140.075 14.3494 139.315 15.5298Z" fill="#1D323E"/>
<path d="M105.384 18.1176C105.468 15.9235 105.242 13.7227 105.508 11.532C105.489 10.8296 105.322 10.1388 105.018 9.50376C104.713 8.86876 104.278 8.30346 103.74 7.84396C103.341 7.01366 102.548 7.21046 101.86 7.14376L101.887 7.17036C101.161 6.47016 100.321 6.83696 99.524 6.93036C98.917 6.95976 98.332 7.15986 97.836 7.50716C96.554 8.40746 96.561 8.41746 96.132 7.17376C95.005 7.06036 93.881 6.93036 92.757 7.25046C92.392 9.15776 92.601 11.0852 92.608 12.9992C92.608 15.4667 92.382 17.9409 92.757 20.3984C93.875 20.5565 95.009 20.5744 96.132 20.4518C96.925 20.1683 96.469 19.5181 96.507 19.058C96.638 16.5404 96.26 14.0062 96.787 11.502C97.347 10.7084 97.89 9.89806 98.862 9.52456H100.155L101.384 10.5516C101.461 10.7617 101.542 10.9718 101.623 11.1819C101.644 12.569 101.623 13.9562 101.694 15.3366C101.694 15.4345 101.694 15.5312 101.694 15.6267C101.694 15.9002 101.694 16.1736 101.694 16.447C101.634 17.7808 101.451 19.0946 101.877 20.3984C102.994 20.5659 104.13 20.5816 105.252 20.4451C105.292 20.4094 105.325 20.3661 105.348 20.3179C105.371 20.2696 105.384 20.2173 105.387 20.1639C105.389 20.1106 105.381 20.0573 105.362 20.0071C105.344 19.9569 105.316 19.9108 105.279 19.8716C105.505 19.2914 105.363 18.6878 105.384 18.1176Z" fill="#1D323E"/>
<path d="M68.2826 15.4496C67.557 15.4496 67.7392 16.1765 67.6312 16.7267C67.5551 16.8626 67.4875 17.0029 67.4287 17.1469C65.5115 18.9308 63.8745 18.584 62.4198 16.0798C62.3894 15.4429 62.3557 14.806 62.3253 14.1725V13.4789L62.4063 11.5449C62.9295 10.4912 63.5404 9.52416 64.796 9.21066L66.4195 9.46746L67.4928 10.5179C67.6852 11.0781 67.5637 11.9917 68.5628 11.7683C69.4235 11.5782 70.5441 12.4352 71.1449 11.1781C71.1992 10.8157 71.1664 10.4457 71.0491 10.0981C70.9318 9.75056 70.7334 9.43506 70.4698 9.17736C70.3595 8.86976 70.1811 8.59026 69.9475 8.35956C69.7139 8.12876 69.4311 7.95246 69.1197 7.84356C68.475 7.17666 67.6413 6.96326 66.757 6.89986C65.7658 6.67976 64.7375 6.67976 63.7463 6.89986C61.2587 7.20336 59.5846 8.50377 58.7711 10.858L58.6091 11.7283C58.489 11.8853 58.4045 12.0661 58.3614 12.2583C58.3183 12.4504 58.3176 12.6495 58.3594 12.842C58.2288 13.4957 58.2368 14.169 58.383 14.8194C58.6226 17.0602 59.4934 18.9175 61.6435 19.9845L62.7168 20.418L63.348 20.508C64.4899 20.914 65.738 20.9222 66.8853 20.5314C69.4606 20.0812 70.9356 18.5574 71.4689 15.8264C70.5204 14.8294 69.3256 15.4496 68.2826 15.4496Z" fill="#1D323E"/>
<path d="M160.873 11.1749C160.654 8.57396 159.908 7.50696 157.835 6.91006C157.071 6.72006 156.271 6.72006 155.506 6.91006C154.983 6.96006 154.467 7.02336 154.133 7.50026C153.657 7.69366 153.241 7.94376 153.167 8.50056C152.901 8.95406 152.705 9.05746 152.155 8.69066C151.318 8.13716 150.987 6.90336 149.738 6.92006C148.977 6.72156 148.177 6.72156 147.416 6.92006C146.278 6.92006 145.705 7.94706 144.77 8.30386C144.321 8.05706 144.979 7.40356 144.358 7.22016C143.527 7.18016 142.697 7.17676 141.87 7.09346C141.043 7.01006 140.858 7.38016 140.858 8.13376C140.858 11.9785 140.827 15.8265 140.817 19.6712C140.817 20.0047 140.631 20.5182 141.31 20.4648H144.348C145.06 20.2314 144.712 19.6379 144.719 19.2244C144.753 17.0103 144.719 14.7995 144.719 12.5854C145.283 11.6317 145.178 10.2979 146.407 9.71437C146.93 9.52267 147.501 9.50276 148.037 9.65766L148.344 9.87776L149.053 11.2416C149.033 13.9692 148.999 16.6968 149.009 19.4278C149.009 19.7813 148.698 20.3481 149.414 20.4648H152.452C153.171 20.3248 152.836 19.7579 152.84 19.3978C152.863 17.127 152.84 14.8562 152.82 12.5821C153.353 11.6051 153.083 10.1712 154.507 9.70106C155.033 9.52736 155.599 9.51106 156.134 9.65436L156.917 10.5313C157.336 13.3757 157.008 16.2367 157.12 19.0844C157.137 19.5445 156.688 20.2047 157.511 20.4682H160.549C160.549 20.2814 160.549 20.0914 160.549 19.9013L160.606 19.8813C160.819 19.2344 160.687 18.5708 160.714 17.9173C160.816 15.6565 160.542 13.409 160.873 11.1749ZM143.203 7.39686C142.984 7.37686 142.765 7.34356 142.549 7.32686C142.769 7.29336 142.995 7.31746 143.203 7.39686Z" fill="#1D323E"/>
<path d="M42.4078 13.5124C42.0703 12.5454 41.6079 11.7384 40.44 11.5117C40.0721 11.4383 39.765 10.9949 39.4275 10.7181C39.765 10.448 40.0316 10.0512 40.4029 9.92776C41.2872 9.59436 41.6821 8.92746 41.9454 8.12046C42.7757 5.63296 41.5404 3.52886 38.722 2.59856L37.8208 2.47186C34.5401 1.90166 31.2357 2.24836 27.9414 2.23836C27.182 2.29846 27.4824 2.88196 27.4824 3.23876C27.4621 8.63616 27.4621 14.0348 27.4824 19.4345C27.4824 19.8046 27.209 20.3748 27.9482 20.4348C31.2256 20.4082 34.5164 20.8383 37.7769 20.1547C38.8199 20.2348 39.6502 19.7546 40.44 19.1544C40.7477 19.0382 41.0255 18.8563 41.2536 18.6217C41.4818 18.3871 41.6546 18.1056 41.7598 17.7972C41.9238 17.6797 42.062 17.5304 42.1659 17.3584C42.2697 17.1864 42.3371 16.9954 42.3639 16.7969C42.732 15.7346 42.7474 14.5839 42.4078 13.5124ZM31.3673 4.96266V4.86936H31.4585C31.4382 4.89266 31.4281 4.91936 31.4078 4.94266C33.1393 4.46256 34.8776 4.56586 36.6159 4.90596C37.2125 5.19306 37.7163 5.63876 38.0706 6.19316C38.4824 6.83006 38.3811 7.49026 38.155 8.15386C37.9086 8.48726 37.6588 8.82076 37.4124 9.15416C35.4345 10.1179 33.406 10.0345 31.3369 9.43756L31.2931 6.80996C31.1648 6.16976 30.9387 5.52286 31.3943 4.92936L31.3673 4.96266ZM38.7051 15.7399C38.5399 16.2068 38.2729 16.6322 37.923 16.986C37.573 17.3397 37.1487 17.6133 36.68 17.7872C34.9248 18.0407 33.1663 18.2374 31.4247 17.7105C31.4372 17.7379 31.4531 17.7637 31.472 17.7872H31.3707V17.6872H31.4179C30.9184 16.8703 31.1918 16.02 31.2998 15.1463L31.3673 12.2753C33.0111 11.7418 34.6683 11.9052 36.3256 12.1786C37.4259 12.5121 38.3507 13.0456 38.7085 14.2227C38.8797 14.4395 38.9723 14.7068 38.9717 14.9818C38.9711 15.2568 38.8772 15.5237 38.7051 15.7399Z" fill="#1D323E"/>
<path d="M85.9288 10.8513C85.2875 8.26696 83.1071 7.57006 80.9266 6.86986C79.9302 6.67726 78.9044 6.68856 77.9125 6.90316C74.733 7.27996 73.285 9.37736 72.5459 12.1751C72.5459 13.0509 72.5459 13.9301 72.5459 14.8127C73.0893 18.2905 74.8174 20.1679 77.8484 20.5747C78.7377 20.8443 79.6836 20.8753 80.5891 20.6647C81.0529 20.7176 81.5222 20.6353 81.9392 20.428C84.0285 19.481 85.7263 18.1805 86.2461 15.8063C86.4553 14.1358 86.6511 12.4652 85.9288 10.8513ZM82.5535 14.7193C82.1552 15.6063 82.3308 16.72 81.6287 17.4603C80.2786 18.8741 77.6324 18.2972 76.9033 16.4899C75.8907 14.019 76.5455 10.6079 78.2534 9.44736C78.834 8.81386 79.5023 8.90386 80.1976 9.21066C81.1865 9.59416 81.7671 10.3744 82.2464 11.2547C82.6784 11.7449 82.5535 12.4051 82.783 12.9587C82.6953 13.5455 83.0092 14.1758 82.5569 14.7193H82.5535Z" fill="#1D323E"/>
<path d="M139.575 11.8519C139.042 8.88756 137.02 7.48367 134.236 6.87347C133.24 6.67867 132.214 6.68776 131.221 6.90016C128.295 7.20696 126.537 9.23436 125.929 12.0653C125.126 15.8133 127.168 20.2482 130.84 20.4983C132.083 20.9185 133.432 20.9185 134.674 20.4983C137.263 20.0715 139.295 17.8907 139.315 15.5166C139.697 14.3228 139.251 13.0624 139.575 11.8519ZM135.906 15.0597C135.68 15.6366 135.95 16.3735 135.319 16.8204C134.872 17.4347 134.266 17.9185 133.564 18.2208C132.761 18.6477 131.984 18.4909 131.218 18.1175C129.797 16.4502 129.578 14.4495 129.868 12.3988C130.057 11.0417 130.482 9.77117 131.977 9.23097C132.193 9.06347 132.458 8.97066 132.732 8.96706C133.006 8.96336 133.273 9.04916 133.493 9.21097C134.104 9.75786 135.079 9.90126 135.336 10.8382C135.94 11.2951 135.673 12.022 135.903 12.5955C135.937 13.4158 135.937 14.2394 135.906 15.0597Z" fill="#1D323E"/>
<path d="M124.565 15.4698C123.522 15.3964 122.442 15.2697 121.44 15.4698C120.724 15.6098 121.159 16.6468 120.738 17.137C119.293 18.7142 116.788 18.8043 115.715 16.0933L115.631 14.8195V12.8188C115.741 12.1519 115.854 11.485 115.968 10.8181C116.449 10.1418 117.091 9.59316 117.838 9.22086C117.838 9.16746 117.791 9.07076 117.788 9.07076C117.568 9.12086 117.669 8.97746 117.885 9.00406C117.936 9.00916 117.987 9.00916 118.037 9.00406C117.967 9.07026 117.9 9.14036 117.838 9.21416L119.377 9.31756L120.812 10.4813C120.967 12.5221 122.553 11.5717 123.576 11.7451C124.727 11.9385 124.758 11.315 124.396 10.4913C124.258 10.0178 124.251 9.49096 123.806 9.15746C123.691 8.85316 123.508 8.57856 123.27 8.35436C123.032 8.13026 122.745 7.96246 122.432 7.86366C121.818 7.13016 120.96 6.96676 120.069 6.88666C119.078 6.66666 118.05 6.66666 117.059 6.88666C114.021 7.38016 112.107 9.22086 111.972 11.7851C111.673 12.431 111.518 13.1323 111.515 13.8424C111.512 14.5524 111.662 15.255 111.955 15.9032C112.31 18.3341 114.109 20.098 116.647 20.4982C117.8 20.905 119.061 20.905 120.214 20.4982C122.827 20.1647 124.069 18.4275 124.744 16.1333C124.781 15.8899 124.909 15.4931 124.565 15.4698ZM119.205 9.13416C119.269 9.19606 119.324 9.26686 119.367 9.34426C119.317 9.27116 119.263 9.20106 119.205 9.13416ZM120.738 17.137C120.875 16.9547 121.025 16.782 121.186 16.6202C121.132 16.8836 121.024 17.097 120.738 17.1537V17.137Z" fill="#1D323E"/>
<path d="M55.4501 9.71116C56.1251 9.73786 56.8913 9.98456 57.5394 9.49106C57.4345 9.38816 57.2953 9.32646 57.1478 9.31766L56.9892 9.17426C57.0599 9.12906 57.1255 9.07656 57.185 9.01756C57.3301 8.49736 57.3976 7.98386 57.0601 7.51366L57.583 7.51346C56.6549 6.56646 55.4568 7.37696 54.4341 7.06026L54.2215 3.85906C53.6499 3.61886 53.0352 3.49506 52.414 3.49506C51.7929 3.49506 51.1781 3.61886 50.6066 3.85906C50.3602 4.83606 50.5121 5.82316 50.5424 6.80676C50.1138 7.54376 48.7029 6.36666 48.5612 7.93056C48.4127 9.55106 49.1552 9.91126 50.5087 9.86116C50.5694 12.4021 50.3366 14.9497 50.6133 17.4873C50.7281 19.1545 51.8318 19.9548 53.273 20.465C54.3666 20.8372 55.5548 20.8372 56.6483 20.465C56.7791 20.5052 56.92 20.4992 57.0468 20.4481C57.1736 20.397 57.2786 20.304 57.3436 20.1849C57.3436 19.4846 57.4651 18.761 57.0061 18.1308C56.2635 17.6606 55.2341 18.2509 54.5725 17.4873C54.0797 15.2898 54.5523 13.049 54.2789 10.8416C54.235 10.0313 54.5624 9.67776 55.4501 9.71116Z" fill="#1D323E"/>
<path d="M8.73599 22.1487L8.39839 22.1485C8.39839 19.9255 8.39839 17.7025 8.39839 15.4795C9.16119 17.6769 8.51659 19.9346 8.73599 22.1487Z" fill="#1D323E"/>
<path d="M8.45589 7.89376C10.3089 7.89376 12.1687 7.96716 14.0082 7.85706C15.4562 7.77036 15.8579 8.34396 15.787 9.68106C15.6992 11.3917 15.787 13.1123 15.787 14.8263C15.7576 14.9048 15.7328 14.985 15.7127 15.0663L8.37149 15.173C8.40299 12.7455 8.43119 10.3191 8.45589 7.89376Z" fill="#1D323E"/>
<path d="M91.407 19.6314C91.407 15.5944 91.39 11.5541 91.356 7.51046C90.644 6.54346 89.6382 7.27696 88.7842 7.08696C87.6805 6.84016 87.37 7.33706 87.4004 8.42076C87.4881 11.3485 87.4544 14.2828 87.4409 17.2172C87.424 20.7118 87.4105 20.7118 91.052 20.4083C91.538 20.3216 91.41 19.9315 91.407 19.6314Z" fill="#1D323E"/>
<path d="M15.4868 4.18256C15.4868 7.51716 15.4868 7.51716 12.1521 7.51716C8.73629 7.50716 8.73629 7.50716 8.73629 4.09256C8.73629 0.848064 8.73629 0.848064 11.9867 0.848064H12.1554C15.4868 0.848064 15.4868 0.848064 15.4868 4.18256Z" fill="#1D323E"/>
<path d="M89.2329 2.17186C88.8414 2.17186 88.4465 2.17186 88.0549 2.17186C87.6634 2.17186 87.3799 2.35526 87.4305 2.76536C87.5385 3.66236 87.1267 4.60266 87.6837 5.45636C88.7984 5.65386 89.938 5.67306 91.059 5.51306C92.105 3.11216 91.599 2.16846 89.2329 2.17186Z" fill="#1D323E"/>
<path d="M110.403 17.117C110.384 17.0251 110.345 16.9385 110.288 16.8636C109.336 16.8436 108.384 16.8236 107.436 16.7969C107.004 16.7969 106.582 16.8569 106.649 17.3871C106.774 18.3874 106.271 19.4445 106.916 20.3881L107.254 20.4348H110.291C110.353 20.3527 110.396 20.2582 110.416 20.1581C110.634 19.6797 110.746 19.1607 110.744 18.6361C110.741 18.1115 110.625 17.5934 110.403 17.117Z" fill="#1D323E"/>
<path d="M46.9378 7.08656C46.3222 7.13496 45.7037 7.13496 45.0881 7.08656C43.9743 6.94316 43.6941 7.36666 43.7144 8.44706C43.7853 12.0383 43.7144 15.6363 43.7583 19.2309C43.7583 19.641 43.4207 20.2312 44.1532 20.458H47.1909C47.3124 20.3813 47.5284 20.3012 47.5284 20.2212C47.5622 16.0764 47.5723 11.9283 47.5959 7.78346C47.6196 7.27996 47.4339 7.07326 46.9378 7.08656Z" fill="#1D323E"/>
<path d="M44.0414 5.39966C44.7434 6.02986 46.5998 6.02986 47.3053 5.39966C48.0107 4.76946 48.0006 3.27896 47.1939 2.23186H44.1561C43.3528 3.27896 43.3731 4.79946 44.0414 5.39966Z" fill="#1D323E"/>
</svg>
