<svg width="122" height="38" viewBox="0 0 122 38" fill="none" xmlns="http://www.w3.org/2000/svg">
<path fill-rule="evenodd" clip-rule="evenodd" d="M9.45675 38H12.2948V22.8H9.45675V38ZM19.8599 37.772H22.4018V28.1818L33.1011 38V23.028H30.5663V32.4544L19.8599 22.8V37.772ZM38.9038 34.0908C40.2872 35.1714 41.9479 35.796 43.7281 35.796C45.4622 35.796 46.6787 35.1975 46.6787 33.8758C46.6787 32.7239 45.9028 32.2727 44.5442 31.768L42.3447 31.0021C40.3169 30.2801 38.7747 29.2256 38.7747 26.8019C38.7747 24.2096 41.1093 22.8 43.901 22.8C45.6114 22.8 47.1702 23.2311 48.3878 23.9946V26.5656C47.1216 25.6274 45.7358 24.9814 43.9555 24.9814C42.4228 24.9814 41.2775 25.555 41.2775 26.7508C41.2775 27.8314 41.9964 28.2637 43.2626 28.6983L45.7132 29.5604C48.0881 30.3976 49.1778 31.6956 49.1778 33.8307C49.1778 36.5168 46.8208 38 43.7281 38C41.6956 38 39.9674 37.43 38.9038 36.7104V34.0908ZM55.799 38H58.6358V22.8H55.799V38ZM71.9442 35.6998C75.1428 35.6998 76.8516 33.6431 76.8516 30.3964C76.8516 27.1261 75.1413 25.0764 71.9442 25.0764H68.7821V35.6998H71.9442ZM66.1998 22.8H72.0395C76.5344 22.8 79.4411 25.7688 79.4411 30.3964C79.4411 35.0277 76.5344 38 72.0395 38H66.1998V22.8ZM93.6281 22.8V25.0764H86.7618V28.7339H92.9205V30.9842H86.7611V35.6998H93.6281V38H84.1708V22.8H93.6281ZM103.698 29.6828H106.514C108.181 29.6828 109.12 28.766 109.12 27.3564C109.12 25.9469 108.181 25.0289 106.514 25.0289H103.698V29.6839V29.6828ZM103.698 31.8321V38H101.194V22.8H106.562C109.622 22.8 111.603 24.3806 111.603 27.3564C111.603 29.9013 110.504 31.3631 108.162 31.7383L113.488 38H110.639L105.481 31.8333H103.7L103.698 31.8321ZM8.46535 7.82564C9.57525 7.41828 10.4399 6.19636 10.4399 4.51607C10.4399 1.71593 8.46535 0.264815 5.30639 0.264815H0V15.8959H5.79912C8.95808 15.8959 10.9326 14.3426 10.9326 11.4154C10.9326 9.76007 9.89618 8.30893 8.46535 7.82564ZM2.49208 6.83286V2.55672H5.28275C7.03574 2.55672 7.97262 3.19322 7.97262 4.66921C7.97262 6.14528 7.03452 6.83286 5.28275 6.83286H2.49208ZM2.49208 9.02264H5.7494C7.47875 9.02264 8.41564 9.88714 8.41564 11.3133C8.41564 12.7134 7.47753 13.6052 5.75055 13.6052H2.4933V9.02143L2.49208 9.02264ZM22.5108 16.15C26.1388 16.15 28.5823 13.9602 28.5823 9.68407V0.264815H26.0156V9.37772C26.0156 12.3821 24.7814 13.7833 22.5108 13.7833C20.2402 13.7833 19.0071 12.3821 19.0071 9.37772V0.264815H16.4404V9.65793C16.4404 13.9603 18.9076 16.15 22.5108 16.15ZM34.6255 14.7749C35.6868 15.5396 37.4149 16.15 39.4379 16.15C42.5235 16.15 44.8676 14.5706 44.8676 11.7206C44.8676 9.45486 43.7826 8.07971 41.4125 7.18914L38.9701 6.27236C37.711 5.81522 36.9956 5.35678 36.9956 4.21086C36.9956 2.93786 38.1303 2.3275 39.6607 2.3275C41.4374 2.3275 42.8196 3.01386 44.0787 4.00778V1.2825C42.8693 0.469064 41.3142 0.0106856 39.6109 0.0106856C36.8226 0.0106856 34.5023 1.51286 34.5023 4.26193C34.5023 6.83286 36.0326 7.95272 38.0557 8.71629L40.2529 9.53086C41.6103 10.0653 42.3755 10.5498 42.3755 11.7717C42.3755 13.1718 41.1662 13.8083 39.4379 13.8083C37.6612 13.8083 36.0078 13.1456 34.6255 12.0009V14.7749ZM54.0389 0.264815H51.4733V15.8947H54.0389V0.264815ZM61.3613 15.8757H63.8344V5.70714L74.2439 16.1179V0.241065H71.7772V10.2362L61.3613 0V15.8757ZM90.2823 0.268371V2.60893H83.6188V6.37093H89.5945V8.68536H83.6188V13.5339H90.2823V15.8994H81.1025V0.268371H90.2823ZM96.258 14.7642C97.3194 15.5289 99.0465 16.1393 101.07 16.1393C104.155 16.1393 106.5 14.5611 106.5 11.7099C106.5 9.44422 105.414 8.07029 103.045 7.17843L100.601 6.26286C99.3423 5.8045 98.6271 5.34614 98.6271 4.20022C98.6271 2.92722 99.7617 2.31678 101.292 2.31678C103.069 2.31678 104.451 3.00436 105.71 3.99714V1.273C104.501 0.458379 102.945 0 101.242 0C98.454 0 96.1337 1.50222 96.1337 4.25121C96.1337 6.82222 97.664 7.942 99.687 8.70557L101.884 9.52022C103.242 10.0546 104.007 10.5391 104.007 11.761C104.007 13.1611 102.799 13.7976 101.069 13.7976C99.2928 13.7976 97.6389 13.1361 96.258 11.9902V14.7642ZM111.758 14.7642C112.819 15.5289 114.547 16.1393 116.57 16.1393C119.656 16.1393 122 14.5611 122 11.7099C122 9.44422 120.914 8.07029 118.545 7.17843L116.101 6.26286C114.843 5.8045 114.127 5.34614 114.127 4.20022C114.127 2.92722 115.263 2.31678 116.792 2.31678C118.569 2.31678 119.952 3.00436 121.21 3.99714V1.273C120.001 0.458379 118.447 0 116.743 0C113.954 0 111.635 1.50222 111.635 4.25121C111.635 6.82222 113.165 7.942 115.188 8.70557L117.385 9.52022C118.743 10.0546 119.508 10.5391 119.508 11.761C119.508 13.1611 118.299 13.7976 116.57 13.7976C114.794 13.7976 113.141 13.1361 111.758 11.9902V14.7642Z" fill="#1D323E"/>
</svg>
