<svg width="161" height="37" viewBox="0 0 161 37" fill="none" xmlns="http://www.w3.org/2000/svg">
<path d="M24.0997 26.9139L17.433 29.7844V29.4947C16.153 29.8107 14.713 29.995 13.3797 30.0741C7.08635 30.0214 2.12635 26.7559 2.04635 22.9111V21.489C4.09975 24.4385 8.31305 26.4399 13.3797 26.3609C15.0863 26.4399 16.8463 26.1766 18.313 25.7815L18.8997 24.3595C17.1663 24.8862 15.2463 25.2285 13.3797 25.2285C7.08635 25.2285 2.12635 21.9894 2.04635 18.0656V16.9068C4.09975 19.6456 8.31305 21.6207 13.3797 21.489C15.673 21.6207 17.8863 21.1467 19.7797 20.3303L20.073 18.9083C18.233 19.8563 15.8597 20.4093 13.4063 20.3303C7.11305 20.4093 2.15305 17.1702 2.07305 13.1673V12.0086C4.12635 14.8001 8.33975 16.8015 13.4063 16.8805C16.2863 16.8015 19.0063 16.0378 21.2463 14.8791L21.5397 13.1673C19.513 14.6421 16.553 15.6165 13.4063 15.7481C7.11305 15.6165 2.15305 12.351 2.07305 8.29554C2.12635 4.42434 7.11305 1.18524 13.4063 1.13254C17.1397 1.18524 20.633 2.47564 22.6863 4.58234L22.8997 4.92474H24.3663L24.153 4.58234C22.0997 1.81724 17.9663 0.000136929 13.4063 0.000136929C6.41975 -0.0261631 0.873047 3.73964 0.873047 8.26914V23.1744C1.11305 27.5986 6.52635 31.2064 13.353 31.2064C17.8597 31.2328 21.9397 29.4684 24.0997 26.9139Z" fill="#1D323E"/>
<path d="M21.3795 37.0002L23.7262 27.1511L16.9795 30.0479L21.0862 12.9832H13.1928L15.2462 4.58254H40.4462L38.3928 12.9832H30.1795L28.4195 17.6181L37.5128 13.8522L21.3795 37.0002ZM25.4862 25.1497L24.3128 30.9433L33.9928 16.4857L26.0728 19.9618L29.5928 11.8508H37.5128L38.9795 5.76764H16.0995L14.6328 11.8508H22.5528L18.7395 28.0465L25.4862 25.1497Z" fill="#1D323E"/>
<path d="M57.1665 10.2441C57.1931 11.1658 56.8997 11.8768 56.313 12.4035C55.7264 12.9302 54.9264 13.1935 53.8864 13.1935C52.8464 13.1935 51.993 12.8512 51.353 12.1928C50.713 11.5344 50.393 10.6654 50.393 9.61204V7.90034C50.393 6.84694 50.713 5.97794 51.3264 5.31954C51.9664 4.66124 52.793 4.31884 53.8064 4.31884C54.873 4.31884 55.6997 4.58224 56.313 5.08254C56.9264 5.60924 57.2197 6.32024 57.193 7.24194V7.26834H55.4865C55.4865 6.71524 55.3531 6.29394 55.0864 6.03064C54.8197 5.76724 54.393 5.63554 53.833 5.63554C53.2997 5.63554 52.8997 5.84624 52.6064 6.26764C52.313 6.68894 52.153 7.21564 52.153 7.87404V9.61204C52.153 10.2704 52.313 10.8234 52.6064 11.2448C52.9264 11.6661 53.353 11.8768 53.913 11.8768C54.4464 11.8768 54.8197 11.7451 55.0864 11.4818C55.3531 11.2184 55.4865 10.7971 55.4865 10.2441H57.1665ZM66.8197 9.53304C66.8197 10.5864 66.4731 11.4818 65.8064 12.1665C65.1397 12.8512 64.2598 13.1935 63.1665 13.1935C62.0731 13.1935 61.2197 12.8512 60.5264 12.1665C59.8597 11.4818 59.513 10.5864 59.513 9.53304V7.97934C59.513 6.92594 59.8597 6.05694 60.5264 5.34594C61.193 4.66124 62.073 4.29254 63.1397 4.29254C64.233 4.29254 65.113 4.63484 65.7797 5.34594C66.473 6.03064 66.793 6.92594 66.793 7.97934V9.53304H66.8197ZM65.0597 7.95304C65.0597 7.26834 64.8997 6.74164 64.553 6.29394C64.2063 5.87254 63.753 5.63554 63.1397 5.63554C62.553 5.63554 62.073 5.84624 61.753 6.29394C61.433 6.71524 61.2464 7.26834 61.2464 7.95304V9.50674C61.2464 10.1914 61.4064 10.7444 61.753 11.1921C62.073 11.6134 62.553 11.8505 63.1397 11.8505C63.753 11.8505 64.2063 11.6398 64.553 11.1921C64.8997 10.7707 65.0597 10.1914 65.0597 9.50674V7.95304ZM71.3531 13.0618H69.593V4.42424H71.3531V13.0618ZM81.4597 13.0618H79.6997L76.1797 7.24194H76.153V13.0618H74.393V4.42424H76.153L79.673 10.2441H79.6997V4.42424H81.4597V13.0618ZM90.2863 5.76724H87.7797V13.0618H86.0197V5.76724H83.5664V4.42424H90.2863V5.76724ZM94.286 9.26974V11.7451H98.153V13.0618H92.553V4.42424H98.153V5.76724H94.313V7.92664H97.566V9.26974H94.286ZM102.42 11.7451H106.34V13.0618H100.66V4.42424H102.42V11.7451ZM110.553 9.26974V11.7451H114.42V13.0618H108.82V4.42424H114.42V5.76724H110.58V7.92664H113.833V9.26974H110.553ZM123.646 11.9031C123.38 12.2455 122.98 12.5615 122.42 12.8248C121.886 13.0882 121.193 13.2198 120.34 13.2198C119.273 13.2198 118.42 12.9038 117.753 12.2455C117.086 11.5871 116.74 10.7444 116.74 9.69104V7.87404C116.74 6.82064 117.06 5.97794 117.726 5.31954C118.366 4.66124 119.22 4.31884 120.233 4.31884C121.3 4.31884 122.126 4.58224 122.686 5.08254C123.246 5.58294 123.54 6.24124 123.513 7.08394V7.11034H121.86C121.86 6.66264 121.726 6.29394 121.46 6.03064C121.193 5.76724 120.793 5.63554 120.286 5.63554C119.753 5.63554 119.326 5.84624 118.98 6.24124C118.66 6.66264 118.5 7.18934 118.5 7.82134V9.63844C118.5 10.2967 118.66 10.8234 119.006 11.2448C119.353 11.6661 119.806 11.8505 120.366 11.8505C120.793 11.8505 121.113 11.7978 121.353 11.7188C121.593 11.6398 121.78 11.5344 121.913 11.4028V9.71744H120.233V8.50604H123.673V11.9031H123.646ZM128.18 9.61204V13.0618H126.42V4.42424H129.46C130.446 4.42424 131.246 4.66124 131.806 5.10884C132.366 5.55654 132.66 6.18864 132.66 6.97864C132.66 7.42634 132.553 7.79504 132.313 8.13734C132.073 8.45334 131.726 8.71674 131.273 8.92734C131.78 9.08534 132.153 9.32244 132.393 9.69104C132.606 10.0334 132.74 10.4811 132.74 11.0078V11.6398C132.74 11.8768 132.766 12.1401 132.846 12.4035C132.9 12.6668 133.033 12.8512 133.193 12.9828V13.1145H131.38C131.22 12.9828 131.113 12.7722 131.06 12.4825C131.006 12.1928 130.98 11.9031 130.98 11.6398V11.0341C130.98 10.6127 130.873 10.2704 130.633 10.0334C130.393 9.79644 130.046 9.66474 129.62 9.66474H128.18V9.61204ZM128.18 8.29534H129.433C129.913 8.29534 130.286 8.19004 130.526 7.97934C130.766 7.76864 130.9 7.47894 130.9 7.05764C130.9 6.66264 130.766 6.34664 130.526 6.10964C130.286 5.87254 129.94 5.76724 129.46 5.76724H128.18V8.29534ZM140.1 11.2184H137.273L136.686 13.0882H134.846L137.806 4.45054H139.593L142.526 13.0882H140.686L140.1 11.2184ZM137.7 9.84904H139.673L138.713 6.79434H138.686L137.7 9.84904ZM146.42 9.92804V13.0618H144.66V4.42424H148.02C149.033 4.42424 149.806 4.68754 150.393 5.18784C150.98 5.68824 151.246 6.37294 151.246 7.18934C151.246 8.00564 150.953 8.69034 150.393 9.19074C149.806 9.69104 149.033 9.95444 148.02 9.95444H146.42V9.92804ZM146.42 8.61134H148.02C148.5 8.61134 148.873 8.47974 149.14 8.21634C149.38 7.95304 149.513 7.61064 149.513 7.21564C149.513 6.79434 149.38 6.45194 149.14 6.18864C148.9 5.92524 148.526 5.79354 148.02 5.79354H146.42V8.61134ZM160.873 13.0618H159.113V9.48044H155.54V13.0618H153.78V4.42424H155.54V8.13734H159.113V4.42424H160.873V13.0618Z" fill="#1D323E"/>
<path d="M53.593 27.1772H52.4997V21.489H50.5263V20.5673H55.5663V21.489H53.593V27.1772ZM60.9263 27.1772H59.833V24.0961C59.833 23.7011 59.753 23.4114 59.593 23.2271C59.433 23.0427 59.193 22.9374 58.8463 22.9374C58.393 22.9374 58.073 23.069 57.8597 23.3324C57.6463 23.5957 57.5397 24.0434 57.5397 24.6755V27.1509H56.473V20.1196H57.5397V21.9103C57.5397 22.2 57.513 22.4897 57.4863 22.832H57.5663C57.6997 22.595 57.913 22.4107 58.1797 22.279C58.4464 22.1473 58.7397 22.0683 59.0863 22.0683C60.313 22.0683 60.9263 22.674 60.9263 23.9118V27.1772ZM64.633 27.2562C63.833 27.2562 63.2197 27.0192 62.793 26.5715C62.3397 26.1238 62.1264 25.4918 62.1264 24.7018C62.1264 23.8854 62.3397 23.2534 62.7397 22.7794C63.1397 22.3053 63.7263 22.0683 64.4464 22.0683C65.1131 22.0683 65.6463 22.279 66.0197 22.674C66.4197 23.069 66.6063 23.6221 66.6063 24.3331V24.9125H63.2197C63.2463 25.3865 63.3797 25.7815 63.6197 26.0185C63.8597 26.2819 64.233 26.4135 64.6863 26.4135C64.9798 26.4135 65.273 26.3872 65.513 26.3345C65.7797 26.2818 66.0463 26.1765 66.3397 26.0448V26.9139C66.073 27.0455 65.8064 27.1246 65.5397 27.1772C65.2998 27.2299 64.9798 27.2562 64.633 27.2562ZM64.4464 22.8847C64.0998 22.8847 63.833 22.99 63.6197 23.2007C63.4063 23.4114 63.2997 23.7274 63.2463 24.1488H65.5397C65.5397 23.7274 65.433 23.4114 65.2463 23.2007C65.0597 22.99 64.793 22.8847 64.4464 22.8847ZM72.793 22.9637H71.5663V27.1772H70.473V22.9637H69.6463V22.4634L70.473 22.1473V21.8313C70.473 21.252 70.6063 20.8043 70.8997 20.5146C71.193 20.2249 71.6198 20.0933 72.1797 20.0933C72.553 20.0933 72.9263 20.1459 73.2997 20.2776L73.0063 21.094C72.7397 21.015 72.4997 20.9623 72.233 20.9623C71.993 20.9623 71.8063 21.0413 71.6997 21.173C71.593 21.331 71.5397 21.5417 71.5397 21.8313V22.1473H72.7663V22.9637H72.793ZM77.2463 27.1772L77.0863 26.5189H77.0331C76.873 26.7559 76.6597 26.9402 76.393 27.0719C76.1263 27.2036 75.8064 27.2826 75.4597 27.2826C74.8463 27.2826 74.393 27.1246 74.073 26.8349C73.753 26.5452 73.6197 26.0712 73.6197 25.4655V22.1737H74.713V25.2548C74.713 25.6498 74.793 25.9132 74.953 26.1238C75.1131 26.3082 75.353 26.4135 75.6997 26.4135C76.153 26.4135 76.473 26.2819 76.6863 26.0185C76.8997 25.7552 77.0063 25.3075 77.0063 24.6755V22.1737H78.0997V27.1772H77.2463ZM81.513 26.3872C81.7797 26.3872 82.0463 26.3345 82.313 26.2555V27.0455C82.2064 27.0982 82.0463 27.1509 81.8597 27.1772C81.673 27.2036 81.4864 27.2299 81.273 27.2299C80.2598 27.2299 79.753 26.7032 79.753 25.6498V22.9637H79.0597V22.4897L79.8063 22.0947L80.1797 21.0413H80.8463V22.1473H82.2863V22.9637H80.8463V25.6498C80.8463 25.9132 80.8997 26.0975 81.0331 26.2292C81.1131 26.3345 81.2997 26.3872 81.513 26.3872ZM86.873 27.1772L86.713 26.5189H86.6597C86.4997 26.7559 86.2863 26.9402 86.0197 27.0719C85.753 27.2036 85.4331 27.2826 85.0863 27.2826C84.4731 27.2826 84.0197 27.1246 83.6997 26.8349C83.4063 26.5452 83.2463 26.0712 83.2463 25.4655V22.1737H84.3397V25.2548C84.3397 25.6498 84.4197 25.9132 84.5798 26.1238C84.7398 26.3082 84.9797 26.4135 85.3263 26.4135C85.7797 26.4135 86.0997 26.2819 86.313 26.0185C86.5264 25.7552 86.633 25.3075 86.633 24.6755V22.1737H87.7263V27.1772H86.873ZM91.833 22.0683C92.046 22.0683 92.233 22.0947 92.366 22.121L92.26 23.1217C92.1 23.0954 91.94 23.069 91.78 23.069C91.353 23.069 91.006 23.2007 90.7397 23.4904C90.473 23.7801 90.3397 24.1224 90.3397 24.5701V27.1772H89.273V22.1737H90.1264L90.2598 23.0427H90.313C90.4731 22.753 90.7131 22.516 90.98 22.3317C91.22 22.1737 91.513 22.0683 91.833 22.0683ZM95.326 27.2562C94.526 27.2562 93.913 27.0192 93.486 26.5715C93.033 26.1238 92.82 25.4918 92.82 24.7018C92.82 23.8854 93.033 23.2534 93.433 22.7794C93.833 22.3053 94.42 22.0683 95.14 22.0683C95.806 22.0683 96.34 22.279 96.713 22.674C97.113 23.069 97.3 23.6221 97.3 24.3331V24.9125H93.913C93.94 25.3865 94.0731 25.7815 94.313 26.0185C94.553 26.2819 94.926 26.4135 95.3801 26.4135C95.673 26.4135 95.966 26.3872 96.206 26.3345C96.473 26.2818 96.7401 26.1765 97.0331 26.0448V26.9139C96.7661 27.0455 96.5 27.1246 96.233 27.1772C95.966 27.2299 95.673 27.2562 95.326 27.2562ZM95.14 22.8847C94.793 22.8847 94.526 22.99 94.313 23.2007C94.1001 23.4114 93.993 23.7274 93.94 24.1488H96.233C96.233 23.7274 96.126 23.4114 95.94 23.2007C95.7261 22.99 95.46 22.8847 95.14 22.8847ZM105.433 24.6491C105.433 25.4655 105.22 26.0975 104.793 26.5715C104.366 27.0192 103.78 27.2562 103.033 27.2562C102.553 27.2562 102.153 27.1509 101.78 26.9402C101.406 26.7295 101.14 26.4135 100.953 26.0185C100.766 25.6235 100.66 25.1758 100.66 24.6491C100.66 23.8327 100.873 23.2007 101.3 22.753C101.726 22.3054 102.313 22.0683 103.086 22.0683C103.806 22.0683 104.393 22.3053 104.82 22.7794C105.246 23.2534 105.433 23.8591 105.433 24.6491ZM101.753 24.6491C101.753 25.8078 102.18 26.3872 103.06 26.3872C103.913 26.3872 104.34 25.8078 104.34 24.6491C104.34 23.5167 103.913 22.9374 103.06 22.9374C102.606 22.9374 102.286 23.0954 102.073 23.3851C101.86 23.6747 101.753 24.0961 101.753 24.6491ZM109.22 22.9637H107.993V27.1772H106.9V22.9637H106.073V22.4634L106.9 22.1473V21.8313C106.9 21.252 107.033 20.8043 107.326 20.5146C107.62 20.2249 108.046 20.0933 108.606 20.0933C108.98 20.0933 109.353 20.1459 109.726 20.2776L109.433 21.094C109.166 21.015 108.926 20.9623 108.66 20.9623C108.42 20.9623 108.233 21.0413 108.126 21.173C108.02 21.3046 107.966 21.5417 107.966 21.8313V22.1473H109.193V22.9637H109.22ZM115.7 27.1772V24.0961C115.7 23.7011 115.62 23.4377 115.486 23.2271C115.353 23.0427 115.113 22.9374 114.793 22.9374C114.366 22.9374 114.073 23.069 113.886 23.3324C113.7 23.5957 113.593 24.0434 113.593 24.6755V27.1772H112.526V22.1737H113.38L113.54 22.832H113.593C113.726 22.595 113.94 22.4107 114.206 22.279C114.473 22.1473 114.766 22.0947 115.086 22.0947C115.86 22.0947 116.393 22.358 116.633 22.8847H116.713C116.873 22.6477 117.086 22.437 117.353 22.3054C117.62 22.1737 117.94 22.0947 118.286 22.0947C118.9 22.0947 119.326 22.2527 119.62 22.5424C119.886 22.832 120.046 23.3061 120.046 23.9118V27.1772H118.98V24.0961C118.98 23.7011 118.9 23.4377 118.766 23.2271C118.606 23.0427 118.393 22.9374 118.073 22.9374C117.646 22.9374 117.353 23.069 117.166 23.3324C116.98 23.5957 116.873 23.9908 116.873 24.5174V27.1772H115.7ZM125.966 24.6491C125.966 25.4655 125.753 26.0975 125.326 26.5715C124.9 27.0192 124.313 27.2562 123.566 27.2562C123.086 27.2562 122.686 27.1509 122.313 26.9402C121.94 26.7295 121.673 26.4135 121.486 26.0185C121.3 25.6235 121.193 25.1758 121.193 24.6491C121.193 23.8327 121.406 23.2007 121.833 22.753C122.26 22.3054 122.846 22.0683 123.62 22.0683C124.34 22.0683 124.926 22.3053 125.353 22.7794C125.753 23.2534 125.966 23.8591 125.966 24.6491ZM122.286 24.6491C122.286 25.8078 122.713 26.3872 123.593 26.3872C124.446 26.3872 124.873 25.8078 124.873 24.6491C124.873 23.5167 124.446 22.9374 123.593 22.9374C123.14 22.9374 122.82 23.0954 122.606 23.3851C122.393 23.6747 122.286 24.0961 122.286 24.6491ZM131.673 27.1772H130.58V24.0961C130.58 23.7011 130.5 23.4114 130.34 23.2271C130.18 23.0427 129.94 22.9374 129.593 22.9374C129.14 22.9374 128.793 23.069 128.606 23.3324C128.42 23.5957 128.286 24.0434 128.286 24.6755V27.1772H127.22V22.1737H128.073L128.233 22.832H128.286C128.446 22.595 128.66 22.4107 128.926 22.279C129.193 22.1473 129.513 22.0947 129.86 22.0947C131.086 22.0947 131.673 22.7004 131.673 23.9381V27.1772ZM135.38 27.2562C134.58 27.2562 133.966 27.0192 133.54 26.5715C133.086 26.1238 132.873 25.4918 132.873 24.7018C132.873 23.8854 133.086 23.2534 133.486 22.7794C133.886 22.3053 134.473 22.0683 135.193 22.0683C135.86 22.0683 136.393 22.279 136.766 22.674C137.166 23.069 137.353 23.6221 137.353 24.3331V24.9125H133.966C133.993 25.3865 134.126 25.7815 134.366 26.0185C134.606 26.2819 134.98 26.4135 135.433 26.4135C135.726 26.4135 136.02 26.3872 136.26 26.3345C136.5 26.2818 136.793 26.1765 137.086 26.0448V26.9139C136.82 27.0455 136.553 27.1246 136.286 27.1772C136.02 27.2299 135.726 27.2562 135.38 27.2562ZM135.166 22.8847C134.82 22.8847 134.553 22.99 134.34 23.2007C134.126 23.4114 134.02 23.7274 133.966 24.1488H136.26C136.26 23.7274 136.153 23.4114 135.966 23.2007C135.78 22.99 135.513 22.8847 135.166 22.8847ZM137.62 22.1737H138.793L139.833 25.0178C139.993 25.4128 140.1 25.8078 140.153 26.1502H140.18C140.206 25.9922 140.26 25.7815 140.34 25.5445C140.42 25.3075 140.793 24.1751 141.513 22.1737H142.686L140.526 27.8356C140.126 28.8626 139.486 29.3893 138.553 29.3893C138.313 29.3893 138.073 29.363 137.86 29.3103V28.4676C138.02 28.4939 138.206 28.5203 138.42 28.5203C138.926 28.5203 139.3 28.2306 139.513 27.6249L139.7 27.1509L137.62 22.1737Z" fill="#1D323E"/>
</svg>
