<svg width="180" height="45" viewBox="0 0 180 45" fill="none" xmlns="http://www.w3.org/2000/svg">
<path d="M61.6015 29.592C60.3764 29.592 59.42 29.2642 58.7594 28.6184C58.0988 27.9726 57.7635 27.026 57.7635 25.8009V18.1891C57.7635 16.964 58.0988 16.0174 58.7594 15.3716C59.42 14.7258 60.3764 14.3979 61.6015 14.3979H64.2193C65.4296 14.3979 66.3811 14.7282 67.0516 15.3839C67.7196 16.0371 68.0597 16.9812 68.0597 18.1891V19.318C68.0597 19.6015 67.9389 19.7223 67.6555 19.7223H65.6391C65.3729 19.7223 65.2595 19.6015 65.2595 19.318V18.3345C65.2595 17.7897 65.1387 17.3929 64.8996 17.1538C64.6605 16.9147 64.2637 16.7939 63.7189 16.7939H62.0871C61.5596 16.7939 61.1701 16.9147 60.931 17.1538C60.6919 17.3929 60.5711 17.7897 60.5711 18.3345V25.6579C60.5711 26.2027 60.6919 26.5996 60.931 26.8387C61.1701 27.0778 61.5596 27.1986 62.0871 27.1986H63.7189C64.2637 27.1986 64.6605 27.0778 64.8996 26.8387C65.1387 26.5996 65.2595 26.2027 65.2595 25.6579V24.6744C65.2595 24.3909 65.3729 24.2702 65.6391 24.2702H67.6555C67.9389 24.2702 68.0597 24.3909 68.0597 24.6744V25.8034C68.0597 27.0112 67.7196 27.9553 67.0516 28.6085C66.3835 29.2617 65.4296 29.5945 64.2193 29.5945H61.6015V29.592Z" fill="#1D323E"/>
<path d="M64.2193 14.5236C65.3951 14.5236 66.3195 14.8441 66.9653 15.4727C67.6086 16.1012 67.9365 17.0157 67.9365 18.1891V19.318C67.9365 19.5349 67.8699 19.599 67.6555 19.599H65.6391C65.4641 19.599 65.3828 19.5571 65.3828 19.318V18.3345C65.3828 17.7478 65.2521 17.3337 64.9859 17.0675C64.7197 16.8013 64.3056 16.6706 63.7189 16.6706H62.0871C61.5251 16.6706 61.106 16.8037 60.8447 17.0675C60.5785 17.3337 60.4479 17.7478 60.4479 18.3345V25.6579C60.4479 26.2446 60.5785 26.6587 60.8447 26.9249C61.1085 27.1887 61.5251 27.3218 62.0871 27.3218H63.7189C64.3056 27.3218 64.7197 27.1912 64.9859 26.9249C65.2521 26.6587 65.3828 26.2446 65.3828 25.6579V24.6744C65.3828 24.4353 65.4666 24.3934 65.6391 24.3934H67.6555C67.8724 24.3934 67.9365 24.46 67.9365 24.6744V25.8034C67.9365 26.9767 67.6111 27.8912 66.9653 28.5198C66.3195 29.1508 65.3976 29.4688 64.2193 29.4688H61.6015C60.4084 29.4688 59.4816 29.1533 58.8432 28.5296C58.2072 27.9085 57.8843 26.9915 57.8843 25.8009V18.1891C57.8843 16.9985 58.2072 16.0815 58.8432 15.4603C59.4816 14.8367 60.4084 14.5212 61.599 14.5212H64.2168M64.2168 14.2747H61.599C60.3345 14.2747 59.3584 14.6099 58.6706 15.2829C57.9829 15.9558 57.6378 16.9245 57.6378 18.1891V25.8009C57.6378 27.0654 57.9829 28.0342 58.6706 28.7071C59.3584 29.3801 60.3345 29.7153 61.599 29.7153H64.2168C65.4666 29.7153 66.4378 29.3751 67.1329 28.6948C67.8305 28.0145 68.1781 27.0507 68.1781 25.8009V24.672C68.1781 24.3195 68.003 24.1444 67.6506 24.1444H65.6342C65.299 24.1444 65.1313 24.3219 65.1313 24.672V25.6555C65.1313 26.1682 65.0229 26.533 64.806 26.7475C64.5891 26.9644 64.2267 27.0728 63.714 27.0728H62.0822C61.5867 27.0728 61.2293 26.9644 61.0148 26.7475C60.8004 26.5305 60.6919 26.1682 60.6919 25.6555V18.332C60.6919 17.8193 60.8004 17.4545 61.0148 17.24C61.2318 17.0231 61.5867 16.9171 62.0822 16.9171H63.714C64.2267 16.9171 64.5891 17.0256 64.806 17.24C65.0229 17.4545 65.1313 17.8193 65.1313 18.332V19.3156C65.1313 19.668 65.299 19.8431 65.6342 19.8431H67.6506C68.003 19.8431 68.1781 19.668 68.1781 19.3156V18.1866C68.1781 16.9369 67.8305 15.973 67.1329 15.2927C66.4378 14.6124 65.4641 14.2722 64.2168 14.2722V14.2747Z" fill="#1D323E"/>
<path d="M74.8803 29.592C73.6552 29.592 72.6988 29.2642 72.0382 28.6184C71.3776 27.9726 71.0424 27.026 71.0424 25.8009V21.3837C71.0424 20.1586 71.3776 19.212 72.0382 18.5662C72.6988 17.9204 73.6552 17.5925 74.8803 17.5925H77.0175C78.2278 17.5925 79.1792 17.9228 79.8497 18.5785C80.5177 19.2318 80.8579 20.1758 80.8579 21.3837V25.8009C80.8579 27.0088 80.5177 27.9528 79.8497 28.6061C79.1817 29.2593 78.2278 29.592 77.0175 29.592H74.8803ZM75.3363 19.9638C74.7842 19.9638 74.4021 20.0772 74.1679 20.3114C73.9338 20.5456 73.8204 20.9277 73.8204 21.4798V25.7048C73.8204 26.2569 73.9338 26.639 74.1679 26.8732C74.4021 27.1073 74.7842 27.2207 75.3363 27.2207H76.5614C77.1111 27.2207 77.4981 27.1073 77.7397 26.8732C77.9788 26.6415 78.1021 26.2495 78.1021 25.7048V21.4798C78.1021 20.935 77.9813 20.5431 77.7397 20.3114C77.5006 20.0822 77.1037 19.9638 76.5614 19.9638H75.3363Z" fill="#1D323E"/>
<path d="M77.015 17.7158C78.1908 17.7158 79.1152 18.0362 79.761 18.6648C80.4043 19.2934 80.7322 20.2079 80.7322 21.3812V25.7984C80.7322 26.9718 80.4068 27.8863 79.761 28.5149C79.1152 29.1459 78.1933 29.4639 77.015 29.4639H74.8779C73.6848 29.4639 72.758 29.1484 72.1195 28.5247C71.4836 27.9035 71.1607 26.9866 71.1607 25.796V21.3787C71.1607 20.1882 71.4836 19.2712 72.1195 18.65C72.7555 18.0264 73.6848 17.7109 74.8754 17.7109H77.0125M75.3314 27.3391H76.5565C77.1407 27.3391 77.5548 27.2133 77.8186 26.957C78.0873 26.6982 78.2179 26.2865 78.2179 25.6998V21.4749C78.2179 20.8882 78.0873 20.4766 77.8186 20.2177C77.5524 19.9614 77.1382 19.8357 76.5565 19.8357H75.3314C74.7448 19.8357 74.3356 19.9614 74.0767 20.2202C73.8179 20.479 73.6922 20.8882 73.6922 21.4749V25.6998C73.6922 26.2865 73.8179 26.6957 74.0767 26.9545C74.3356 27.2133 74.7448 27.3391 75.3314 27.3391ZM77.0125 17.4644H74.8754C73.6109 17.4644 72.6347 17.7996 71.947 18.4725C71.2593 19.1455 70.9142 20.1142 70.9142 21.3787V25.796C70.9142 27.0605 71.2593 28.0293 71.947 28.7022C72.6347 29.3751 73.6109 29.7104 74.8754 29.7104H77.0125C78.2623 29.7104 79.2335 29.3702 79.9286 28.6899C80.6237 28.0095 80.9737 27.0457 80.9737 25.796V21.3787C80.9737 20.1315 80.6262 19.1652 79.9286 18.4849C79.231 17.8045 78.2598 17.4644 77.0125 17.4644ZM75.3314 27.0926C74.8187 27.0926 74.4588 26.989 74.2518 26.7795C74.0447 26.5724 73.9387 26.2126 73.9387 25.6998V21.4749C73.9387 20.9622 74.0422 20.6023 74.2518 20.3952C74.4613 20.1882 74.8187 20.0822 75.3314 20.0822H76.5565C77.0692 20.0822 77.4316 20.1857 77.6485 20.3952C77.8654 20.6023 77.9739 20.9646 77.9739 21.4749V25.6998C77.9739 26.2126 77.8654 26.5724 77.6485 26.7795C77.4316 26.9866 77.0692 27.0926 76.5565 27.0926H75.3314Z" fill="#1D323E"/>
<path d="M84.6047 29.592C84.3384 29.592 84.2226 29.4787 84.2226 29.21V17.9721C84.2226 17.7059 84.3286 17.5925 84.58 17.5925H86.6457C86.9119 17.5925 87.0253 17.7059 87.0253 17.9721V29.21C87.0253 29.4491 86.9735 29.5132 86.9587 29.5255C86.9316 29.5501 86.8577 29.5896 86.6678 29.5896H84.6022L84.6047 29.592ZM84.58 15.7611C84.3261 15.7611 84.2226 15.6575 84.2226 15.4036V13.3158C84.2226 13.0619 84.3261 12.9584 84.58 12.9584H86.6678C86.9217 12.9584 87.0253 13.0545 87.0253 13.2912V15.4036C87.0253 15.6575 86.9217 15.7611 86.6678 15.7611H84.58Z" fill="#1D323E"/>
<path d="M86.6678 13.0816C86.8774 13.0816 86.902 13.1482 86.902 13.2912V15.4036C86.902 15.586 86.8527 15.6378 86.6678 15.6378H84.58C84.3976 15.6378 84.3458 15.5885 84.3458 15.4036V13.3158C84.3458 13.1334 84.3951 13.0816 84.58 13.0816H86.6678ZM86.6432 17.7158C86.8428 17.7158 86.8996 17.7725 86.8996 17.9721V29.21C86.8996 29.3776 86.8724 29.4343 86.8724 29.4343C86.865 29.4392 86.8182 29.4663 86.6654 29.4663H84.5997C84.4001 29.4663 84.3409 29.4096 84.3409 29.2075V17.9697C84.3409 17.7478 84.4099 17.7133 84.5751 17.7133H86.6407M86.6654 12.8327H84.5775C84.2571 12.8327 84.0969 12.9929 84.0969 13.3133V15.4012C84.0969 15.7216 84.2571 15.8818 84.5775 15.8818H86.6654C86.9858 15.8818 87.146 15.7216 87.146 15.4012V13.2887C87.146 12.9855 86.9858 12.8327 86.6654 12.8327ZM84.5751 17.4668C84.2546 17.4668 84.0944 17.6344 84.0944 17.9697V29.2075C84.0944 29.5427 84.262 29.7128 84.5997 29.7128H86.6654C86.8404 29.7128 86.9661 29.6808 87.0376 29.6167C87.1091 29.5526 87.146 29.417 87.146 29.2075V17.9697C87.146 17.6344 86.9784 17.4668 86.6432 17.4668H84.5751Z" fill="#1D323E"/>
<path d="M98.0018 29.592C97.7356 29.592 97.6197 29.4787 97.6197 29.21V21.5266C97.6197 20.9819 97.499 20.585 97.2598 20.3459C97.0207 20.1068 96.6239 19.986 96.0791 19.986H95.2139C94.0332 19.986 93.4342 20.6417 93.4342 21.9334V29.2075C93.4342 29.4737 93.3208 29.5896 93.0546 29.5896H91.0136C90.7474 29.5896 90.634 29.4762 90.634 29.2075V17.9697C90.634 17.7035 90.7474 17.5901 91.0136 17.5901H93.0546C93.3208 17.5901 93.4342 17.7035 93.4342 17.9697V18.8842H93.7374L93.7694 18.8078C94.1047 17.9869 94.8368 17.5876 96.0076 17.5876H96.7767C99.2294 17.5876 100.422 18.8275 100.422 21.3787V29.205C100.422 29.4713 100.302 29.5871 100.018 29.5871H98.0018V29.592Z" fill="#1D323E"/>
<path d="M96.7767 17.7158C99.148 17.7158 100.299 18.9162 100.299 21.3837V29.21C100.299 29.385 100.257 29.4688 100.018 29.4688H98.0018C97.8021 29.4688 97.743 29.4121 97.743 29.21V21.5266C97.743 20.94 97.6124 20.5259 97.3461 20.2596C97.0799 19.9934 96.6658 19.8628 96.0791 19.8628H95.2139C94.3463 19.8628 93.311 20.2227 93.311 21.9334V29.2075C93.311 29.4072 93.2543 29.4663 93.0546 29.4663H91.0136C90.8139 29.4663 90.7572 29.4096 90.7572 29.2075V17.9697C90.7572 17.77 90.8139 17.7133 91.0136 17.7133H93.0546C93.2543 17.7133 93.311 17.77 93.311 17.9697V19.0074H93.8187L93.8804 18.8546C94.1934 18.0855 94.8885 17.7109 96.0052 17.7109H96.7743M96.7743 17.4644H96.0052C94.7875 17.4644 94.0036 17.8957 93.6511 18.7609H93.555V17.9697C93.555 17.6344 93.3874 17.4668 93.0521 17.4668H91.0111C90.6759 17.4668 90.5083 17.6344 90.5083 17.9697V29.2075C90.5083 29.5427 90.6759 29.7128 91.0111 29.7128H93.0521C93.3874 29.7128 93.555 29.5452 93.555 29.2075V21.9334C93.555 20.7181 94.1071 20.1093 95.2115 20.1093H96.0767C96.5894 20.1093 96.9542 20.2177 97.1686 20.4322C97.3856 20.6491 97.4916 21.0115 97.4916 21.5242V29.2075C97.4916 29.5427 97.6592 29.7128 97.9969 29.7128H100.013C100.366 29.7128 100.541 29.5452 100.541 29.2075V21.3812C100.541 18.7733 99.2836 17.4668 96.7718 17.4668L96.7743 17.4644Z" fill="#1D323E"/>
<path d="M110.295 29.592C110.028 29.592 109.913 29.4787 109.913 29.21V14.78C109.913 14.5138 110.026 14.4004 110.295 14.4004H118.146C118.395 14.4004 118.503 14.5138 118.503 14.78V16.4118C118.503 16.678 118.397 16.7939 118.146 16.7939H113.127C112.866 16.7939 112.715 16.9344 112.715 17.1809V20.3015C112.715 20.548 112.866 20.6885 113.127 20.6885H117.234C117.5 20.6885 117.616 20.8019 117.616 21.0706V22.7024C117.616 22.9687 117.502 23.0845 117.234 23.0845H113.127C112.866 23.0845 112.715 23.225 112.715 23.4715V26.8091C112.715 27.0556 112.866 27.1961 113.127 27.1961H118.146C118.395 27.1961 118.503 27.3095 118.503 27.5782V29.21C118.503 29.4762 118.397 29.592 118.146 29.592H110.295Z" fill="#1D323E"/>
<path d="M118.146 14.5236C118.308 14.5236 118.38 14.5606 118.38 14.78V16.4118C118.38 16.6312 118.308 16.6706 118.146 16.6706H113.127C112.797 16.6706 112.592 16.8654 112.592 17.1809V20.3015C112.592 20.6171 112.797 20.8118 113.127 20.8118H117.234C117.433 20.8118 117.492 20.8685 117.492 21.0706V22.7024C117.492 22.9021 117.436 22.9613 117.234 22.9613H113.127C112.797 22.9613 112.592 23.156 112.592 23.4715V26.8091C112.592 27.1246 112.797 27.3193 113.127 27.3193H118.146C118.308 27.3193 118.38 27.3563 118.38 27.5782V29.21C118.38 29.4294 118.308 29.4688 118.146 29.4688H110.295C110.095 29.4688 110.036 29.4121 110.036 29.21V14.78C110.036 14.5803 110.093 14.5236 110.295 14.5236H118.146ZM118.146 14.2771H110.295C109.959 14.2771 109.789 14.4448 109.789 14.78V29.21C109.789 29.5452 109.957 29.7153 110.295 29.7153H118.146C118.466 29.7153 118.626 29.5477 118.626 29.21V27.5782C118.626 27.2429 118.466 27.0728 118.146 27.0728H113.127C112.935 27.0728 112.838 26.9841 112.838 26.8091V23.4715C112.838 23.2965 112.935 23.2078 113.127 23.2078H117.234C117.569 23.2078 117.739 23.0401 117.739 22.7024V21.0706C117.739 20.7354 117.571 20.5653 117.234 20.5653H113.127C112.935 20.5653 112.838 20.4766 112.838 20.3015V17.1809C112.838 17.0059 112.935 16.9171 113.127 16.9171H118.146C118.466 16.9171 118.626 16.7495 118.626 16.4118V14.78C118.626 14.4448 118.466 14.2771 118.146 14.2771Z" fill="#1D323E"/>
<path d="M129.095 29.592C128.829 29.592 128.713 29.4787 128.713 29.21V28.2955H128.41L128.378 28.3719C128.215 28.7737 127.919 29.0793 127.503 29.279C127.074 29.4861 126.615 29.592 126.14 29.592H125.156C123.965 29.592 123.053 29.2667 122.449 28.6233C121.843 27.9775 121.535 27.0285 121.535 25.8034V21.3861C121.535 20.1586 121.843 19.2096 122.449 18.5662C123.053 17.9228 123.965 17.5975 125.156 17.5975H126.14C126.615 17.5975 127.074 17.7035 127.503 17.9081C127.919 18.1102 128.215 18.4158 128.378 18.8152L128.41 18.8916H128.713V13.3429C128.713 13.0767 128.826 12.9608 129.095 12.9608H131.136C131.402 12.9608 131.518 13.0742 131.518 13.3429V29.21C131.518 29.4762 131.405 29.592 131.136 29.592H129.095ZM125.854 19.9885C125.309 19.9885 124.914 20.1093 124.685 20.3508C124.451 20.5924 124.338 20.9794 124.338 21.5291V25.6579C124.338 26.2076 124.451 26.5946 124.685 26.8362C124.917 27.0753 125.309 27.1986 125.854 27.1986H126.933C128.114 27.1986 128.713 26.5429 128.713 25.2512V21.9383C128.713 20.6466 128.114 19.991 126.933 19.991H125.854V19.9885Z" fill="#1D323E"/>
<path d="M131.136 13.0816C131.336 13.0816 131.395 13.1383 131.395 13.3405V29.21C131.395 29.4096 131.338 29.4688 131.136 29.4688H129.095C128.895 29.4688 128.836 29.4121 128.836 29.21V28.1722H128.328L128.267 28.3251C128.114 28.7022 127.845 28.9783 127.451 29.1681C127.039 29.3677 126.598 29.4688 126.142 29.4688H125.158C124.002 29.4688 123.122 29.1557 122.541 28.537C121.956 27.9159 121.658 26.994 121.658 25.8009V21.3837C121.658 20.1906 121.954 19.2687 122.541 18.6476C123.122 18.0288 124.002 17.7158 125.158 17.7158H126.142C126.598 17.7158 127.039 17.8169 127.451 18.0165C127.845 18.2063 128.111 18.4824 128.267 18.8595L128.328 19.0124H128.836V13.3405C128.836 13.1408 128.893 13.0816 129.095 13.0816H131.136ZM125.854 27.3193H126.933C127.801 27.3193 128.836 26.9595 128.836 25.2488V21.9358C128.836 20.2251 127.801 19.8652 126.933 19.8652H125.854C125.264 19.8652 124.855 19.9959 124.596 20.2646C124.34 20.5308 124.214 20.9449 124.214 21.5291V25.6579C124.214 26.2421 124.34 26.6563 124.596 26.92C124.855 27.1887 125.267 27.3193 125.854 27.3193ZM131.136 12.8351H129.095C128.76 12.8351 128.59 13.0028 128.59 13.3405V18.7659H128.494C128.319 18.3345 128.005 18.0091 127.557 17.7922C127.108 17.5753 126.637 17.4693 126.14 17.4693H125.156C123.923 17.4693 122.992 17.8045 122.358 18.4775C121.725 19.1504 121.409 20.1191 121.409 21.3837V25.8009C121.409 27.0654 121.725 28.0342 122.358 28.7071C122.989 29.3801 123.923 29.7153 125.156 29.7153H126.14C126.635 29.7153 127.108 29.6068 127.557 29.3899C128.005 29.173 128.316 28.8501 128.494 28.4187H128.59V29.21C128.59 29.5452 128.757 29.7153 129.095 29.7153H131.136C131.471 29.7153 131.641 29.5477 131.641 29.21V13.3405C131.641 13.0052 131.474 12.8351 131.136 12.8351ZM125.854 27.0728C125.341 27.0728 124.981 26.9644 124.774 26.7475C124.567 26.5305 124.461 26.1682 124.461 25.6555V21.5266C124.461 21.0139 124.564 20.6491 124.774 20.4347C124.981 20.2177 125.341 20.1117 125.854 20.1117H126.933C128.038 20.1117 128.59 20.7206 128.59 21.9358V25.2488C128.59 26.4665 128.038 27.0728 126.933 27.0728H125.854Z" fill="#1D323E"/>
<path d="M135.506 29.592C135.24 29.592 135.124 29.4787 135.124 29.21V17.9721C135.124 17.7059 135.23 17.5925 135.482 17.5925H137.547C137.814 17.5925 137.927 17.7059 137.927 17.9721V29.21C137.927 29.4491 137.875 29.5132 137.86 29.5255C137.833 29.5501 137.759 29.5896 137.57 29.5896H135.504L135.506 29.592ZM135.482 15.7611C135.228 15.7611 135.124 15.6575 135.124 15.4036V13.3158C135.124 13.0619 135.228 12.9584 135.482 12.9584H137.57C137.824 12.9584 137.927 13.0545 137.927 13.2912V15.4036C137.927 15.6575 137.824 15.7611 137.57 15.7611H135.482Z" fill="#1D323E"/>
<path d="M137.57 13.0816C137.779 13.0816 137.804 13.1482 137.804 13.2912V15.4036C137.804 15.586 137.754 15.6378 137.57 15.6378H135.482C135.299 15.6378 135.248 15.5885 135.248 15.4036V13.3158C135.248 13.1334 135.297 13.0816 135.482 13.0816H137.57ZM137.545 17.7158C137.745 17.7158 137.801 17.7725 137.801 17.9721V29.21C137.801 29.3776 137.774 29.4343 137.774 29.4343C137.767 29.4392 137.72 29.4663 137.567 29.4663H135.502C135.302 29.4663 135.243 29.4096 135.243 29.2075V17.9697C135.243 17.7478 135.312 17.7133 135.477 17.7133H137.543M137.567 12.8327H135.479C135.159 12.8327 134.999 12.9929 134.999 13.3133V15.4012C134.999 15.7216 135.159 15.8818 135.479 15.8818H137.567C137.888 15.8818 138.048 15.7216 138.048 15.4012V13.2887C138.048 12.9855 137.888 12.8327 137.567 12.8327ZM135.477 17.4668C135.156 17.4668 134.996 17.6344 134.996 17.9697V29.2075C134.996 29.5427 135.164 29.7128 135.502 29.7128H137.567C137.742 29.7128 137.868 29.6808 137.939 29.6167C138.011 29.5526 138.048 29.417 138.048 29.2075V17.9697C138.048 17.6344 137.88 17.4668 137.545 17.4668H135.477Z" fill="#1D323E"/>
<path d="M145.926 29.592C144.701 29.592 143.739 29.2642 143.071 28.6184C142.403 27.9726 142.066 27.0334 142.066 25.8256V20.3755C142.066 20.1339 141.92 19.9885 141.679 19.9885H140.717C140.508 19.9885 140.429 19.9466 140.402 19.9244C140.382 19.9072 140.335 19.8431 140.335 19.6335V17.9771C140.335 17.7109 140.449 17.5975 140.717 17.5975H141.679C141.92 17.5975 142.066 17.452 142.066 17.2105V14.9304C142.066 14.6641 142.187 14.5483 142.47 14.5483H144.486C144.753 14.5483 144.868 14.6617 144.868 14.9304V17.2105C144.868 17.457 145.019 17.5975 145.28 17.5975H147.153C147.42 17.5975 147.533 17.7109 147.533 17.9771V19.6335C147.533 19.774 147.508 19.8726 147.462 19.9195C147.434 19.9466 147.358 19.991 147.153 19.991H145.28C145.019 19.991 144.868 20.1315 144.868 20.378V25.6851C144.868 26.215 144.994 26.6045 145.243 26.8411C145.49 27.0802 145.889 27.201 146.434 27.201H147.395C147.661 27.201 147.777 27.3144 147.777 27.5831V29.2396C147.777 29.3801 147.752 29.4762 147.706 29.5255C147.678 29.5526 147.602 29.597 147.397 29.597H145.933L145.926 29.592Z" fill="#1D323E"/>
<path d="M144.486 14.6666C144.686 14.6666 144.745 14.7233 144.745 14.9254V17.2055C144.745 17.5211 144.95 17.7158 145.28 17.7158H147.153C147.353 17.7158 147.41 17.7725 147.41 17.9721V19.6286C147.41 19.7864 147.375 19.8258 147.375 19.8258C147.375 19.8258 147.331 19.8628 147.153 19.8628H145.28C144.95 19.8628 144.745 20.0575 144.745 20.373V25.6801C144.745 26.2446 144.883 26.6637 145.157 26.9249C145.43 27.1887 145.849 27.3193 146.431 27.3193H147.393C147.592 27.3193 147.651 27.376 147.651 27.5782V29.2346C147.651 29.3677 147.624 29.422 147.617 29.4318C147.617 29.4318 147.572 29.4688 147.395 29.4688H145.931C144.738 29.4688 143.806 29.1533 143.16 28.5296C142.517 27.9085 142.191 26.9989 142.191 25.8256V20.3755C142.191 20.0649 141.992 19.8652 141.681 19.8652H140.72C140.55 19.8652 140.496 19.8357 140.493 19.8357C140.493 19.8357 140.464 19.7814 140.464 19.6311V17.9746C140.464 17.7749 140.52 17.7183 140.722 17.7183H141.684C141.994 17.7183 142.194 17.5186 142.194 17.208V14.9279C142.194 14.7529 142.236 14.6691 142.475 14.6691H144.491M144.491 14.4226H142.475C142.122 14.4226 141.947 14.5902 141.947 14.9279V17.208C141.947 17.3855 141.859 17.4718 141.684 17.4718H140.722C140.387 17.4718 140.217 17.6394 140.217 17.9746V19.6311C140.217 19.8233 140.254 19.9515 140.325 20.0156C140.397 20.0797 140.53 20.1117 140.722 20.1117H141.684C141.859 20.1117 141.947 20.2005 141.947 20.3755V25.8256C141.947 27.0753 142.295 28.0342 142.993 28.7071C143.69 29.3801 144.669 29.7153 145.933 29.7153H147.397C147.59 29.7153 147.723 29.6783 147.794 29.6068C147.866 29.5354 147.903 29.4121 147.903 29.2346V27.5782C147.903 27.2429 147.735 27.0728 147.397 27.0728H146.436C145.923 27.0728 145.556 26.9644 145.332 26.7475C145.108 26.5305 144.997 26.1756 144.997 25.6801V20.373C144.997 20.198 145.093 20.1093 145.285 20.1093H147.158C147.351 20.1093 147.481 20.0723 147.555 20.0008C147.627 19.9293 147.664 19.8061 147.664 19.6286V17.9721C147.664 17.6369 147.496 17.4693 147.161 17.4693H145.287C145.095 17.4693 144.999 17.3806 144.999 17.2055V14.9254C144.999 14.5902 144.831 14.4201 144.494 14.4201L144.491 14.4226Z" fill="#1D323E"/>
<path d="M151.112 29.592C150.846 29.592 150.73 29.4787 150.73 29.21V17.9721C150.73 17.7059 150.836 17.5925 151.088 17.5925H153.153C153.419 17.5925 153.533 17.7059 153.533 17.9721V29.21C153.533 29.4491 153.481 29.5132 153.466 29.5255C153.439 29.5501 153.365 29.5896 153.175 29.5896H151.11L151.112 29.592ZM151.088 15.7611C150.834 15.7611 150.73 15.6575 150.73 15.4036V13.3158C150.73 13.0619 150.834 12.9584 151.088 12.9584H153.175C153.429 12.9584 153.533 13.0545 153.533 13.2912V15.4036C153.533 15.6575 153.429 15.7611 153.175 15.7611H151.088Z" fill="#1D323E"/>
<path d="M153.178 13.0816C153.387 13.0816 153.412 13.1482 153.412 13.2912V15.4036C153.412 15.586 153.363 15.6378 153.178 15.6378H151.09C150.908 15.6378 150.856 15.5885 150.856 15.4036V13.3158C150.856 13.1334 150.905 13.0816 151.09 13.0816H153.178ZM153.153 17.7158C153.353 17.7158 153.41 17.7725 153.41 17.9721V29.21C153.41 29.3776 153.382 29.4343 153.382 29.4343C153.375 29.4392 153.328 29.4663 153.175 29.4663H151.11C150.91 29.4663 150.851 29.4096 150.851 29.2075V17.9697C150.851 17.7478 150.92 17.7133 151.085 17.7133H153.151M153.175 12.8327H151.088C150.767 12.8327 150.607 12.9929 150.607 13.3133V15.4012C150.607 15.7216 150.767 15.8818 151.088 15.8818H153.175C153.496 15.8818 153.656 15.7216 153.656 15.4012V13.2887C153.656 12.9855 153.496 12.8327 153.175 12.8327ZM151.085 17.4668C150.765 17.4668 150.604 17.6344 150.604 17.9697V29.2075C150.604 29.5427 150.772 29.7128 151.11 29.7128H153.175C153.35 29.7128 153.476 29.6808 153.548 29.6167C153.619 29.5526 153.656 29.417 153.656 29.2075V17.9697C153.656 17.6344 153.488 17.4668 153.153 17.4668H151.085Z" fill="#1D323E"/>
<path d="M160.74 29.592C159.515 29.592 158.559 29.2642 157.898 28.6184C157.238 27.9726 156.902 27.026 156.902 25.8009V21.3837C156.902 20.1586 157.238 19.212 157.898 18.5662C158.559 17.9204 159.515 17.5925 160.74 17.5925H162.878C164.088 17.5925 165.039 17.9228 165.71 18.5785C166.378 19.2318 166.718 20.1758 166.718 21.3837V25.8009C166.718 27.0088 166.378 27.9528 165.71 28.6061C165.042 29.2593 164.088 29.592 162.878 29.592H160.74ZM161.196 19.9638C160.644 19.9638 160.262 20.0772 160.028 20.3114C159.794 20.5456 159.68 20.9277 159.68 21.4798V25.7048C159.68 26.2569 159.794 26.639 160.028 26.8732C160.262 27.1073 160.644 27.2207 161.196 27.2207H162.422C162.971 27.2207 163.358 27.1073 163.6 26.8732C163.839 26.6415 163.962 26.2495 163.962 25.7048V21.4798C163.962 20.935 163.841 20.5431 163.6 20.3114C163.361 20.0822 162.964 19.9638 162.422 19.9638H161.196Z" fill="#1D323E"/>
<path d="M162.878 17.7158C164.053 17.7158 164.978 18.0362 165.624 18.6648C166.267 19.2934 166.595 20.2079 166.595 21.3812V25.7984C166.595 26.9718 166.269 27.8863 165.624 28.5149C164.978 29.1459 164.056 29.4639 162.878 29.4639H160.74C159.547 29.4639 158.62 29.1484 157.982 28.5247C157.346 27.9035 157.023 26.9866 157.023 25.796V21.3787C157.023 20.1882 157.346 19.2712 157.982 18.65C158.62 18.0264 159.547 17.7109 160.738 17.7109H162.875M161.194 27.3391H162.419C163.003 27.3391 163.417 27.2133 163.684 26.957C163.952 26.6982 164.083 26.2865 164.083 25.6998V21.4749C164.083 20.8882 163.952 20.4766 163.684 20.2177C163.417 19.9614 163.003 19.8357 162.419 19.8357H161.194C160.607 19.8357 160.198 19.9614 159.939 20.2202C159.68 20.479 159.555 20.8882 159.555 21.4749V25.6998C159.555 26.2865 159.68 26.6957 159.939 26.9545C160.198 27.2133 160.607 27.3391 161.194 27.3391ZM162.875 17.4644H160.738C159.473 17.4644 158.497 17.7996 157.81 18.4725C157.122 19.1455 156.777 20.1142 156.777 21.3787V25.796C156.777 27.0605 157.122 28.0293 157.81 28.7022C158.497 29.3751 159.473 29.7104 160.738 29.7104H162.875C164.125 29.7104 165.096 29.3702 165.791 28.6899C166.489 28.0095 166.836 27.0457 166.836 25.796V21.3787C166.836 20.1315 166.489 19.1652 165.791 18.4849C165.096 17.8045 164.122 17.4644 162.875 17.4644ZM161.194 27.0926C160.681 27.0926 160.321 26.989 160.114 26.7795C159.907 26.5724 159.801 26.2126 159.801 25.6998V21.4749C159.801 20.9622 159.905 20.6023 160.114 20.3952C160.321 20.1882 160.681 20.0822 161.194 20.0822H162.419C162.932 20.0822 163.297 20.1857 163.511 20.3952C163.728 20.6023 163.834 20.9646 163.834 21.4749V25.6998C163.834 26.2126 163.725 26.5724 163.511 26.7795C163.294 26.9866 162.932 27.0926 162.419 27.0926H161.194Z" fill="#1D323E"/>
<path d="M177.332 29.592C177.066 29.592 176.95 29.4787 176.95 29.21V21.5266C176.95 20.9819 176.829 20.585 176.59 20.3459C176.351 20.1068 175.954 19.986 175.409 19.986H174.544C173.364 19.986 172.765 20.6417 172.765 21.9334V29.2075C172.765 29.4737 172.651 29.5896 172.382 29.5896H170.341C170.075 29.5896 169.959 29.4762 169.959 29.2075V17.9697C169.959 17.7035 170.073 17.5901 170.341 17.5901H172.382C172.649 17.5901 172.765 17.7035 172.765 17.9697V18.8842H173.068L173.1 18.8078C173.435 17.9869 174.167 17.5876 175.338 17.5876H176.107C178.56 17.5876 179.753 18.8275 179.753 21.3787V29.205C179.753 29.4713 179.632 29.5871 179.349 29.5871H177.332V29.592Z" fill="#1D323E"/>
<path d="M176.107 17.7158C178.478 17.7158 179.63 18.9162 179.63 21.3837V29.21C179.63 29.385 179.588 29.4688 179.349 29.4688H177.332C177.132 29.4688 177.073 29.4121 177.073 29.21V21.5266C177.073 20.94 176.943 20.5259 176.676 20.2596C176.41 19.9934 175.996 19.8628 175.409 19.8628H174.544C173.677 19.8628 172.641 20.2227 172.641 21.9334V29.2075C172.641 29.4072 172.585 29.4663 172.382 29.4663H170.341C170.142 29.4663 170.083 29.4096 170.083 29.2075V17.9697C170.083 17.77 170.139 17.7133 170.341 17.7133H172.382C172.582 17.7133 172.641 17.77 172.641 17.9697V19.0074H173.149L173.211 18.8546C173.524 18.0855 174.219 17.7109 175.336 17.7109H176.105M176.105 17.4644H175.336C174.118 17.4644 173.334 17.8957 172.981 18.7609H172.885V17.9697C172.885 17.6344 172.718 17.4668 172.38 17.4668H170.339C170.004 17.4668 169.834 17.6344 169.834 17.9697V29.2075C169.834 29.5427 170.001 29.7128 170.339 29.7128H172.38C172.715 29.7128 172.885 29.5452 172.885 29.2075V21.9334C172.885 20.7181 173.438 20.1093 174.542 20.1093H175.407C175.92 20.1093 176.285 20.2177 176.499 20.4322C176.713 20.6466 176.824 21.0115 176.824 21.5242V29.2075C176.824 29.5427 176.992 29.7128 177.33 29.7128H179.346C179.699 29.7128 179.874 29.5452 179.874 29.2075V21.3812C179.874 18.7733 178.616 17.4668 176.105 17.4668V17.4644Z" fill="#1D323E"/>
<path d="M31.6274 44.6703C33.4736 43.6424 40.8908 39.1512 44.4699 31.532V42.7476C44.4699 43.8889 43.5431 44.8157 42.4018 44.8157L31.6274 44.6703Z" fill="#1D323E"/>
<path d="M44.3467 32.0694V42.7476C44.3467 43.8199 43.4741 44.6925 42.4018 44.6925H42.3747L32.0809 44.5545C34.3758 43.2209 40.8982 38.9738 44.3467 32.0694ZM44.5932 30.9626C40.6073 40.0608 31.1492 44.7886 31.1492 44.7886L42.3697 44.939C42.3697 44.939 42.3895 44.939 42.3993 44.939C43.6072 44.939 44.5907 43.9579 44.5907 42.7476V30.9626H44.5932Z" fill="#1D323E"/>
<path d="M44.4181 13.3355C43.3902 11.4893 38.8991 4.07214 31.2798 0.492995H42.4955C43.0525 0.492995 43.5751 0.712378 43.9671 1.10924C44.359 1.5061 44.571 2.03361 44.5636 2.59069L44.4206 13.3355H44.4181Z" fill="#1D323E"/>
<path d="M42.493 0.616244C43.018 0.616244 43.5086 0.820837 43.8783 1.19551C44.2481 1.57019 44.4453 2.06319 44.4379 2.58823L44.2998 12.882C42.9663 10.5871 38.7191 4.06475 31.8147 0.616244H42.493ZM42.493 0.369747H30.7079C39.8062 4.35561 44.534 13.8137 44.534 13.8137L44.6844 2.59316C44.7016 1.37053 43.7156 0.372212 42.493 0.372212V0.369747Z" fill="#1D323E"/>
<path d="M35.4604 28.1796C34.5656 27.1468 31.0382 23.3754 26.5766 22.5743C32.0193 21.3294 34.7012 17.9155 35.4604 16.7816V28.1796Z" fill="#1D323E"/>
<path d="M35.3372 17.1735V27.8493C34.2255 26.5996 31.127 23.4912 27.1387 22.5669C31.832 21.3319 34.3709 18.4972 35.3372 17.176M35.5837 16.3551C35.5837 16.3551 32.9338 21.2826 25.8593 22.5989C31.371 23.1757 35.5837 28.5198 35.5837 28.5198V16.3551Z" fill="#1D323E"/>
<path d="M20.779 44.8601C19.9532 44.7492 15.5089 44.0491 10.9906 41.3623C6.40081 38.6311 0.788054 33.2254 0.13237 22.9834C0.0411663 20.7798 0.68206 15.273 3.75342 10.2247C7.42377 4.19785 13.4186 0.709913 21.097 0.133109V10.1779C20.1455 10.3677 12.97 12.0316 11.2396 19.5793C10.7047 21.9136 10.8082 24.3441 11.5378 26.602C13.6873 33.2501 19.8916 34.6379 20.7815 34.803V44.8601H20.779Z" fill="#1D323E"/>
<path d="M20.9737 0.266217V10.0768C20.3969 10.1951 18.7158 10.6093 16.8572 11.7111C14.7768 12.9436 12.0924 15.305 11.1188 19.5522C10.5789 21.9087 10.6825 24.3614 11.4195 26.6415C12.6372 30.4055 15.1391 32.4637 17.0224 33.5261C18.6764 34.4579 20.1258 34.8055 20.6558 34.909V44.7196C19.5613 44.5594 15.3363 43.8076 11.0448 41.2539C8.14108 39.5234 5.77224 37.3173 4.00978 34.697C1.80609 31.4186 0.544021 27.4746 0.255619 22.981C0.164415 20.7872 0.802844 15.3124 3.85942 10.2888C5.53067 7.54283 7.68506 5.31449 10.2585 3.66296C13.2682 1.73534 16.872 0.591594 20.9737 0.266217ZM21.2202 0C2.84384 1.29658 -0.193007 18.1348 0.00912158 22.9908C1.28844 42.9325 20.9047 45.0006 20.9047 45.0006V34.7019C20.9047 34.7019 13.9634 33.7061 11.6561 26.5651C10.929 24.3195 10.8328 21.9087 11.3603 19.6064C13.2066 11.5484 21.2202 10.2814 21.2202 10.2814V0Z" fill="#1D323E"/>
</svg>
