<svg width="161" height="31" viewBox="0 0 161 31" fill="none" xmlns="http://www.w3.org/2000/svg">
<path d="M14.9414 15.5019C14.9414 16.3469 15.6075 17.0071 16.4601 17.0071C17.3127 17.0071 17.9788 16.3469 17.9788 15.5019C17.9788 14.6568 17.3127 13.9966 16.4601 13.9966C15.6075 14.023 14.9414 14.6832 14.9414 15.5019ZM27.6774 14.023C26.8248 14.023 26.1587 14.6832 26.1587 15.5283C26.1587 16.3733 26.8248 17.0335 27.6774 17.0335C28.53 17.0335 29.1961 16.3733 29.1961 15.5283C29.1961 14.6832 28.53 14.023 27.6774 14.023ZM27.6774 25.3257C26.8248 25.3257 26.1587 25.9859 26.1587 26.831C26.1587 27.676 26.8248 28.3362 27.6774 28.3362C28.53 28.3362 29.1961 27.676 29.1961 26.831C29.1961 25.9859 28.53 25.3257 27.6774 25.3257Z" fill="#1D323E"/>
<path d="M30.9013 1.5849C29.3826 -0.2901 26.6648 -0.369299 25.0662 1.1095L24.8796 1.2944L24.5066 1.5849C22.9879 2.7997 20.7231 2.694 19.311 1.2944V1.1888C18.8314 0.713401 18.1919 0.343699 17.5258 0.158899C17.4192 0.158899 17.2327 0.0531998 17.1528 0.0531998H15.634C15.5274 0.0531998 15.4475 0.0531993 15.3409 0.158899H15.1544C15.0478 0.158899 14.9679 0.2645 14.8613 0.2645C14.8613 0.2645 14.7548 0.2645 14.7548 0.3701C14.6482 0.3701 14.5682 0.4758 14.4617 0.4758C14.4617 0.4758 14.3551 0.4758 14.3551 0.5814C14.2485 0.687 14.1686 0.686999 14.062 0.766199C14.062 0.766199 13.9554 0.766201 13.9554 0.871901C13.8488 0.977501 13.7689 0.9775 13.6623 1.0567L13.5558 1.1624L13.3692 1.3472L12.9962 1.6377C11.4775 2.8525 9.21275 2.7469 7.90715 1.3472C7.90715 1.3472 7.80065 1.3472 7.80065 1.2416L7.61405 1.0567C7.05455 0.5814 6.38845 0.211701 5.64245 0.132401H3.93715C3.93715 0.238101 3.83055 0.238101 3.75065 0.317301H3.72405C3.24445 0.502201 2.79145 0.687 2.39175 1.0567L1.99215 1.4529C1.61905 1.8226 1.43255 2.2979 1.24605 2.6676C1.24605 2.7733 1.13945 2.8525 1.13945 2.9581C1.13945 3.0638 1.03295 3.143 1.03295 3.3278C0.926347 3.988 0.926347 4.6482 1.13945 5.282C1.13945 5.3877 1.24605 5.4669 1.24605 5.5725V5.6782C1.24605 5.7838 1.35265 5.863 1.35265 5.9687C1.45925 6.0743 1.45925 6.1535 1.53915 6.3384C1.72565 6.444 1.91215 6.6289 2.01875 6.7081L2.39175 7.0778C3.80395 8.4774 3.80395 10.907 2.28525 12.4122C2.09865 12.5971 1.80565 12.8876 1.72565 13.0725C1.61905 13.1781 1.61905 13.2573 1.53915 13.4422V13.5478C1.43255 13.6534 1.43255 13.7327 1.35265 13.8383V13.9439C1.35265 14.0496 1.24605 14.1288 1.24605 14.2344V14.34C1.24605 14.4457 1.24605 14.5249 1.13945 14.6305V16.0302C1.13945 16.1358 1.13945 16.215 1.24605 16.3207V16.4263C1.43255 17.0865 1.80565 17.7467 2.36515 18.3013C3.88385 19.8065 3.88385 22.2361 2.36515 23.715L2.07205 24.0054V24.1111C1.96545 24.2167 1.88555 24.2959 1.88555 24.4016C1.88555 24.4016 1.88555 24.5072 1.77895 24.5072C1.67235 24.6128 1.67235 24.6921 1.59245 24.7977L1.48585 24.9033C1.48585 25.009 1.37925 25.0089 1.37925 25.0882C1.37925 25.1674 1.27275 25.1938 1.27275 25.273C1.27275 25.3787 1.27275 25.3787 1.16615 25.4579C0.979647 25.8276 0.873047 26.3029 0.873047 26.6727V27.4121C0.979647 27.7026 0.979647 27.9667 1.16615 28.1515C1.16615 28.2572 1.27275 28.3364 1.27275 28.3364C1.27275 28.3364 1.27275 28.442 1.37925 28.442C1.37925 28.5476 1.48585 28.6269 1.48585 28.7325C1.48585 28.7325 1.48585 28.8381 1.59245 28.8381C1.69905 29.023 1.77895 29.1286 1.88555 29.2078C1.88555 29.2078 1.88555 29.3135 1.99215 29.3135C1.99215 29.3135 1.99215 29.4191 2.09865 29.4191C2.09865 29.5248 2.20525 29.5248 2.20525 29.5248L2.31185 29.6304C2.41845 29.736 2.49835 29.736 2.49835 29.8152L2.60495 29.9209C2.60495 29.9209 2.71155 29.9209 2.71155 30.0265C2.81805 30.1321 2.89805 30.2114 3.00465 30.2114C3.00465 30.2114 3.11115 30.2114 3.11115 30.317C3.21775 30.4226 3.29765 30.4226 3.40425 30.5018H3.45755C3.56415 30.6075 3.64405 30.6075 3.83055 30.6075C3.93715 30.6075 4.12365 30.7131 4.20365 30.7131H4.31015C4.41675 30.7131 4.49665 30.7131 4.60325 30.8187H5.45585C5.74895 30.8187 5.93545 30.7131 6.20195 30.7131H6.30855C6.41505 30.7131 6.49505 30.6075 6.60165 30.6075H6.65485C6.76145 30.6075 6.84145 30.5018 6.94795 30.5018H7.05455C7.24105 30.3962 7.53415 30.2114 7.72065 30.1321L8.12035 29.736C9.63905 28.1515 12.0903 28.1515 13.5824 29.736C15.2876 31.5054 18.112 31.4261 19.7106 29.4455C20.8297 28.0459 20.8297 25.9861 19.7106 24.4808C18.1919 22.6058 15.4742 22.5266 13.8755 24.0054L13.689 24.1903L13.316 24.4808C11.7972 25.6956 9.53245 25.5899 8.12035 24.1903L7.93385 24.0054L7.64075 23.6357C6.41505 22.1305 6.52165 19.8858 7.93385 18.4861C8.78645 17.7467 9.15945 16.7168 9.15945 15.6869V15.3964C9.15945 14.4721 8.78645 13.5214 8.04045 12.8612C8.04045 12.7556 7.93385 12.7556 7.93385 12.6763L7.64075 12.3066C6.41505 10.8013 6.52165 8.5567 7.93385 7.157L8.14695 6.9458C9.66575 5.3613 12.117 5.3613 13.609 6.9458L14.0087 7.3419C14.1153 7.3419 14.1153 7.4475 14.1952 7.4475C14.2752 7.4475 14.3018 7.5531 14.3817 7.5531C14.4617 7.5531 14.4883 7.6588 14.5682 7.6588C14.6482 7.6588 14.6748 7.7644 14.7548 7.7644C14.8347 7.7644 14.8613 7.87 14.9413 7.87C15.0212 7.87 15.0478 7.9757 15.1278 7.9757C15.2077 7.9757 15.2344 7.9757 15.3143 8.0813C15.4209 8.0813 15.4209 8.0813 15.5008 8.1869H17.0995C17.206 8.1869 17.286 8.1869 17.3926 8.0813H17.5791C17.6856 8.0813 17.7656 7.9757 17.8722 7.9757H17.9787C18.0853 7.9757 18.1652 7.87 18.3518 7.7908C18.7248 7.606 19.0978 7.3155 19.3909 7.0514L19.4975 6.9458C21.0162 5.3613 23.4675 5.3613 24.9596 6.9458C26.5582 8.8207 29.4891 8.7151 31.0079 6.7609C32.0204 5.0444 32.0204 2.9845 30.9013 1.5849Z" fill="#1D323E"/>
<path d="M52.4035 13.1777C51.8439 12.6231 51.3643 12.2534 50.6982 11.9629C50.1387 11.6724 49.4726 11.4876 48.62 11.4876C47.8739 11.4876 47.1012 11.6724 46.5417 11.9629C45.9822 12.2534 45.5026 12.6231 45.1295 13.1777C44.7565 13.653 44.4634 14.2076 44.2769 14.8678C44.0904 15.528 43.9838 16.1882 43.9838 16.822C43.9838 17.4558 44.0904 18.1424 44.3569 18.7762C44.5434 19.4364 44.9164 19.8854 45.2894 20.3607C45.6624 20.8361 46.222 21.2058 46.8081 21.4699C47.3677 21.7603 48.0338 21.8396 48.7798 21.8396C49.6325 21.8396 50.2986 21.6547 50.8581 21.3642C51.4176 21.0737 51.9772 20.704 52.4568 20.1494L54.4285 22.2093C53.6824 23.0543 52.8298 23.6089 51.8706 23.9786C50.938 24.3483 49.8989 24.5332 48.7532 24.5332C47.6341 24.5332 46.4884 24.3483 45.5559 23.9786C44.6233 23.6089 43.7707 23.0543 43.1046 22.3941C42.4385 21.7339 41.8789 20.8889 41.5059 19.9646C41.1329 19.0403 40.9464 17.9047 40.9464 16.7956C40.9464 15.6865 41.1329 14.5509 41.5059 13.6266C41.8789 12.7023 42.4385 11.8573 43.1046 11.0914C43.7707 10.4312 44.6233 9.8767 45.5559 9.5069C46.4884 9.1372 47.6341 8.9524 48.7532 8.9524C49.8723 8.9524 50.9114 9.1372 51.8706 9.5069C52.9097 9.8767 53.7623 10.5369 54.5084 11.2763L52.4035 13.1777ZM58.7981 16.6372C58.7981 17.3766 58.9048 18.1424 59.1712 18.697C59.3577 19.3572 59.7307 19.9118 60.1037 20.3871C60.4767 20.8625 61.0363 21.2322 61.6225 21.417C62.182 21.7075 62.9547 21.7867 63.7007 21.7867C64.4468 21.7867 65.1129 21.6811 65.779 21.417C66.3385 21.1265 66.8981 20.7568 67.2977 20.3871C67.6707 19.9118 68.0438 19.3572 68.2303 18.697C68.4168 18.0368 68.6033 17.3766 68.6033 16.6372C68.6033 15.8977 68.4967 15.1319 68.2303 14.5773C68.0438 13.9171 67.6707 13.3625 67.2977 12.8872C66.9247 12.4118 66.3652 12.0421 65.779 11.8573C65.2195 11.5668 64.4468 11.4876 63.7007 11.4876C62.9547 11.4876 62.2886 11.5932 61.6225 11.8573C61.0629 12.1478 60.5034 12.5175 60.1037 12.8872C59.7307 13.3625 59.3577 13.9171 59.1712 14.5773C58.9847 15.2375 58.7981 15.8977 58.7981 16.6372ZM55.7873 16.6372C55.7873 15.528 55.9738 14.4981 56.3469 13.5474C56.7199 12.6231 57.2794 11.778 58.0521 11.0122C58.7981 10.2728 59.5708 9.6918 60.61 9.3221C61.5425 8.9524 62.5817 8.6619 63.7274 8.6619C64.8731 8.6619 65.8857 8.8467 66.8448 9.3221C67.7774 9.6918 68.63 10.2464 69.4026 11.0122C70.1488 11.7516 70.6283 12.5967 71.1079 13.5474C71.4809 14.4717 71.6674 15.5016 71.6674 16.6372C71.6674 17.7463 71.4809 18.7762 71.1079 19.7269C70.7349 20.6512 70.1753 21.4963 69.4026 22.2621C68.6566 23.0015 67.8839 23.4769 66.8448 23.9522C65.9122 24.3219 64.8731 24.6124 63.7274 24.6124C62.6083 24.6124 61.5692 24.4276 60.61 23.9522C59.6774 23.5825 58.8248 23.0279 58.0521 22.2621C57.3061 21.5227 56.8265 20.7568 56.3469 19.7269C56.0804 18.7762 55.7873 17.7463 55.7873 16.6372ZM74.5717 24.2163H77.396V9.2693H74.5717V24.2163ZM73.9055 3.8292C73.9055 3.2746 74.0921 2.7993 74.4651 2.3239C74.8382 1.9542 75.3177 1.6637 75.8773 1.6637C76.4369 1.6637 76.9164 1.8486 77.2894 2.3239C77.6624 2.6936 77.8489 3.2482 77.8489 3.8292C77.8489 4.4102 77.6624 4.8591 77.2894 5.3345C76.9164 5.7042 76.4369 5.9947 75.8773 5.9947C75.3177 5.9947 74.8382 5.8098 74.4651 5.3345C74.0921 4.9383 73.9055 4.3838 73.9055 3.8292ZM81.3393 9.2429H84.1903V11.5668H84.2969C84.6699 10.7217 85.2294 10.0615 86.1886 9.6126C87.0413 9.1372 88.0804 8.8731 89.306 8.8731C90.0521 8.8731 90.7182 8.9788 91.384 9.2429C92.05 9.4277 92.61 9.7974 93.09 10.2728C93.569 10.7481 93.942 11.3027 94.315 12.0421C94.608 12.7816 94.795 13.6266 94.795 14.6565V24.2955H91.917V15.4224C91.917 14.7622 91.811 14.102 91.624 13.653C91.438 13.1777 91.145 12.7287 90.878 12.4383C90.585 12.1478 90.212 11.8837 89.759 11.778C89.386 11.6724 88.9064 11.5932 88.4268 11.5932C87.8672 11.5932 87.3077 11.6988 86.8281 11.8837C86.3485 12.0685 85.8955 12.359 85.4959 12.808C85.1229 13.1777 84.8298 13.7323 84.6433 14.3925C84.4568 15.0527 84.3503 15.7921 84.3503 16.6372V24.4012H81.5259V9.2693L81.3393 9.2429ZM105.213 21.866C105.959 21.866 106.625 21.7603 107.291 21.4963C107.957 21.2058 108.41 20.8361 108.89 20.3871C109.263 19.9118 109.636 19.3572 109.822 18.697C110.009 18.0368 110.195 17.3766 110.195 16.5579C110.195 15.8185 110.089 15.0527 109.822 14.4189C109.636 13.7587 109.263 13.2041 108.89 12.7287C108.41 12.2534 107.957 11.8837 107.291 11.6196C106.625 11.3291 105.959 11.2499 105.213 11.2499C104.467 11.2499 103.801 11.3555 103.135 11.6196C102.468 11.9101 102.015 12.2798 101.536 12.7287C101.163 13.2041 100.79 13.7587 100.603 14.4189C100.417 15.0791 100.23 15.7393 100.23 16.5579C100.23 17.2974 100.337 18.0632 100.603 18.697C100.79 19.3572 101.163 19.9118 101.536 20.3871C101.909 20.8625 102.468 21.2322 103.135 21.4963C103.694 21.6811 104.467 21.866 105.213 21.866ZM113.046 24.1107H110.222V21.9716H110.115C109.556 22.8167 108.783 23.3712 107.851 23.8466C106.918 24.3219 105.879 24.5068 104.84 24.5068C103.721 24.5068 102.575 24.3219 101.642 23.9522C100.71 23.5825 99.857 23.0279 99.191 22.2621C98.525 21.5227 97.965 20.6776 97.6721 19.7269C97.299 18.8026 97.113 17.7727 97.113 16.6372C97.113 15.5016 97.299 14.4981 97.6721 13.4682C98.0451 12.5439 98.525 11.6988 99.191 10.933C99.857 10.1936 100.71 9.6126 101.642 9.2429C102.575 8.8731 103.614 8.6883 104.84 8.6883C105.879 8.6883 106.918 8.8732 107.851 9.3485C108.783 9.8238 109.556 10.4576 110.009 11.2235H110.115V0H112.94V24.1107H113.046ZM127.461 15.4224C127.461 14.7622 127.354 14.2076 127.168 13.653C126.981 13.0985 126.688 12.6231 126.315 12.2534C125.942 11.8837 125.463 11.5932 124.983 11.3291C124.423 11.1443 123.864 10.9594 123.091 10.9594C122.425 10.9594 121.759 11.065 121.199 11.3291C120.64 11.6196 120.16 11.8837 119.681 12.359C119.308 12.7287 118.935 13.2041 118.748 13.7587C118.562 14.3132 118.375 14.7886 118.375 15.2639H127.434L127.461 15.4224ZM118.428 17.7463C118.428 18.4065 118.615 18.9611 118.908 19.5156C119.201 20.0702 119.574 20.5456 120.027 20.9153C120.507 21.285 121.066 21.5755 121.626 21.7603C122.292 21.9452 122.851 22.0508 123.518 22.0508C124.37 22.0508 125.223 21.866 125.862 21.3906C126.528 21.0209 127.088 20.4663 127.647 19.8061L129.806 21.4963C128.207 23.5561 125.942 24.586 123.118 24.586C121.892 24.586 120.853 24.4012 119.921 24.0314C118.988 23.6617 118.135 23.1072 117.469 22.3413C116.803 21.6019 116.244 20.836 115.95 19.8061C115.577 18.8818 115.391 17.8519 115.391 16.7164C115.391 15.6072 115.577 14.5773 115.95 13.6266C116.324 12.7023 116.883 11.8573 117.549 11.0914C118.215 10.352 119.068 9.8767 120 9.4013C120.933 9.0316 121.972 8.8467 123.118 8.8467C124.45 8.8467 125.569 9.0316 126.502 9.5069C127.434 9.9823 128.207 10.5369 128.766 11.2763C129.326 12.0157 129.806 12.8608 130.099 13.8115C130.392 14.7358 130.472 15.6865 130.472 16.7164V17.7463H118.428ZM141.609 12.9928C141.236 12.6231 140.863 12.2534 140.383 11.9629C139.904 11.6724 139.264 11.4876 138.598 11.4876C137.932 11.4876 137.373 11.6724 136.813 11.9629C136.333 12.2534 136.067 12.6231 136.067 13.1777C136.067 13.653 136.254 14.0227 136.547 14.2076C136.84 14.4981 137.213 14.6829 137.586 14.8678C137.959 15.0527 138.438 15.1583 138.811 15.2375C139.291 15.3432 139.664 15.4224 139.93 15.4224C140.49 15.6072 141.156 15.7129 141.636 15.9769C142.195 16.1618 142.675 16.4523 143.048 16.822C143.421 17.1917 143.714 17.5614 143.98 18.0368C144.167 18.5121 144.353 19.0667 144.353 19.8061C144.353 20.6512 144.167 21.3906 143.794 21.9452C143.421 22.4998 142.941 23.0543 142.382 23.4505C141.822 23.8466 141.156 24.1107 140.41 24.2955C139.664 24.4804 138.891 24.586 138.252 24.586C137.026 24.586 135.907 24.4012 134.948 24.0314C134.015 23.6617 133.163 23.0015 132.39 21.9716L134.548 20.2023C135.028 20.6776 135.481 21.0473 136.067 21.417C136.653 21.7867 137.293 21.9716 138.145 21.9716C138.518 21.9716 138.891 21.9716 139.264 21.866C139.637 21.7603 139.93 21.6811 140.197 21.4963C140.49 21.3114 140.677 21.1265 140.863 20.9417C141.05 20.6512 141.156 20.3871 141.156 20.0966C141.156 19.7269 141.05 19.3572 140.783 19.0667C140.49 18.7762 140.224 18.5914 139.851 18.4065C139.478 18.2216 139.105 18.116 138.731 18.0368L137.612 17.7463C137.053 17.5614 136.387 17.4558 135.907 17.271C135.348 17.0861 134.868 16.7956 134.495 16.5315C134.122 16.241 133.749 15.7921 133.456 15.3167C133.163 14.8414 133.083 14.2076 133.083 13.5474C133.083 12.808 133.269 12.0421 133.562 11.4876C133.856 10.933 134.309 10.4576 134.895 10.0879C135.454 9.7182 136.014 9.4277 136.68 9.2429C137.346 9.058 138.092 8.9524 138.758 8.9524C139.797 8.9524 140.73 9.1372 141.689 9.5069C142.622 9.8767 143.394 10.5369 143.954 11.3819L141.609 12.9928ZM147.098 0.369699H149.922V15.5016L156.343 9.1372H160.207L153.333 15.8713L160.873 23.8994H156.823L149.949 16.241V23.8994H147.124V0.369699" fill="#1D323E"/>
</svg>
