<svg width="161" height="45" viewBox="0 0 161 45" fill="none" xmlns="http://www.w3.org/2000/svg">
<path d="M35.1953 13.1141C35.1953 17.8072 34.2667 22.2985 32.1999 26.5289C31.0868 28.7927 29.6717 30.895 27.9934 32.7783C25.3022 35.8227 22.0938 38.1937 18.5128 40.0839C18.163 40.2696 17.901 40.2707 17.5364 40.0839C14.5171 38.4968 11.7632 36.545 9.34776 34.1364C7.15956 31.969 5.34146 29.4576 3.96546 26.7021C3.77856 26.3261 3.98596 26.3398 4.24576 26.3409C7.06696 26.3402 9.87366 25.9374 12.5813 25.1446C13.3469 24.927 14.1012 24.6707 14.86 24.4234C15.2782 24.2867 15.3158 24.3095 15.252 24.7584C15.1574 25.4625 15.0115 26.1598 15.0115 26.8753C15.0115 27.6079 15.4023 28.083 16.1372 28.1024C17.3609 28.1343 18.5869 28.1366 19.8094 28.1024C20.5602 28.0808 20.9966 27.4632 20.8986 26.7192C20.7004 25.2255 20.526 23.7295 20.3289 22.2358C20.2856 21.9111 20.4246 21.7459 20.6787 21.5876C22.5102 20.4606 24.1942 19.1099 25.6919 17.5668C27.9809 15.1832 29.7617 12.4898 30.6663 9.27217C30.8585 8.61707 30.9957 7.94717 31.0765 7.26917C31.1118 6.95137 31.2064 6.93647 31.4787 7.06067C32.5041 7.52667 33.5295 7.97217 34.5686 8.41087C34.6752 8.44368 34.7691 8.50877 34.8372 8.59707C34.9054 8.68547 34.9445 8.79278 34.9492 8.90417C35.1192 10.301 35.2014 11.7071 35.1953 13.1141Z" fill="#1D323E"/>
<path d="M21.3758 19.1838C21.9785 18.147 22.1244 17.133 21.8464 16.0642C21.3906 14.3244 19.6223 13.0244 17.8974 13.1441C15.916 13.2819 14.3961 14.6594 14.1443 16.5519C13.9506 18.0125 14.4542 19.2089 15.5605 20.1523C15.7497 20.3129 15.8249 20.4599 15.7884 20.6912C15.7098 21.2107 15.6221 21.7291 15.5708 22.2521C15.568 22.3357 15.538 22.4161 15.4854 22.4811C15.4327 22.5461 15.3603 22.5921 15.2791 22.6121C12.7954 23.6057 10.1942 24.2755 7.53946 24.6049C6.19776 24.7613 4.84766 24.8332 3.49696 24.8202C3.19276 24.8202 3.04126 24.7165 2.93416 24.4328C1.63046 21.0571 0.936064 17.4768 0.883264 13.8584C0.843544 12.1788 0.919664 10.4985 1.11116 8.82927C1.11326 8.73277 1.14526 8.63917 1.20286 8.56167C1.26036 8.48407 1.34066 8.42627 1.43246 8.39637C2.65956 7.86657 3.88096 7.32417 5.10116 6.77957C5.18846 6.73387 5.28446 6.70767 5.38276 6.70247C5.48116 6.69737 5.57936 6.71357 5.67086 6.74997C9.57546 8.21627 13.7182 6.86387 16.2829 3.85827C16.3619 3.75377 16.466 3.67087 16.5854 3.61717C16.7049 3.56337 16.8359 3.54057 16.9665 3.55067C17.7071 3.57227 18.4477 3.56657 19.1871 3.55067C19.2986 3.54367 19.41 3.56447 19.5114 3.61127C19.6128 3.65797 19.7011 3.72917 19.7682 3.81837C21.3132 5.61747 23.2364 6.77507 25.5789 7.19997C26.7423 7.41277 27.9367 7.38837 29.0904 7.12827C29.5541 7.02457 29.5553 7.02907 29.4812 7.47007C28.9822 10.462 27.5705 13.0096 25.6575 15.31C24.567 16.6067 23.3366 17.7789 21.9888 18.8055C21.8293 18.9331 21.6812 19.0938 21.3758 19.1838Z" fill="#1D323E"/>
<path d="M107.705 20.1693C107.705 17.7208 107.713 15.2701 107.696 12.8227C107.696 12.4399 107.81 12.3408 108.181 12.3442C110.331 12.3601 112.482 12.3043 114.631 12.367C116.351 12.4171 117.997 12.7794 119.214 14.1706C120.1 15.1857 120.607 16.3752 120.839 17.6878C121.262 20.0804 121.078 22.4229 120.156 24.68C119.285 26.7992 117.667 27.8611 115.39 27.934C112.913 28.0126 110.435 27.9466 107.958 27.9728C107.683 27.9728 107.709 27.8189 107.709 27.6446C107.709 26.3632 107.709 25.0818 107.709 23.8004C107.707 22.5904 107.706 21.3801 107.705 20.1693ZM110.99 20.183C110.99 21.7484 110.998 23.3139 110.983 24.8794C110.983 25.1791 111.064 25.2668 111.362 25.2588C112.343 25.2349 113.328 25.2702 114.307 25.2235C115.467 25.1688 116.501 24.7677 116.971 23.6284C117.883 21.4283 117.997 19.1758 117.085 16.9426C116.65 15.8773 115.824 15.2564 114.636 15.1584C113.554 15.0695 112.471 15.1447 111.393 15.0992C111.031 15.0832 110.981 15.2131 110.984 15.531C110.998 17.0794 110.99 18.6312 110.99 20.183Z" fill="#1D323E"/>
<path d="M54.1221 17.528C53.7666 17.528 53.4089 17.5041 53.0545 17.5349C52.7002 17.5656 52.4951 17.4494 52.3709 17.0791C51.9801 15.9136 51.2088 15.1172 49.9612 14.9144C48.1006 14.6147 46.4759 15.2425 45.7456 17.1384C44.948 19.2086 44.94 21.313 45.7934 23.3809C46.8257 25.8875 49.829 26.0345 51.3763 24.7482C51.9209 24.2924 52.2046 23.6669 52.4188 23.0141C52.5156 22.719 52.666 22.6164 52.9736 22.6233C53.7564 22.6426 54.5403 22.6517 55.323 22.6233C55.7503 22.6062 55.7787 22.76 55.6967 23.1212C54.8923 26.693 51.9664 28.7462 48.3023 28.3086C47.188 28.1753 46.1158 27.927 45.1519 27.3254C43.5158 26.3 42.6454 24.7447 42.2249 22.9297C41.6803 20.5998 41.8 18.288 42.7137 16.0594C43.7391 13.5676 45.7102 12.3485 48.3114 12.0603C49.9817 11.8757 51.5825 12.1457 53.0317 13.0356C54.5927 13.9938 55.4848 15.4077 55.7582 17.217C55.7935 17.4449 55.7138 17.5315 55.4928 17.5303C55.0336 17.5258 54.5779 17.528 54.1221 17.528Z" fill="#1D323E"/>
<path d="M79.5161 26.6819C79.5161 28.391 79.5161 30.0271 79.5161 31.6609C79.5161 32.5838 79.6118 32.4471 78.7185 32.4585C78.1352 32.4642 77.5507 32.438 76.9696 32.4664C76.5822 32.4858 76.4512 32.3696 76.4557 31.9685C76.4751 30.2755 76.4626 28.5824 76.4626 26.8893C76.4626 23.5889 76.4626 20.2878 76.4626 16.986C76.4626 16.4254 76.4626 16.4254 77.022 16.4254C77.6771 16.4254 78.3323 16.4345 78.9863 16.4254C79.295 16.4174 79.4249 16.4995 79.385 16.8401C79.3624 17.1884 79.3597 17.5376 79.377 17.8861C79.5582 17.8792 79.5901 17.7721 79.638 17.6924C80.4754 16.3252 81.7686 15.9583 83.2486 16.1201C85.5148 16.3696 86.923 17.673 87.4357 19.9939C87.8564 21.8087 87.7279 23.7076 87.0666 25.4491C86.3989 27.2129 84.8847 28.2406 83.0059 28.3192C81.6193 28.3773 80.4891 27.9774 79.6778 26.8118C79.6286 26.763 79.5744 26.7194 79.5161 26.6819ZM81.936 18.6973C80.9494 18.6278 80.2373 19.153 79.8362 20.0873C79.5526 20.7351 79.3998 21.4325 79.3865 22.1395C79.3732 22.8466 79.4997 23.5492 79.7587 24.2072C80.1347 25.2065 81.0018 25.7397 82.0614 25.7192C82.5495 25.7097 83.0224 25.548 83.4142 25.2567C83.806 24.9655 84.097 24.5591 84.2467 24.0944C84.6526 22.9276 84.6634 21.6597 84.2774 20.4861C83.89 19.2704 83.1381 18.7087 81.936 18.6973Z" fill="#1D323E"/>
<path d="M128.484 26.7273C127.822 27.3517 127.189 27.9191 126.331 28.1458C125.436 28.3942 124.491 28.3942 123.596 28.1458C121.82 27.6479 121.204 26.0471 121.318 24.4999C121.339 24.1733 121.394 23.8499 121.482 23.5348C121.813 22.3955 122.594 21.7119 123.71 21.3849C124.697 21.0921 125.725 21.0328 126.731 20.8517C127.037 20.7958 127.347 20.7537 127.654 20.699C128.049 20.6295 128.361 20.4438 128.425 20.0154C128.492 19.5665 128.376 19.1631 128.004 18.876C127.418 18.4203 125.825 18.4203 125.235 18.884C124.94 19.1119 124.802 19.4445 124.724 19.7955C124.67 20.045 124.552 20.1373 124.287 20.1293C123.533 20.1088 122.777 20.1099 122.023 20.1293C121.706 20.1361 121.599 20.0678 121.658 19.7191C121.932 18.099 122.819 16.9664 124.375 16.4617C126.018 15.9273 127.697 15.9593 129.367 16.4139C130.668 16.7682 131.247 17.6945 131.418 18.9558C131.471 19.3935 131.493 19.8343 131.485 20.2751C131.485 22.2683 131.485 24.2602 131.485 26.2511C131.485 26.7205 131.571 27.1626 132.031 27.4257C132.21 27.5272 132.174 27.6946 132.145 27.8428C132.114 28.0228 131.949 27.9726 131.832 27.9738C130.92 27.9738 130.009 27.9669 129.097 27.9818C128.846 27.9818 128.73 27.8803 128.681 27.6593C128.618 27.3619 128.555 27.0691 128.484 26.7273ZM128.441 22.375C127.575 22.8205 126.683 22.9253 125.814 23.1144C125.477 23.1706 125.156 23.2989 124.874 23.4904C124.351 23.8789 124.249 24.4213 124.354 25.0126C124.391 25.2684 124.504 25.5074 124.677 25.6992C124.85 25.8911 125.077 26.0273 125.327 26.0904C126.497 26.4322 127.98 25.6199 128.316 24.4497C128.5 23.7832 128.416 23.1064 128.435 22.3727L128.441 22.375Z" fill="#1D323E"/>
<path d="M94.4941 22.1927C94.4711 20.5885 94.8681 19.1028 95.9591 17.8985C97.2911 16.4276 99.0361 15.9684 100.958 16.1154C102.614 16.2407 104.064 16.8491 105.071 18.2346C106.078 19.6201 106.357 21.1867 106.238 22.8501C106.191 23.475 106.06 24.0908 105.85 24.6811C105.28 26.3035 104.203 27.4292 102.565 27.9624C100.815 28.5321 99.0731 28.4695 97.4211 27.6286C95.5311 26.667 94.7311 24.9785 94.4991 22.9572C94.4831 22.7027 94.4811 22.4475 94.4941 22.1927ZM103.115 22.2121C103.125 22.0132 103.125 21.8139 103.115 21.6151C102.932 19.8981 102.26 18.7211 100.503 18.671C99.5351 18.6436 98.6871 18.9285 98.1961 19.8309C97.3981 21.3063 97.3821 22.8376 98.0711 24.3427C98.5591 25.4114 99.5431 25.8512 100.805 25.7099C101.831 25.596 102.639 24.8793 102.93 23.8163C103.077 23.2949 103.139 22.7533 103.115 22.2121Z" fill="#1D323E"/>
<path d="M148.692 24.7584C148.988 23.7109 149.282 22.6631 149.575 21.6149C150.024 19.9993 150.474 18.3848 150.907 16.7647C150.98 16.4912 151.102 16.416 151.377 16.4228C152.201 16.4422 153.029 16.4456 153.854 16.4228C154.195 16.4126 154.256 16.4798 154.136 16.8148C153.035 19.923 151.954 23.0368 150.863 26.1473C150.373 27.5418 149.892 28.9398 149.375 30.323C148.563 32.4992 146.974 32.9435 144.736 32.5835C144.536 32.5505 144.453 32.4696 144.457 32.2474C144.472 31.6071 144.472 30.9667 144.457 30.3264C144.457 30.061 144.553 30.0154 144.789 30.0598C144.985 30.0919 145.184 30.1053 145.384 30.0997C146.523 30.0929 147.207 29.1358 146.834 28.0739C145.531 24.3277 144.234 20.5804 142.917 16.8387C142.788 16.4707 142.862 16.4149 143.219 16.424C144.087 16.4445 144.955 16.4399 145.823 16.424C146.102 16.4183 146.212 16.5117 146.289 16.7806C147.054 19.4444 147.834 22.1025 148.61 24.7629L148.692 24.7584Z" fill="#1D323E"/>
<path d="M70.0916 24.7196C70.3069 23.9585 70.5234 23.1974 70.7353 22.4409C71.2617 20.5496 71.7866 18.6575 72.3099 16.7646C72.376 16.5208 72.4968 16.4228 72.7588 16.4228C73.5279 16.4365 74.2969 16.4228 75.066 16.4228C75.6357 16.4228 75.6357 16.4342 75.4545 16.9549C74.9031 18.5249 74.3532 20.0965 73.8047 21.6696C72.872 24.3417 71.9381 27.0151 71.0031 29.6895C70.8381 30.161 70.635 30.6182 70.3958 31.0567C69.8261 32.1061 68.9249 32.6074 67.7582 32.6575C67.2468 32.6953 66.7327 32.6754 66.2257 32.5983C65.9546 32.5493 65.8338 32.4445 65.8429 32.1528C65.8623 31.5979 65.86 31.0419 65.8429 30.4871C65.8327 30.1658 65.9568 30.0564 66.2702 30.086C66.8934 30.1441 67.4938 30.119 67.9598 29.5972C68.3358 29.1768 68.4566 28.7267 68.2663 28.1821C66.9553 24.4291 65.6488 20.6779 64.3469 16.9287C64.1749 16.4354 64.1817 16.4262 64.6887 16.4251C65.5148 16.4251 66.3408 16.4354 67.1668 16.4183C67.4654 16.4114 67.5861 16.5242 67.6659 16.8056C68.3495 19.2142 69.057 21.6183 69.7566 24.0223C69.8238 24.2502 69.9024 24.4781 69.9754 24.706L70.0916 24.7196Z" fill="#1D323E"/>
<path d="M89.4526 22.5445C89.4526 21.3926 89.44 20.2396 89.4606 19.0877C89.4674 18.7071 89.3386 18.6012 88.9695 18.6057C87.8301 18.6182 87.8301 18.6057 87.8301 17.4664C87.8301 16.4273 87.8301 16.4273 88.8909 16.4261C89.448 16.4261 89.4492 16.4261 89.4492 15.8564C89.4492 15.1603 89.4606 14.4619 89.4492 13.7657C89.4423 13.4456 89.5255 13.3009 89.8787 13.31C90.6181 13.3339 91.3601 13.3259 92.0981 13.31C92.3991 13.31 92.4891 13.4182 92.4811 13.7156C92.4601 14.4972 92.4811 15.2799 92.4641 16.0627C92.4581 16.3464 92.5691 16.4341 92.8411 16.4204C93.2101 16.4011 93.5801 16.4204 93.9511 16.4124C94.2171 16.4022 94.3401 16.4831 94.3301 16.7725C94.3131 17.2692 94.3161 17.7683 94.3301 18.2662C94.3381 18.5317 94.2161 18.6171 93.9721 18.608C93.6451 18.5966 93.3161 18.6308 92.9911 18.6C92.5641 18.5613 92.4541 18.7516 92.4571 19.1446C92.4691 20.8092 92.4571 22.4738 92.4641 24.1384C92.4641 24.4802 92.4831 24.822 92.4931 25.1639C92.5061 25.5923 92.7741 25.762 93.1551 25.7916C93.4251 25.8118 93.6961 25.8159 93.9671 25.8042C94.2121 25.7928 94.3371 25.8623 94.3301 26.1346C94.3181 26.6746 94.3201 27.2158 94.3301 27.7559C94.3301 27.9963 94.2231 28.0863 93.9991 28.0977C93.0601 28.1285 92.1191 28.1706 91.1891 28.0043C90.069 27.8037 89.4799 27.0996 89.4617 25.9591C89.4435 24.8186 89.4617 23.6804 89.4617 22.5411L89.4526 22.5445Z" fill="#1D323E"/>
<path d="M141.774 20.119C141.774 22.5948 141.767 25.0718 141.782 27.5476C141.782 27.8894 141.687 27.9885 141.351 27.9783C140.64 27.9544 139.927 27.9509 139.216 27.9783C138.841 27.9942 138.715 27.9065 138.718 27.4998C138.738 24.7653 138.729 22.0308 138.729 19.3021C138.729 17.1532 138.729 15.0044 138.729 12.8556C138.729 12.5058 138.749 12.3657 139.203 12.3679C139.939 12.3736 140.684 12.3907 141.416 12.3463C141.73 12.3269 141.787 12.4431 141.785 12.7314C141.775 15.1936 141.785 17.6557 141.785 20.1179L141.774 20.119Z" fill="#1D323E"/>
<path d="M60.1297 18.0842C60.5091 17.6649 60.827 17.2353 61.2349 16.8799C61.8349 16.3412 62.62 16.0554 63.4259 16.0823C63.7608 16.0903 63.9408 16.2042 63.9249 16.5939C63.8964 17.3185 63.8964 18.0454 63.9249 18.77C63.9397 19.1586 63.8053 19.2554 63.4338 19.2326C62.626 19.1848 61.8456 19.2828 61.1551 19.7807C60.6185 20.1692 60.3667 20.6921 60.3074 21.3359C60.1548 22.9834 60.2687 24.64 60.2345 26.2852C60.2265 26.7114 60.2208 27.1398 60.2345 27.5659C60.2448 27.8678 60.1206 27.9612 59.8289 27.9555C59.1031 27.9419 58.3762 27.935 57.6516 27.9555C57.3098 27.9658 57.2107 27.8416 57.2129 27.5101C57.2243 25.5732 57.2129 23.6362 57.2129 21.6993C57.2129 20.0906 57.2209 18.4829 57.2061 16.8742C57.2061 16.5323 57.2904 16.3911 57.6619 16.4059C58.3295 16.4309 58.9995 16.4287 59.6683 16.4059C60.0306 16.3933 60.1468 16.5358 60.124 16.881C60.1137 17.2877 60.1297 17.6865 60.1297 18.0842Z" fill="#1D323E"/>
<path d="M133.458 22.2222C133.458 20.4152 133.465 18.6081 133.451 16.8011C133.451 16.5015 133.529 16.4149 133.829 16.4229C134.611 16.4445 135.395 16.4377 136.176 16.4229C136.42 16.4229 136.525 16.4627 136.525 16.7453C136.515 20.3738 136.515 24.0022 136.525 27.6307C136.525 27.8973 136.435 27.9725 136.183 27.9725C135.401 27.96 134.618 27.9554 133.836 27.9725C133.54 27.9805 133.453 27.8996 133.456 27.5977C133.465 25.8078 133.458 24.0155 133.458 22.2222Z" fill="#1D323E"/>
<path d="M156.833 14.386C156.035 14.3853 155.255 14.1482 154.592 13.7046C153.929 13.2611 153.412 12.6309 153.107 11.8938C152.802 11.1566 152.722 10.3455 152.877 9.56297C153.032 8.78037 153.416 8.06137 153.98 7.49677C154.544 6.93227 155.262 6.54737 156.045 6.39087C156.827 6.23437 157.638 6.31327 158.376 6.61747C159.113 6.92167 159.744 7.43767 160.189 8.10027C160.633 8.76277 160.871 9.54227 160.873 10.3401C160.874 10.8711 160.77 11.3969 160.567 11.8876C160.364 12.3783 160.066 12.8243 159.691 13.2C159.316 13.5757 158.871 13.8738 158.38 14.0773C157.89 14.2808 157.364 14.3857 156.833 14.386ZM156.79 13.7639C157.69 13.7719 158.557 13.425 159.204 12.7983C159.851 12.1716 160.224 11.3155 160.244 10.4153C160.271 8.53877 158.77 6.96187 156.926 6.92997C156.478 6.92107 156.031 7.00057 155.613 7.16407C155.195 7.32747 154.813 7.57177 154.49 7.88277C153.836 8.51097 153.458 9.37317 153.44 10.2797C153.422 11.1863 153.765 12.0629 154.393 12.7167C155.021 13.3705 155.883 13.748 156.79 13.7662V13.7639Z" fill="#1D323E"/>
<path d="M134.931 15.0797C134.533 15.0797 134.133 15.0671 133.737 15.0797C133.509 15.0899 133.45 15.0079 133.453 14.788C133.465 14.0349 133.462 13.2818 133.453 12.5298C133.453 12.3019 133.509 12.188 133.763 12.188C134.587 12.1994 135.411 12.1994 136.236 12.188C136.463 12.188 136.526 12.2529 136.523 12.4774C136.509 13.2305 136.507 13.9836 136.523 14.7367C136.523 15.0136 136.409 15.0785 136.166 15.0694C135.754 15.0592 135.341 15.0694 134.93 15.0694L134.931 15.0797Z" fill="#1D323E"/>
<path d="M140.775 40.6277C141.473 39.9816 141.948 40.0113 142.544 40.6744C142.687 40.4829 142.876 40.3315 143.094 40.2346C143.664 40.0249 144.22 40.2733 144.375 40.8578C144.56 41.5562 144.434 42.274 144.459 42.9827C144.466 43.1844 144.299 43.1331 144.18 43.1445C144.032 43.1582 143.936 43.1285 143.939 42.9451C143.947 42.4757 143.939 42.0051 143.939 41.5357C143.932 40.9216 143.705 40.5878 143.309 40.59C142.888 40.59 142.651 40.941 142.649 41.5562C142.649 41.9983 142.642 42.4392 142.649 42.8802C142.655 43.0864 142.574 43.1502 142.374 43.1502C142.175 43.1502 142.097 43.0818 142.102 42.8779C142.113 42.3796 142.113 41.8817 142.102 41.3842C142.093 40.8806 141.874 40.5866 141.518 40.5866C141.161 40.5866 140.843 40.9284 140.824 41.3717C140.804 41.8149 140.83 42.2535 140.812 42.6944C140.805 42.8676 140.957 43.1377 140.566 43.1502C140.175 43.1627 140.3 42.8984 140.297 42.715C140.287 42.0177 140.284 41.3204 140.297 40.6231C140.297 40.4955 140.133 40.2722 140.443 40.2255C140.735 40.181 140.796 40.3348 140.775 40.6277Z" fill="#1D323E"/>
<path d="M88.7779 40.9625C89.4262 41.3043 89.6461 41.6849 89.5276 42.2489C89.424 42.7422 88.9796 43.0852 88.3644 43.1455C86.9971 43.28 86.9971 43.28 86.9971 41.9287C86.9971 41.1038 87.004 40.2778 86.9971 39.4529C86.9971 39.225 87.0643 39.1327 87.2979 39.1054C87.6074 39.0581 87.9213 39.047 88.2333 39.0723C88.7289 39.127 89.2041 39.2535 89.3647 39.8129C89.5254 40.3723 89.236 40.7073 88.7779 40.9625ZM87.5577 41.9948C87.5577 42.8345 87.5634 42.8391 88.2664 42.7342C88.762 42.6613 89.04 42.3434 88.991 41.9093C88.9363 41.4308 88.5353 41.1813 87.8516 41.2086C87.2694 41.2337 87.683 41.6883 87.5566 41.9105C87.5474 41.9344 87.5577 41.9686 87.5577 41.9948ZM87.5497 40.1525C87.626 40.402 87.3412 40.8361 87.9565 40.7962C88.5455 40.7517 88.8679 40.5512 88.8611 40.1126C88.8543 39.6739 88.5569 39.5053 87.9838 39.4609C87.3537 39.4198 87.6203 39.8756 87.5497 40.1547V40.1525Z" fill="#1D323E"/>
<path d="M69.1457 40.6754C69.2715 40.5426 69.4083 40.4206 69.5547 40.3108C70.2144 39.8938 70.9903 40.3017 71.0575 41.13C71.1065 41.7236 71.0666 42.3241 71.0792 42.9211C71.0792 43.1273 70.98 43.149 70.8171 43.149C70.6542 43.149 70.5585 43.1148 70.5619 42.9211C70.5721 42.3947 70.5813 41.8672 70.5619 41.3431C70.5471 41.0423 70.4639 40.7461 70.1221 40.6276C70.0137 40.5893 69.8963 40.5847 69.7853 40.6144C69.6743 40.6441 69.5748 40.7067 69.5 40.7939C69.4234 40.8687 69.3636 40.9588 69.3243 41.0584C69.285 41.1579 69.2672 41.2647 69.2721 41.3716C69.2824 41.8695 69.2653 42.3674 69.2801 42.8641C69.2801 43.092 69.2049 43.1513 68.985 43.1558C68.7412 43.1558 68.7503 43.0237 68.7572 42.8584C68.7572 42.3742 68.7674 41.8911 68.7572 41.408C68.7435 40.8839 68.5008 40.5786 68.1362 40.5945C67.7545 40.6116 67.4799 40.9546 67.472 41.4422C67.464 41.8547 67.4811 42.2683 67.4651 42.6796C67.4571 42.871 67.6018 43.1638 67.1894 43.1535C66.7769 43.1433 66.941 42.8414 66.9365 42.6602C66.9182 41.9766 66.9239 41.293 66.9365 40.6094C66.9365 40.4761 66.7849 40.2675 67.0994 40.2265C67.3956 40.1912 67.4252 40.3621 67.4161 40.5911C68.1692 39.9793 68.6284 40.0089 69.1457 40.6754Z" fill="#1D323E"/>
<path d="M79.6492 39.0323C80.7293 39.0391 81.4722 39.872 81.4722 41.0729C81.4722 42.3262 80.6872 43.2126 79.5786 43.2114C78.5121 43.2114 77.7419 42.3284 77.7556 41.1162C77.7693 39.9039 78.5509 39.0243 79.6492 39.0323ZM78.3367 41.1401C78.331 41.2391 78.331 41.3384 78.3367 41.4375C78.405 42.0675 78.8072 42.6042 79.2972 42.7249C79.5458 42.7975 79.8117 42.7833 80.0511 42.6845C80.2906 42.5857 80.4892 42.4083 80.6142 42.1815C81.0187 41.4568 81.0267 40.7083 80.5824 39.9985C80.138 39.2886 79.1798 39.2693 78.6728 39.9369C78.4217 40.2846 78.3026 40.7103 78.3367 41.1378V41.1401Z" fill="#1D323E"/>
<path d="M61.5827 41.1264C61.5827 41.6664 61.5827 42.2076 61.5827 42.7488C61.5827 42.9345 61.6568 43.1453 61.3184 43.151C60.9549 43.1567 61.029 42.9231 61.0267 42.726C61.0267 42.3284 61.0142 41.9285 61.0267 41.5308C61.0347 41.303 60.9595 41.2323 60.7362 41.2403C60.2952 41.254 59.8532 41.254 59.4134 41.2403C59.1752 41.2312 59.0875 41.2995 59.0978 41.5479C59.116 41.9877 59.0978 42.4298 59.1046 42.8707C59.1046 43.0621 59.067 43.1544 58.8483 43.1499C58.6295 43.1453 58.5383 43.1145 58.5406 42.8719C58.5513 41.7052 58.5513 40.5385 58.5406 39.3717C58.5406 39.1439 58.6181 39.0789 58.838 39.0767C59.0875 39.0767 59.1114 39.1986 59.1057 39.3968C59.0966 39.7671 59.1126 40.1374 59.1001 40.5066C59.0932 40.7048 59.149 40.7823 59.361 40.7766C59.8304 40.7618 60.3009 40.7618 60.7692 40.7766C60.9902 40.7846 61.0301 40.69 61.0244 40.4997C61.0142 40.1294 61.0301 39.7591 61.0244 39.39C61.0244 39.1826 61.0677 39.0767 61.3058 39.0767C61.544 39.0767 61.5964 39.1621 61.5918 39.3797C61.5793 39.9631 61.5918 40.5464 61.5918 41.1298L61.5827 41.1264Z" fill="#1D323E"/>
<path d="M121.895 41.1035C121.895 40.5338 121.904 39.9642 121.895 39.3945C121.89 39.1666 121.945 39.0618 122.198 39.0698C122.738 39.0868 123.279 39.0812 123.82 39.0698C123.989 39.0698 124.082 39.1017 124.082 39.2976C124.082 39.4936 123.977 39.5255 123.813 39.5255C123.444 39.5255 123.073 39.5312 122.704 39.5255C122.515 39.5255 122.437 39.562 122.424 39.7796C122.368 40.7811 122.36 40.7811 123.359 40.7822H123.658C123.828 40.7822 124 40.7446 124 41.0226C123.993 41.2778 123.832 41.2368 123.681 41.2368C123.354 41.2368 123.026 41.2482 122.7 41.2368C122.497 41.2277 122.44 41.2938 122.43 41.5C122.369 42.6997 122.364 42.6986 123.547 42.6998C123.704 42.6998 123.86 42.6998 124.017 42.6998C124.174 42.6998 124.203 42.7875 124.203 42.9174C124.203 43.0473 124.176 43.1384 124.018 43.1384C123.378 43.1384 122.738 43.1327 122.098 43.1384C121.87 43.1384 121.903 42.9823 121.902 42.8479C121.902 42.2645 121.902 41.6812 121.902 41.099L121.895 41.1035Z" fill="#1D323E"/>
<path d="M49.7058 40.5682C49.8562 40.4622 49.9405 40.3962 50.0317 40.3403C50.6993 39.9279 51.4479 40.2469 51.596 41.0171C51.7191 41.6494 51.6313 42.2921 51.653 42.9301C51.661 43.1842 51.4809 43.1295 51.3305 43.1443C51.1346 43.1625 51.089 43.0623 51.0913 42.8902C51.0966 42.4071 51.0966 41.924 51.0913 41.441C51.0913 40.9032 50.8543 40.6001 50.4567 40.5921C50.026 40.5842 49.7092 40.9396 49.7047 41.4444C49.7047 41.9126 49.6967 42.3821 49.7047 42.8515C49.7047 43.0634 49.6545 43.1523 49.4198 43.15C49.1851 43.1477 49.1361 43.052 49.1373 42.8435C49.1426 41.6221 49.1426 40.4003 49.1373 39.1782C49.1373 38.9674 49.1817 38.8797 49.4164 38.8728C49.6853 38.866 49.7127 38.9868 49.7058 39.2044C49.6967 39.6373 49.7058 40.0703 49.7058 40.5682Z" fill="#1D323E"/>
<path d="M107.218 40.59C107.446 40.4396 107.592 40.2892 107.801 40.2243C108.36 40.0477 108.897 40.2744 109.07 40.8315C109.289 41.5368 109.15 42.2706 109.166 42.9963C109.166 43.2242 108.96 43.1262 108.836 43.1433C108.667 43.1661 108.608 43.0761 108.616 42.9154C108.616 42.446 108.616 41.977 108.616 41.5083C108.616 40.9033 108.379 40.582 107.962 40.5911C107.507 40.6003 107.221 40.9728 107.22 41.5482C107.22 41.9743 107.22 42.4016 107.22 42.8277C107.22 43.0066 107.237 43.157 106.968 43.1524C106.74 43.1524 106.683 43.067 106.684 42.8528C106.692 41.6154 106.692 40.3788 106.684 39.143C106.684 38.9402 106.739 38.881 106.946 38.8753C107.174 38.8696 107.23 38.9527 107.223 39.1658C107.208 39.6181 107.218 40.0727 107.218 40.59Z" fill="#1D323E"/>
<path d="M100.562 41.4992C100.849 41.1574 101.104 40.8999 101.313 40.6048C101.541 40.2767 101.82 40.1343 102.25 40.2687C101.961 40.5741 101.69 40.8749 101.403 41.162C101.225 41.3386 101.188 41.4765 101.368 41.6952C101.732 42.1418 102.062 42.617 102.416 43.0943C101.987 43.2265 101.721 43.1126 101.523 42.7662C101.36 42.499 101.178 42.2435 100.979 42.0017C100.92 41.9254 100.888 41.7476 100.743 41.8228C100.685 41.8509 100.636 41.8947 100.601 41.9492C100.566 42.0038 100.547 42.0669 100.546 42.1316C100.546 42.3879 100.536 42.6443 100.546 42.8995C100.554 43.0875 100.479 43.1525 100.298 43.1433C100.138 43.1354 99.9831 43.1638 99.9831 42.9155C99.9891 41.6496 99.9911 40.3827 99.9831 39.1168C99.9831 38.881 100.106 38.889 100.278 38.8753C100.474 38.8673 100.553 38.9175 100.55 39.1339C100.537 39.8449 100.55 40.5559 100.55 41.268C100.545 41.3192 100.552 41.3694 100.562 41.4992Z" fill="#1D323E"/>
<path d="M131.253 41.6529C131.253 42.5644 130.656 43.2161 129.808 43.2092C129.017 43.2092 128.434 42.5849 128.421 41.7281C128.405 40.8166 129.001 40.166 129.854 40.1626C130.69 40.1603 131.247 40.7528 131.253 41.6529ZM128.968 41.6312C128.98 41.7577 128.982 41.8865 129.005 42.0118C129.087 42.4482 129.411 42.7649 129.792 42.7911C130.174 42.8173 130.505 42.5518 130.649 42.1075C130.708 41.9321 130.73 41.7466 130.715 41.5623C130.699 41.378 130.647 41.1988 130.56 41.0354C130.502 40.8967 130.402 40.779 130.275 40.6977C130.148 40.6163 130 40.5752 129.849 40.5796C129.7 40.5767 129.552 40.616 129.423 40.6932C129.295 40.7704 129.19 40.8823 129.123 41.016C129.024 41.2047 128.971 41.4138 128.968 41.6267V41.6312Z" fill="#1D323E"/>
<path d="M73.8184 41.783C73.6053 41.783 73.3923 41.783 73.1792 41.783C72.7873 41.783 72.744 41.8536 72.8887 42.2296C73.0334 42.6056 73.4652 42.8335 73.9836 42.7856C74.1107 42.7726 74.2367 42.7509 74.3607 42.7207C74.4747 42.6922 74.5989 42.5976 74.6524 42.8096C74.6991 42.9964 74.6091 43.0568 74.4553 43.1104C73.8184 43.328 72.9912 43.1707 72.6323 42.7526C72.2233 42.2786 72.1766 41.4378 72.5184 40.8294C72.66 40.5639 72.8909 40.3569 73.1702 40.245C73.4495 40.133 73.7594 40.1233 74.0451 40.2175C74.5647 40.3896 74.9122 40.9786 74.8621 41.5711C74.8472 41.7352 74.7914 41.791 74.6285 41.7841C74.3585 41.775 74.0884 41.783 73.8184 41.783ZM73.6315 41.3888C73.7594 41.3819 73.8876 41.3819 74.0155 41.3888C74.3323 41.4207 74.3869 41.2897 74.2764 41.0162C74.1659 40.7428 74.0064 40.5912 73.717 40.5605C73.5684 40.5363 73.4159 40.5597 73.2815 40.6275C73.147 40.6952 73.0374 40.8038 72.9684 40.9376C72.7691 41.2794 72.8192 41.3819 73.2043 41.3876C73.3467 41.3911 73.4891 41.3888 73.6315 41.3888Z" fill="#1D323E"/>
<path d="M95.4841 41.6759C95.4711 42.5566 94.8651 43.2015 94.0451 43.2072C93.2471 43.2129 92.6421 42.5657 92.6401 41.7009C92.6401 40.7895 93.2461 40.1548 94.1021 40.1617C94.9241 40.1719 95.4961 40.7963 95.4841 41.6759ZM94.9261 41.734C94.9341 41.0914 94.6371 40.6345 94.1901 40.5821C93.6551 40.5206 93.2461 40.9023 93.1981 41.5073C93.1441 42.2228 93.4871 42.7606 94.0191 42.7856C94.1471 42.7952 94.2761 42.7713 94.3921 42.7161C94.5091 42.661 94.6091 42.5766 94.6831 42.4712C94.8491 42.262 94.9351 42.0007 94.9261 41.734Z" fill="#1D323E"/>
<path d="M116.573 40.6023C116.678 40.5237 116.713 40.5009 116.744 40.4735C117.095 40.1671 117.488 40.0725 117.927 40.2457C118.391 40.4268 118.538 40.8279 118.563 41.2711C118.594 41.81 118.563 42.3512 118.577 42.8901C118.577 43.1043 118.499 43.1556 118.303 43.151C118.107 43.1465 118.007 43.1282 118.013 42.9015C118.025 42.4196 118.022 41.9353 118.013 41.4534C118.004 40.8837 117.758 40.5772 117.347 40.5932C116.937 40.6091 116.623 40.9749 116.617 41.4819C116.617 41.9513 116.606 42.4207 116.617 42.889C116.623 43.0963 116.552 43.1533 116.349 43.1533C116.147 43.1533 116.077 43.0998 116.078 42.8913C116.084 42.0671 116.079 41.2437 116.063 40.4211C116.063 40.2901 116.095 40.2525 116.216 40.2286C116.484 40.1716 116.565 40.3197 116.573 40.6023Z" fill="#1D323E"/>
<path d="M139.061 41.6701C139.045 42.5815 138.412 43.2355 137.58 43.2059C136.748 43.1763 136.19 42.5223 136.213 41.6621C136.24 40.7426 136.84 40.141 137.71 40.1627C138.511 40.1832 139.08 40.8133 139.061 41.6701ZM136.759 41.6416C136.769 41.7823 136.788 41.9224 136.815 42.0608C136.929 42.5098 137.258 42.7935 137.641 42.79C138.002 42.79 138.336 42.512 138.454 42.0893C138.508 41.9123 138.527 41.7263 138.51 41.5419C138.492 41.3575 138.438 41.1784 138.351 41.0149C138.289 40.8783 138.187 40.7633 138.059 40.6848C137.931 40.6062 137.782 40.5677 137.632 40.574C137.482 40.5739 137.335 40.6167 137.208 40.6974C137.081 40.7782 136.98 40.8935 136.917 41.0297C136.813 41.2169 136.759 41.4275 136.759 41.6416Z" fill="#1D323E"/>
<path d="M62.8575 41.6526C62.8814 40.7263 63.4727 40.1362 64.3511 40.1578C65.159 40.1783 65.7184 40.8323 65.6888 41.713C65.6591 42.5938 65.0211 43.2318 64.2076 43.2033C63.3941 43.1748 62.8301 42.5345 62.8575 41.6526ZM65.1293 41.6526C65.1391 41.4244 65.0863 41.1979 64.9767 40.9975C64.9131 40.8733 64.8182 40.768 64.7012 40.6919C64.5842 40.6159 64.4494 40.5719 64.3101 40.5643C64.1708 40.5567 64.032 40.5858 63.9074 40.6486C63.7829 40.7114 63.677 40.8058 63.6003 40.9223C63.457 41.1524 63.3834 41.4191 63.3887 41.6901C63.394 41.9611 63.4778 42.2247 63.6299 42.449C63.7026 42.5554 63.8007 42.6418 63.9153 42.7006C64.0298 42.7593 64.1573 42.7885 64.286 42.7854C64.4147 42.7823 64.5407 42.7472 64.6523 42.683C64.764 42.6189 64.8579 42.5279 64.9254 42.4183C65.0728 42.1913 65.1427 41.9227 65.1248 41.6526H65.1293Z" fill="#1D323E"/>
<path d="M54.3967 41.7828C54.1835 41.7965 53.9696 41.7965 53.7564 41.7828C53.3269 41.7258 53.3576 41.9378 53.4704 42.2226C53.6117 42.5803 53.892 42.7433 54.2554 42.7923C54.5108 42.8213 54.7695 42.7921 55.012 42.7068C55.1441 42.6612 55.1954 42.6988 55.2284 42.8105C55.2558 42.9051 55.2911 42.9894 55.176 43.0691C54.849 43.297 53.8681 43.2469 53.4488 42.9677C52.9794 42.6544 52.7526 41.9298 52.9224 41.2803C53.0865 40.648 53.5217 40.231 54.0754 40.1763C54.9037 40.0954 55.5224 40.7391 55.4426 41.5811C55.4267 41.7532 55.3606 41.7976 55.2079 41.7942C54.9379 41.7794 54.6667 41.7828 54.3967 41.7828ZM54.1688 41.3863C54.2533 41.3954 54.3385 41.3954 54.4229 41.3863C54.5859 41.3521 54.8468 41.5128 54.8969 41.2826C54.947 41.0525 54.816 40.8178 54.5995 40.6696C54.4421 40.5725 54.2546 40.5367 54.0724 40.5688C53.8903 40.6009 53.7264 40.6989 53.6117 40.844C53.5126 40.9784 53.3838 41.1413 53.4545 41.2997C53.5251 41.4581 53.7279 41.3658 53.8726 41.3829C53.9728 41.3893 54.0732 41.3905 54.1734 41.3863H54.1688Z" fill="#1D323E"/>
<path d="M146.856 42.4664C147.084 41.7931 147.297 41.2245 147.456 40.6434C147.561 40.2515 147.761 40.149 148.161 40.2754C147.694 41.3783 147.383 42.5314 146.81 43.5796C146.637 43.9259 146.35 44.2029 145.998 44.3646C145.901 44.4079 145.771 44.5036 145.716 44.335C145.669 44.2028 145.555 44.041 145.767 43.9305C145.857 43.8871 145.942 43.8364 146.024 43.7789C146.512 43.4121 146.593 43.1101 146.372 42.5416C146.12 41.9081 145.861 41.2792 145.62 40.6423C145.576 40.5215 145.379 40.3358 145.58 40.2549C145.782 40.174 146.036 40.1604 146.15 40.5022C146.345 41.1322 146.6 41.7509 146.856 42.4664Z" fill="#1D323E"/>
<path d="M112.207 42.7775C111.873 43.0862 111.566 43.2332 111.21 43.1945C110.825 43.1592 110.535 42.9723 110.43 42.5769C110.326 42.1816 110.477 41.8523 110.797 41.6074C111.117 41.3624 111.504 41.3111 111.885 41.294C112.154 41.2815 112.15 41.1539 112.101 40.9682C112.002 40.5945 111.586 40.4623 111.058 40.6173C110.932 40.6537 110.762 40.8873 110.664 40.5774C110.578 40.3085 110.815 40.3062 110.956 40.2595C112.013 39.904 112.665 40.3734 112.676 41.4729C112.676 41.9002 112.687 42.3274 112.676 42.7535C112.676 42.8834 112.806 43.0954 112.562 43.1341C112.363 43.1706 112.135 43.1785 112.207 42.7775ZM112.154 42.0301C112.154 41.8478 112.201 41.6609 111.9 41.6643C111.33 41.6643 110.957 41.9036 110.951 42.2921C110.951 42.6202 111.121 42.7946 111.439 42.8071C111.843 42.8231 112.143 42.4881 112.154 42.0301Z" fill="#1D323E"/>
<path d="M46.4108 41.3396C46.4108 40.8702 46.3869 40.3996 46.4199 39.9325C46.4427 39.5907 46.306 39.5144 46.0097 39.5508C45.8274 39.5725 45.6406 39.5508 45.456 39.5508C45.2714 39.5508 45.1917 39.5189 45.1939 39.3229C45.1962 39.127 45.2657 39.0746 45.4446 39.0757C46.2843 39.0814 47.1229 39.0837 47.9626 39.0757C48.1563 39.0757 48.1996 39.1532 48.2019 39.3298C48.2019 39.5269 48.1118 39.5497 47.9409 39.5576C47.6219 39.5736 47.1867 39.397 47.0158 39.6397C46.8608 39.8607 46.9725 40.2709 46.9714 40.5979C46.9714 41.3225 46.9714 42.0475 46.9714 42.7729C46.9714 42.978 46.9987 43.158 46.6774 43.15C46.3846 43.1409 46.4062 42.9791 46.4074 42.7889C46.4119 42.3069 46.4108 41.8238 46.4108 41.3396Z" fill="#1D323E"/>
<path d="M133.042 40.5657C133.172 40.4543 133.312 40.3548 133.46 40.2683C134.162 39.9265 134.913 40.3629 134.971 41.1605C135.013 41.7415 134.978 42.3272 134.989 42.9105C134.989 43.1053 134.909 43.1441 134.735 43.1464C134.561 43.1486 134.443 43.1167 134.45 42.8934C134.463 42.4377 134.457 41.9819 134.45 41.5262C134.445 40.9235 134.217 40.5953 133.808 40.5874C133.352 40.5783 133.047 40.9542 133.041 41.5262C133.041 41.9386 133.041 42.3522 133.041 42.7647C133.041 42.9572 133.094 43.1543 132.763 43.1509C132.45 43.1509 132.51 42.9595 132.509 42.7863C132.509 42.0321 132.509 41.2767 132.509 40.5224C132.509 40.4176 132.402 40.2478 132.623 40.225C132.799 40.2068 132.965 40.2057 132.983 40.4529C132.994 40.4928 133.026 40.5281 133.042 40.5657Z" fill="#1D323E"/>
<path d="M84.0381 39.2511C83.5823 39.242 83.2884 39.6226 83.3818 40.0806C83.4331 40.3324 83.6256 40.1945 83.7544 40.2242C83.8831 40.2538 84.0837 40.1489 84.0962 40.4178C84.1087 40.6867 83.9048 40.6605 83.7475 40.6457C83.4388 40.6047 83.3693 40.7334 83.3795 41.0228C83.4012 41.6335 83.3795 42.2454 83.3886 42.8561C83.3886 43.06 83.3556 43.1557 83.1141 43.1569C82.8725 43.158 82.8486 43.0361 82.8509 42.8435C82.8577 42.2317 82.8509 41.621 82.8509 41.0092C82.8509 40.8223 82.8839 40.6241 82.5888 40.6468C82.4407 40.6582 82.4475 40.542 82.4487 40.4418C82.4498 40.3415 82.4316 40.2207 82.5854 40.2378C82.9272 40.2743 82.8497 40.0157 82.8702 39.8402C82.9568 39.144 83.4707 38.7008 84.07 38.825C84.1999 38.8524 84.3617 38.8615 84.3275 39.0791C84.2956 39.2466 84.2944 39.2603 84.0381 39.2511Z" fill="#1D323E"/>
<path d="M98.2401 40.1558C98.3821 40.1699 98.5221 40.1986 98.6581 40.2412C98.8151 40.2845 98.7991 40.3745 98.7721 40.501C98.7451 40.6275 98.6881 40.7049 98.5441 40.6594C98.4781 40.6336 98.4101 40.6137 98.3401 40.6001C97.9211 40.5477 97.5361 40.6161 97.2851 40.9932C97.1551 41.1811 97.0801 41.4023 97.0701 41.631C97.0601 41.8597 97.1151 42.0865 97.2281 42.2852C97.4301 42.676 97.7841 42.7854 98.1991 42.7501C98.2981 42.7437 98.3971 42.7315 98.4941 42.7136C98.6081 42.692 98.7221 42.5678 98.7721 42.8048C98.8171 43.0144 98.7311 43.093 98.5581 43.1318C97.9471 43.2662 97.3461 43.2628 96.9061 42.7512C96.4661 42.2397 96.4211 41.6119 96.7001 40.9921C96.9671 40.3996 97.4781 40.1603 98.2401 40.1558Z" fill="#1D323E"/>
<path d="M126.812 40.1558C126.893 40.1683 127.049 40.1831 127.199 40.2184C127.327 40.2492 127.493 40.2458 127.427 40.4793C127.361 40.7129 127.262 40.6742 127.086 40.6354C126.135 40.4269 125.49 41.139 125.768 42.0722C125.931 42.6156 126.425 42.8572 127.114 42.7148C127.255 42.6851 127.359 42.6008 127.417 42.8287C127.475 43.0566 127.351 43.0873 127.214 43.1192C126.606 43.2662 126.007 43.2628 125.559 42.7592C125.111 42.2556 125.056 41.6198 125.331 41.0057C125.598 40.4098 126.102 40.1717 126.812 40.1558Z" fill="#1D323E"/>
<path d="M104.942 40.165C104.984 40.173 105.15 40.2072 105.317 40.238C105.45 40.2619 105.526 40.3166 105.47 40.4658C105.426 40.5866 105.405 40.721 105.217 40.6572C105.11 40.6206 104.999 40.5973 104.886 40.5877C104.228 40.5422 103.783 40.9637 103.769 41.6394C103.754 42.3572 104.169 42.7844 104.855 42.7525C104.971 42.755 105.086 42.7384 105.197 42.7035C105.343 42.6454 105.415 42.642 105.465 42.8175C105.515 42.9929 105.459 43.0613 105.313 43.0989C104.725 43.2561 104.141 43.2721 103.674 42.8209C103.185 42.3492 103.115 41.7487 103.332 41.1255C103.536 40.5262 103.99 40.2243 104.61 40.1582C104.672 40.1593 104.742 40.165 104.942 40.165Z" fill="#1D323E"/>
<path d="M90.8254 40.9805C90.8254 40.3687 90.8334 39.7568 90.8254 39.1438C90.8254 38.941 90.8801 38.8727 91.0871 38.8761C91.2951 38.8795 91.3951 38.9114 91.3931 39.1541C91.3831 40.3922 91.3831 41.6307 91.3931 42.8695C91.3931 43.1145 91.2791 43.1419 91.0811 43.1464C90.8528 43.1464 90.8243 43.045 90.8266 42.8604C90.8289 42.2338 90.8243 41.6071 90.8254 40.9805Z" fill="#1D323E"/>
<path d="M36.5226 3.61537C36.3187 3.62097 36.1157 3.58557 35.9257 3.51137C35.7356 3.43717 35.5624 3.32567 35.4162 3.18347C35.27 3.04117 35.1537 2.87107 35.0744 2.68307C34.995 2.49517 34.9542 2.29317 34.9542 2.08917C34.9542 1.88517 34.995 1.68327 35.0744 1.49537C35.1537 1.30737 35.27 1.13727 35.4162 0.994974C35.5624 0.852774 35.7356 0.741174 35.9257 0.666974C36.1157 0.592874 36.3187 0.557474 36.5226 0.563074C36.9322 0.560874 37.3261 0.720574 37.6187 1.00737C37.9112 1.29407 38.0787 1.68477 38.0847 2.09437C38.083 2.29707 38.0412 2.49747 37.9616 2.68397C37.8821 2.87047 37.7663 3.03937 37.621 3.18077C37.4757 3.32227 37.3039 3.43347 37.1153 3.50807C36.9268 3.58267 36.7253 3.61917 36.5226 3.61537ZM37.8443 2.08977C37.8389 1.74567 37.6995 1.41728 37.4556 1.17448C37.2117 0.931575 36.8827 0.793574 36.5385 0.789774C36.1947 0.793274 35.8653 0.928474 35.6181 1.16757C35.371 1.40667 35.2249 1.73137 35.2101 2.07497C35.2113 2.24907 35.2467 2.42127 35.3145 2.58167C35.3823 2.74197 35.481 2.88747 35.605 3.00967C35.729 3.13187 35.8759 3.22847 36.0373 3.29387C36.1986 3.35927 36.3713 3.39227 36.5454 3.39097C36.8896 3.38887 37.2191 3.25097 37.4623 3.00737C37.7055 2.76377 37.8428 2.43397 37.8443 2.08977Z" fill="#1D323E"/>
<path d="M114.643 41.6768C114.643 42.0756 114.643 42.4744 114.643 42.872C114.643 43.0646 114.594 43.1512 114.379 43.1478C114.164 43.1443 114.074 43.0953 114.077 42.8629C114.089 42.0654 114.086 41.2678 114.077 40.4703C114.077 40.2424 114.184 40.2196 114.368 40.2207C114.551 40.2219 114.655 40.2583 114.646 40.4794C114.632 40.8804 114.643 41.2792 114.643 41.6768Z" fill="#1D323E"/>
<path d="M114.698 39.4244C114.661 39.6101 114.578 39.7412 114.367 39.7378C114.321 39.7433 114.274 39.7378 114.231 39.7216C114.187 39.7055 114.148 39.6793 114.117 39.6451C114.086 39.6109 114.063 39.5697 114.051 39.525C114.039 39.4803 114.037 39.4333 114.047 39.388C114.046 39.345 114.055 39.3025 114.073 39.2634C114.091 39.2242 114.117 39.1894 114.149 39.1614C114.182 39.1333 114.22 39.1126 114.261 39.1008C114.303 39.089 114.346 39.0863 114.389 39.0929C114.585 39.1031 114.683 39.2353 114.698 39.4244Z" fill="#1D323E"/>
<path d="M155.565 10.5267C155.565 9.89997 155.565 9.27337 155.565 8.64787C155.565 8.47347 155.585 8.33567 155.801 8.32197C156.382 8.28667 156.966 8.22397 157.539 8.38807C158.042 8.53047 158.337 8.85747 158.398 9.38617C158.467 9.97407 158.27 10.4469 157.778 10.6736C157.494 10.8058 157.55 10.9129 157.676 11.11C157.92 11.4928 158.156 11.8836 158.373 12.2836C158.436 12.3975 158.667 12.549 158.487 12.6664C158.441 12.7002 158.387 12.7239 158.331 12.736C158.275 12.748 158.216 12.7481 158.16 12.7363C158.104 12.7245 158.05 12.7011 158.003 12.6674C157.957 12.6338 157.917 12.5908 157.888 12.541C157.649 12.1548 157.405 11.7686 157.188 11.3687C157.014 11.0451 156.816 10.8229 156.399 10.8685C156.185 10.8924 156.097 10.9391 156.104 11.1658C156.119 11.5783 156.104 11.9919 156.109 12.4043C156.109 12.5832 156.078 12.7097 155.863 12.7177C155.649 12.7256 155.567 12.6151 155.569 12.4055C155.569 11.7788 155.565 11.1522 155.565 10.5267ZM156.102 9.57067C156.102 10.472 156.102 10.4743 157.002 10.3945C157.129 10.3868 157.255 10.3627 157.376 10.3227C157.501 10.2861 157.611 10.2125 157.692 10.1118C157.774 10.011 157.822 9.88787 157.832 9.75867C157.904 9.14797 157.64 8.84727 156.987 8.80737C156.102 8.75717 156.102 8.75717 156.102 9.57067Z" fill="#1D323E"/>
<path d="M37.1855 3.00917C36.8266 2.93277 36.8049 2.64567 36.6648 2.46677C36.5782 2.35287 36.4973 2.26858 36.3515 2.31068C36.2056 2.35287 36.2694 2.49647 36.258 2.59897C36.2512 2.66957 36.258 2.74027 36.258 2.81207C36.258 2.88377 36.2432 2.96697 36.1589 2.97387C36.0746 2.98067 36.0518 2.89867 36.045 2.82687C36.045 2.38587 36.045 1.94608 36.045 1.50518C36.045 1.46418 36.045 1.39807 36.0723 1.39127C36.2062 1.32507 36.3544 1.29337 36.5036 1.29897C36.6528 1.30447 36.7983 1.34717 36.9268 1.42317C37.1547 1.54967 37.2607 1.84467 37.075 2.00077C36.6921 2.32557 36.961 2.54427 37.1114 2.79837C37.1414 2.86667 37.1661 2.93707 37.1855 3.00917ZM36.4631 1.50518C36.2478 1.45508 36.2626 1.63277 36.2546 1.81628C36.2466 1.99968 36.2774 2.15807 36.5212 2.12388C36.7092 2.10108 36.9006 2.07948 36.9143 1.83108C36.9314 1.54738 36.7274 1.52338 36.4631 1.50518Z" fill="#1D323E"/>
</svg>
