<svg width="107" height="45" viewBox="0 0 107 45" fill="none" xmlns="http://www.w3.org/2000/svg">
<path d="M105.662 43.2862V42.1483H3.2959V2.85172H104.45V43.2862H105.662H106.873V0.5H0.873047V44.5H106.873V43.2862H105.662Z" fill="#1D323E"/>
<path d="M13.6688 24.0175L16.4702 31.1486H16.5459L19.1959 24.0175H22.3759L22.9059 25.3072L22.4516 25.3831C22.1488 25.3831 21.9216 25.6106 21.9973 25.9141L22.5273 34.0313L23.4359 34.1072L23.9659 35.4727H19.6502V34.1831L20.1802 34.1072C20.5588 34.1072 20.5588 33.9555 20.5588 33.5003L20.0288 27.052L17.2273 33.652L15.6373 34.1831L12.9873 27.052L12.6088 33.9555L13.5173 34.0313V35.3969H9.20162L9.73162 34.1072L10.2616 34.0313C10.5645 33.9555 10.7159 33.8796 10.7159 33.4244L11.2459 25.3831L10.3373 25.3072L10.8673 23.9417H13.6688V24.0175Z" fill="#1D323E"/>
<path d="M24.6473 35.3966L25.1773 34.1069L25.5559 34.031C25.9345 33.9552 26.0102 33.8034 26.1616 33.5L28.8873 25.4586L27.9788 25.3828L28.5088 24.0172H31.7645L35.323 34.031L35.9288 34.1069L36.4588 35.3966H32.143V34.1069L32.673 34.031C32.9759 34.031 33.1273 33.8034 32.9759 33.5L32.5216 32.1345H28.5845L27.9788 33.9552L28.8873 34.031V35.3966H24.6473ZM28.963 30.6931H32.143L30.553 25.8379H30.4773L28.963 30.6931Z" fill="#1D323E"/>
<path d="M43.7273 33.576V30.845L42.8945 30.7691L42.3645 29.4036H46.8316L46.6045 30.6933L46.1502 30.7691C45.8473 30.845 45.6959 30.9208 45.6959 31.3002V34.5622C44.7116 35.245 43.3488 35.6243 41.8345 35.6243C38.503 35.6243 36.6859 33.7277 36.6859 29.707C36.6859 25.307 39.2602 23.7898 42.213 23.7898C43.5759 23.7898 44.863 24.0933 45.6202 24.4726V25.9898L44.0302 26.5967V26.0657C44.0302 25.7622 44.0302 25.6105 43.7273 25.5346C43.4245 25.4588 42.8188 25.3829 42.3645 25.3829C39.9416 25.3829 38.8816 26.976 38.8816 29.4795C38.8816 32.2105 39.7902 33.8036 41.9102 33.8036C42.5159 33.9553 43.273 33.8036 43.7273 33.576Z" fill="#1D323E"/>
<path d="M58.113 34.8658L56.1445 35.3969L51.1473 27.1279V34.0313L52.0559 34.1072V35.3969H47.8916L48.4216 34.1072L48.7245 34.0313C49.0273 33.9555 49.103 33.8796 49.103 33.5762V25.3831L47.9673 25.3072L48.4973 23.9417H51.2988L56.1445 32.1348V25.3831L55.2359 25.3072V24.0175H59.3245L58.7945 25.3072L58.4916 25.3831C58.1888 25.4589 58.0373 25.5348 58.0373 25.9141V34.8658H58.113Z" fill="#1D323E"/>
<path d="M59.4002 35.3966L59.9302 34.1069L60.0816 34.031C60.4602 33.9552 60.5359 33.8034 60.6873 33.5L63.4888 25.4586L62.5802 25.3828L63.1102 24.0172H66.3659L69.773 33.9552L70.3788 34.031L70.9088 35.3966H66.593V34.1069L67.123 34.031C67.4259 34.031 67.5773 33.8034 67.4259 33.5L66.9716 32.1345H63.0345L62.4288 33.9552L63.3373 34.031V35.3966H59.4002ZM63.413 30.6931H66.593L65.003 25.8379H64.9273L63.413 30.6931Z" fill="#1D323E"/>
<path d="M73.9373 25.5345H72.3473C71.9688 25.5345 71.8931 25.6862 71.8931 25.9897V26.5966L70.2273 26.0655V24.0172H79.6159V26.0655L77.9502 26.5966V25.9897C77.9502 25.6862 77.8745 25.5345 77.4959 25.5345H75.9816V34.031L76.9659 34.1069L77.4959 35.4724H72.423L72.953 34.1828L73.483 34.1069C73.8616 34.1069 73.9373 33.9552 73.9373 33.5759V25.5345Z" fill="#1D323E"/>
<path d="M81.433 34.1072L81.5845 34.0313C82.0388 33.9555 82.1145 33.8796 82.1145 33.4244V25.3831L81.433 25.3072L80.903 23.9417H88.9288V25.99L87.263 26.521V25.6865C87.263 25.3831 87.1873 25.4589 86.8088 25.4589H84.1588V28.721H88.2473V30.3141H84.1588V33.8796H87.0359C87.4145 33.8796 87.4145 33.7279 87.4145 33.4244V33.2727L89.0802 32.8175V35.3969H80.8273L81.433 34.1072Z" fill="#1D323E"/>
<path d="M96.3488 32.2864C96.3488 31.2243 95.4402 30.7691 94.2288 30.3898C92.6388 29.9346 90.9731 29.2519 91.0488 27.0519C91.1245 24.9277 92.7145 23.7139 95.1373 23.7898C96.1973 23.7898 97.4845 24.0174 98.3173 24.4726V26.1415L96.6516 26.6726V26.1415C96.6516 25.8381 96.6516 25.6864 96.3488 25.6105C96.1216 25.5346 95.5159 25.4588 95.1373 25.4588C94.2288 25.4588 93.3202 25.7622 93.2445 26.9002C93.2445 27.9622 94.153 28.3415 95.4402 28.7967C97.0302 29.3277 98.6202 29.9346 98.5445 32.2105C98.4688 34.4864 96.9545 35.7002 94.2288 35.6243C93.0173 35.6243 91.8059 35.3967 90.8216 34.9415V33.2726L92.4873 32.7415V33.2726C92.4873 33.576 92.563 33.7277 92.7902 33.8036C93.093 33.8795 93.623 33.9553 94.153 33.9553C95.3645 33.9553 96.3488 33.576 96.3488 32.2864Z" fill="#1D323E"/>
<path d="M10.6402 9.60345H18.0602V10.3621H11.473V14.5345H16.9245V15.2931H11.473V20.7552H10.6402V9.60345Z" fill="#1D323E"/>
<path d="M24.4202 9.60345H23.5873V20.7552H24.4202V9.60345Z" fill="#1D323E"/>
<path d="M30.7045 9.60345H31.4616L38.9573 19.3897V9.60345H39.7145V20.7552H39.033L31.5373 10.969V20.7552H30.7045V9.60345Z" fill="#1D323E"/>
<path d="M49.9359 9.52789H50.693L55.6902 20.7555H54.8573L53.4188 17.4934H47.2102L45.7716 20.7555H44.9388L49.9359 9.52789ZM53.1159 16.8106L50.3145 10.59L47.513 16.8106H53.1159Z" fill="#1D323E"/>
<path d="M60.8388 9.60345H61.5202L69.0159 19.3897V9.60345H69.8488V20.7552H69.1673L61.5959 10.969V20.7552H60.8388V9.60345Z" fill="#1D323E"/>
<path d="M75.603 15.1415C75.603 11.8036 78.0259 9.37601 81.2059 9.37601C82.4173 9.37601 83.4773 9.67946 84.3859 10.2864V11.1208C83.4773 10.5139 82.4173 10.1346 81.2059 10.1346C78.4802 10.1346 76.3602 12.2588 76.3602 15.1415C76.3602 18.0243 78.4802 20.1484 81.2059 20.1484C82.5688 20.1484 83.7045 19.7691 84.6131 19.0105V19.9208C83.7045 20.6036 82.5688 20.9829 81.2059 20.9829C78.1016 20.907 75.603 18.5553 75.603 15.1415Z" fill="#1D323E"/>
<path d="M90.0645 9.60345H97.5602V10.3621H90.8973V14.3828H96.4245V15.1414H90.8973V19.9966H97.7873V20.7552H90.0645V9.60345Z" fill="#1D323E"/>
</svg>
