<svg width="161" height="27" viewBox="0 0 161 27" fill="none" xmlns="http://www.w3.org/2000/svg">
<path fill-rule="evenodd" clip-rule="evenodd" d="M105.485 27C103.004 27 101.163 26.5235 99.963 25.5706C98.922 24.7765 98.362 23.5853 98.362 22.3147H103.324C103.564 23.2677 103.965 23.8235 105.565 23.8235C107.326 23.8235 108.047 22.8706 108.047 20.7265V18.8206H107.967C107.326 20.4088 105.725 21.3618 104.045 21.2029C99.963 21.2029 97.882 18.9 97.882 14.3735C97.801 12.4677 98.442 10.5618 99.722 9.1324C100.843 7.9412 102.444 7.3059 104.125 7.3059C105.725 7.1471 107.246 7.9412 108.047 9.3706H108.127V7.6235H113.009V20.25C113.009 22.5529 112.449 24.2206 111.248 25.2529C109.968 26.4441 108.127 27 105.485 27ZM105.645 10.7206C104.045 10.7206 103.084 12.0706 103.084 14.3735C103.084 16.7559 103.965 18.0265 105.565 18.0265C106.926 18.0265 108.047 16.9147 108.047 15.5647C108.047 15.4853 108.047 15.4059 108.047 15.3265V13.7382C108.047 11.8324 107.166 10.7206 105.645 10.7206ZM58.902 22.2353C57.1411 22.3941 55.3803 21.9177 53.9395 20.9647C52.9791 20.1706 52.4188 18.9794 52.3387 17.7088H56.901C56.9811 18.6618 57.6214 19.1382 58.822 19.1382C59.9425 19.1382 60.6629 18.7412 60.6629 17.9471C60.6629 17.3118 60.2627 16.9941 59.2222 16.8353L56.901 16.5177C54.0996 16.2 52.5789 14.6118 52.5789 12.15C52.5789 10.8794 53.0591 9.6882 54.0196 8.8147C56.821 6.9088 60.5028 6.8294 63.3042 8.5765C64.2647 9.3706 64.8251 10.5618 64.8251 11.7529H60.3428C60.3428 10.9588 59.6224 10.3235 58.822 10.3235H58.7419C57.4613 10.3235 57.2212 10.8794 57.2212 11.4353C57.2212 11.9912 57.4613 12.3882 58.5819 12.5471L61.0631 12.8647C62.1838 12.9441 63.2243 13.3412 64.0247 14.0559C64.8251 14.85 65.2253 15.8824 65.1451 16.9941C65.3053 20.25 62.824 22.2353 58.902 22.2353ZM44.4948 22.1559C39.8525 22.1559 37.2112 19.4559 37.2112 14.6118C37.1311 12.6265 37.8515 10.7206 39.1321 9.2912C40.5728 7.9412 42.4938 7.1471 44.4948 7.3059C46.9761 7.3059 48.897 8.0206 50.0976 9.3706C51.2982 10.8794 51.9385 12.8647 51.8585 14.7706V15.8824H42.3337C42.4938 17.9471 43.1341 18.9 44.6549 18.9C45.6154 19.0588 46.4958 18.4235 46.6559 17.55H51.6984C51.3783 20.4882 48.897 22.1559 44.4948 22.1559ZM44.4948 10.3235C43.1341 10.3235 42.4938 11.2765 42.3337 13.1824H46.6559V13.0235C46.4958 11.1971 45.7755 10.3235 44.4948 10.3235ZM136.301 22.0765C134.78 22.1559 133.259 21.6 132.139 20.4882C131.098 19.2971 130.538 17.7088 130.618 16.1206C130.538 14.5324 131.098 12.9441 132.139 11.8324C133.259 10.8 134.78 10.1647 136.301 10.2441C139.822 10.2441 141.984 12.4677 141.984 16.1206C141.984 19.7735 139.742 22.0765 136.301 22.0765ZM136.301 12.5471C134.46 12.5471 134.06 14.5324 134.06 16.2C134.06 18.6618 134.86 19.8529 136.301 19.8529C137.741 19.8529 138.542 18.5824 138.542 16.2C138.542 13.8177 137.741 12.5471 136.301 12.5471ZM124.855 22.0765C123.334 22.1559 121.813 21.6 120.693 20.4882C119.652 19.2971 119.172 17.7088 119.252 16.2C119.252 12.5471 121.413 10.3235 124.935 10.3235C128.137 10.3235 130.058 11.9118 130.138 14.6118H126.856C126.776 13.6588 126.376 12.5471 124.935 12.5471C122.934 12.5471 122.694 14.85 122.694 16.2C122.694 18.6618 123.414 19.8529 124.935 19.8529C126.056 19.8529 126.936 18.9794 126.936 17.8677C126.936 17.7882 126.936 17.7088 126.936 17.6294H130.138C130.138 18.9 129.577 20.1706 128.617 20.9647C127.496 21.7588 126.136 22.0765 124.855 22.0765ZM71.0681 21.9971C69.8675 22.0765 68.587 21.7588 67.6264 20.9647C66.6659 20.0118 66.1857 18.5824 66.2657 17.2324V3.7324H71.2282V7.6235H74.1898V11.1177H71.3083V16.2794C71.3083 17.7882 71.7885 18.3441 73.1491 18.3441C73.4693 18.3441 73.7896 18.3441 74.1096 18.2647V21.8382C73.0692 21.9177 72.1086 21.9971 71.0681 21.9971ZM153.749 21.7588H150.388V15.1677C150.468 14.5324 150.308 13.8971 150.068 13.3412C149.747 12.8647 149.187 12.6265 148.627 12.7059C147.266 12.7059 146.466 13.6588 146.466 15.2471V21.7588H143.104V10.5618H146.306V12.3882C147.026 11.0382 148.387 10.2441 149.827 10.3235C151.748 10.3235 152.869 11.1177 153.349 12.6265H153.429C154.07 11.1971 155.51 10.2441 157.111 10.3235C159.672 10.3235 160.873 11.6735 160.873 14.4529V21.7588H157.511V15.1677C157.591 14.5324 157.431 13.8971 157.191 13.3412C156.871 12.8647 156.311 12.6265 155.75 12.7059C154.39 12.7059 153.589 13.6588 153.589 15.2471L153.749 21.7588ZM87.3162 21.7588H82.1937V7.6235H87.1561V9.9265H87.2362C88.1166 8.2588 89.9575 7.2265 91.879 7.3853C93.719 7.3853 95 7.8618 95.8 8.8147C96.6011 10.0059 97.0011 11.5147 96.841 12.9441V21.7588H91.718V13.7382C91.798 13.0235 91.638 12.3088 91.318 11.6735C90.918 11.1971 90.3577 10.8794 89.7174 10.9588C88.1967 10.9588 87.3963 11.9118 87.3963 13.8177L87.3162 21.7588ZM13.1992 21.7588H8.07665V7.6235H13.0391V9.9265H13.1191C13.9996 8.2588 15.8405 7.2265 17.7614 7.3853C19.6024 7.3853 20.883 7.8618 21.6834 8.8147C22.4838 10.0059 22.884 11.5147 22.7239 12.9441V21.7588H17.6014V13.7382C17.6814 13.0235 17.5213 12.3088 17.2012 11.6735C16.801 11.1971 16.2407 10.8794 15.6004 10.9588C14.0796 10.9588 13.2792 11.9118 13.2792 13.8177L13.1992 21.7588ZM118.212 21.7588H114.69V18.4235H118.212V21.7588ZM80.5128 21.7588H75.3904V7.6235H80.5128V21.7588ZM32.809 21.7588H27.5263L22.4838 7.6235H27.6064L29.4473 13.7382C29.9275 15.4853 30.3277 17.3118 30.3277 17.3912H30.4078C30.6479 16.2 30.888 15.0088 31.2082 13.8177L33.0491 7.703H38.0116L32.809 21.7588ZM6.15565 21.7588H0.873047V1.7471H6.15565V21.7588Z" fill="#1D323E"/>
<path fill-rule="evenodd" clip-rule="evenodd" d="M75.2301 6.1147L80.5128 5.1618V0L75.2301 0.9529V6.1147Z" fill="#1D323E"/>
</svg>
