<svg width="99" height="45" viewBox="0 0 99 45" fill="none" xmlns="http://www.w3.org/2000/svg">
<path d="M20.4608 24.3722C20.4608 24.2218 20.3124 23.9209 20.3124 23.7704L17.1962 20.6111C16.8993 20.3102 16.8993 19.8589 17.1962 19.5579L19.2736 17.4517C19.5704 17.1509 20.0156 17.1509 20.3124 17.4517L24.7641 21.965C24.9125 22.1155 24.9125 22.266 24.9125 22.5669V34.6024C24.9125 35.0538 24.6157 35.3547 24.1706 35.3547H21.2027C20.7575 35.3547 20.4608 35.0538 20.4608 34.6024V24.3722ZM77.8887 40.6202C79.9656 40.6202 81.5979 38.9653 81.5979 36.8591C81.5979 34.7529 79.9656 33.098 77.8887 33.098C75.8111 33.098 74.1788 34.7529 74.1788 36.8591C74.1788 38.9653 75.8111 40.6202 77.8887 40.6202ZM10.6669 29.9387C10.2218 29.9387 9.92493 30.2395 9.92493 30.6909V37.3104C9.92493 37.4609 9.77659 37.7618 9.77659 37.9122L4.58283 43.1777C4.28608 43.4787 3.84092 43.4787 3.5441 43.1777L1.46662 41.0716C1.16987 40.7706 1.16987 40.3194 1.46662 40.0184L5.17641 36.1069C5.32482 35.9565 5.32482 35.806 5.32482 35.5051V30.6909C5.32482 30.2395 5.028 29.9387 4.58283 29.9387H1.61503C1.16987 29.9387 0.873047 29.6377 0.873047 29.1864V26.1775C0.873047 25.7262 1.16987 25.4253 1.61503 25.4253H4.58283C5.028 25.4253 5.32482 25.1244 5.32482 24.6731V19.4075C5.32482 18.9562 5.62157 18.6553 6.06673 18.6553H9.0346C9.47977 18.6553 9.77659 18.9562 9.77659 19.4075V24.6731C9.77659 25.1244 10.0733 25.4253 10.5185 25.4253H16.4542C16.8993 25.4253 17.1962 25.7262 17.1962 26.1775V42.8769C17.1962 43.3282 16.8993 43.6291 16.4542 43.6291H11.4089C10.9637 43.6291 10.6669 43.3282 10.6669 42.8769V39.868C10.6669 39.4167 10.9637 39.1158 11.4089 39.1158H12.1508C12.596 39.1158 12.8928 38.8149 12.8928 38.3635V30.8413C12.8928 30.3899 12.596 30.0891 12.1508 30.0891H10.6669V29.9387ZM45.0938 32.7971C45.2422 32.6467 45.3905 32.1953 45.2422 32.0448C45.0938 31.744 44.797 31.5935 44.5002 31.5935H36.0419C35.5967 31.5935 35.2999 31.2926 35.2999 30.8413V27.8324C35.2999 27.3811 35.5967 27.0802 36.0419 27.0802H41.5324C41.6808 27.0802 41.9776 26.9297 42.1259 26.9297L43.6099 25.4253C43.7582 25.2748 43.9066 24.8235 43.7582 24.6731C43.6099 24.3722 43.3131 24.2218 43.0163 24.2218H41.9776C41.5324 24.2218 41.2356 23.9209 41.2356 23.4695V20.4606C41.2356 20.0093 41.5324 19.7084 41.9776 19.7084H53.8489C54.1457 19.7084 54.4425 19.8589 54.5908 20.1597C54.7393 20.4606 54.5908 20.7615 54.4425 20.912L49.5456 25.8767C49.3972 26.0271 49.2487 26.4784 49.3972 26.6289C49.5456 26.9297 49.8423 27.0802 50.1391 27.0802H58.5974C59.0427 27.0802 59.3391 27.3811 59.3391 27.8324V30.8413C59.3391 31.2926 59.0427 31.5935 58.5974 31.5935H53.1069C52.9585 31.5935 52.6618 31.744 52.5134 31.744L48.0616 36.2573C47.7648 36.5582 47.7648 37.0096 48.0616 37.3104L51.4746 40.7706C51.7714 41.0716 51.7714 41.5229 51.4746 41.8238L49.3972 43.93C49.1003 44.2309 48.6552 44.2309 48.3584 43.93L41.8292 37.3104C41.5324 37.0096 41.5324 36.5582 41.8292 36.2573L45.0938 32.7971ZM83.082 26.1775C83.082 26.6289 83.3791 26.9297 83.8238 26.9297H85.3079C85.7532 26.9297 86.0496 26.6289 86.0496 26.1775V24.6731C86.0496 24.2218 85.7532 23.9209 85.3079 23.9209H83.8238C83.3791 23.9209 83.082 24.2218 83.082 24.6731V26.1775ZM77.1463 26.1775C77.1463 26.6289 77.4434 26.9297 77.8887 26.9297C78.3333 26.9297 78.6304 26.6289 78.6304 26.1775V24.6731C78.6304 24.2218 78.3333 23.9209 77.8887 23.9209C77.4434 23.9209 77.1463 24.2218 77.1463 24.6731V26.1775ZM74.9205 19.4075C75.3658 19.4075 75.6622 19.1066 75.6622 18.6553V17.9031C75.6622 17.4517 75.9593 17.1508 76.4046 17.1508H79.3721C79.8174 17.1508 80.1145 17.4517 80.1145 17.9031V18.6553C80.1145 19.1066 80.4109 19.4075 80.8562 19.4075H97.9211C98.2182 19.4075 98.5146 19.5579 98.6634 19.8589C98.8117 20.1597 98.6635 20.4606 98.5146 20.6111L93.6176 25.5757C93.4694 25.7262 93.3212 26.1775 93.4694 26.328C93.6176 26.4784 93.9147 26.7793 94.2111 26.7793H98.0699C98.3664 26.7793 98.6635 26.9297 98.8117 27.2306C98.9599 27.5316 98.8117 27.8324 98.6634 27.9828L90.9465 35.806C90.7983 35.9565 90.7983 36.1069 90.7983 36.4077V43.6291C90.7983 44.0804 90.5019 44.3813 90.0566 44.3813H87.0884C86.6438 44.3813 86.3467 44.0804 86.3467 43.6291V32.1953C86.3467 31.744 86.0496 31.4431 85.605 31.4431C85.4561 31.4431 85.1597 31.5935 85.1597 31.744C85.0115 31.8944 85.0115 32.1953 85.1597 32.3458C86.1985 34.0006 86.6438 36.1069 86.1985 38.3635C85.605 41.5229 83.082 44.2309 79.9656 44.8326C74.6241 45.8858 70.0236 41.8238 70.0236 36.7087C70.0236 34.9033 70.6171 33.098 71.6559 31.744V31.5935L71.5077 31.4431C71.0624 31.4431 70.7653 31.1422 70.7653 30.6909V27.682C70.7653 27.2306 71.0624 26.9297 71.5077 26.9297H72.2494C72.6947 26.9297 72.9918 26.6289 72.9918 26.1775V24.6731C72.9918 24.2218 72.6947 23.9209 72.2494 23.9209H71.5077C71.0624 23.9209 70.7653 23.6199 70.7653 23.1686V20.1597C70.7653 19.7084 71.0624 19.4075 71.5077 19.4075H74.9205Z" fill="#1D323E"/>
<path d="M90.5019 10.6816C90.5019 10.5311 90.5019 10.2303 90.5019 10.0798C90.5019 9.92939 90.353 9.62844 90.0566 9.62844C89.7595 9.62844 89.4631 9.62844 89.0178 9.62844C88.7207 9.62844 88.2761 9.62844 87.979 9.62844C87.5337 9.62844 87.5337 9.92939 87.5337 10.832C87.5337 11.8852 87.5337 11.8852 89.0178 11.8852C90.5019 11.8852 90.5019 11.7347 90.5019 10.6816ZM87.8308 5.86735C87.5337 5.86735 87.3855 5.7169 87.2373 5.41601C87.0884 5.11512 86.792 4.66379 86.6438 4.51334C86.4949 4.3629 86.4949 4.21245 86.4949 4.06201C86.4949 3.76112 86.9402 3.46023 87.2373 3.46023C87.8308 3.46023 88.5725 4.81423 88.5725 5.26557C88.5725 5.56646 88.2761 5.86735 87.8308 5.86735ZM91.8371 3.15934H86.1985C85.605 3.15934 85.4561 2.85845 85.4561 2.55756C85.4561 2.25667 85.7532 1.80533 86.1985 1.80533H88.2761V1.05311C88.2761 0.601779 88.7207 0.300889 89.0178 0.300889C89.4631 0.300889 89.9084 0.601779 89.9084 1.05311V1.80533H91.8371C92.2824 1.80533 92.5795 2.10623 92.5795 2.55756C92.5795 3.00889 92.2824 3.15934 91.8371 3.15934ZM92.1342 7.3718H86.0503C85.4561 7.3718 85.3079 7.07092 85.3079 6.77002C85.1597 6.31868 85.4561 6.01779 85.9014 6.01779H89.0178C89.3149 5.56646 89.7595 4.51334 89.9084 3.76112C90.0566 3.30979 90.353 3.15934 90.6501 3.15934C91.0954 3.15934 91.5407 3.46023 91.5407 3.91156C91.5407 4.3629 90.7983 5.56646 90.6501 5.86735H92.1342C92.5795 6.01779 92.8759 6.31868 92.8759 6.61957C92.8759 7.07093 92.5795 7.3718 92.1342 7.3718ZM92.1342 11.7347C92.1342 12.4869 91.5407 13.0887 90.6501 13.2391C90.2048 13.2391 89.7595 13.2391 89.166 13.2391C86.4949 13.2391 86.0503 13.2391 86.0503 10.832C86.0503 10.3807 86.0503 10.0798 86.0503 9.62844C86.0503 8.87623 86.6438 8.27448 87.3855 8.27448C87.8308 8.27448 88.2761 8.27448 88.8696 8.27448C89.4631 8.27448 90.2048 8.27448 90.6501 8.27448C91.5407 8.27448 92.1342 8.87623 92.1342 9.62844C92.1342 10.0798 92.1342 10.5311 92.1342 10.9825C92.1342 11.1329 92.1342 11.4338 92.1342 11.7347ZM96.1405 11.4338C94.9535 11.4338 94.8053 10.6816 94.8053 10.3807C94.8053 9.92939 95.1017 9.47804 95.547 9.47804H95.6952C95.8441 9.47804 95.9923 9.47804 95.9923 9.47804C96.2887 9.47804 96.734 9.47804 96.734 8.42488C96.734 7.67267 96.4376 7.07093 95.9923 6.46913C95.6952 6.01779 95.547 5.56646 95.547 5.11512C95.547 4.66379 95.6952 4.3629 95.8441 4.06201C95.9923 3.61067 96.4376 2.55756 96.4376 2.40711C96.4376 2.25667 96.4376 2.10623 95.547 2.10623C94.8053 2.10623 94.5082 2.10623 94.5082 2.55756C94.5082 3.46023 94.5082 4.3629 94.5082 5.41601C94.5082 7.3718 94.5082 9.47804 94.5082 11.5842V12.7878C94.5082 13.2391 94.0629 13.5401 93.7665 13.5401C93.3212 13.5401 92.8759 13.2391 92.8759 12.7878C92.8759 7.3718 92.8759 5.11512 92.8759 2.40711C92.8759 1.354 93.4694 0.752226 94.36 0.752226C94.8053 0.752226 95.2499 0.752226 95.6952 0.752226C95.9923 0.752226 96.2887 0.752226 96.734 0.752226C97.7728 0.752226 98.3663 1.354 98.3663 2.10623C98.3663 2.70801 98.0699 3.30979 97.3276 4.66379C97.1793 4.81423 97.1793 5.11512 97.1793 5.26557C97.1793 5.56646 97.3275 5.7169 97.4764 6.01779C97.9211 6.77002 98.5146 7.67267 98.5146 8.87623C98.5146 10.6816 97.3276 11.4338 96.1405 11.4338ZM73.5853 7.3718V7.07092C73.5853 6.77002 73.4364 6.61957 70.9142 6.61957C70.1718 6.61957 69.4301 6.61957 68.6883 6.61957C68.243 6.61957 68.0948 6.92045 68.0948 6.92045V7.22133H73.5853V7.3718ZM73.5853 9.92939V9.62844H68.0948V9.92939C68.0948 10.2303 68.243 10.2303 70.7653 10.2303C71.5077 10.2303 72.2494 10.2303 72.8429 10.2303C73.4364 10.3807 73.5853 10.2303 73.5853 9.92939ZM73.7335 8.87623V8.27448H68.243V8.87623H73.7335ZM66.7589 4.81423L66.9071 3.61067C65.5719 4.51334 65.2748 4.66379 64.9784 4.66379C64.5331 4.66379 64.236 4.21245 64.236 3.91156C64.236 3.61067 64.3849 3.46023 64.6813 3.30979C66.0172 2.70801 67.3524 1.65489 68.3912 0.300889C68.5395 0.150445 68.8365 0 68.9847 0C69.43 0 69.8754 0.451334 69.8754 0.752226C69.8754 0.902669 69.8754 1.05311 69.7271 1.20355C69.2818 1.65489 68.9847 1.95578 68.5395 2.40711L68.3912 4.81423C68.3912 5.41601 67.9459 5.56646 67.5006 5.56646C67.056 5.56646 66.7589 5.41601 66.7589 4.81423ZM72.1012 3.15934V3.30979C72.1012 3.91157 72.3976 3.91156 73.5853 3.91156C74.7723 3.91156 75.514 3.76112 75.514 3.00889C75.514 2.55756 75.9593 2.40711 76.2564 2.40711C76.5528 2.40711 77.1463 2.55756 77.1463 3.15934C77.1463 4.96468 75.6622 5.26557 73.5853 5.26557C71.953 5.26557 70.3206 5.26557 70.3206 3.61067C70.3206 2.70801 70.3206 1.65489 70.3206 0.902669C70.6171 0.300889 70.9142 0 71.3595 0C71.8041 0 72.1012 0.30089 72.1012 0.752226C72.1012 1.05311 72.1012 1.354 72.1012 1.80533C73.14 1.50445 74.1788 1.05311 75.0687 0.752226C75.2176 0.752226 75.3658 0.601779 75.3658 0.601779C75.8111 0.601779 76.2564 1.05311 76.2564 1.354C76.2564 1.65489 76.1075 1.95578 75.6622 2.10623C74.6241 2.40711 73.14 2.85845 72.1012 3.15934ZM73.5853 11.4338H73.2882C74.327 11.8852 75.2176 12.0356 76.4046 12.0356C76.9981 12.0356 77.2945 12.4869 77.2945 12.7878C77.2945 13.2391 76.9981 13.5401 76.4046 13.5401C75.8111 13.5401 74.0299 13.2391 72.3976 12.4869C72.1012 12.3365 71.953 12.0356 71.953 11.8852C71.953 11.7347 72.1012 11.4338 72.2494 11.2833H69.8754C70.0236 11.4338 70.0236 11.5842 70.0236 11.8852C70.0236 12.186 69.8754 12.3365 69.5783 12.4869C68.3912 13.0887 66.6107 13.6905 65.5719 13.6905C64.9784 13.6905 64.6813 13.2391 64.6813 12.9382C64.6813 12.6374 64.9784 12.186 65.5719 12.186C66.7589 12.0356 67.6495 11.8852 68.6883 11.4338H68.5395C67.5006 11.4338 67.056 10.9825 67.056 10.3807C67.056 9.77891 67.056 9.1771 67.056 8.57536C67.056 7.97354 67.056 7.3718 67.056 6.77002C67.056 6.31868 67.5006 5.7169 68.5395 5.7169C69.5783 5.7169 70.4688 5.7169 71.5077 5.7169C72.2494 5.7169 72.9918 5.7169 73.8817 5.7169C74.9205 5.7169 75.3658 6.31868 75.514 6.77002C75.514 7.3718 75.514 7.97354 75.514 8.57536C75.514 9.1771 75.514 9.77891 75.514 10.3807C75.0687 10.9825 74.4752 11.4338 73.5853 11.4338ZM51.1779 5.7169V4.66379C49.9907 4.66379 49.694 4.66379 49.694 5.11512V5.7169H51.1779ZM52.6618 5.7169H54.2941C54.2941 5.56646 54.2941 5.26557 54.2941 5.11512C54.2941 4.96468 54.1457 4.66379 53.8489 4.66379C53.4038 4.66379 53.107 4.66379 52.8102 4.66379V5.7169H52.6618ZM51.1779 7.67267V6.77002H49.694V7.67267H51.1779ZM54.2941 7.67267V6.77002H52.6618V7.67267H54.2941ZM46.4293 3.91156C46.1325 3.91156 45.9842 3.76112 45.8358 3.61067C45.3906 3.00889 44.797 2.55756 44.3519 2.25667C44.0551 2.10623 44.0551 1.95578 44.0551 1.65489C44.0551 1.20355 44.5002 0.902669 44.9454 0.902669C45.3906 0.902669 47.3197 1.95578 47.3197 2.85845C47.3197 3.46023 46.8745 3.91156 46.4293 3.91156ZM46.4293 11.7347C45.0938 13.2391 44.6486 13.5401 44.2035 13.5401C43.6099 13.5401 43.1647 13.0887 43.1647 12.6374C43.1647 12.3365 43.3131 12.186 43.6099 12.0356C44.3519 11.5842 45.0938 11.1329 45.539 10.5311C45.539 9.92939 45.539 9.32757 45.539 8.87623V8.12401C45.539 7.82314 45.3906 7.82314 44.9454 7.82314H44.3519C44.0551 7.82314 43.4615 7.82314 43.4615 7.07092C43.4615 6.61957 43.7583 6.31868 44.2035 6.31868C44.797 6.31868 45.2422 6.31868 45.6874 6.31868C46.7261 6.31868 47.1713 6.77002 47.1713 7.82314C47.1713 8.72583 47.1713 9.77891 47.1713 10.6816C48.0617 11.8852 49.694 12.186 51.623 12.186C53.107 12.186 54.7392 12.0356 55.9264 11.8852H56.0748C56.6687 11.8852 56.9651 12.3365 56.9651 12.7878C56.9651 13.2391 56.6687 13.5401 56.0748 13.6905C54.8877 13.5401 53.5522 13.5401 52.2166 13.5401C48.5068 13.5401 47.6165 12.9382 46.4293 11.7347ZM54.2941 9.1771V8.87623H52.6618V10.832C52.6618 11.2833 52.365 11.4338 51.9199 11.4338C51.623 11.4338 51.1779 11.1329 51.1779 10.832V8.87623H49.694C49.694 9.47804 49.694 10.0798 49.694 10.832C49.694 11.2833 49.3972 11.5842 48.952 11.5842C48.6552 11.5842 48.2101 11.2833 48.2101 10.832C48.2101 9.92939 48.2101 9.0267 48.2101 8.27448C48.2101 7.22133 48.2101 6.01779 48.2101 4.96468C48.2101 4.06201 48.6552 3.61067 49.694 3.61067H50.7327C49.9907 3.15934 49.9907 3.15934 49.9907 3.00889C49.9907 2.70801 50.2875 2.40711 50.7327 2.40711C51.0295 2.40711 51.623 2.70801 51.7714 2.85845C52.0682 2.70801 52.9586 2.25667 52.9586 2.10623C52.9586 2.10623 52.9586 1.95578 52.8102 1.95578C51.7715 1.95578 49.8424 1.95578 48.6552 2.10623C48.2101 2.10623 48.0617 1.80533 48.0617 1.50445C48.0617 1.20355 48.2101 0.752226 48.6552 0.752226C49.694 0.752226 50.8811 0.752226 51.9199 0.752226C52.5134 0.752226 53.107 0.752226 53.7005 0.752226C54.5909 0.752226 55.0361 1.20355 55.0361 1.65489C55.0361 2.40711 53.8489 3.00889 52.8102 3.61067C53.2553 3.61067 53.5522 3.61067 53.9973 3.61067C55.0361 3.61067 55.4812 4.06201 55.4812 5.11512C55.4812 5.56646 55.4812 5.86735 55.4812 6.31868C55.4812 7.67267 55.4812 9.32757 55.4812 9.77891V9.92939C55.4812 10.832 55.0361 11.5842 53.8489 11.5842C52.9586 11.5842 52.6618 11.2833 52.6618 10.832C52.6618 10.5311 52.8102 10.0798 53.2553 10.0798H53.5522C54.1457 9.77891 54.2941 9.62844 54.2941 9.1771ZM33.3709 3.00889V2.55756C33.3709 2.10623 33.2224 2.10623 31.887 2.10623C30.6998 2.10623 30.6998 2.10623 30.5514 2.55756C30.5514 2.70801 30.5514 2.85845 30.5514 3.00889H33.3709ZM33.3709 5.11512V4.21245H30.5514V5.11512H33.3709ZM33.3709 6.46913H30.5514V6.92045C30.5514 7.52227 30.9966 7.52227 31.7386 7.52227C33.0741 7.52227 33.2224 7.52227 33.2224 6.92045C33.3709 6.77002 33.3709 6.61957 33.3709 6.46913ZM29.8095 10.9825C29.6611 10.9825 29.3643 10.832 29.2159 10.6816C28.9191 10.2303 28.4739 9.92939 28.1772 9.62844C27.8804 9.47804 27.8804 9.32757 27.8804 9.1771C27.8804 8.87623 28.3256 8.42488 28.7707 8.42488C29.2159 8.42488 30.6998 9.32757 30.6998 10.0798C30.6998 10.5311 30.2547 10.9825 29.8095 10.9825ZM34.7064 12.7878C34.4096 12.7878 34.2613 12.6374 34.1128 12.3365C33.816 11.7347 33.2224 11.1329 32.7773 10.832C32.4805 10.6816 32.4805 10.3807 32.4805 10.2303C32.4805 9.77891 32.7773 9.47804 33.2224 9.47804C34.1128 9.47804 35.3 11.1329 35.4483 11.2833C35.5967 11.4338 35.5967 11.5842 35.5967 11.7347C35.5967 12.4869 35.1516 12.7878 34.7064 12.7878ZM23.4286 13.2391C22.9834 13.2391 22.5383 12.7878 22.5383 12.3365C22.5383 12.0356 22.6867 11.7347 22.9834 11.5842C23.2802 11.4338 24.0222 10.6816 24.1706 10.3807C24.319 10.0798 24.6157 9.92939 24.9126 9.92939C25.3577 9.92939 25.8029 10.2303 25.8029 10.6816C25.8029 11.4338 24.319 13.2391 23.4286 13.2391ZM30.8482 11.4338C30.8482 10.9825 31.145 10.832 31.5901 10.832C32.0354 10.832 32.4805 11.1329 32.4805 11.4338C32.4805 12.9382 32.0354 13.3896 28.9191 13.3896C26.5449 13.3896 25.9513 12.9382 25.9513 11.5842C25.9513 11.5842 25.9513 10.0798 25.9513 9.92939C25.9513 9.47804 26.3965 9.1771 26.8416 9.1771C27.2868 9.1771 27.732 9.47804 27.732 9.92939C27.732 10.2303 27.732 11.4338 27.732 11.4338C27.732 11.8852 28.1772 12.0356 29.2159 12.0356C30.5514 12.186 30.8482 12.0356 30.8482 11.4338ZM25.3577 8.12401V5.26557C23.8738 7.52227 23.2802 7.52227 23.1318 7.52227C22.6867 7.52227 22.3899 7.07092 22.3899 6.77002C22.3899 6.61957 22.5383 6.31868 22.6867 6.16824C23.4286 5.56646 24.4674 4.51334 25.3577 3.46023H23.7254C23.2802 3.46023 22.9834 3.15934 22.9834 2.70801C22.9834 2.40711 23.2802 1.95578 23.7254 1.95578H25.3577V0.752226C25.3577 0.150445 25.8029 0 26.0997 0C26.5449 0 26.8416 0.30089 26.8416 0.752226C26.8416 0.752226 26.8416 1.20355 26.8416 1.95578H28.1772C28.6223 1.95578 28.7707 2.25667 28.7707 2.70801C28.7707 3.00889 28.4739 3.46023 28.1772 3.46023H26.8416C26.8416 3.61067 26.8416 3.91157 26.8416 4.06201H26.99C27.2868 4.06201 28.7707 4.66379 28.7707 5.41601C28.7707 5.86735 28.4739 6.16824 28.0288 6.16824C27.8804 6.16824 27.732 6.01779 27.5836 5.86735C27.2868 5.56646 26.99 5.26557 26.8416 5.11512C26.8416 7.52227 26.99 7.97354 26.99 7.97354C26.99 8.42489 26.5449 8.57536 26.248 8.57536C25.6545 8.72583 25.3577 8.57536 25.3577 8.12401ZM34.7064 7.22133C34.7064 7.97354 34.1128 8.57536 33.2224 8.72583C32.7773 8.72583 32.4805 8.72583 32.0354 8.72583C31.5902 8.72583 30.9966 8.72583 30.5514 8.72583C29.5127 8.72583 29.0675 8.12401 29.0675 7.3718C29.0675 6.61957 29.0675 5.86735 29.0675 4.96468C29.0675 4.06201 29.0675 3.15934 29.0675 2.40711C29.0675 1.80533 29.5127 1.05311 30.5514 1.05311C30.9966 1.05311 31.4418 1.05311 31.887 1.05311C32.3321 1.05311 32.7773 1.05311 33.2224 1.05311C34.1128 1.05311 34.7064 1.65489 34.7064 2.40711C34.7064 3.15934 34.7064 4.06201 34.7064 4.96468C34.7064 5.56646 34.7064 6.46913 34.7064 7.22133ZM11.7057 5.7169H10.0733C10.2218 6.77002 10.5186 7.82314 11.1121 8.72583C11.8541 7.52227 12.0025 6.16824 12.0025 6.01779C12.0025 5.86735 12.0025 5.7169 11.7057 5.7169ZM3.39575 6.31868C2.65377 7.22133 2.20861 7.3718 1.91185 7.3718C1.46662 7.3718 1.16987 7.07093 1.16987 6.61957C1.16987 6.46913 1.31828 6.16824 1.46662 6.01779C2.95059 4.66379 4.13767 3.00889 5.02806 0.902669C5.02806 0.451335 5.32482 0.300889 5.62164 0.300889C6.0668 0.300889 6.51197 0.601779 6.51197 1.20355C6.51197 1.65489 5.47323 3.46023 5.02806 4.06201V12.9382C5.02806 13.5401 4.5829 13.6905 4.13767 13.6905C3.69251 13.6905 3.24734 13.5401 3.24734 12.9382L3.39575 6.31868ZM13.4864 2.70801C12.4476 2.70801 11.2605 2.70801 10.0733 2.70801C9.62818 2.70801 9.18301 2.70801 8.73785 2.70801C8.44103 2.70801 8.29269 2.85845 8.29269 3.15934V4.51334C9.47983 4.51334 11.5573 4.51334 12.2992 4.51334C13.0412 4.51334 13.6348 4.96468 13.6348 5.7169C13.6348 6.46913 13.0412 8.42488 11.8541 10.2303C12.596 10.9825 13.338 11.4338 14.2284 11.8852C14.6735 12.0356 14.8219 12.3365 14.8219 12.6374C14.9703 12.9382 14.5251 13.5401 13.9315 13.5401C12.8928 13.5401 11.2605 11.7347 10.9637 11.4338C9.47983 12.9382 7.99587 13.5401 7.69911 13.5401C7.25395 13.5401 6.95713 13.0887 6.95713 12.6374C6.95713 12.3365 7.10554 12.0356 7.40229 11.8852C8.44103 11.4338 9.33142 10.832 10.0733 9.92939C9.18301 8.87623 8.58944 7.3718 8.58944 5.7169H8.29269C8.29269 8.27448 7.99587 11.1329 6.51197 12.9382C6.36356 13.2391 6.0668 13.2391 5.91839 13.2391C5.47323 13.2391 5.02806 12.9382 5.02806 12.4869C5.02806 12.3365 5.02807 12.186 5.17648 12.0356C6.51197 10.2303 6.80879 8.12401 6.80879 6.01779C6.80879 4.81423 6.66038 3.61067 6.66038 2.55756C6.66038 1.65489 7.25395 1.05311 8.29269 1.05311C9.0346 1.05311 9.925 1.05311 10.6669 1.05311C11.7057 1.05311 12.596 1.05311 13.4864 1.05311C14.0799 1.05311 14.2284 1.50445 14.2284 1.80533C14.3767 2.25667 14.0799 2.70801 13.4864 2.70801Z" fill="#1D323E"/>
</svg>
