<svg width="160" height="28" viewBox="0 0 160 28" fill="none" xmlns="http://www.w3.org/2000/svg">
<path d="M153.041 10.0661L154.587 14.8827H151.281L153.147 10.0661H153.041ZM145.975 20.1593H149.734L150.614 17.6969H155.36L156.24 20.1593H160L154.801 6.14243H151.147L145.975 20.1593ZM141.548 20.1593H145.308V6.14243H141.548V20.1593ZM129.389 15.3427C129.389 18.6981 132.029 20.1593 135.122 20.1593C138.002 20.1593 140.855 19.0499 140.855 15.6674C140.855 13.205 138.855 12.312 136.989 11.7438C134.882 11.1755 133.016 11.1755 133.016 10.0661C133.016 9.17312 134.109 8.95662 134.669 8.95662C135.762 8.95662 136.882 9.28132 136.882 10.5261H140.188C140.188 7.49542 137.549 6.03423 134.882 6.03423C132.349 6.03423 129.363 7.14362 129.363 10.2825C129.363 12.745 131.576 13.6379 133.336 14.098C135.335 14.6662 137.202 14.8827 137.202 16.1274C137.202 17.2369 136.109 17.4804 134.989 17.4804C133.549 17.4804 132.562 16.9122 132.562 15.2345H129.256L129.389 15.3427ZM123.096 10.0661L124.643 14.8827H121.337L123.203 10.0661H123.096ZM116.164 20.1593H119.817L120.697 17.6969H125.55L126.43 20.1593H130.189L124.99 6.14243H121.23L116.164 20.1593ZM104.005 20.1593H105.445V8.28012L113.497 20.1593H115.044V6.14243H113.711V17.9134L105.551 6.27773H104.005V20.1593ZM101.125 20.1593H102.458V6.14243H101.125V20.1593ZM91.072 20.1593V14.558H95.819V20.1593H99.365V6.14243H95.819V11.1755H91.072V6.27773H87.4194V20.1593H91.072ZM86.3262 11.2026C86.3262 8.06373 83.3398 6.16953 80.4867 6.16953C76.5137 6.16953 73.8739 9.30843 73.8739 13.2321C73.8739 17.0475 76.5137 20.1864 80.4867 20.1864C83.7931 20.1864 86.3262 18.1569 86.5662 14.585H83.2598C83.0465 16.2627 82.1666 17.1557 80.4867 17.1557C78.2735 17.1557 77.3936 15.1262 77.3936 13.2321C77.3936 11.2026 78.2735 9.20022 80.4867 9.20022C81.9266 9.20022 83.0198 9.87663 83.1265 11.2296H86.4329H86.3262V11.2026ZM62.3815 20.1593H73.6339V17.0204H65.9012V14.3415H72.754V11.5273H66.1412V8.95662H73.4206V6.27773H62.3815V20.1593ZM49.6626 6.14243V9.28132H53.7423V20.1593H57.3953V9.28132H61.4749V6.14243H49.6626Z" fill="#1D323E"/>
<path d="M27.9042 11.4192C28.2242 11.6357 28.5709 11.4192 28.4642 10.9592L26.7043 7.82023H26.0377L14.9987 27.655C14.5454 28.115 13.9054 28.115 13.6654 27.655L9.90571 21.2689L9.69241 20.3759V14.7746C9.69241 14.2063 9.47911 13.8816 9.13251 13.6651L0.306513 5.81783C-0.253397 5.49313 -0.0134174 4.70843 0.759813 4.70843H16.5452L20.4115 6.95433C20.6249 7.17083 20.6249 7.41433 20.4115 7.52263L18.865 10.445C18.865 10.6615 18.6517 10.7698 18.545 10.6615L15.4519 8.98383L14.7853 8.76732H10.679C10.359 8.76732 10.2257 9.22742 10.4657 9.44382L13.2388 11.6898C13.5588 12.0145 13.6921 12.4745 13.6921 12.7992V20.1865C13.6921 20.6465 14.252 20.7548 14.4654 20.403L25.9577 0.243525C26.1711 -0.081175 27.051 -0.081175 27.051 0.243525L38.8633 20.9712C39.4233 21.6477 38.65 22.3242 37.9834 22.0807L24.2779 13.9087C24.0646 13.9087 23.9579 13.584 24.0646 13.4487L25.7178 10.6345C25.7178 10.418 26.0377 10.418 26.2777 10.418L27.9309 11.5274V11.4192H27.9042Z" fill="#1D323E"/>
</svg>
