<svg width="274" height="31" viewBox="0 0 274 31" fill="none" xmlns="http://www.w3.org/2000/svg">
<path d="M0 15.4683C0 10.8755 0.0238037 6.2826 0 1.68983C0 0.821284 0.158234 0.5 1.11929 0.5C10.1534 0.539667 19.1887 0.539667 28.2254 0.5C29.23 0.5 29.4356 0.821285 29.4317 1.75337C29.4002 10.9389 29.4002 20.1246 29.4317 29.3102C29.4317 30.1868 29.2498 30.5 28.3006 30.5C19.2165 30.4603 10.131 30.4603 1.04428 30.5C0.166113 30.5 4.4936e-07 30.1907 0.0039392 29.3934C0.0157554 24.7531 0 20.1087 0 15.4683ZM17.6685 22.7224H22.3319C21.5686 22.4447 21.3153 21.9292 21.3192 21.1359C21.3509 17.3311 21.3509 13.5288 21.3192 9.72933C21.3192 9.04709 21.4934 8.7416 22.233 8.78934C23.2337 8.84876 24.2106 8.95591 25.0374 9.58251C25.864 10.2091 25.9314 11.2205 26.2477 12.2556C26.5919 11.4386 26.3545 10.7406 26.4573 10.0743C26.6749 8.66227 26.2636 8.16652 24.6893 8.19039C17.9256 8.30149 11.158 8.23796 4.39444 8.23796H2.92306C4.25984 8.41242 4.37064 9.27307 4.35882 10.3281C4.32714 13.7827 4.35882 17.2411 4.35882 20.6958C4.35882 21.6198 4.39444 22.528 3.06537 22.6788C6.7082 22.7778 10.2601 22.766 13.8081 22.7899C14.4528 22.7899 14.6862 22.5677 14.6624 21.9332C14.6268 21.0725 14.6624 20.2079 14.6624 19.3433C14.1483 20.2752 13.6183 21.009 12.7561 21.485C11.0552 22.4171 9.21993 22.2781 7.40039 22.1155C6.74382 22.064 6.55802 21.5604 6.56589 20.9257C6.58559 19.4463 6.56589 17.963 6.56589 16.4837C6.56589 16.1664 6.43146 15.6904 6.91798 15.6428C8.14413 15.5714 9.40179 15.3651 10.5844 15.7857C11.5101 16.1109 11.2174 17.1261 11.4823 17.8282C11.5022 17.8758 11.6445 17.8758 11.7435 17.8995V12.1566C10.7982 14.8257 9.99124 15.2343 7.25415 14.8457C6.64501 14.7583 6.54603 14.4768 6.55408 13.973C6.55408 12.6405 6.55408 11.3078 6.55408 9.97523C6.55408 9.48343 6.68457 9.02322 7.20277 8.95591C9.12112 8.70194 11.0473 8.64647 12.9102 9.28904C14.2511 9.75303 13.8279 11.1927 14.441 12.3152C14.7494 10.3084 15.592 9.02323 17.6052 8.82901C18.6495 8.72976 19.0885 8.90834 19.0608 10.114C18.9738 13.5684 19.0173 17.027 19.0372 20.4854C19.0687 21.5325 19.1952 22.6312 17.6685 22.7224Z" fill="#1D323E"/>
<path d="M205.536 10.649C205.536 8.79295 205.56 7.04383 205.536 5.29471C205.536 4.50155 206.031 4.6008 206.517 4.6008C212.144 4.6008 217.773 4.62845 223.402 4.6008C224.11 4.6008 224.336 4.80291 224.315 5.51692C224.264 7.10342 224.367 8.68975 224.264 10.2526C224.206 11.1568 224.533 11.3194 225.32 11.3115C228.56 11.2719 231.799 11.3115 235.035 11.248C235.881 11.248 236.222 11.5018 236.471 12.303C237.34 15.2736 238.279 18.2285 239.204 21.219C239.913 21.0088 239.801 20.402 239.928 19.9974C240.719 17.459 241.473 14.9101 242.19 12.3506C242.404 11.5811 242.704 11.2401 243.591 11.2441C249.391 11.2837 255.193 11.2837 260.993 11.2441C261.851 11.2441 262.101 11.5097 262.074 12.3348C262.023 13.9211 262.074 15.5076 261.923 17.0941C261.425 16.5428 261.446 15.9043 261.319 15.2817C260.815 12.8027 259.815 11.8667 257.303 11.8112C253.902 11.7359 254.57 11.3789 254.358 14.5359C254.277 15.0737 254.277 15.6203 254.358 16.1581C254.507 16.7768 253.736 17.7207 254.887 17.9945C256.038 18.2682 257.438 17.5978 257.81 16.5666C257.926 16.1413 258.017 15.7096 258.082 15.2736C258.166 14.9168 257.925 14.4804 258.498 14.0838V22.8094C257.925 22.2977 258.139 21.7305 258.07 21.2547C257.961 20.4614 257.837 19.6682 257.228 19.0971C256.887 18.8033 256.476 18.6041 256.034 18.5192C255.594 18.4342 255.138 18.4667 254.712 18.6132C253.887 18.8433 254.373 19.7118 254.352 20.279C254.306 21.56 254.452 22.845 254.409 24.1262C254.373 25.1891 254.839 25.5341 255.817 25.4508C256.212 25.4151 256.608 25.4508 257.003 25.4508C260.298 25.3993 261.226 24.6298 262.014 21.4132C262.137 20.9056 262.05 20.3187 262.778 19.5293C262.778 21.8377 262.797 23.793 262.778 25.7482C262.778 26.1449 262.331 26.0419 262.062 26.0419C257.765 26.0419 253.472 26.0419 249.179 26.0419C249.068 26.0419 248.953 25.9029 248.859 25.8396C248.866 25.7329 248.912 25.6325 248.989 25.5588C249.066 25.4851 249.167 25.4438 249.275 25.4429C251.549 25.1573 251.561 25.1534 251.564 22.841C251.564 19.6325 251.529 16.4238 251.564 13.2113C251.564 12.1919 251.169 11.7319 250.191 11.7795C249.348 11.8231 248.514 11.6843 247.665 11.708C245.935 11.7477 245.639 12.5014 245.687 13.9886C245.769 17.1616 245.797 20.3108 245.687 23.4678C245.627 25.0105 246.141 25.6491 247.645 25.5777C247.841 25.5777 248.146 25.4826 248.273 25.9229H240.402C240.442 25.8078 240.462 25.661 240.502 25.657C243.005 25.3121 243.005 25.3121 243.005 22.8094V12.4974L242.728 12.4418C241.735 15.8171 240.75 19.1843 239.747 22.5675C239.496 23.4161 239.33 24.2927 239.073 25.1374C238.971 25.4707 239.046 25.9783 238.479 26.0338C237.815 26.1013 237.823 25.5262 237.688 25.1494C236.503 21.2983 235.316 17.4391 234.13 13.5801C234.006 13.1834 234.015 12.7155 233.623 12.4497C233.623 15.6464 233.559 18.8312 233.623 22.0121C233.695 24.7885 233.852 24.9114 236.392 25.9229H230.573C233.587 25.6809 233.124 23.436 233.088 21.4609C233.046 18.9423 232.991 16.4238 232.883 13.9251C232.807 12.1919 231.569 11.3273 229.845 11.708C227.256 12.2831 227.244 12.2831 227.235 15.0119C227.226 17.7407 227.31 20.5646 227.214 23.3052C227.16 24.8321 227.555 25.6849 229.228 25.5063C229.379 25.4704 229.537 25.4881 229.675 25.5561C229.814 25.6241 229.924 25.7383 229.989 25.8792H221.733C221.859 25.7403 221.938 25.5698 222.041 25.554C224.336 25.1891 224.379 25.1931 224.414 22.861C224.469 19.8506 224.387 16.8364 224.466 13.826C224.505 12.303 223.932 11.6366 222.413 11.7755C222.18 11.7705 221.949 11.7333 221.726 11.6644C221.863 11.0972 222.291 11.1965 222.579 11.2677C224.161 11.593 224.098 10.6729 223.916 9.59814C223.327 6.0841 221.216 4.66811 217.52 5.27102C216.982 5.3622 216.9 5.6002 216.9 6.04048C216.9 12.065 216.9 18.0896 216.873 24.1141C216.873 25.0344 217.474 25.1692 218.102 25.2645C219.126 25.423 220.162 25.5023 221.159 25.9229H207.968C209.13 25.2485 210.069 25.4786 210.935 25.4508C212.177 25.4111 212.715 24.8757 212.715 23.6344C212.699 17.8597 212.708 12.0836 212.742 6.30613C212.742 5.42573 212.425 5.27496 211.631 5.26707C208.221 5.23135 206.908 6.2268 206.094 9.5109C206.007 9.85983 206.122 10.3199 205.536 10.649Z" fill="#1D323E"/>
<path d="M53.6588 11.2923H59.6234C59.4296 11.6294 59.3939 11.7523 59.3465 11.7602C56.736 12.0894 56.9298 11.6967 56.8942 14.6278C56.8546 18.0783 56.8625 18.0783 60.2641 18.0783C63.4798 18.0783 63.4798 18.0783 63.4483 14.8658C63.4205 12.2323 63.4205 12.2323 60.8258 11.6452C60.9643 11.1652 61.3678 11.3239 61.6762 11.3239C68.4003 11.3239 75.1601 11.3239 81.8999 11.2684C83.0865 11.2684 83.4109 11.6134 83.3357 12.7478C83.2408 14.1995 83.3119 15.6629 83.3119 17.2969C82.5605 16.714 82.7384 16.0714 82.6236 15.5281C82.0897 12.9104 81.093 11.9586 78.4232 11.8475C74.6497 11.7048 75.3736 11.5501 75.2589 14.7943C75.1953 15.2336 75.1953 15.6797 75.2589 16.1191C75.4289 16.7615 74.6379 17.7887 75.8562 18.0188C77.3315 18.2926 78.6248 17.5985 78.9532 16.4086C79.1509 15.6946 79.2024 14.9411 79.5978 14.2392V22.6831C78.9532 22.6831 79.2024 22.1397 79.1707 21.8224C79.1668 21.0797 78.9993 20.347 78.6803 19.6766C77.9881 18.4868 76.7738 18.4234 75.6781 18.6454C74.7962 18.824 75.2827 19.7877 75.2827 20.3867C75.2154 21.7152 75.3063 23.0519 75.2827 24.3805C75.2827 25.1182 75.5476 25.4831 76.315 25.4633C77.2524 25.4633 78.1898 25.5109 79.1233 25.4633C81.3936 25.3246 82.3469 24.5512 83.0391 22.3339C83.2843 21.5408 83.4662 20.7476 83.6837 19.9225C84.3719 20.1962 84.0793 20.7158 84.0793 21.0886C84.1228 22.4214 84.0793 23.7539 84.1188 25.0866C84.1426 25.7886 84.0476 26.1535 83.1853 26.1415C78.6486 26.082 74.088 26.082 69.5712 26.0741C67.1147 26.0741 64.6585 26.0978 62.1983 26.102C61.7315 26.102 61.2332 26.2407 60.7665 25.9433C60.8693 25.8164 60.9128 25.6934 60.98 25.6775C63.377 25.1223 63.4127 25.1263 63.4007 22.6751C63.4007 21.4614 63.9822 19.8552 63.1714 19.1493C62.4871 18.5543 60.9208 18.947 59.746 18.943C56.8546 18.943 56.8507 18.943 56.8784 21.8542C56.8784 22.8378 56.7517 23.8689 56.997 24.801C57.3174 26.0384 58.8204 25.0667 59.663 25.9909H51.2736C51.1984 25.6696 51.424 25.6417 51.594 25.6181C53.9475 25.2768 53.9672 25.2808 53.9672 22.9408C53.9672 19.9306 53.8802 16.9162 54.0186 13.91C54.0938 12.3235 53.4807 11.7841 52.041 11.8475C51.7918 11.8475 51.4318 11.9943 51.2815 11.4985C52.0093 11.1494 52.8162 11.4985 53.5401 11.2724L53.5954 11.3675L53.6588 11.2923ZM72.2844 18.6454C72.2844 16.8211 72.2567 14.9927 72.2844 13.1682C72.2844 12.3989 72.0591 11.9546 71.2521 11.8713C69.9359 11.7341 68.6079 11.7554 67.2968 11.9347C66.6798 12.018 66.3475 12.2838 66.3515 12.9858C66.3779 16.7854 66.3779 20.5836 66.3515 24.3805C66.3515 25.1182 66.6282 25.3998 67.368 25.503C68.5902 25.6775 69.7847 25.503 70.9949 25.4752C71.9404 25.4515 72.3002 25.0785 72.2766 24.1188C72.2527 22.2943 72.2844 20.4699 72.2844 18.6454Z" fill="#1D323E"/>
<path d="M89.6596 5.02133C89.9403 4.34717 90.4506 4.60492 90.8462 4.60492C96.7792 4.60492 102.712 4.60492 108.618 4.57315C109.551 4.57315 109.915 4.77149 109.875 5.7908C109.788 7.90877 109.875 10.0346 109.84 12.1605C109.84 12.4698 109.998 12.9537 109.496 12.9815C108.993 13.0091 109.1 12.5015 109.057 12.1882C108.918 11.395 108.827 10.6255 108.633 9.86396C107.842 6.71894 106.501 5.58062 103.27 5.32682C102.044 5.23152 100.802 5.32682 99.5716 5.25144C98.5432 5.19975 98.1478 5.6876 98.1437 6.65541C98.1437 8.97566 98.1082 11.2957 98.0488 13.616C98.0488 14.2864 98.31 14.4093 98.915 14.449C102.135 14.6393 103.408 13.5763 103.847 10.3518C103.923 9.81639 103.65 9.16197 104.243 8.72581C104.666 9.64192 104.761 19.5097 104.377 21.2034C103.919 21.2628 103.942 20.9178 103.911 20.6362C103.836 19.95 103.8 19.2599 103.697 18.5776C103.238 15.492 101.538 14.9645 98.5552 15.0835C97.9026 15.1113 98.0606 15.5871 98.0647 15.9402C98.0647 18.5579 98.1279 21.1755 98.124 23.7932C98.124 24.7768 98.5196 25.1536 99.5084 25.2447C101.278 25.4302 103.065 25.389 104.824 25.1218C106.877 24.7887 108.333 23.7218 109.096 21.7149C109.552 20.4143 109.908 19.0802 110.16 17.725C110.212 17.4989 110.16 17.1697 110.492 17.1578C110.928 17.1578 110.888 17.5188 110.888 17.8002C110.888 20.3188 110.888 22.8374 110.935 25.3361C110.959 26.3831 110.263 26.0975 109.749 26.0975C104.864 26.0975 99.975 26.0698 95.0864 26.0618C93.6069 26.0618 92.1237 26.1014 90.6445 26.0935C90.3042 26.0935 89.7346 26.3394 89.7268 25.6969C89.7268 25.1774 90.2331 25.3718 90.5416 25.3361C93.9234 24.9394 93.8443 25.7326 93.8878 21.7309C93.9392 17.0389 93.9116 12.3468 93.8642 7.65498C93.8443 5.45767 93.69 5.37439 91.4908 5.25144C90.8777 5.22757 90.2172 5.45767 89.6596 5.02133Z" fill="#1D323E"/>
<path d="M53.4447 10.6255C53.4012 10.2845 53.3617 9.94346 53.3142 9.59831C52.8515 6.15966 50.1184 4.37482 46.7761 5.2911C46.2025 5.44977 46.2856 5.82652 46.2856 6.19537C46.2856 12.1684 46.2856 18.1415 46.2461 24.1145C46.2461 25.0505 46.7523 25.3043 47.4998 25.4075C48.5357 25.4985 49.5606 25.6871 50.5612 25.9706H37.7103L37.6866 25.7683C38.6715 25.689 39.6642 25.5978 40.6333 25.5305C41.6024 25.463 42.0494 24.9513 42.0494 23.9994C42.0494 18.0264 42.0494 12.0534 42.0811 6.08427C42.0811 5.38624 41.7685 5.31892 41.1872 5.2911C37.6906 5.10462 36.0452 6.32227 35.353 9.73723C35.266 10.1694 35.2223 10.6097 35.1513 11.0897C34.8982 10.5225 34.6964 5.63213 34.8269 5.06495C34.9574 4.49777 35.3886 4.60887 35.7524 4.60887C41.4271 4.60887 47.103 4.60887 52.7803 4.60887C53.3378 4.60887 53.7295 4.64459 53.6899 5.37439C53.5951 7.09569 53.8126 8.82884 53.5594 10.5304C53.5283 10.5192 53.4966 10.51 53.4646 10.5026L53.4447 10.6255Z" fill="#1D323E"/>
<path d="M162.581 25.923C165.321 24.7729 165.349 24.7729 165.273 21.691C165.231 19.3749 165.167 17.0547 165.095 14.7385C165.025 12.331 164.941 12.2357 162.679 11.3315C164.482 11.3315 166.291 11.2839 168.09 11.3593C168.592 11.379 168.565 12.0415 168.691 12.4459C169.657 15.4365 170.606 18.431 171.666 21.7546C172.666 18.5143 173.644 15.615 174.435 12.6681C174.743 11.514 175.257 11.2046 176.369 11.2799C177.805 11.3751 179.256 11.3038 180.838 11.3038C180.66 11.629 180.633 11.7559 180.585 11.7599C178.109 12.0851 178.109 12.0812 178.109 14.6789C178.109 17.5901 178.18 20.5052 178.078 23.4044C178.023 24.8879 178.386 25.6811 180.004 25.4906C180.15 25.4529 180.304 25.468 180.441 25.5334C180.576 25.5987 180.686 25.7099 180.747 25.8476H172.563C173.022 25.2289 173.695 25.5145 174.245 25.4827C174.949 25.447 175.369 25.2487 175.363 24.4674C175.363 20.5012 175.363 16.535 175.067 12.5094C174.387 14.6868 173.69 16.8723 173.034 19.0378C172.43 21.0644 171.848 23.1031 171.286 25.1378C171.183 25.4987 171.267 25.9666 170.697 26.0142C170.024 26.0697 170.068 25.5066 169.942 25.1218C168.7 21.235 167.46 17.3442 166.224 13.4494C166.114 13.0916 165.939 12.7567 165.708 12.4619C165.686 16.1226 165.587 19.7517 165.895 23.3728C165.998 24.5627 166.602 25.2686 167.81 25.4391C168.114 25.4827 168.522 25.3122 168.734 25.9151L162.581 25.923Z" fill="#1D323E"/>
<path d="M163.545 18.7562C163.583 19.9184 163.352 21.0735 162.872 22.132C162.391 23.1907 161.675 24.1241 160.778 24.8601C160.129 25.4177 159.375 25.838 158.56 26.0956C157.745 26.3534 156.887 26.443 156.038 26.3592C155.188 26.2754 154.363 26.02 153.615 25.6083C152.866 25.1967 152.208 24.6372 151.68 23.9637C149.097 20.7392 149.334 15.7498 152.277 12.8585C154.159 11.0143 156.454 10.3559 158.942 11.3316C161.782 12.4421 163.146 14.7662 163.533 17.713C163.561 18.0602 163.564 18.4086 163.545 18.7562ZM160.41 19.252C160.362 17.0468 160.28 15.2858 159.523 13.6199C158.994 12.454 158.257 11.4982 156.795 11.4901C156.144 11.4565 155.502 11.6431 154.971 12.0202C154.44 12.3971 154.051 12.9427 153.867 13.5684C152.654 16.9401 152.747 20.6458 154.128 23.9519C154.603 25.0981 155.505 25.8715 156.897 25.8119C158.29 25.7525 159.151 24.9712 159.697 23.7535C160.394 22.1791 160.362 20.4974 160.41 19.252Z" fill="#1D323E"/>
<path d="M137.915 18.5737C137.69 22.885 135.119 25.9984 131.773 26.3197C127.378 26.744 123.779 22.8374 124.258 18.1533C124.39 16.1099 125.275 14.1885 126.742 12.7632C128.565 11.038 130.768 10.4232 133.161 11.2839C135.799 12.2318 137.207 14.314 137.773 16.9952C137.857 17.5174 137.904 18.0449 137.915 18.5737ZM127.406 18.3001C127.314 20.1274 127.619 21.9529 128.3 23.6505C128.842 24.8879 129.649 25.8437 131.164 25.8119C132.678 25.7803 133.667 24.884 134.098 23.5234C135.15 20.257 135.045 16.7268 133.802 13.5288C133.351 12.3389 132.489 11.4386 131.033 11.4901C129.577 11.5418 128.687 12.3904 128.157 13.6596C127.593 15.1385 127.337 16.7179 127.406 18.3001Z" fill="#1D323E"/>
<path d="M139.683 14.4371C139.683 17.4712 139.62 20.4935 139.719 23.5157C139.754 24.6817 140.64 25.3043 141.811 25.4273C142.131 25.459 142.499 25.3639 142.831 25.9033H136.337C136.332 25.8399 136.332 25.7762 136.337 25.7128C139.086 25.1973 139.105 23.1785 139.022 21.005C138.931 19.0854 138.967 17.1579 138.943 15.2343C138.912 12.3192 138.793 12.1684 136.083 11.6369C137.666 10.7447 140.774 11.3237 141.827 12.7158L148.373 21.3819C148.373 18.8158 148.408 16.5709 148.373 14.3261C148.333 12.3746 146.981 11.7996 145.323 11.4467H151.565C149.105 12.3034 148.962 12.4263 148.946 15.1946C148.923 18.5975 149.006 22.0006 149.029 25.4036C149.029 25.7089 149.247 26.173 148.792 26.292C148.337 26.4109 148.262 25.9508 148.084 25.6773C145.711 21.9728 142.891 18.6135 140.296 15.0797C140.094 14.8297 139.995 14.4569 139.683 14.4371Z" fill="#1D323E"/>
<path d="M272.738 11.0504C272.738 12.7083 272.738 14.37 272.738 16.028C272.69 16.3238 272.616 16.6145 272.515 16.8965C272.164 15.9168 271.953 15.2346 271.673 14.5802C270.739 12.4188 269.035 11.2805 266.991 11.4312C265.744 11.5185 264.802 12.0261 264.545 13.3588C264.288 14.6913 264.905 15.6909 266.184 16.1349C267.462 16.5792 268.849 16.8211 270.174 17.202C273.034 18.019 274.257 19.7086 273.955 22.358C273.758 24.115 272.955 25.4872 271.258 26.0901C269.561 26.693 267.867 26.5501 266.412 25.2968C265.025 24.1069 265.001 24.1069 264.162 25.741C264.059 25.9433 264.059 26.2328 263.766 26.2924C263.537 26.1099 263.593 25.8482 263.593 25.6102C263.593 23.6984 263.593 21.7869 263.593 19.6886C264.312 20.0853 264.237 20.6683 264.406 21.1125C265.198 23.2265 266.152 25.2334 268.631 25.8482C270.313 26.2646 271.832 25.5348 272.255 24.1466C272.745 22.5325 272.065 21.0928 270.395 20.47C268.881 19.9029 267.283 19.542 265.783 18.9351C263.805 18.142 262.968 16.6585 263.126 14.6319C263.172 13.8118 263.477 13.0273 263.996 12.3916C264.514 11.7559 265.22 11.3016 266.013 11.094C267.595 10.6618 269.138 10.8244 270.301 11.9706C271.364 13.0136 271.799 12.5932 272.227 11.5264C272.294 11.3598 272.346 11.1812 272.4 11.0107L272.738 11.0504Z" fill="#1D323E"/>
<path d="M200.999 19.8191C201.208 23.1269 199.638 25.6017 196.968 26.2364C195.519 26.613 193.983 26.4499 192.646 25.7774C191.307 25.105 190.257 23.9689 189.69 22.5795C188.461 19.4067 188.647 16.2814 190.671 13.4575C192.619 10.7366 195.79 10.233 198.52 12.1684C199.052 12.5651 199.239 12.4262 199.528 11.9661C199.768 11.5695 199.78 11.0143 200.342 10.8357C200.695 12.4658 200.631 16.7612 200.145 17.9749C199.963 17.1103 199.832 16.4638 199.695 15.8212C199.498 14.6545 198.998 13.5602 198.246 12.6484C196.663 10.8793 193.896 11.0857 192.942 13.2432C192.172 14.9296 191.773 16.7626 191.773 18.6175C191.773 20.4722 192.172 22.3053 192.942 23.9915C193.884 26.1332 196.898 26.4347 198.76 24.7847C199.946 23.7496 200.362 22.3575 200.577 20.8622C200.616 20.5132 200.291 19.946 200.999 19.8191Z" fill="#1D323E"/>
<path d="M123.162 10.8833V17.9629C122.414 17.2133 122.568 16.4281 122.414 15.7934C121.706 12.9022 120.369 11.4584 118.3 11.5059C116.414 11.5456 115.211 12.9695 114.788 15.9283C114.452 18.036 114.511 20.1882 114.962 22.2742C115.488 24.5388 116.615 25.685 118.372 25.7525C120.571 25.8318 122.264 24.6856 122.905 22.5795C123.133 21.6648 123.31 20.7378 123.435 19.8032C124.313 21.572 122.952 24.7729 120.994 25.7247C117.221 27.5531 112.953 25.5779 112.012 21.4929C111.252 18.189 111.667 15.1153 114.175 12.5848C115.864 10.8833 119.317 10.2052 121.148 12.0851C121.749 12.7038 122.038 12.4104 122.335 11.8272C122.501 11.4862 122.695 11.157 122.877 10.8199L123.162 10.8833Z" fill="#1D323E"/>
<path d="M181.467 11.411H189.923C189.798 11.6132 189.757 11.7362 189.706 11.7441C187.084 12.0893 187.053 12.0892 187.029 14.7188C187.002 17.5823 187.084 20.4459 187.029 23.3095C186.996 24.8245 187.424 25.6891 189.116 25.4671C189.366 25.4353 189.723 25.3521 189.889 25.8914H181.427C181.535 25.1973 182.124 25.4314 182.463 25.4711C183.813 25.6177 184.172 24.9514 184.169 23.7458C184.169 20.5371 184.22 17.3285 184.205 14.1198C184.205 12.0018 184.148 12.0018 181.962 11.8155C181.775 11.786 181.59 11.7448 181.408 11.6926L181.467 11.411Z" fill="#1D323E"/>
<path d="M53.4447 10.6255L53.4445 10.5306C53.4767 10.5379 53.5084 10.5472 53.5394 10.5584C53.575 10.8043 53.6067 11.0462 53.6423 11.2921L53.5593 11.3516C53.5593 11.3516 53.4999 11.2564 53.5038 11.2564C53.4959 11.0462 53.4685 10.8239 53.4447 10.6255Z" fill="#1D323E"/>
<path d="M17.6685 22.7224C19.1952 22.6233 19.0687 21.5327 19.0608 20.4778C19.0608 17.0193 18.9974 13.5609 19.0846 10.1062C19.1122 8.91642 18.689 8.72203 17.629 8.82128C15.5998 9.0155 14.7573 10.3006 14.4646 12.3075C13.8516 11.1852 14.2749 9.7453 12.934 9.28132C11.071 8.63875 9.14475 8.69438 7.22641 8.94818C6.7082 9.0155 6.57377 9.4757 6.57771 9.9675C6.57771 11.3 6.57771 12.6327 6.57771 13.9653C6.57771 14.4691 6.66864 14.7586 7.27778 14.8379C10.0149 15.2344 10.8376 14.8379 11.7671 12.1488V17.9038C11.6683 17.8799 11.5258 17.8799 11.5061 17.8324C11.241 17.1304 11.5337 16.115 10.6082 15.7898C9.42166 15.3694 8.16777 15.5756 6.94162 15.6471C6.4551 15.6787 6.58953 16.1705 6.58953 16.4878C6.58953 17.9672 6.58953 19.4506 6.58953 20.93C6.58953 21.5566 6.76763 22.0602 7.4242 22.1198C9.24356 22.2665 11.0788 22.4212 12.7797 21.4891C13.6419 21.0133 14.172 20.2993 14.6862 19.3474C14.6862 20.212 14.6585 21.0766 14.6862 21.9373C14.7099 22.572 14.4766 22.7979 13.8319 22.794C10.2721 22.7703 6.73201 22.794 3.08918 22.6831C4.41808 22.5283 4.38246 21.6201 4.38246 20.6999C4.38246 17.2454 4.35489 13.7869 4.38246 10.3324C4.38246 9.27737 4.28365 8.41672 2.9467 8.24225H4.42202C11.1857 8.24225 17.9533 8.30561 24.717 8.19451C26.299 8.17082 26.6946 8.66656 26.485 10.0784C26.3821 10.7449 26.6194 11.4429 26.2754 12.2599C25.9589 11.2246 25.9115 10.2014 25.065 9.58663C24.2185 8.97188 23.2614 8.8728 22.2606 8.79347C21.521 8.7459 21.3431 9.05121 21.347 9.73345C21.3708 13.5331 21.3708 17.3352 21.347 21.1402C21.347 21.9333 21.5962 22.4371 22.3596 22.7267L17.6685 22.7224Z" fill="#061B27"/>
</svg>
